<svg width="20" height="18" viewBox="0 0 20 18" fill="none" xmlns="http://www.w3.org/2000/svg">
<path d="M4.28564 7.14282H12.1428V8.57139H4.28564V7.14282ZM4.28564 10.7143H13.5714V12.1428H4.28564V10.7143Z" fill="white"/>
<path d="M18.5714 0H1.42857C1.04969 0 0.686328 0.15051 0.418419 0.418419C0.15051 0.686328 0 1.04969 0 1.42857V15.7143C0 16.0932 0.15051 16.4565 0.418419 16.7244C0.686328 16.9923 1.04969 17.1429 1.42857 17.1429H18.5714C18.9503 17.1429 19.3137 16.9923 19.5816 16.7244C19.8495 16.4565 20 16.0932 20 15.7143V1.42857C20 1.04969 19.8495 0.686328 19.5816 0.418419C19.3137 0.15051 18.9503 0 18.5714 0ZM18.5714 1.42857V2.85714H1.42857V1.42857H18.5714ZM1.42857 15.7143V4.28571H18.5714V15.7143H1.42857Z" fill="white"/>
</svg>
