<svg width="14" height="19" viewBox="0 0 14 19" fill="none" xmlns="http://www.w3.org/2000/svg">
<path d="M3.75637 4.59873C3.41469 4.8841 3.41469 5.34667 3.75637 5.63204L6.38137 7.82434C6.55243 7.96721 6.776 8.03846 7 8.03846C7.224 8.03846 7.44756 7.96721 7.61862 7.82434C7.96031 7.53898 7.96031 7.0764 7.61862 6.79104L4.99362 4.59873C4.65194 4.31337 4.09806 4.31337 3.75637 4.59873Z" fill="#F6F6F6"/>
<path d="M1.75 1.46154H12.25C12.733 1.46154 13.125 1.13415 13.125 0.730769C13.125 0.327385 12.733 0 12.25 0H1.75C1.267 0 0.875 0.327385 0.875 0.730769C0.875 1.13415 1.267 1.46154 1.75 1.46154Z" fill="#F6F6F6"/>
<path d="M1.75 19H12.25C12.733 19 13.125 18.6726 13.125 18.2692C13.125 17.8658 12.733 17.5385 12.25 17.5385H1.75C1.267 17.5385 0.875 17.8658 0.875 18.2692C0.875 18.6726 1.267 19 1.75 19Z" fill="#F6F6F6"/>
<path d="M7 8.03846C7.483 8.03846 7.875 7.71108 7.875 7.30769V0.730769C7.875 0.327385 7.483 0 7 0C6.517 0 6.125 0.327385 6.125 0.730769V7.30769C6.125 7.71108 6.517 8.03846 7 8.03846Z" fill="#F6F6F6"/>
<path d="M0.875 16.0769H13.125C13.608 16.0769 14 15.7495 14 15.3462C14 14.9428 13.608 14.6154 13.125 14.6154H0.875C0.392 14.6154 0 14.9428 0 15.3462C0 15.7495 0.392 16.0769 0.875 16.0769Z" fill="#F6F6F6"/>
<path d="M12.25 1.46081V1.46154C12.25 1.86492 12.642 2.19231 13.125 2.19231C13.608 2.19231 14 1.86492 14 1.46154C14 0.6555 13.2151 0 12.25 0C11.767 0 11.375 0.327019 11.375 0.730404C11.375 1.13379 11.767 1.46081 12.25 1.46081Z" fill="#F6F6F6"/>
<path d="M13.1254 16.8077C12.6424 16.8077 12.2509 17.1351 12.2509 17.5385H12.25C11.767 17.5385 11.375 17.8658 11.375 18.2692C11.375 18.6726 11.767 19 12.25 19C13.2151 19 14 18.3445 14 17.5385C14 17.1351 13.6084 16.8077 13.1254 16.8077Z" fill="#F6F6F6"/>
<path d="M1.75 19C2.233 19 2.625 18.6733 2.625 18.2696C2.625 17.8658 2.233 17.5392 1.75 17.5392V17.5385C1.75 17.1351 1.358 16.8077 0.875 16.8077C0.392 16.8077 0 17.1351 0 17.5385C0 18.3445 0.784875 19 1.75 19Z" fill="#F6F6F6"/>
<path d="M0.874563 2.19231C1.35756 2.19231 1.74869 1.86492 1.74869 1.46154H1.75C2.233 1.46154 2.625 1.13415 2.625 0.730769C2.625 0.327385 2.233 0 1.75 0C0.784875 0 0 0.6555 0 1.46154C0 1.86492 0.391125 2.19231 0.874563 2.19231Z" fill="#F6F6F6"/>
<path d="M7 8.03846C7.224 8.03846 7.44756 7.96721 7.61862 7.82434L10.2436 5.63204C10.5853 5.34667 10.5853 4.8841 10.2436 4.59873C9.90193 4.31337 9.34806 4.31337 9.00637 4.59873L6.38137 6.79104C6.03969 7.0764 6.03968 7.53898 6.38137 7.82434C6.55243 7.96721 6.776 8.03846 7 8.03846Z" fill="#F6F6F6"/>
<path d="M13.125 18.2692C13.608 18.2692 14 17.9418 14 17.5385V1.46154C14 1.05815 13.608 0.730769 13.125 0.730769C12.642 0.730769 12.25 1.05815 12.25 1.46154V17.5385C12.25 17.9418 12.642 18.2692 13.125 18.2692Z" fill="#F6F6F6"/>
<path d="M0.875 18.2692C1.358 18.2692 1.75 17.9418 1.75 17.5385V1.46154C1.75 1.05815 1.358 0.730769 0.875 0.730769C0.392 0.730769 0 1.05815 0 1.46154V17.5385C0 17.9418 0.392 18.2692 0.875 18.2692Z" fill="#F6F6F6"/>
</svg>
