<svg width="17" height="20" viewBox="0 0 17 20" fill="none" xmlns="http://www.w3.org/2000/svg">
<path d="M8.02264 10.6561C9.47708 10.6561 10.6561 9.47708 10.6561 8.02264C10.6561 6.56821 9.47708 5.38916 8.02264 5.38916C6.56821 5.38916 5.38916 6.56821 5.38916 8.02264C5.38916 9.47708 6.56821 10.6561 8.02264 10.6561Z" stroke="white" stroke-width="2" stroke-linecap="round" stroke-linejoin="round"/>
<path d="M8.02262 1C6.16011 1 4.37388 1.73988 3.05688 3.05688C1.73988 4.37388 1 6.16011 1 8.02262C1 9.68347 1.35289 10.7702 2.31674 11.9729L8.02262 18.5566L13.7285 11.9729C14.6924 10.7702 15.0452 9.68347 15.0452 8.02262C15.0452 6.16011 14.3054 4.37388 12.9884 3.05688C11.6714 1.73988 9.88514 1 8.02262 1V1Z" stroke="white" stroke-width="2" stroke-linecap="round" stroke-linejoin="round"/>
</svg>
