<svg width="17" height="20" viewBox="0 0 17 20" fill="none" xmlns="http://www.w3.org/2000/svg">
<path d="M8.05263 20V16.8127C3.57 16.5826 0 12.8995 0 8.4108C0 3.77158 3.81158 0 8.5 0C13.1884 0 17 3.77158 17 8.4108C17 12.7933 13.9221 17.2023 9.33211 19.3891L8.05263 20ZM8.5 1.77069C4.79579 1.77069 1.78947 4.74546 1.78947 8.4108C1.78947 12.0761 4.79579 15.0509 8.5 15.0509H9.8421V17.0872C13.0989 15.0509 15.2105 11.7043 15.2105 8.4108C15.2105 4.74546 12.2042 1.77069 8.5 1.77069ZM7.60526 11.9522H9.39474V13.7229H7.60526V11.9522ZM9.39474 10.6242H7.60526C7.60526 7.74679 10.2895 7.96813 10.2895 6.19743C10.2895 5.22355 9.48421 4.42674 8.5 4.42674C7.51579 4.42674 6.71053 5.22355 6.71053 6.19743H4.92105C4.92105 4.24081 6.52263 2.65604 8.5 2.65604C10.4774 2.65604 12.0789 4.24081 12.0789 6.19743C12.0789 8.4108 9.39474 8.63214 9.39474 10.6242Z" fill="white"/>
</svg>
