<svg width="19" height="16" viewBox="0 0 19 16" fill="none" xmlns="http://www.w3.org/2000/svg">
<path d="M18.547 0.652C18.6375 0.235379 18.2246 -0.11591 17.8218 0.036123L0.349803 6.63378C0.139523 6.71321 0.00043601 6.91257 1.02322e-06 7.13521C-0.000433964 7.35788 0.137856 7.55778 0.347846 7.63799L5.25606 9.51313V15.4192C5.25606 15.6683 5.429 15.8849 5.67405 15.9425C5.91746 15.9997 6.17127 15.8852 6.28538 15.6612L8.31536 11.6765L13.2693 15.3133C13.5706 15.5345 14.0038 15.3938 14.1134 15.0383C18.7387 0.0373068 18.5388 0.689686 18.547 0.652ZM14.2341 2.5423L5.72273 8.53825L2.06057 7.13919L14.2341 2.5423ZM6.34353 9.42151L13.7625 4.19512C7.37858 10.857 7.712 10.5063 7.68416 10.5434C7.6428 10.5984 7.75611 10.3839 6.34353 13.1567V9.42151ZM13.2982 13.9949L8.93757 10.7938L16.8221 2.56597L13.2982 13.9949Z" fill="#EFF0F2"/>
</svg>
