<svg width="33" height="14" viewBox="0 0 33 14" fill="none" xmlns="http://www.w3.org/2000/svg">
<path d="M17.8125 0H2.1875C0.981328 0 0 0.981328 0 2.1875V11.5625C0 12.7687 0.981328 13.75 2.1875 13.75H17.8125C19.0187 13.75 20 12.7687 20 11.5625V2.1875C20 0.981328 19.0187 0 17.8125 0ZM2.1875 1.25H17.8125C18.3294 1.25 18.75 1.67059 18.75 2.1875V3.4375H1.25V2.1875C1.25 1.67059 1.67059 1.25 2.1875 1.25ZM17.8125 12.5H2.1875C1.67059 12.5 1.25 12.0794 1.25 11.5625V4.6875H18.75V11.5625C18.75 12.0794 18.3294 12.5 17.8125 12.5Z" fill="white"/>
<path d="M4.375 10.625H3.75C3.40484 10.625 3.125 10.3452 3.125 10V9.375C3.125 9.02984 3.40484 8.75 3.75 8.75H4.375C4.72016 8.75 5 9.02984 5 9.375V10C5 10.3452 4.72016 10.625 4.375 10.625Z" fill="white"/>
<path d="M22 7L32 7" stroke="white" stroke-width="1.3" stroke-linecap="round" stroke-linejoin="round"/>
<path d="M27 2L32 7L27 12" stroke="white" stroke-width="1.3" stroke-linecap="round" stroke-linejoin="round"/>
</svg>
