<svg width="27" height="37" viewBox="0 0 27 37" fill="none" xmlns="http://www.w3.org/2000/svg">
<path d="M13.5 0C7.875 0 3.375 4.5481 3.375 10.2332V14.7813C1.4625 14.7813 0 16.2595 0 18.1924V32.9737C0 34.9067 1.4625 36.3848 3.375 36.3848H23.625C25.5375 36.3848 27 34.9067 27 32.9737V18.1924C27 16.2595 25.5375 14.7813 23.625 14.7813V10.2332C23.625 4.5481 19.125 0 13.5 0ZM24.75 18.1924V32.9737C24.75 33.6559 24.3 34.1107 23.625 34.1107H3.375C2.7 34.1107 2.25 33.6559 2.25 32.9737V18.1924C2.25 17.5102 2.7 17.0554 3.375 17.0554H4.5H22.5H23.625C24.3 17.0554 24.75 17.5102 24.75 18.1924ZM5.625 14.7813V10.2332C5.625 5.79883 9.1125 2.27405 13.5 2.27405C17.8875 2.27405 21.375 5.79883 21.375 10.2332V14.7813H5.625Z" fill="white"/>
<path d="M13.501 20.4654C11.5885 20.4654 10.126 21.9435 10.126 23.8765C10.126 25.3546 11.026 26.6053 12.376 27.0601V29.5616C12.376 30.2438 12.826 30.6986 13.501 30.6986C14.176 30.6986 14.626 30.2438 14.626 29.5616V27.0601C15.976 26.6053 16.876 25.3546 16.876 23.8765C16.876 21.9435 15.4135 20.4654 13.501 20.4654ZM13.501 25.0135C12.826 25.0135 12.376 24.5587 12.376 23.8765C12.376 23.1943 12.826 22.7394 13.501 22.7394C14.176 22.7394 14.626 23.1943 14.626 23.8765C14.626 24.5587 14.176 25.0135 13.501 25.0135Z" fill="white"/>
</svg>
