<svg width="33" height="34" viewBox="0 0 33 34" fill="none" xmlns="http://www.w3.org/2000/svg">
<path d="M32.5 17C32.5 26.1269 25.3226 33.5 16.5 33.5C7.67741 33.5 0.5 26.1269 0.5 17C0.5 7.87313 7.67741 0.5 16.5 0.5C25.3226 0.5 32.5 7.87313 32.5 17Z" stroke="white"/>
<path d="M18.3765 13.5765L21.8353 11.3882L18.447 8L16.2588 12.8706L14.9882 9.05882L11.6 11.3176L14.4235 13.5765H8V18.0941H9.12941V26H23.1059V18.0941H24.2353V13.5765H18.3765ZM18.7328 9.48366L20.5057 11.2566L16.8892 13.5499L18.7328 9.48366ZM14.5353 10.3788L15.5364 13.382L13.0337 11.3799L14.5353 10.3788ZM14.9882 24.8706H10.2588V17.7403H14.9882V24.8706ZM14.9882 16.9647H9.12941V14.7059H14.9882V16.9647ZM21.9765 24.8706H17.247V17.7403H21.9765V24.8706ZM23.1059 16.9647H17.247V14.7059H23.1059V16.9647Z" fill="white"/>
<path d="M22 15C24.7614 15 27 12.7614 27 10C27 7.23858 24.7614 5 22 5C19.2386 5 17 7.23858 17 10C17 12.7614 19.2386 15 22 15Z" fill="#FFBE40"/>
</svg>
