<svg width="20" height="20" viewBox="0 0 20 20" fill="none" xmlns="http://www.w3.org/2000/svg">
<path d="M10 20C4.48599 20 0 15.514 0 10C0 4.48597 4.48599 0 10 0C15.514 0 20 4.48597 20 10C20 15.514 15.514 20 10 20ZM10 1.89086C5.52856 1.89086 1.89083 5.52862 1.89083 10C1.89083 14.4715 5.52856 18.1092 10 18.1092C14.4714 18.1092 18.1091 14.4715 18.1091 10C18.1091 5.52862 14.4714 1.89086 10 1.89086Z" fill="#FFFFFF"/>
<path d="M10.0001 16.0187C6.68826 16.0187 4.04466 13.3815 3.98159 10.0149C3.91876 6.66061 6.49789 4.06692 9.98075 3.98164C13.2942 3.89858 16.0189 6.63224 16.0189 10.0001C16.0189 13.3188 13.3189 16.0187 10.0001 16.0187ZM10.1113 6.01017C10.0802 6.01017 10.0487 6.01061 10.0175 6.01133C7.69232 6.06824 5.97011 7.77726 6.01154 9.98673C6.05349 12.2307 7.80556 13.9885 10.0001 13.9885C12.1994 13.9885 13.9886 12.1993 13.9886 10C13.9886 7.79999 12.2492 6.01017 10.1113 6.01017Z" fill="#FFFFFF"/>
<path d="M10.0002 11.6365C10.9039 11.6365 11.6366 10.9038 11.6366 10.0001C11.6366 9.09629 10.9039 8.36365 10.0002 8.36365C9.09641 8.36365 8.36377 9.09629 8.36377 10.0001C8.36377 10.9038 9.09641 11.6365 10.0002 11.6365Z" fill="#FFFFFF"/>
<path d="M11.2284 9.16849L10.7875 8.7276L9.55338 9.96172L9.55362 9.96196C9.55189 9.96361 9.55004 9.96503 9.54834 9.96672C9.42659 10.0885 9.42659 10.2859 9.54834 10.4076C9.67009 10.5294 9.86748 10.5294 9.98923 10.4076C9.99093 10.4059 9.99234 10.4041 9.99399 10.4023L9.99423 10.4026L11.2284 9.16849Z" fill="#FFFFFF"/>
<path d="M17.1492 2.82708C18.6797 -0.492425 15.7602 -1.72469 15.267 3.82875L10.9881 7.64065C10.9586 7.66394 10.9298 7.68861 10.9026 7.71581C10.9009 7.71746 10.8996 7.71932 10.8979 7.72101L10.8946 7.72391L10.8949 7.72423C10.5281 8.09979 10.5303 8.70136 10.9026 9.07357C11.2748 9.44583 11.8764 9.44804 12.2519 9.08119L12.2523 9.08151L12.2551 9.07829C12.2568 9.07664 12.2587 9.07527 12.2603 9.07357C12.2876 9.04633 12.3122 9.01756 12.3355 8.98806L16.1474 4.70915C21.701 4.21608 20.4687 1.29655 17.1492 2.82708Z" fill="#FFFFFF"/>
</svg>
