<svg width="20" height="20" viewBox="0 0 20 20" fill="none" xmlns="http://www.w3.org/2000/svg">
<g opacity="0.87">
<circle cx="10" cy="10" r="10" fill="white"/>
<path d="M10 3L4 5V11C4 14.3141 6.68594 17 10 17C13.3141 17 16 14.3141 16 11V5L10 3ZM14.875 11C14.875 13.6922 12.6922 15.875 10 15.875C7.30781 15.875 5.125 13.6922 5.125 11V5.84375L10 4.125L14.875 5.84375V11Z" fill="#272727"/>
<path d="M7.91271 9.42344C7.86057 9.37106 7.7986 9.32951 7.73036 9.30115C7.66212 9.27279 7.58895 9.25819 7.51505 9.25819C7.44115 9.25819 7.36798 9.27279 7.29974 9.30115C7.2315 9.32951 7.16953 9.37106 7.11739 9.42344C7.06502 9.47557 7.02346 9.53754 6.9951 9.60578C6.96675 9.67402 6.95215 9.74719 6.95215 9.82109C6.95215 9.89499 6.96675 9.96816 6.9951 10.0364C7.02346 10.1046 7.06502 10.1666 7.11739 10.2188L9.13927 12.2406L9.17208 12.2734C9.2214 12.3228 9.27997 12.362 9.34445 12.3888C9.40893 12.4155 9.47806 12.4293 9.54786 12.4293C9.61767 12.4293 9.68679 12.4155 9.75127 12.3888C9.81575 12.362 9.87433 12.3228 9.92364 12.2734L13.4158 8.78125C13.4652 8.73194 13.5044 8.67336 13.5312 8.60888C13.5579 8.5444 13.5717 8.47528 13.5717 8.40547C13.5717 8.33566 13.5579 8.26654 13.5312 8.20206C13.5044 8.13758 13.4652 8.079 13.4158 8.02969L13.3721 7.98594C13.3228 7.93653 13.2642 7.89733 13.1997 7.87059C13.1352 7.84384 13.0661 7.83008 12.9963 7.83008C12.9265 7.83008 12.8574 7.84384 12.7929 7.87059C12.7284 7.89733 12.6698 7.93653 12.6205 7.98594L9.54708 11.0578L7.91271 9.42344Z" fill="#272727"/>
</g>
</svg>
