<svg width="40" height="28" viewBox="0 0 40 28" fill="none" xmlns="http://www.w3.org/2000/svg">
<path d="M38 10V8H2V10H38ZM38 12H2V23C2 24.6569 3.34315 26 5 26H35C36.6569 26 38 24.6569 38 23V12ZM38 6V5C38 3.34315 36.6569 2 35 2H5C3.34315 2 2 3.34315 2 5V6H38ZM30.0003 23.465C28.4592 24.3566 26.4702 24.1271 25.1716 22.8284C23.6095 21.2663 23.6095 18.7337 25.1716 17.1716C26.4681 15.8751 28.4564 15.6418 30.0002 16.535C30.5885 16.1947 31.2715 16 32 16C34.2091 16 36 17.7909 36 20C36 22.2091 34.2091 24 32 24C31.2715 24 30.5885 23.8053 30.0003 23.465ZM28.4996 21.9374C28.1813 21.3634 28 20.7029 28 20C28 19.2971 28.1813 18.6366 28.4997 18.0626C27.8337 17.8916 27.1004 18.0712 26.5858 18.5858C25.8047 19.3668 25.8047 20.6332 26.5858 21.4142C27.1011 21.9295 27.8344 22.1081 28.4996 21.9374ZM0 5C0 2.23858 2.23858 0 5 0H35C37.7614 0 40 2.23858 40 5V23C40 25.7614 37.7614 28 35 28H5C2.23858 28 0 25.7614 0 23V5ZM32 22C33.1046 22 34 21.1046 34 20C34 18.8954 33.1046 18 32 18C30.8954 18 30 18.8954 30 20C30 21.1046 30.8954 22 32 22Z" fill="white"/>
</svg>
