<svg width="18" height="18" viewBox="0 0 18 18" fill="none" xmlns="http://www.w3.org/2000/svg">
<path fill-rule="evenodd" clip-rule="evenodd" d="M1.5 6H2.5V11H15.5V6H16.5V11H17.25C17.3881 11 17.5 11.1119 17.5 11.25V11.75C17.5 11.8881 17.3881 12 17.25 12H0.75C0.61193 12 0.5 11.8881 0.5 11.75V11.25C0.5 11.1119 0.61193 11 0.75 11H1.5V6ZM2 13.5V17H16V13.5H2ZM1.5 12.5C1.22386 12.5 1 12.7239 1 13V17.5C1 17.7761 1.22386 18 1.5 18H16.5C16.7761 18 17 17.7761 17 17.5V13C17 12.7239 16.7761 12.5 16.5 12.5H1.5Z" fill="#FFFFFF"/>
<path fill-rule="evenodd" clip-rule="evenodd" d="M2.0944 1L1.02177 3.95645C1.00739 3.9961 1 4.03805 1 4.08045V5.2755C1 5.6796 1.32373 6 1.71428 6C2.10485 6 2.42855 5.6796 2.42855 5.2755C2.42855 4.99935 2.65245 4.7755 2.92855 4.7755C3.2047 4.7755 3.42855 4.99935 3.42855 5.2755C3.42855 5.6796 3.7523 6 4.14285 6C4.5334 6 4.85715 5.6796 4.85715 5.2755C4.85715 4.99935 5.081 4.7755 5.35715 4.7755C5.6333 4.7755 5.85715 4.99935 5.85715 5.2755C5.85715 5.6796 6.1809 6 6.57145 6C6.9618 6 7.2854 5.6799 7.2857 5.2761C7.28595 5.00015 7.50975 4.7765 7.7857 4.7765C8.0617 4.7765 8.2855 5.00015 8.2857 5.2761C8.28605 5.6799 8.60965 6 9 6C9.39055 6 9.7143 5.6796 9.7143 5.2755C9.7143 4.99935 9.93815 4.7755 10.2143 4.7755C10.4904 4.7755 10.7143 4.99935 10.7143 5.2755C10.7143 5.6796 11.038 6 11.4285 6C11.8189 6 12.1425 5.6799 12.1428 5.2761C12.1431 5.00015 12.3668 4.7765 12.6428 4.7765C12.9188 4.7765 13.1427 5.00015 13.1429 5.2761C13.1432 5.6799 13.4668 6 13.8571 6C14.2477 6 14.5714 5.6796 14.5714 5.2755C14.5714 4.99935 14.7953 4.7755 15.0714 4.7755C15.3475 4.7755 15.5714 4.99935 15.5714 5.2755C15.5714 5.6796 15.8952 6 16.2857 6C16.6763 6 17 5.6796 17 5.2755V4.08045C17 4.03805 16.9926 3.9961 16.9783 3.95645L15.9056 1H2.0944ZM15.8882 0.951975L15.8881 0.95185L15.959 0.926125L15.8881 0.951845C15.8881 0.95189 15.8882 0.951935 15.8882 0.951975ZM15.0714 6.4928C14.7616 6.80575 14.3328 7 13.8571 7C13.3814 7 12.9527 6.80575 12.6428 6.4928C12.3331 6.80575 11.9043 7 11.4285 7C10.9529 7 10.524 6.80575 10.2143 6.4928C9.9045 6.80575 9.4757 7 9 7C8.5243 7 8.0955 6.80575 7.7857 6.4928C7.47595 6.80575 7.0471 7 6.57145 7C6.09575 7 5.6669 6.80575 5.35715 6.4928C5.04735 6.80575 4.61855 7 4.14285 7C3.6672 7 3.23835 6.80575 2.92855 6.4928C2.6188 6.80575 2.18995 7 1.71428 7C0.763575 7 0 6.22395 0 5.2755V4.08045C0 3.9219 0.0276399 3.7645 0.0817249 3.6154L1.17181 0.610795C1.30414 0.24605 1.65006 0 2.04095 0H15.959C16.3499 0 16.6958 0.24605 16.8282 0.6108L17.9183 3.6154C17.9724 3.7645 18 3.9219 18 4.08045V5.2755C18 6.22395 17.2364 7 16.2857 7C15.8101 7 15.3812 6.80575 15.0714 6.4928Z" fill="#FFFFFF"/>
<path d="M3 9.75C3 9.61195 3.11195 9.5 3.25 9.5H4.75C4.88805 9.5 5 9.61195 5 9.75V10.75C5 10.888 4.88805 11 4.75 11H3.25C3.11195 11 3 10.888 3 10.75V9.75Z" fill="#FFFFFF"/>
<path d="M4 10.25C4 10.1119 4.11195 10 4.25 10H5.75C5.88805 10 6 10.1119 6 10.25V10.75C6 10.8881 5.88805 11 5.75 11H4.25C4.11195 11 4 10.8881 4 10.75V10.25Z" fill="#FFFFFF"/>
<path d="M8 10.25C8 10.6642 7.6642 11 7.25 11C6.8358 11 6.5 10.6642 6.5 10.25C6.5 9.8358 6.8358 9.5 7.25 9.5C7.6642 9.5 8 9.8358 8 10.25Z" fill="#FFFFFF"/>
</svg>
