<svg width="21" height="34" viewBox="0 0 21 34" fill="none" xmlns="http://www.w3.org/2000/svg">
<path d="M18.6667 0H2.33333C1.71449 0 1.121 0.255866 0.683418 0.711312C0.245833 1.16676 0 1.78447 0 2.42857V31.5714C0 32.2155 0.245833 32.8332 0.683418 33.2887C1.121 33.7441 1.71449 34 2.33333 34H18.6667C19.2855 34 19.879 33.7441 20.3166 33.2887C20.7542 32.8332 21 32.2155 21 31.5714V2.42857C21 1.78447 20.7542 1.16676 20.3166 0.711312C19.879 0.255866 19.2855 0 18.6667 0ZM11.6667 31.5714H9.33333V29.1429H11.6667V31.5714ZM2.33333 26.7143V2.42857H18.6667V26.7143H2.33333Z" fill="white"/>
</svg>
