<svg width="15" height="22" viewBox="0 0 15 22" fill="none" xmlns="http://www.w3.org/2000/svg">
<path d="M1.21283 0C0.634703 0 0.241663 0.586896 0.461786 1.12148L2.21181 5.37154C2.93555 7.12919 2.16485 9.11027 1.14179 10.7123C0.419389 11.8435 0 13.1854 0 14.625C0 18.6566 3.28006 21.9375 7.3125 21.9375C11.3449 21.9375 14.625 18.6566 14.625 14.625C14.625 13.1854 14.2056 11.8435 13.4832 10.7123C12.4602 9.11027 11.6895 7.12919 12.4132 5.37154L14.1632 1.12148C14.3833 0.586895 13.9903 0 13.4122 0C13.0831 0 12.7865 0.198592 12.6612 0.502893L9.95899 7.06337C9.80779 7.43046 9.4037 7.6135 9.01803 7.51929C8.52919 7.39988 8.20882 6.8793 8.40034 6.41396L10.5786 1.12149C10.7986 0.58686 10.4055 0 9.8274 0C9.49825 0 9.20164 0.198618 9.07629 0.502958L6.42662 6.9361C6.30777 7.22465 6.04105 7.42606 5.73618 7.49272C5.2775 7.59299 4.79565 7.3781 4.61683 6.94397L1.96385 0.502893C1.83851 0.198592 1.54194 0 1.21283 0ZM4.79761 0C4.21947 0 3.82638 0.586864 4.04642 1.1215L4.89824 3.19112C5.17441 3.86214 6.12473 3.86227 6.40109 3.19133C6.48274 2.99308 6.48274 2.77059 6.40109 2.57234L5.54871 0.502949C5.42336 0.198614 5.12675 0 4.79761 0ZM7.3125 8.9375C10.4479 8.9375 13 11.4888 13 14.625C13 17.7612 10.4479 20.3125 7.3125 20.3125C4.17706 20.3125 1.625 17.7612 1.625 14.625C1.625 11.4888 4.17706 8.9375 7.3125 8.9375ZM8.06871 13.2025C7.77715 12.5487 6.84785 12.5487 6.55629 13.2025C6.43701 13.47 6.18407 13.6544 5.89295 13.6864C5.18603 13.7639 4.9018 14.6413 5.43076 15.1166C5.64952 15.3132 5.74626 15.6138 5.68528 15.9015C5.53749 16.5988 6.28347 17.1503 6.90079 16.794C7.15556 16.6469 7.46944 16.6469 7.72421 16.794C8.34153 17.1503 9.08751 16.5988 8.93972 15.9015C8.87874 15.6138 8.97548 15.3132 9.19424 15.1166C9.7232 14.6413 9.43897 13.7639 8.73205 13.6864C8.44093 13.6544 8.18799 13.47 8.06871 13.2025Z" fill="white"/>
</svg>
