<svg width="39" height="35" viewBox="0 0 39 35" fill="none" xmlns="http://www.w3.org/2000/svg">
<path d="M21.5763 0C31.0233 0 38.6767 7.6875 38.6767 17.0833C38.6767 26.4792 31.0233 34.1667 21.5763 34.1667C15.58 34.1667 10.3354 31.0575 7.2775 26.3596L9.97667 24.2242C12.3854 28.1363 16.6733 30.75 21.5933 30.75C25.218 30.75 28.6941 29.3101 31.2571 26.7471C33.8201 24.1841 35.26 20.708 35.26 17.0833C35.26 13.4587 33.8201 9.98254 31.2571 7.41954C28.6941 4.85654 25.218 3.41667 21.5933 3.41667C14.6233 3.41667 8.88333 8.64417 8.04625 15.375H12.7613L6.37208 21.7471L0 15.375H4.59542C5.44958 6.74792 12.7271 0 21.5763 0ZM26.6329 14.0767C27.4871 14.0938 28.1875 14.7771 28.1875 15.6483V23.5238C28.1875 24.3779 27.4871 25.0954 26.6158 25.0954H17.1688C16.2975 25.0954 15.5971 24.3779 15.5971 23.5238V15.6483C15.5971 14.7771 16.2975 14.0938 17.1517 14.0767V12.3512C17.1517 9.7375 19.2871 7.61917 21.8838 7.61917C24.4975 7.61917 26.6329 9.7375 26.6329 12.3512V14.0767ZM21.8838 10.0108C20.6025 10.0108 19.5433 11.0529 19.5433 12.3512V14.0767H24.2413V12.3512C24.2413 11.0529 23.1821 10.0108 21.8838 10.0108Z" fill="white"/>
</svg>
