<svg width="21" height="21" viewBox="0 0 21 21" fill="none" xmlns="http://www.w3.org/2000/svg">
<path fill-rule="evenodd" clip-rule="evenodd" d="M6.2999 1.40002C6.6865 1.40002 6.9999 1.71343 6.9999 2.10002V2.80002H13.9999V2.10002C13.9999 1.71343 14.3134 1.40002 14.6999 1.40002C15.0864 1.40002 15.3999 1.71343 15.3999 2.10002V2.80002H17.4999C18.6597 2.80002 19.5999 3.74022 19.5999 4.90002V17.5C19.5999 18.6598 18.6597 19.6 17.4999 19.6H3.4999C2.3401 19.6 1.3999 18.6598 1.3999 17.5V4.90002C1.3999 3.74022 2.3401 2.80002 3.4999 2.80002H5.5999V2.10002C5.5999 1.71343 5.91331 1.40002 6.2999 1.40002ZM13.9999 4.20002V4.90002C13.9999 5.28662 14.3134 5.60002 14.6999 5.60002C15.0864 5.60002 15.3999 5.28662 15.3999 4.90002V4.20002H17.4999C17.8864 4.20002 18.1999 4.51343 18.1999 4.90002V7.00002H2.7999V4.90002C2.7999 4.51343 3.11331 4.20002 3.4999 4.20002H5.5999V4.90002C5.5999 5.28662 5.91331 5.60002 6.2999 5.60002C6.6865 5.60002 6.9999 5.28662 6.9999 4.90002V4.20002H13.9999ZM2.7999 8.40002V17.5C2.7999 17.8866 3.11331 18.2 3.4999 18.2H17.4999C17.8864 18.2 18.1999 17.8866 18.1999 17.5V8.40002H2.7999ZM9.7999 10.5C9.7999 10.1134 10.1133 9.80002 10.4999 9.80002C10.8865 9.80002 11.1999 10.1134 11.1999 10.5C11.1999 10.8866 10.8865 11.2 10.4999 11.2C10.1133 11.2 9.7999 10.8866 9.7999 10.5ZM13.2999 9.80002C12.9133 9.80002 12.5999 10.1134 12.5999 10.5C12.5999 10.8866 12.9133 11.2 13.2999 11.2C13.6865 11.2 13.9999 10.8866 13.9999 10.5C13.9999 10.1134 13.6865 9.80002 13.2999 9.80002ZM15.3999 10.5C15.3999 10.1134 15.7134 9.80002 16.0999 9.80002C16.4864 9.80002 16.7999 10.1134 16.7999 10.5C16.7999 10.8866 16.4864 11.2 16.0999 11.2C15.7134 11.2 15.3999 10.8866 15.3999 10.5ZM16.0999 12.6C15.7134 12.6 15.3999 12.9134 15.3999 13.3C15.3999 13.6866 15.7134 14 16.0999 14C16.4864 14 16.7999 13.6866 16.7999 13.3C16.7999 12.9134 16.4864 12.6 16.0999 12.6ZM12.5999 13.3C12.5999 12.9134 12.9133 12.6 13.2999 12.6C13.6865 12.6 13.9999 12.9134 13.9999 13.3C13.9999 13.6866 13.6865 14 13.2999 14C12.9133 14 12.5999 13.6866 12.5999 13.3ZM10.4999 12.6C10.1133 12.6 9.7999 12.9134 9.7999 13.3C9.7999 13.6866 10.1133 14 10.4999 14C10.8865 14 11.1999 13.6866 11.1999 13.3C11.1999 12.9134 10.8865 12.6 10.4999 12.6ZM6.9999 13.3C6.9999 12.9134 7.31331 12.6 7.6999 12.6C8.0865 12.6 8.3999 12.9134 8.3999 13.3C8.3999 13.6866 8.0865 14 7.6999 14C7.31331 14 6.9999 13.6866 6.9999 13.3ZM4.8999 12.6C4.51331 12.6 4.1999 12.9134 4.1999 13.3C4.1999 13.6866 4.51331 14 4.8999 14C5.2865 14 5.5999 13.6866 5.5999 13.3C5.5999 12.9134 5.2865 12.6 4.8999 12.6ZM4.1999 16.1C4.1999 15.7135 4.51331 15.4 4.8999 15.4C5.2865 15.4 5.5999 15.7135 5.5999 16.1C5.5999 16.4866 5.2865 16.8 4.8999 16.8C4.51331 16.8 4.1999 16.4866 4.1999 16.1ZM7.6999 15.4C7.31331 15.4 6.9999 15.7135 6.9999 16.1C6.9999 16.4866 7.31331 16.8 7.6999 16.8C8.0865 16.8 8.3999 16.4866 8.3999 16.1C8.3999 15.7135 8.0865 15.4 7.6999 15.4ZM9.7999 16.1C9.7999 15.7135 10.1133 15.4 10.4999 15.4C10.8865 15.4 11.1999 15.7135 11.1999 16.1C11.1999 16.4866 10.8865 16.8 10.4999 16.8C10.1133 16.8 9.7999 16.4866 9.7999 16.1ZM13.2999 15.4C12.9133 15.4 12.5999 15.7135 12.5999 16.1C12.5999 16.4866 12.9133 16.8 13.2999 16.8C13.6865 16.8 13.9999 16.4866 13.9999 16.1C13.9999 15.7135 13.6865 15.4 13.2999 15.4Z" fill="white"/>
</svg>
