<svg width="40" height="40" viewBox="0 0 40 40" fill="none" xmlns="http://www.w3.org/2000/svg">
<path d="M15.0002 23.3334C19.4502 23.3334 28.3335 25.55 28.3335 30V33.3334H1.66683V30C1.66683 25.55 10.5502 23.3334 15.0002 23.3334ZM30.0002 16.6667V11.6667H33.3335V16.6667H38.3335V20H33.3335V25H30.0002V20H25.0002V16.6667H30.0002ZM15.0002 20C13.2321 20 11.5364 19.2976 10.2861 18.0474C9.03588 16.7972 8.3335 15.1015 8.3335 13.3334C8.3335 11.5652 9.03588 9.86955 10.2861 8.61931C11.5364 7.36907 13.2321 6.66669 15.0002 6.66669C16.7683 6.66669 18.464 7.36907 19.7142 8.61931C20.9645 9.86955 21.6668 11.5652 21.6668 13.3334C21.6668 15.1015 20.9645 16.7972 19.7142 18.0474C18.464 19.2976 16.7683 20 15.0002 20Z" fill="#273862"/>
</svg>
