<svg width="20" height="20" viewBox="0 0 20 20" fill="none" xmlns="http://www.w3.org/2000/svg">
<path d="M10.0001 0.833252C11.8131 0.833252 13.5854 1.37087 15.0928 2.37811C16.6003 3.38536 17.7752 4.817 18.469 6.49199C19.1628 8.16698 19.3443 10.0101 18.9906 11.7882C18.6369 13.5664 17.7639 15.1998 16.4819 16.4817C15.1999 17.7637 13.5666 18.6368 11.7884 18.9904C10.0102 19.3441 8.16713 19.1626 6.49214 18.4688C4.81715 17.775 3.38552 16.6001 2.37827 15.0926C1.37102 13.5852 0.833408 11.8129 0.833408 9.99992C0.836275 7.56965 1.80297 5.23974 3.52143 3.52127C5.23989 1.80281 7.56981 0.836119 10.0001 0.833252ZM17.5001 9.99992C17.5007 8.29923 16.92 6.6494 15.8542 5.32409L5.32424 15.8541C6.42631 16.7375 7.75568 17.2912 9.15895 17.4516C10.5622 17.6119 11.9822 17.3722 13.2552 16.7602C14.5281 16.1482 15.602 15.1887 16.3531 13.9926C17.1042 12.7964 17.5018 11.4123 17.5001 9.99992ZM4.14591 14.6758L14.6759 4.14575C13.2366 2.99192 11.4221 2.40979 9.58009 2.51089C7.73812 2.61199 5.99823 3.38922 4.6938 4.69365C3.38937 5.99807 2.61215 7.73796 2.51105 9.57993C2.40994 11.4219 2.99208 13.2364 4.14591 14.6758Z" fill="black"/>
</svg>
