<svg width="40" height="20" viewBox="0 0 40 20" fill="none" xmlns="http://www.w3.org/2000/svg">
<path d="M36.6666 0H3.33336C1.49492 0 0 1.794 0 4.00002V16C0 18.206 1.49492 20 3.33336 20H36.6667C38.5051 20 40 18.206 40 16V4.00002C40 1.794 38.5051 0 36.6666 0ZM38.3334 16C38.3334 17.1025 37.5855 17.9999 36.6667 17.9999H3.33336C2.41461 17.9999 1.66672 17.1025 1.66672 16V4.00002C1.66672 2.89752 2.41461 2.00006 3.33336 2.00006H36.6667C37.5855 2.00006 38.3334 2.89752 38.3334 4.00002V16Z" fill="#273862"/>
<path d="M10.387 8.00086C10.1559 7.52039 9.64398 7.35923 9.24844 7.63467L8.33375 8.26842V7.00082C8.33375 6.44807 7.96101 6.00079 7.50039 6.00079C7.03976 6.00079 6.66703 6.44807 6.66703 7.00082V8.26842L5.75234 7.63467C5.35437 7.35923 4.84414 7.52039 4.61383 8.00086C4.38351 8.47935 4.52023 9.0907 4.91898 9.36707L5.83359 10.0008L4.91898 10.6346C4.52023 10.9109 4.38351 11.5223 4.61383 12.0008C4.76844 12.3221 5.04844 12.5008 5.33648 12.5008C5.47812 12.5008 5.62133 12.4578 5.75234 12.367L6.66703 11.7332V13.0008C6.66703 13.5536 7.03976 14.0008 7.50039 14.0008C7.96101 14.0008 8.33375 13.5536 8.33375 13.0008V11.7332L9.24844 12.367C9.37945 12.4578 9.52266 12.5008 9.6643 12.5008C9.95242 12.5008 10.2323 12.3221 10.387 12.0008C10.6173 11.5223 10.4805 10.9109 10.0818 10.6346L9.16719 10.0008L10.0818 9.36707C10.4805 9.0907 10.6173 8.47935 10.387 8.00086Z" fill="#273862"/>
<path d="M18.7205 8.00086C18.4885 7.52039 17.9783 7.35923 17.5819 7.63467L16.6673 8.26842V7.00082C16.6673 6.44807 16.2945 6.00079 15.8339 6.00079C15.3733 6.00079 15.0005 6.44807 15.0005 7.00082V8.26842L14.0858 7.63467C13.6871 7.35923 13.1769 7.52039 12.9473 8.00086C12.717 8.47935 12.8537 9.0907 13.2525 9.36707L14.1671 10.0008L13.2525 10.6346C12.8537 10.9109 12.717 11.5223 12.9473 12.0008C13.1019 12.3221 13.3819 12.5008 13.67 12.5008C13.8116 12.5008 13.9548 12.4578 14.0858 12.367L15.0005 11.7332V13.0008C15.0005 13.5536 15.3733 14.0008 15.8339 14.0008C16.2945 14.0008 16.6673 13.5536 16.6673 13.0008V11.7332L17.5819 12.367C17.713 12.4578 17.8562 12.5008 17.9978 12.5008C18.2859 12.5008 18.5659 12.3221 18.7205 12.0008C18.9508 11.5223 18.8141 10.9109 18.4153 10.6346L17.5006 10.0008L18.4152 9.36707C18.8141 9.0907 18.9508 8.47935 18.7205 8.00086Z" fill="#273862"/>
<path d="M27.053 8.00086C26.8219 7.52039 26.31 7.35923 25.9145 7.63467L24.9998 8.26842V7.00082C24.9998 6.44807 24.627 6.00079 24.1664 6.00079C23.7058 6.00079 23.333 6.44807 23.333 7.00082V8.26842L22.4184 7.63467C22.0204 7.35923 21.5102 7.52039 21.2798 8.00086C21.0495 8.47935 21.1862 9.0907 21.585 9.36707L22.4996 10.0008L21.585 10.6346C21.1862 10.9109 21.0495 11.5223 21.2798 12.0008C21.4345 12.3221 21.7145 12.5008 22.0025 12.5008C22.1441 12.5008 22.2873 12.4578 22.4184 12.367L23.333 11.7332V13.0008C23.333 13.5536 23.7058 14.0008 24.1664 14.0008C24.627 14.0008 24.9998 13.5536 24.9998 13.0008V11.7332L25.9145 12.367C26.0455 12.4578 26.1887 12.5008 26.3303 12.5008C26.6184 12.5008 26.8984 12.3221 27.053 12.0008C27.2833 11.5223 27.1466 10.9109 26.7478 10.6346L25.8332 10.0008L26.7478 9.36707C27.1466 9.0907 27.2833 8.47935 27.053 8.00086Z" fill="#273862"/>
<path d="M35.3874 8.00086C35.1571 7.52039 34.6452 7.35923 34.2489 7.63467L33.3342 8.26842V7.00082C33.3342 6.44807 32.9615 6.00079 32.5009 6.00079C32.0402 6.00079 31.6675 6.44807 31.6675 7.00082V8.26842L30.7528 7.63467C30.3532 7.35923 29.8454 7.52039 29.6143 8.00086C29.384 8.47935 29.5207 9.0907 29.9195 9.36707L30.8341 10.0008L29.9195 10.6346C29.5207 10.9109 29.384 11.5223 29.6143 12.0008C29.7689 12.3221 30.0489 12.5008 30.337 12.5008C30.4786 12.5008 30.6218 12.4578 30.7528 12.367L31.6675 11.7332V13.0008C31.6675 13.5536 32.0402 14.0008 32.5009 14.0008C32.9615 14.0008 33.3342 13.5536 33.3342 13.0008V11.7332L34.2489 12.367C34.3799 12.4578 34.5231 12.5008 34.6648 12.5008C34.9529 12.5008 35.2328 12.3221 35.3874 12.0008C35.6177 11.5223 35.481 10.9109 35.0823 10.6346L34.1677 10.0008L35.0823 9.36707C35.481 9.0907 35.6177 8.47935 35.3874 8.00086Z" fill="#273862"/>
</svg>
