<svg width="14" height="24" viewBox="0 0 14 24" fill="none" xmlns="http://www.w3.org/2000/svg">
<path d="M11.2 0C12.6761 0 13.8854 1.22382 13.9923 2.77611L14 3V21C14 22.5816 12.8578 23.8773 11.409 23.9918L11.2 24H2.8C1.32389 24 0.114568 22.7762 0.00767975 21.2239L0 21V3C0 1.41846 1.14223 0.122752 2.59103 0.00822866L2.8 0H11.2ZM11.2 1.5H2.8C2.08204 1.5 1.49029 2.07907 1.40942 2.82507L1.4 3V21C1.4 21.7693 1.94046 22.4033 2.63673 22.4899L2.8 22.5H11.2C11.918 22.5 12.5097 21.921 12.5906 21.1749L12.6 21V3C12.6 2.23075 12.0596 1.59674 11.3633 1.51009L11.2 1.5ZM8.4 18C8.78654 18 9.1 18.3358 9.1 18.75C9.1 19.1181 8.85233 19.4244 8.52581 19.4879L8.4 19.5H5.6C5.2134 19.5 4.9 19.1642 4.9 18.75C4.9 18.3819 5.14763 18.0756 5.47417 18.0121L5.6 18H8.4Z" fill="#273862"/>
</svg>
