<svg width="20" height="20" viewBox="0 0 20 20" fill="none" xmlns="http://www.w3.org/2000/svg">
<path d="M6.68555 16.4844H8.24805V17.6562H6.68555V16.4844Z" fill="black"/>
<path d="M9.41992 16.4844H10.9824V17.6562H9.41992V16.4844Z" fill="black"/>
<path d="M3.95117 16.4844H5.51367V17.6562H3.95117V16.4844Z" fill="black"/>
<path d="M6.68555 14.1406H8.24805V15.3125H6.68555V14.1406Z" fill="black"/>
<path d="M9.41992 14.1406H10.9824V15.3125H9.41992V14.1406Z" fill="black"/>
<path d="M3.95117 14.1406H5.51367V15.3125H3.95117V14.1406Z" fill="black"/>
<path d="M6.68555 11.7969H8.24805V12.9688H6.68555V11.7969Z" fill="black"/>
<path d="M9.41992 11.7969H10.9824V12.9688H9.41992V11.7969Z" fill="black"/>
<path d="M3.95117 11.7969H5.51367V12.9688H3.95117V11.7969Z" fill="black"/>
<path d="M6.68555 9.45312H8.24805V10.625H6.68555V9.45312Z" fill="black"/>
<path d="M9.41992 9.45312H10.9824V10.625H9.41992V9.45312Z" fill="black"/>
<path d="M3.95117 9.45312H5.51367V10.625H3.95117V9.45312Z" fill="black"/>
<path d="M3.63867 8.28125H11.2949V4.6875H3.63867V8.28125ZM4.81055 5.85938H10.123V7.10938H4.81055V5.85938Z" fill="black"/>
<path d="M18.9122 2.92969H13.8154L13.8441 2.2375C13.8686 1.64723 13.6568 1.08738 13.2478 0.661094C12.8389 0.234766 12.2883 0 11.6976 0H3.23616C2.64542 0 2.09479 0.234766 1.68585 0.661055C1.27686 1.08738 1.06506 1.64723 1.08956 2.2375L1.74116 17.9406C1.78905 19.0954 2.73194 20 3.88776 20H11.046C12.2018 20 13.1447 19.0954 13.1926 17.9406L13.2287 17.0703H18.9122V2.92969ZM12.6733 2.18891L12.0217 17.892C11.9999 18.417 11.5713 18.8281 11.046 18.8281H3.88776C3.36241 18.8281 2.93377 18.417 2.91202 17.892L2.26042 2.18891C2.24928 1.92059 2.34553 1.66613 2.53143 1.47234C2.71737 1.27859 2.96764 1.17188 3.23616 1.17188H11.6976C11.9661 1.17188 12.2164 1.27859 12.4023 1.47234C12.5881 1.66613 12.6844 1.92062 12.6733 2.18891ZM17.7403 15.8984H13.2773L13.7668 4.10156H17.7403V15.8984H17.7403Z" fill="black"/>
<path d="M15.9824 14.7266C16.306 14.7266 16.5684 14.4642 16.5684 14.1406C16.5684 13.817 16.306 13.5547 15.9824 13.5547C15.6588 13.5547 15.3965 13.817 15.3965 14.1406C15.3965 14.4642 15.6588 14.7266 15.9824 14.7266Z" fill="black"/>
<path d="M15.9824 13.5547C16.306 13.5547 16.5684 13.2924 16.5684 12.9688C16.5684 12.6451 16.306 12.3828 15.9824 12.3828C15.6588 12.3828 15.3965 12.6451 15.3965 12.9688C15.3965 13.2924 15.6588 13.5547 15.9824 13.5547Z" fill="black"/>
<path d="M4.22461 2.34375H10.709V3.51562H4.22461V2.34375Z" fill="black"/>
</svg>
