<svg width="40" height="40" viewBox="0 0 40 40" fill="none" xmlns="http://www.w3.org/2000/svg">
<path d="M15.0002 23.3334C10.5502 23.3334 1.66689 25.55 1.66689 30V33.3334H28.3336V30C28.3336 25.55 19.4502 23.3334 15.0002 23.3334ZM15.0002 20C16.7683 20 18.464 19.2976 19.7143 18.0474C20.9645 16.7972 21.6669 15.1015 21.6669 13.3334C21.6669 11.5652 20.9645 9.86955 19.7143 8.61931C18.464 7.36907 16.7683 6.66669 15.0002 6.66669C13.2321 6.66669 11.5364 7.36907 10.2862 8.61931C9.03594 9.86955 8.33356 11.5652 8.33356 13.3334C8.33356 15.1015 9.03594 16.7972 10.2862 18.0474C11.5364 19.2976 13.2321 20 15.0002 20ZM31.6669 15.9834L28.1336 12.4334L25.7669 14.8L29.3169 18.3334L25.7669 21.8667L28.1336 24.2334L31.6669 20.6834L35.2002 24.2334L37.5669 21.8667L34.0169 18.3334L37.5669 14.8L35.2002 12.4334L31.6669 15.9834Z" fill="#273862"/>
</svg>
