<svg width="28" height="28" viewBox="0 0 28 28" fill="none" xmlns="http://www.w3.org/2000/svg">
<g clip-path="url(#clip0_625_6797)">
<path d="M26.0434 0H1.7365C1.13713 0 0.651367 0.489624 0.651367 1.09375C0.651367 12.7311 2.94222 22.8713 13.4241 27.894C13.7187 28.0353 14.0612 28.0355 14.356 27.894C24.8381 22.8711 27.1285 12.7302 27.1285 1.09375C27.1285 0.489624 26.6428 0 26.0434 0ZM13.8899 25.6884C4.96751 21.1493 2.93989 12.2222 2.82756 2.1875H24.9523C24.8402 12.2195 22.8139 21.1487 13.8899 25.6884ZM15.0658 18.5696C15.0658 19.4431 14.3615 20.2436 13.4048 20.2436C12.4528 20.2436 11.7224 19.4487 11.7224 18.5696C11.7224 17.6254 12.4954 16.8957 13.4048 16.8957C14.3619 16.8955 15.0658 17.6968 15.0658 18.5696ZM9.45766 7.13394C9.45766 5.90433 10.8285 4.22077 13.7068 4.22077C16.0532 4.22077 18.301 5.46384 18.301 7.80792C18.301 10.4562 15.734 11.5309 15.0334 12.6888C14.6756 13.2795 14.6559 13.5864 14.6559 14.5042C14.6559 15.0985 14.2316 15.3954 13.3834 15.3954C12.4269 15.3954 12.197 14.9854 12.197 13.9605C12.197 12.6187 12.6785 11.5337 13.6422 10.7055C13.9972 10.353 15.5617 9.47995 15.5617 8.28601C15.5617 7.25315 14.6478 6.82974 13.6274 6.82974C11.9412 6.82974 11.8367 7.71799 11.3918 8.13263C10.9783 8.51843 10.2961 8.40885 9.85547 8.04718C9.59012 7.82971 9.45766 7.5253 9.45766 7.13394Z" fill="#273862"/>
</g>
<defs>
<clipPath id="clip0_625_6797">
<rect width="27.7793" height="28" fill="white"/>
</clipPath>
</defs>
</svg>
