<svg width="41" height="29" viewBox="0 0 41 29" fill="none" xmlns="http://www.w3.org/2000/svg">
<path d="M35.9226 0.391184C35.3454 -0.134087 34.4054 -0.126689 33.82 0.391184L28.5429 5.12603C22.0043 2.46268 15.0287 3.11372 8.37463 7.01257C3.41914 9.91266 0.409561 13.56 0.28588 13.7153C-0.1099 14.2036 -0.0934091 14.8695 0.327107 15.3429C3.14704 18.4502 6.0989 20.8694 9.11672 22.5562L4.47455 26.7214C3.89737 27.2392 3.89737 28.0826 4.47455 28.6079C4.76314 28.8668 5.14243 29 5.52172 29C5.90101 29 6.2803 28.8668 6.56889 28.6079L35.9226 2.27772C36.4998 1.75985 36.4998 0.916456 35.9226 0.391184ZM16.5294 15.9052C16.315 15.4687 16.2078 14.9952 16.2078 14.4995C16.2078 13.5452 16.6201 12.6426 17.3786 11.962C18.566 10.8966 20.3222 10.6451 21.7734 11.1999L16.5294 15.9052ZM23.9667 9.23942C21.2705 7.6858 17.6342 7.96693 15.2843 10.0754C13.965 11.2591 13.2477 12.8275 13.2477 14.4921C13.2477 15.7054 13.6352 16.867 14.3526 17.8657L11.2935 20.6104C8.61375 19.2196 5.97522 17.1629 3.41089 14.4773C4.50753 13.3232 6.8245 11.0964 9.99898 9.23942C15.4904 6.02861 20.9571 5.33318 26.2837 7.16053L23.9667 9.23942Z" fill="#273862"/>
<path d="M40.0778 13.6585C38.0412 11.4095 35.9304 9.51552 33.7866 8.01369C33.1352 7.5624 32.2035 7.66597 31.6922 8.24303C31.1893 8.82009 31.3047 9.65609 31.9479 10.1148C33.6464 11.3059 35.345 12.7855 36.9941 14.5167C36.0211 15.5376 34.1246 17.3724 31.5521 19.0518C26.5966 22.2848 21.5916 23.4537 16.6856 22.5215C15.8858 22.3662 15.0942 22.8323 14.9293 23.5499C14.7562 24.2675 15.2756 24.9777 16.0754 25.1257C17.3535 25.3698 18.6398 25.4882 19.9343 25.4882C21.8802 25.4882 23.8426 25.2145 25.7968 24.667C28.3611 23.9494 30.9089 22.7657 33.3743 21.1529C37.53 18.4229 40.0119 15.4119 40.1191 15.2861C40.5148 14.7978 40.4984 14.132 40.0778 13.6585Z" fill="#273862"/>
</svg>
