<svg width="20" height="20" viewBox="0 0 20 20" fill="none" xmlns="http://www.w3.org/2000/svg">
<path d="M19.5833 14.1666H18.3333V4.99993C18.3333 4.08075 17.5859 3.33325 16.6666 3.33325H3.33332C2.41414 3.33325 1.66664 4.08071 1.66664 4.99993V14.1666H0.416641C0.186367 14.1666 0 14.3529 0 14.5833V14.9999C0 15.9191 0.747461 16.6666 1.66668 16.6666H18.3334C19.2525 16.6666 20 15.9191 20 14.9999V14.5833C20 14.3529 19.8136 14.1666 19.5833 14.1666ZM2.5 4.99993C2.5 4.54056 2.87395 4.16661 3.33332 4.16661H16.6666C17.126 4.16661 17.5 4.54056 17.5 4.99993V14.1666H12.0833H7.91668H2.5V4.99993ZM18.3333 15.8333H1.66668C1.2073 15.8333 0.833359 15.4593 0.833359 14.9999H2.08336H7.74414L8.03875 15.2945C8.11688 15.3727 8.22266 15.4166 8.33336 15.4166H11.6667C11.7773 15.4166 11.8832 15.3727 11.9613 15.2945L12.2559 14.9999H17.9167H19.1667C19.1667 15.4593 18.7927 15.8333 18.3333 15.8333Z" fill="black"/>
</svg>
