<svg width="18" height="18" viewBox="0 0 18 18" fill="none" xmlns="http://www.w3.org/2000/svg">
<path d="M9 0C4.04441 0 0 4.04469 0 9C0 13.9556 4.04469 18 9 18C13.9556 18 18 13.9553 18 9C18 4.04441 13.9553 0 9 0ZM6.3154 1.52191C5.69791 2.30699 5.24918 3.27762 4.93868 4.21875H2.65855C3.58186 2.99721 4.84928 2.04986 6.3154 1.52191ZM1.98464 5.26992H4.64027C4.4017 6.26966 4.26087 7.35493 4.22705 8.47266H1.07262C1.14834 7.3228 1.46964 6.23556 1.98464 5.26992ZM1.98464 12.7266C1.46964 11.7609 1.14834 10.6772 1.07262 9.52734H4.22705C4.26087 10.6451 4.4017 11.7268 4.64027 12.7266H1.98464ZM2.65855 13.7812H4.93864C5.24907 14.7221 5.69781 15.6929 6.3154 16.4781C4.84928 15.9501 3.58186 15.0028 2.65855 13.7812ZM8.47266 16.8558C7.29524 16.46 6.48345 14.9484 6.05468 13.7812H8.47266V16.8558ZM8.47266 12.7266H5.72643C5.47014 11.741 5.31826 10.6564 5.28216 9.52734H8.47266V12.7266ZM8.47266 8.47266H5.28216C5.3183 7.34358 5.47017 6.25904 5.72643 5.27344H8.47266V8.47266ZM8.47266 4.21875H6.05468C6.48341 3.0516 7.29524 1.53998 8.47266 1.1442V4.21875ZM16.0154 5.27344C16.5304 6.23907 16.8517 7.3228 16.9274 8.47266H13.773C13.7391 7.35493 13.5983 6.27318 13.3597 5.27344H16.0154ZM15.3414 4.21875H13.0614C12.7509 3.27786 12.3022 2.30709 11.6846 1.52191C13.1507 2.04986 14.4181 2.99721 15.3414 4.21875ZM9.52734 1.1442C10.7048 1.53998 11.5166 3.05156 11.9453 4.21875H9.52734V1.1442ZM9.52734 5.27344H12.2736C12.5299 6.25904 12.6817 7.34358 12.7178 8.47266H9.52734V5.27344ZM9.52734 9.52383H12.7178C12.6817 10.6529 12.5298 11.741 12.2736 12.7266H9.52734V9.52383ZM9.52734 16.8558V13.7777H11.9453C11.5166 14.9449 10.7048 16.46 9.52734 16.8558ZM11.6846 16.4781C12.3021 15.693 12.7508 14.7188 13.0614 13.7777H15.3414C14.4181 14.9993 13.1507 15.9501 11.6846 16.4781ZM16.0154 12.7266H13.3597C13.5983 11.7268 13.7391 10.6416 13.773 9.52383H16.9274C16.8517 10.6737 16.5304 11.7609 16.0154 12.7266Z" fill="black"/>
</svg>
