<svg width="20" height="20" viewBox="0 0 20 20" fill="none" xmlns="http://www.w3.org/2000/svg">
<path d="M10 0C4.47715 0 0 4.47715 0 10C0 15.5228 4.47715 20 10 20C15.5228 20 20 15.5228 20 10C20 4.47715 15.5228 0 10 0Z" fill="#121212"/>
<path d="M14.5877 10.5875C14.6134 10.4 14.6263 10.2063 14.6263 10C14.6263 9.8 14.6134 9.6 14.5813 9.4125L15.8856 8.425C16.0013 8.3375 16.0334 8.16875 15.9627 8.04375L14.7291 5.96875C14.652 5.83125 14.4913 5.7875 14.35 5.83125L12.8143 6.43125C12.493 6.19375 12.1525 5.99375 11.7734 5.84375L11.5421 4.25625C11.5164 4.10625 11.3879 4 11.2337 4H8.76633C8.61212 4 8.49004 4.10625 8.46434 4.25625L8.23303 5.84375C7.85393 5.99375 7.50696 6.2 7.19212 6.43125L5.65646 5.83125C5.5151 5.78125 5.35447 5.83125 5.27736 5.96875L4.05012 8.04375C3.97301 8.175 3.99872 8.3375 4.12722 8.425L5.43157 9.4125C5.39944 9.6 5.37374 9.80625 5.37374 10C5.37374 10.1938 5.38659 10.4 5.41872 10.5875L4.11437 11.575C3.99872 11.6625 3.96659 11.8312 4.03727 11.9562L5.27094 14.0313C5.34804 14.1688 5.50867 14.2125 5.65003 14.1688L7.18569 13.5687C7.50696 13.8062 7.8475 14.0063 8.2266 14.1562L8.45791 15.7438C8.49004 15.8938 8.61212 16 8.76633 16H11.2337C11.3879 16 11.5164 15.8938 11.5357 15.7438L11.767 14.1562C12.1461 14.0063 12.493 13.8062 12.8079 13.5687L14.3435 14.1688C14.4849 14.2188 14.6455 14.1688 14.7226 14.0313L15.9563 11.9562C16.0334 11.8187 16.0013 11.6625 15.8792 11.575L14.5877 10.5875ZM10 12.25C8.72778 12.25 7.68687 11.2375 7.68687 10C7.68687 8.7625 8.72778 7.75 10 7.75C11.2722 7.75 12.3131 8.7625 12.3131 10C12.3131 11.2375 11.2722 12.25 10 12.25Z" fill="white"/>
</svg>
