<svg width="25" height="29" viewBox="0 0 25 29" fill="none" xmlns="http://www.w3.org/2000/svg">
<path d="M18.1276 0.0144126C18.0664 -0.0539874 15.8614 0.0414127 13.9426 2.12401C12.0238 4.20481 12.319 6.59161 12.3622 6.65281C12.4054 6.71401 15.0982 6.80941 16.8172 4.38841C18.5362 1.96741 18.1888 0.0846126 18.1276 0.0144126ZM24.0928 21.1338C24.0064 20.961 19.9078 18.9126 20.2894 14.9742C20.671 11.034 23.3044 9.95401 23.3458 9.83701C23.3872 9.72001 22.2712 8.41501 21.0886 7.75441C20.2203 7.28867 19.2593 7.02183 18.2752 6.97321C18.0808 6.96781 17.4058 6.80221 16.018 7.18201C15.1036 7.43221 13.0426 8.24221 12.4756 8.27461C11.9068 8.30701 10.2148 7.33501 8.395 7.07761C7.2304 6.85261 5.9956 7.31341 5.1118 7.66801C4.2298 8.02081 2.5522 9.02521 1.3786 11.6946C0.205001 14.3622 0.818801 18.5886 1.258 19.9026C1.6972 21.2148 2.383 23.3658 3.5494 24.9354C4.5862 26.7066 5.9614 27.936 6.5356 28.3536C7.1098 28.7712 8.7298 29.0484 9.853 28.4742C10.7566 27.9198 12.3874 27.6012 13.0318 27.6246C13.6744 27.648 14.9416 27.9018 16.2394 28.5948C17.2672 28.9494 18.2392 28.8018 19.213 28.4058C20.1868 28.008 21.5962 26.4996 23.2414 23.4414C23.866 22.0194 24.1504 21.2508 24.0928 21.1338Z" fill="black"/>
</svg>
