<svg width="26" height="16" viewBox="0 0 26 16" fill="none" xmlns="http://www.w3.org/2000/svg">
<path fill-rule="evenodd" clip-rule="evenodd" d="M2.28735 7.99993C2.28735 7.69688 2.40774 7.40624 2.62203 7.19195C2.83632 6.97766 3.12695 6.85728 3.43 6.85728L23.9977 6.85728C24.3008 6.85728 24.5914 6.97766 24.8057 7.19195C25.02 7.40624 25.1404 7.69688 25.1404 7.99993C25.1404 8.30298 25.02 8.59361 24.8057 8.8079C24.5914 9.02219 24.3008 9.14258 23.9977 9.14258L3.43 9.14258C3.12695 9.14258 2.83632 9.02219 2.62203 8.8079C2.40774 8.59361 2.28735 8.30298 2.28735 7.99993Z" fill="#1D3262"/>
<path fill-rule="evenodd" clip-rule="evenodd" d="M0.335697 8.809C0.229286 8.70285 0.14486 8.57676 0.0872559 8.43794C0.0296516 8.29912 9.36068e-08 8.1503 9.53991e-08 8C9.71913e-08 7.8497 0.0296516 7.70088 0.0872559 7.56206C0.14486 7.42324 0.229286 7.29714 0.335697 7.191L7.1916 0.335096C7.40616 0.120537 7.69717 9.17878e-08 8.0006 9.54062e-08C8.30403 9.90246e-08 8.59504 0.120537 8.8096 0.335096C9.02416 0.549656 9.14469 0.840661 9.14469 1.14409C9.14469 1.44753 9.02416 1.73853 8.8096 1.95309L2.7604 8L8.8096 14.0469C9.02416 14.2615 9.14469 14.5525 9.14469 14.8559C9.14469 15.1593 9.02416 15.4503 8.8096 15.6649C8.59504 15.8795 8.30403 16 8.0006 16C7.69717 16 7.40616 15.8795 7.1916 15.6649L0.335697 8.809Z" fill="#1D3262"/>
</svg>
