<svg width="18" height="18" viewBox="0 0 18 18" fill="none" xmlns="http://www.w3.org/2000/svg">
<path d="M7.18691 18.0005C7.48977 17.9935 7.7804 17.8796 8.0074 17.679C8.2344 17.4784 8.38314 17.204 8.4273 16.9043H5.89844C5.94386 17.2121 6.09956 17.493 6.33657 17.6946C6.57358 17.8963 6.87576 18.005 7.18691 18.0005Z" fill="black"/>
<path d="M14.1636 14.8986C13.7 14.4853 13.2941 14.0115 12.9568 13.4899C12.5887 12.77 12.368 11.9838 12.3078 11.1774V8.80241C12.3058 8.51392 12.2801 8.22609 12.2309 7.94183C11.8525 7.86618 11.4888 7.72981 11.1539 7.53798C11.2816 7.94896 11.3464 8.37687 11.3462 8.80722V11.1822C11.4052 12.1659 11.6758 13.1253 12.1395 13.9948C12.4714 14.5207 12.8653 15.005 13.3126 15.4371H1.00001C1.44732 15.005 1.84117 14.5207 2.17309 13.9948C2.63685 13.1253 2.90744 12.1659 2.96637 11.1822V8.80241C2.96384 8.24601 3.07109 7.69457 3.28197 7.17967C3.49285 6.66477 3.80323 6.19652 4.19533 5.80174C4.58743 5.40696 5.05355 5.09341 5.567 4.87902C6.08045 4.66464 6.63115 4.55364 7.18756 4.55238C8.00188 4.55303 8.79791 4.79385 9.47604 5.24469C9.40128 4.97016 9.35932 4.68774 9.35104 4.40334V4.10045C8.84904 3.85351 8.30975 3.69107 7.75487 3.61968V3.0139C7.75487 2.84368 7.68725 2.68043 7.56688 2.56006C7.44652 2.43969 7.28326 2.37207 7.11304 2.37207C6.94281 2.37207 6.77956 2.43969 6.6592 2.56006C6.53883 2.68043 6.47121 2.84368 6.47121 3.0139V3.64372C5.22875 3.81898 4.09166 4.43783 3.26984 5.386C2.44803 6.33418 1.997 7.54766 2.00002 8.80241V11.1774C1.9398 11.9838 1.71914 12.77 1.35097 13.4899C1.01966 14.0103 0.620291 14.4841 0.163463 14.8986C0.11218 14.9437 0.0710782 14.9991 0.0428933 15.0613C0.0147085 15.1235 8.64412e-05 15.1909 0 15.2592V15.913C0 16.0406 0.0506527 16.1628 0.140815 16.253C0.230978 16.3432 0.353264 16.3938 0.480773 16.3938H13.8463C13.9738 16.3938 14.0961 16.3432 14.1862 16.253C14.2764 16.1628 14.327 16.0406 14.327 15.913V15.2592C14.327 15.1909 14.3123 15.1235 14.2841 15.0613C14.256 14.9991 14.2149 14.9437 14.1636 14.8986Z" fill="black"/>
<path d="M13 10C15.7614 10 18 7.76142 18 5C18 2.23858 15.7614 0 13 0C10.2386 0 8 2.23858 8 5C8 7.76142 10.2386 10 13 10Z" fill="#FFECA9"/>
</svg>
