<svg width="28" height="25" viewBox="0 0 28 25" fill="none" xmlns="http://www.w3.org/2000/svg">
<rect width="28" height="25" rx="5" fill="#F8F1D9"/>
<path d="M14.5 14.25C15.7084 14.25 16.8021 13.76 17.594 12.9681C18.385 12.1771 18.875 11.0834 18.875 9.875C18.875 8.66663 18.385 7.57288 17.594 6.78188C16.8021 5.99 15.7084 5.5 14.5 5.5C13.2916 5.5 12.1979 5.99 11.406 6.78188C10.615 7.57288 10.125 8.66663 10.125 9.875C10.125 11.0834 10.615 12.1771 11.406 12.9681C12.1979 13.76 13.2916 14.25 14.5 14.25ZM21.5 15.125C22.1038 15.125 22.6506 14.8809 23.047 14.4854C23.4434 14.0899 23.6875 13.543 23.6875 12.9375C23.6875 12.3338 23.4434 11.7869 23.047 11.3905C22.6506 10.9941 22.1038 10.75 21.5 10.75C20.8954 10.75 20.3485 10.9941 19.9521 11.3905C19.5566 11.7869 19.3125 12.3338 19.3125 12.9375C19.3125 13.5421 19.5566 14.089 19.9521 14.4854C20.3476 14.8818 20.8954 15.125 21.5 15.125ZM21.5 15.6413C20.3354 15.6413 19.4595 15.9965 18.9476 16.4883C17.972 15.6859 16.4294 15.125 14.5 15.125C12.5173 15.125 11.0044 15.692 10.0445 16.4935C9.523 15.9991 8.6375 15.6413 7.5 15.6413C5.5855 15.6413 4.4375 16.595 4.4375 17.5505C4.4375 18.0274 5.5855 18.506 7.5 18.506C8.0285 18.506 8.50275 18.4614 8.92013 18.3896L8.88513 18.6259C8.88513 19.5009 10.9904 20.3759 14.5 20.3759C17.7917 20.3759 20.1149 19.5009 20.1149 18.6259L20.0974 18.4028C20.5025 18.4666 20.968 18.506 21.5 18.506C23.2946 18.506 24.5625 18.0274 24.5625 17.5505C24.5625 16.595 23.3611 15.6413 21.5 15.6413ZM7.5 15.125C8.10375 15.125 8.65063 14.8809 9.047 14.4845C9.44338 14.0881 9.6875 13.5413 9.6875 12.9375C9.6875 12.3346 9.44338 11.7878 9.047 11.3905C8.65063 10.995 8.10375 10.75 7.5 10.75C6.89538 10.75 6.3485 10.995 5.95212 11.3905C5.55663 11.7878 5.3125 12.3346 5.3125 12.9375C5.3125 13.5413 5.55663 14.0881 5.95212 14.4845C6.3485 14.8809 6.89538 15.125 7.5 15.125Z" fill="black"/>
</svg>
