<svg width="20" height="20" viewBox="0 0 20 20" fill="none" xmlns="http://www.w3.org/2000/svg">
<path d="M10 0C15.52 0 20 4.48 20 10C20 15.52 15.52 20 10 20C4.48 20 0 15.52 0 10C0 4.48 4.48 0 10 0ZM4.023 13.416C5.491 15.606 7.695 17 10.16 17C12.624 17 14.829 15.607 16.296 13.416C14.6317 11.8606 12.4379 10.9968 10.16 11C7.88171 10.9966 5.68751 11.8604 4.023 13.416ZM10 9C10.7956 9 11.5587 8.68393 12.1213 8.12132C12.6839 7.55871 13 6.79565 13 6C13 5.20435 12.6839 4.44129 12.1213 3.87868C11.5587 3.31607 10.7956 3 10 3C9.20435 3 8.44129 3.31607 7.87868 3.87868C7.31607 4.44129 7 5.20435 7 6C7 6.79565 7.31607 7.55871 7.87868 8.12132C8.44129 8.68393 9.20435 9 10 9Z" fill="black"/>
<path d="M18.9408 11.9406C18.9601 11.8 18.9697 11.6547 18.9697 11.5C18.9697 11.35 18.9601 11.2 18.936 11.0594L19.9142 10.3187C20.001 10.2531 20.0251 10.1266 19.9721 10.0328L19.0468 8.47656C18.989 8.37344 18.8685 8.34062 18.7625 8.37344L17.6107 8.82344C17.3698 8.64531 17.1144 8.49531 16.83 8.38281L16.6566 7.19219C16.6373 7.07969 16.5409 7 16.4253 7H14.5747C14.4591 7 14.3675 7.07969 14.3483 7.19219L14.1748 8.38281C13.8904 8.49531 13.6302 8.65 13.3941 8.82344L12.2423 8.37344C12.1363 8.33594 12.0158 8.37344 11.958 8.47656L11.0376 10.0328C10.9798 10.1312 10.999 10.2531 11.0954 10.3187L12.0737 11.0594C12.0496 11.2 12.0303 11.3547 12.0303 11.5C12.0303 11.6453 12.0399 11.8 12.064 11.9406L11.0858 12.6813C10.999 12.7469 10.9749 12.8734 11.028 12.9672L11.9532 14.5234C12.011 14.6266 12.1315 14.6594 12.2375 14.6266L13.3893 14.1766C13.6302 14.3547 13.8856 14.5047 14.17 14.6172L14.3434 15.8078C14.3675 15.9203 14.4591 16 14.5747 16H16.4253C16.5409 16 16.6373 15.9203 16.6517 15.8078L16.8252 14.6172C17.1096 14.5047 17.3698 14.3547 17.6059 14.1766L18.7577 14.6266C18.8637 14.6641 18.9842 14.6266 19.042 14.5234L19.9672 12.9672C20.0251 12.8641 20.001 12.7469 19.9094 12.6813L18.9408 11.9406ZM15.5 13.1875C14.5458 13.1875 13.7652 12.4281 13.7652 11.5C13.7652 10.5719 14.5458 9.8125 15.5 9.8125C16.4542 9.8125 17.2348 10.5719 17.2348 11.5C17.2348 12.4281 16.4542 13.1875 15.5 13.1875Z" fill="white"/>
</svg>
