<svg width="40" height="40" viewBox="0 0 40 40" fill="none" xmlns="http://www.w3.org/2000/svg">
<circle cx="20" cy="20" r="20" fill="#FD0000"/>
<path d="M27 15.3158C27 15.4963 26.9337 15.6705 26.8138 15.8053C26.6939 15.9402 26.5286 16.0264 26.3494 16.0475L26.2632 16.0526H25.6405L24.7335 25.2779C24.6841 25.7785 24.4503 26.2428 24.0775 26.5805C23.7048 26.9183 23.2197 27.1053 22.7167 27.1053H17.2833C16.7803 27.1053 16.2952 26.9183 15.9225 26.5805C15.5497 26.2428 15.3159 25.7785 15.2665 25.2779L14.3595 16.0526H13.7368C13.5414 16.0526 13.354 15.975 13.2158 15.8368C13.0776 15.6986 13 15.5112 13 15.3158C13 15.1204 13.0776 14.9329 13.2158 14.7948C13.354 14.6566 13.5414 14.5789 13.7368 14.5789H17.4211C17.4211 14.2403 17.4878 13.9049 17.6174 13.592C17.747 13.2791 17.9369 12.9948 18.1764 12.7554C18.4159 12.5159 18.7002 12.3259 19.0131 12.1963C19.326 12.0667 19.6613 12 20 12C20.3387 12 20.674 12.0667 20.9869 12.1963C21.2998 12.3259 21.5841 12.5159 21.8236 12.7554C22.0631 12.9948 22.253 13.2791 22.3826 13.592C22.5122 13.9049 22.5789 14.2403 22.5789 14.5789H26.2632C26.4586 14.5789 26.646 14.6566 26.7842 14.7948C26.9224 14.9329 27 15.1204 27 15.3158ZM21.6579 17.7105C21.5244 17.7105 21.3953 17.7589 21.2947 17.8467C21.194 17.9344 21.1286 18.0557 21.1104 18.188L21.1053 18.2632V23.4211L21.1104 23.4962C21.1286 23.6285 21.1941 23.7497 21.2947 23.8374C21.3954 23.9252 21.5244 23.9735 21.6579 23.9735C21.7914 23.9735 21.9204 23.9252 22.0211 23.8374C22.1217 23.7497 22.1872 23.6285 22.2054 23.4962L22.2105 23.4211V18.2632L22.2054 18.188C22.1872 18.0557 22.1218 17.9344 22.0211 17.8467C21.9205 17.7589 21.7914 17.7105 21.6579 17.7105ZM18.3421 17.7105C18.2086 17.7105 18.0795 17.7589 17.9789 17.8467C17.8782 17.9344 17.8128 18.0557 17.7946 18.188L17.7895 18.2632V23.4211L17.7946 23.4962C17.8128 23.6285 17.8783 23.7497 17.9789 23.8374C18.0796 23.9252 18.2086 23.9735 18.3421 23.9735C18.4756 23.9735 18.6046 23.9252 18.7053 23.8374C18.8059 23.7497 18.8714 23.6285 18.8896 23.4962L18.8947 23.4211V18.2632L18.8896 18.188C18.8714 18.0557 18.806 17.9344 18.7053 17.8467C18.6047 17.7589 18.4756 17.7105 18.3421 17.7105ZM20 13.4737C19.7069 13.4737 19.4257 13.5901 19.2185 13.7974C19.0112 14.0047 18.8947 14.2858 18.8947 14.5789H21.1053C21.1053 14.2858 20.9888 14.0047 20.7815 13.7974C20.5743 13.5901 20.2931 13.4737 20 13.4737Z" fill="white"/>
</svg>
