<svg fill="none" height="17" viewBox="0 0 27 17" width="27" xmlns="http://www.w3.org/2000/svg"><g clip-rule="evenodd" fill="#000" fill-rule="evenodd"><path d="m2.43018 8.50001c0-.32199.12791-.63079.35559-.85847s.53648-.35559.85847-.35559h21.85316c.322 0 .6308.12791.8585.35559s.3556.53648.3556.85847-.1279.6308-.3556.85848-.5365.35559-.8585.35559h-21.85316c-.32199 0-.63079-.12791-.85847-.35559s-.35559-.53649-.35559-.85848z"/><path d="m.356677 9.35956c-.113062-.11278-.202763-.24675-.2639681-.39425-.0612046-.1475-.09270926-.30562-.09270927-.46531s.03150467-.31781.09270927-.46531c.0612051-.1475.1509061-.28147.2639681-.39425l7.284403-7.284399c.22797-.227971.53716-.35604136.85956-.35604137.32239-.00000002.63159.12807037.85956.35604137.22796.227968.35604.53716.35604.859559 0 .3224-.12808.63159-.35604.85956l-6.42727 6.42484 6.42727 6.4248c.22797.228.35604.5372.35604.8596s-.12807.6316-.35604.8596c-.22797.2279-.53717.356-.85956.356-.3224 0-.63159-.1281-.85956-.356z"/></g></svg>