<svg width="14" height="16" viewBox="0 0 14 16" fill="none" xmlns="http://www.w3.org/2000/svg">
<path d="M14 3.31579C14 3.49627 13.9337 3.67046 13.8138 3.80533C13.6939 3.94019 13.5286 4.02636 13.3494 4.04747L13.2632 4.05263H12.6405L11.7335 13.2779C11.6841 13.7785 11.4503 14.2428 11.0775 14.5805C10.7048 14.9183 10.2197 15.1053 9.71674 15.1053H4.28326C3.78026 15.1053 3.29521 14.9183 2.92246 14.5805C2.54972 14.2428 2.31591 13.7785 2.26653 13.2779L1.35947 4.05263H0.736842C0.541419 4.05263 0.354001 3.975 0.215816 3.83682C0.0776313 3.69863 0 3.51121 0 3.31579C0 3.12037 0.0776313 2.93295 0.215816 2.79476C0.354001 2.65658 0.541419 2.57895 0.736842 2.57895H4.42105C4.42105 2.24028 4.48776 1.90492 4.61736 1.59203C4.74697 1.27913 4.93693 0.994834 5.17641 0.755356C5.41589 0.515879 5.70019 0.325915 6.01308 0.196311C6.32597 0.0667065 6.66133 0 7 0C7.33867 0 7.67403 0.0667065 7.98692 0.196311C8.29981 0.325915 8.58411 0.515879 8.82359 0.755356C9.06307 0.994834 9.25303 1.27913 9.38264 1.59203C9.51224 1.90492 9.57895 2.24028 9.57895 2.57895H13.2632C13.4586 2.57895 13.646 2.65658 13.7842 2.79476C13.9224 2.93295 14 3.12037 14 3.31579ZM8.6579 5.71053C8.52435 5.71053 8.39533 5.75889 8.29468 5.84667C8.19404 5.93445 8.12858 6.0557 8.11042 6.188L8.10526 6.26316V11.4211L8.11042 11.4962C8.12862 11.6285 8.19409 11.7497 8.29473 11.8374C8.39537 11.9252 8.52438 11.9735 8.6579 11.9735C8.79141 11.9735 8.92042 11.9252 9.02106 11.8374C9.1217 11.7497 9.18717 11.6285 9.20537 11.4962L9.21053 11.4211V6.26316L9.20537 6.188C9.18721 6.0557 9.12175 5.93445 9.02111 5.84667C8.92046 5.75889 8.79144 5.71053 8.6579 5.71053ZM5.34211 5.71053C5.20856 5.71053 5.07954 5.75889 4.97889 5.84667C4.87825 5.93445 4.81279 6.0557 4.79463 6.188L4.78947 6.26316V11.4211L4.79463 11.4962C4.81283 11.6285 4.8783 11.7497 4.97894 11.8374C5.07958 11.9252 5.20859 11.9735 5.34211 11.9735C5.47562 11.9735 5.60463 11.9252 5.70527 11.8374C5.80591 11.7497 5.87138 11.6285 5.88958 11.4962L5.89474 11.4211V6.26316L5.88958 6.188C5.87142 6.0557 5.80596 5.93445 5.70532 5.84667C5.60467 5.75889 5.47565 5.71053 5.34211 5.71053ZM7 1.47368C6.70687 1.47368 6.42574 1.59013 6.21846 1.79741C6.01118 2.00469 5.89474 2.28581 5.89474 2.57895H8.10526C8.10526 2.28581 7.98882 2.00469 7.78154 1.79741C7.57426 1.59013 7.29313 1.47368 7 1.47368Z" fill="white"/>
</svg>
