<svg width="20" height="20" viewBox="0 0 20 20" fill="none" xmlns="http://www.w3.org/2000/svg">
<circle cx="10" cy="10" r="10" fill="black"/>
<path d="M13.2582 5.54375C13.2082 5.54375 13.1582 5.53125 13.1145 5.50625C11.9145 4.8875 10.877 4.625 9.63322 4.625C8.39572 4.625 7.22072 4.91875 6.15197 5.50625C6.00197 5.5875 5.81447 5.53125 5.72697 5.38125C5.64572 5.23125 5.70197 5.0375 5.85197 4.95625C7.01447 4.325 8.28947 4 9.63322 4C10.9645 4 12.127 4.29375 13.402 4.95C13.5582 5.03125 13.6145 5.21875 13.5332 5.36875C13.477 5.48125 13.3707 5.54375 13.2582 5.54375ZM4.31447 8.825C4.25197 8.825 4.18947 8.80625 4.13322 8.76875C3.98947 8.66875 3.95822 8.475 4.05822 8.33125C4.67697 7.45625 5.46447 6.76875 6.40197 6.2875C8.36447 5.275 10.877 5.26875 12.8457 6.28125C13.7832 6.7625 14.5707 7.44375 15.1895 8.3125C15.2895 8.45 15.2582 8.65 15.1145 8.75C14.9707 8.85 14.777 8.81875 14.677 8.675C14.1145 7.8875 13.402 7.26875 12.5582 6.8375C10.7645 5.91875 8.47072 5.91875 6.68322 6.84375C5.83322 7.28125 5.12072 7.90625 4.55822 8.69375C4.50822 8.78125 4.41447 8.825 4.31447 8.825ZM8.22072 16.3688C8.13947 16.3688 8.05822 16.3375 8.00197 16.275C7.45822 15.7312 7.16447 15.3813 6.74572 14.625C6.31447 13.8562 6.08947 12.9187 6.08947 11.9125C6.08947 10.0563 7.67697 8.54375 9.62697 8.54375C11.577 8.54375 13.1645 10.0563 13.1645 11.9125C13.1645 12.0875 13.027 12.225 12.852 12.225C12.677 12.225 12.5395 12.0875 12.5395 11.9125C12.5395 10.4 11.2332 9.16875 9.62697 9.16875C8.02072 9.16875 6.71447 10.4 6.71447 11.9125C6.71447 12.8125 6.91447 13.6438 7.29572 14.3188C7.69572 15.0375 7.97072 15.3438 8.45197 15.8313C8.57072 15.9563 8.57072 16.15 8.45197 16.275C8.38322 16.3375 8.30197 16.3688 8.22072 16.3688ZM12.702 15.2125C11.9582 15.2125 11.302 15.025 10.7645 14.6562C9.83322 14.025 9.27697 13 9.27697 11.9125C9.27697 11.7375 9.41447 11.6 9.58947 11.6C9.76447 11.6 9.90197 11.7375 9.90197 11.9125C9.90197 12.7937 10.352 13.625 11.1145 14.1375C11.5582 14.4375 12.077 14.5813 12.702 14.5813C12.852 14.5813 13.102 14.5625 13.352 14.5188C13.5207 14.4875 13.6832 14.6 13.7145 14.775C13.7457 14.9437 13.6332 15.1062 13.4582 15.1375C13.102 15.2063 12.7895 15.2125 12.702 15.2125ZM11.4457 16.5C11.4207 16.5 11.3895 16.4937 11.3645 16.4875C10.3707 16.2125 9.72072 15.8437 9.03947 15.175C8.16447 14.3062 7.68322 13.15 7.68322 11.9125C7.68322 10.9 8.54572 10.075 9.60822 10.075C10.6707 10.075 11.5332 10.9 11.5332 11.9125C11.5332 12.5813 12.1145 13.125 12.8332 13.125C13.552 13.125 14.1332 12.5813 14.1332 11.9125C14.1332 9.55625 12.102 7.64375 9.60197 7.64375C7.82697 7.64375 6.20197 8.63125 5.47072 10.1625C5.22697 10.6687 5.10197 11.2625 5.10197 11.9125C5.10197 12.4 5.14572 13.1687 5.52072 14.1688C5.58322 14.3313 5.50197 14.5125 5.33947 14.5688C5.17697 14.6313 4.99572 14.5438 4.93947 14.3875C4.63322 13.5688 4.48322 12.7563 4.48322 11.9125C4.48322 11.1625 4.62697 10.4812 4.90822 9.8875C5.73947 8.14375 7.58322 7.0125 9.60197 7.0125C12.4457 7.0125 14.7582 9.20625 14.7582 11.9062C14.7582 12.9187 13.8957 13.7437 12.8332 13.7437C11.7707 13.7437 10.9082 12.9187 10.9082 11.9062C10.9082 11.2375 10.327 10.6937 9.60822 10.6937C8.88947 10.6937 8.30822 11.2375 8.30822 11.9062C8.30822 12.975 8.72072 13.975 9.47697 14.725C10.0707 15.3125 10.6395 15.6375 11.5207 15.8813C11.6895 15.925 11.7832 16.1 11.7395 16.2625C11.7082 16.4063 11.577 16.5 11.4457 16.5Z" fill="white"/>
</svg>
