<svg fill="none" height="29" viewBox="0 0 29 29" width="29" xmlns="http://www.w3.org/2000/svg"><circle cx="14.5" cy="14.5" fill="#43b0ff" opacity=".8" r="14.5"/><g fill="#f6f6f6"><path d="m12.9299 10.61c-.2265.2265-.2265.5937 0 .8201l1.74 1.74c.1134.1134.2616.17.41.17.1485 0 .2967-.0566.4101-.17.2265-.2264.2265-.5936 0-.8201l-1.74-1.74c-.2265-.2265-.5936-.2265-.8201 0z"/><path d="m11.5999 8.12008h6.96c.3202 0 .58-.25984.58-.58s-.2598-.58-.58-.58h-6.96c-.3201 0-.58.25984-.58.58s.2599.58.58.58z"/><path d="m11.5999 22.0401h6.96c.3202 0 .58-.2599.58-.58 0-.3202-.2598-.58-.58-.58h-6.96c-.3201 0-.58.2598-.58.58 0 .3201.2599.58.58.58z"/><path d="m15.0799 13.3401c.3202 0 .58-.2599.58-.58v-5.22002c0-.32016-.2598-.58-.58-.58-.3201 0-.58.25984-.58.58v5.22002c0 .3201.2599.58.58.58z"/><path d="m11.0199 19.7201h8.12c.3202 0 .58-.2599.58-.58 0-.3202-.2598-.58-.58-.58h-8.12c-.3201 0-.58.2598-.58.58 0 .3201.2599.58.58.58z"/><path d="m18.5599 8.1195v.00058c0 .32016.2599.58.58.58.3202 0 .58-.25984.58-.58 0-.63974-.5202-1.16-1.16-1.16-.3201 0-.58.25955-.58.57971s.2599.57971.58.57971z"/><path d="m19.1402 20.3001c-.3201 0-.5797.2598-.5797.58h-.0006c-.3201 0-.58.2598-.58.58 0 .3201.2599.58.58.58.6398 0 1.16-.5203 1.16-1.16 0-.3202-.2595-.58-.5797-.58z"/><path d="m11.5999 22.0401c.3202 0 .58-.2593.58-.5797 0-.3205-.2598-.5797-.58-.5797v-.0006c0-.3202-.2598-.58-.58-.58-.3201 0-.58.2598-.58.58 0 .6397.5203 1.16 1.16 1.16z"/><path d="m11.0197 8.70008c.3201 0 .5794-.25984.5794-.58h.0008c.3202 0 .58-.25984.58-.58s-.2598-.58-.58-.58c-.6397 0-1.16.52026-1.16 1.16 0 .32016.2593.58.5798.58z"/><path d="m15.0799 13.3401c.1485 0 .2967-.0566.4101-.17l1.74-1.74c.2265-.2264.2265-.5936 0-.8201s-.5936-.2265-.8201 0l-1.74 1.74c-.2265.2265-.2265.5937 0 .8201.1134.1134.2616.17.41.17z"/><path d="m19.1399 21.4601c.3202 0 .58-.2599.58-.58v-12.76002c0-.32016-.2598-.58-.58-.58-.3201 0-.58.25984-.58.58v12.76002c0 .3201.2599.58.58.58z"/><path d="m11.0199 21.4601c.3202 0 .58-.2599.58-.58v-12.76002c0-.32016-.2598-.58-.58-.58-.3201 0-.58.25984-.58.58v12.76002c0 .3201.2599.58.58.58z"/></g></svg>