<svg fill="none" height="29" viewBox="0 0 29 29" width="29" xmlns="http://www.w3.org/2000/svg"><circle cx="14.5" cy="14.5" fill="#ff881b" opacity=".8" r="14.5"/><path d="m15 7c-3.8543 0-7 3.1459-7 7 0 3.8543 3.1459 7 7 7 3.8543 0 7-3.1459 7-7 0-3.8543-3.1459-7-7-7zm-2.088 1.18371c-.4803.61061-.8293 1.36555-1.0708 2.09749h-1.7734c.7181-.95004 1.7039-1.68687 2.8442-2.09749zm-3.36839 2.91509h2.06549c-.1856.7776-.2951 1.6217-.3214 2.491h-2.45344c.0589-.8943.30879-1.7399.70935-2.491zm0 5.7996c-.40056-.751-.65045-1.5939-.70935-2.4882h2.45344c.0263.8693.1358 1.7107.3214 2.4882zm.52419.8204h1.7734c.2414.7318.5904 1.4868 1.0708 2.0975-1.1403-.4106-2.1261-1.1475-2.8442-2.0975zm4.522 2.3913c-.9157-.3079-1.5471-1.4835-1.8806-2.3913h1.8806zm0-3.2117h-2.1359c-.1993-.7665-.3175-1.6101-.3456-2.4882h2.4815zm0-3.3086h-2.4815c.0282-.8781.1463-1.7217.3456-2.4882h2.1359zm0-3.3086h-1.8806c.3335-.90774.9649-2.08343 1.8806-2.39127zm5.8666.8204c.4006.751.6504 1.5939.7093 2.4882h-2.4534c-.0263-.8693-.1358-1.7107-.3214-2.4882zm-.5242-.8204h-1.7734c-.2414-.73175-.5904-1.48679-1.0708-2.09749 1.1403.41062 2.1261 1.14745 2.8442 2.09749zm-4.522-2.39127c.9157.30784 1.5471 1.48351 1.8806 2.39127h-1.8806zm0 3.21167h2.1359c.1993.7665.3175 1.6101.3456 2.4882h-2.4815zm0 3.3058h2.4815c-.0282.8782-.1463 1.7245-.3456 2.491h-2.1359zm0 5.7027v-2.3941h1.8806c-.3335.9078-.9649 2.0862-1.8806 2.3941zm1.6778-.2938c.4803-.6106.8293-1.3683 1.0708-2.1003h1.7734c-.7181.9501-1.7039 1.6897-2.8442 2.1003zm3.3684-2.9179h-2.0655c.1856-.7775.2951-1.6216.3214-2.491h2.4534c-.0589.8944-.3088 1.74-.7093 2.491z" fill="#fff"/></svg>