<svg width="24" height="18" fill="none" xmlns="http://www.w3.org/2000/svg"><path d="M3.063.875A2.45 2.45 0 0 0 .624 3.313v11.374a2.45 2.45 0 0 0 2.438 2.438h17.875a2.45 2.45 0 0 0 2.437-2.438V3.313A2.45 2.45 0 0 0 20.937.874H3.063Zm0 1.625h17.875c.46 0 .812.352.812.813v11.374c0 .46-.352.813-.813.813H3.063a.798.798 0 0 1-.812-.813V3.313c0-.46.352-.813.813-.813Zm4.874 1.625a3.26 3.26 0 0 0-3.25 3.25c0 .905.388 1.72.99 2.31a4.092 4.092 0 0 0-1.802 3.377H5.5a2.426 2.426 0 0 1 2.438-2.437 2.426 2.426 0 0 1 2.437 2.438H12c0-1.397-.72-2.644-1.803-3.377.603-.59.99-1.406.99-2.311a3.26 3.26 0 0 0-3.25-3.25Zm5.688.813v1.625h6.5V4.938h-6.5Zm-5.688.812c.908 0 1.625.717 1.625 1.625S8.845 9 7.938 9a1.612 1.612 0 0 1-1.625-1.625c0-.908.717-1.625 1.625-1.625Zm5.688 2.438v1.624h6.5V8.188h-6.5Zm0 3.25v1.624h4.063v-1.624h-4.063Z" fill="#fff"/></svg>