<svg width="151" height="118" viewBox="0 0 151 118" fill="none" xmlns="http://www.w3.org/2000/svg">
<path fill-rule="evenodd" clip-rule="evenodd" d="M104.431 11.0625H144.969L150.312 16.4062V112.594L144.969 117.938H6.03125L0.6875 112.594V16.4062L6.03125 11.0625H46.5689L55.6854 1.93537L59.4688 0.375H91.5312L95.3146 1.93537L104.431 11.0625ZM11.375 107.25H139.625V21.75H102.219L98.4354 20.1896L89.3189 11.0625H61.6811L52.5646 20.1896L48.7812 21.75H11.375V107.25ZM27.4062 32.4375C25.989 32.4375 24.6298 33.0005 23.6276 34.0026C22.6255 35.0048 22.0625 36.364 22.0625 37.7812C22.0625 39.1985 22.6255 40.5577 23.6276 41.5599C24.6298 42.562 25.989 43.125 27.4062 43.125C28.8235 43.125 30.1827 42.562 31.1849 41.5599C32.187 40.5577 32.75 39.1985 32.75 37.7812C32.75 36.364 32.187 35.0048 31.1849 34.0026C30.1827 33.0005 28.8235 32.4375 27.4062 32.4375ZM75.5 43.125C81.169 43.125 86.6058 45.377 90.6144 49.3856C94.623 53.3942 96.875 58.831 96.875 64.5C96.875 70.169 94.623 75.6058 90.6144 79.6144C86.6058 83.623 81.169 85.875 75.5 85.875C69.831 85.875 64.3942 83.623 60.3856 79.6144C56.377 75.6058 54.125 70.169 54.125 64.5C54.125 58.831 56.377 53.3942 60.3856 49.3856C64.3942 45.377 69.831 43.125 75.5 43.125ZM75.5 32.4375C66.9965 32.4375 58.8413 35.8155 52.8284 41.8284C46.8155 47.8413 43.4375 55.9965 43.4375 64.5C43.4375 73.0035 46.8155 81.1587 52.8284 87.1716C58.8413 93.1845 66.9965 96.5625 75.5 96.5625C84.0035 96.5625 92.1587 93.1845 98.1716 87.1716C104.185 81.1587 107.562 73.0035 107.562 64.5C107.562 55.9965 104.185 47.8413 98.1716 41.8284C92.1587 35.8155 84.0035 32.4375 75.5 32.4375Z" fill="#BDBDBD"/>
</svg>
