<svg fill="none" height="23" viewBox="0 0 20 23" width="20" xmlns="http://www.w3.org/2000/svg"><path d="m18.3333 5.82418h-2.3016c.5385-.80176.746-1.78083.5788-2.73211-.1671-.95129-.6959-1.80099-1.4756-2.371127-.7796-.570133-1.7496-.8164635-2.7068-.6873936-.9572.1290696-1.8273.6235266-2.4281 1.3798006-.60078-.756274-1.47091-1.250731-2.4281-1.3798006-.9572-.1290699-1.92721.1172606-2.70685.6873936-.77964.570137-1.30842 1.419837-1.47557 2.371127-.16716.95128.04028 1.93035.57885 2.73211h-2.30166c-.4419.00044-.865562.17618-1.178027.48864-.312465.31247-.48820177.73614-.488643 1.17803v3.33335c.00044123.4419.176178.8655.488643 1.178s.736127.4882 1.178027.4886v8.3334c.00044.4419.17617.8655.48864 1.178.31246.3125.73613.4882 1.17802.4886h13.33337c.4419-.0004.8655-.1761 1.178-.4886s.4882-.7361.4886-1.178v-8.3334c.4419-.0004.8656-.1761 1.1781-.4886.3124-.3125.4882-.7361.4886-1.178v-3.33335c-.0004-.44189-.1762-.86556-.4886-1.17803-.3125-.31246-.7362-.4882-1.1781-.48864zm-7.5-2.08333c0-.41205.1222-.81484.3511-1.15744.229-.3426.5543-.60963.935-.76731s.7996-.19894 1.2037-.11856c.4041.08039.7753.27881 1.0667.57017s.4898.66257.5702 1.0667.0391.82302-.1186 1.2037c-.1577.38067-.4247.70605-.7673.93497s-.7454.3511-1.1574.3511h-2.0834zm-3.74997-2.08334c.55233.00067 1.08185.22037 1.47241.61093s.61027.92008.61093 1.47241v2.08333h-2.08334c-.55253 0-1.08243-.21949-1.47314-.61019-.3907-.3907-.61019-.92061-.61019-1.47314 0-.55254.21949-1.08244.61019-1.47314.39071-.3907.92061-.6102 1.47314-.6102zm-5.41666 5.83334h7.5v3.33335h-7.5zm1.66666 4.99995h5.83334v8.3334h-5.83334zm13.33417 8.3334h-5.8342v-8.3334h5.8334zm-5.8342-10v-3.33335h7.5l.0009 3.33335z" fill="#9a9a9a"/></svg>