<svg width="19" height="13" viewBox="0 0 19 13" fill="none" xmlns="http://www.w3.org/2000/svg">
<path d="M18.05 4.64286V3.71429H0.95V4.64286H18.05ZM18.05 5.57143H0.95V10.6786C0.95 11.4478 1.58799 12.0714 2.375 12.0714H16.625C17.412 12.0714 18.05 11.4478 18.05 10.6786V5.57143ZM18.05 2.78571V2.32143C18.05 1.55217 17.412 0.928571 16.625 0.928571H2.375C1.58799 0.928571 0.95 1.55217 0.95 2.32143V2.78571H18.05ZM14.2501 10.8945C13.5181 11.3084 12.5733 11.2018 11.9565 10.5989C11.2145 9.87365 11.2145 8.69778 11.9565 7.97252C12.5723 7.37058 13.5168 7.26228 14.2501 7.67697C14.5295 7.51899 14.854 7.42857 15.2 7.42857C16.2493 7.42857 17.1 8.26004 17.1 9.28571C17.1 10.3114 16.2493 11.1429 15.2 11.1429C14.854 11.1429 14.5296 11.0524 14.2501 10.8945ZM13.5373 10.1852C13.3861 9.91871 13.3 9.61204 13.3 9.28571C13.3 8.95938 13.3861 8.6527 13.5373 8.38621C13.221 8.30683 12.8727 8.39019 12.6282 8.62912C12.2573 8.99174 12.2573 9.57968 12.6282 9.94231C12.873 10.1816 13.2213 10.2645 13.5373 10.1852ZM0 2.32143C0 1.03934 1.06332 0 2.375 0H16.625C17.9367 0 19 1.03934 19 2.32143V10.6786C19 11.9607 17.9367 13 16.625 13H2.375C1.06332 13 0 11.9607 0 10.6786V2.32143ZM15.2 10.2143C15.7247 10.2143 16.15 9.79855 16.15 9.28571C16.15 8.77288 15.7247 8.35714 15.2 8.35714C14.6753 8.35714 14.25 8.77288 14.25 9.28571C14.25 9.79855 14.6753 10.2143 15.2 10.2143Z" fill="black"/>
</svg>
