<svg width="375" height="640" viewBox="0 0 375 640" fill="none" xmlns="http://www.w3.org/2000/svg">
<g opacity="0.3">
<path d="M30 561H12C10.8954 561 10 561.895 10 563V575C10 576.105 10.8954 577 12 577H30C31.1046 577 32 576.105 32 575V563C32 561.895 31.1046 561 30 561Z" stroke="#454545" stroke-width="0.8" stroke-linecap="round" stroke-linejoin="round"/>
<path d="M10 567H32" stroke="#454545" stroke-width="0.8" stroke-linecap="round" stroke-linejoin="round"/>
</g>
<g opacity="0.15">
<path d="M157 615H139C137.895 615 137 615.895 137 617V629C137 630.105 137.895 631 139 631H157C158.105 631 159 630.105 159 629V617C159 615.895 158.105 615 157 615Z" stroke="#454545" stroke-width="0.8" stroke-linecap="round" stroke-linejoin="round"/>
<path d="M137 621H159" stroke="#454545" stroke-width="0.8" stroke-linecap="round" stroke-linejoin="round"/>
</g>
<g opacity="0.15">
<path d="M268 139H250C248.895 139 248 139.895 248 141V153C248 154.105 248.895 155 250 155H268C269.105 155 270 154.105 270 153V141C270 139.895 269.105 139 268 139Z" stroke="#454545" stroke-width="0.8" stroke-linecap="round" stroke-linejoin="round"/>
<path d="M248 145H270" stroke="#454545" stroke-width="0.8" stroke-linecap="round" stroke-linejoin="round"/>
</g>
<g opacity="0.15">
<path d="M177 467C177.552 467 178 466.552 178 466C178 465.448 177.552 465 177 465C176.448 465 176 465.448 176 466C176 466.552 176.448 467 177 467Z" stroke="#454545" stroke-width="0.9" stroke-linecap="round" stroke-linejoin="round"/>
<path d="M188 467C188.552 467 189 466.552 189 466C189 465.448 188.552 465 188 465C187.448 465 187 465.448 187 466C187 466.552 187.448 467 188 467Z" stroke="#454545" stroke-width="0.9" stroke-linecap="round" stroke-linejoin="round"/>
<path d="M169 446H173L175.68 459.39C175.771 459.85 176.022 460.264 176.388 460.558C176.753 460.853 177.211 461.009 177.68 461H187.4C187.869 461.009 188.327 460.853 188.692 460.558C189.058 460.264 189.309 459.85 189.4 459.39L191 451H174" stroke="#454545" stroke-width="0.9" stroke-linecap="round" stroke-linejoin="round"/>
</g>
<g opacity="0.15">
<path d="M90 437C90.5523 437 91 436.552 91 436C91 435.448 90.5523 435 90 435C89.4477 435 89 435.448 89 436C89 436.552 89.4477 437 90 437Z" stroke="#454545" stroke-width="0.9" stroke-linecap="round" stroke-linejoin="round"/>
<path d="M101 437C101.552 437 102 436.552 102 436C102 435.448 101.552 435 101 435C100.448 435 100 435.448 100 436C100 436.552 100.448 437 101 437Z" stroke="#454545" stroke-width="0.9" stroke-linecap="round" stroke-linejoin="round"/>
<path d="M82 416H86L88.68 429.39C88.7714 429.85 89.0219 430.264 89.3875 430.558C89.7532 430.853 90.2107 431.009 90.68 431H100.4C100.869 431.009 101.327 430.853 101.692 430.558C102.058 430.264 102.309 429.85 102.4 429.39L104 421H87" stroke="#454545" stroke-width="0.9" stroke-linecap="round" stroke-linejoin="round"/>
</g>
<g opacity="0.15">
<path d="M338 201C338.552 201 339 200.552 339 200C339 199.448 338.552 199 338 199C337.448 199 337 199.448 337 200C337 200.552 337.448 201 338 201Z" stroke="#454545" stroke-width="0.9" stroke-linecap="round" stroke-linejoin="round"/>
<path d="M349 201C349.552 201 350 200.552 350 200C350 199.448 349.552 199 349 199C348.448 199 348 199.448 348 200C348 200.552 348.448 201 349 201Z" stroke="#454545" stroke-width="0.9" stroke-linecap="round" stroke-linejoin="round"/>
<path d="M330 180H334L336.68 193.39C336.771 193.85 337.022 194.264 337.388 194.558C337.753 194.853 338.211 195.009 338.68 195H348.4C348.869 195.009 349.327 194.853 349.692 194.558C350.058 194.264 350.309 193.85 350.4 193.39L352 185H335" stroke="#454545" stroke-width="0.9" stroke-linecap="round" stroke-linejoin="round"/>
</g>
<g opacity="0.15">
<path d="M25 63C25.5523 63 26 62.5523 26 62C26 61.4477 25.5523 61 25 61C24.4477 61 24 61.4477 24 62C24 62.5523 24.4477 63 25 63Z" stroke="#454545" stroke-width="0.9" stroke-linecap="round" stroke-linejoin="round"/>
<path d="M36 63C36.5523 63 37 62.5523 37 62C37 61.4477 36.5523 61 36 61C35.4477 61 35 61.4477 35 62C35 62.5523 35.4477 63 36 63Z" stroke="#454545" stroke-width="0.9" stroke-linecap="round" stroke-linejoin="round"/>
<path d="M17 42H21L23.68 55.39C23.7714 55.8504 24.0219 56.264 24.3875 56.5583C24.7532 56.8526 25.2107 57.009 25.68 57H35.4C35.8693 57.009 36.3268 56.8526 36.6925 56.5583C37.0581 56.264 37.3086 55.8504 37.4 55.39L39 47H22" stroke="#454545" stroke-width="0.9" stroke-linecap="round" stroke-linejoin="round"/>
</g>
<path opacity="0.15" d="M116.36 490H96.36C96.161 490 96 490.161 96 490.36V500.36C96 500.559 96.161 500.72 96.36 500.72H116.36C116.559 500.72 116.72 500.559 116.72 500.36V490.36C116.72 490.161 116.559 490 116.36 490ZM116 492.963C114.835 492.802 113.918 491.886 113.757 490.72H116V492.963ZM116 493.684V497.036C114.439 497.206 113.206 498.438 113.036 500H99.683C99.513 498.438 98.281 497.206 96.719 497.036V493.684C98.281 493.515 99.513 492.282 99.683 490.72H113.036C113.206 492.282 114.438 493.514 116 493.684ZM98.964 490.72C98.803 491.886 97.886 492.802 96.72 492.963V490.72H98.964ZM96.72 497.757C97.885 497.918 98.802 498.834 98.964 500H96.72V497.757ZM113.757 500C113.918 498.835 114.834 497.918 116 497.757V500H113.757ZM106.36 492C104.507 492 103 493.508 103 495.36C103 497.212 104.508 498.72 106.36 498.72C108.212 498.72 109.72 497.212 109.72 495.36C109.72 493.508 108.213 492 106.36 492ZM106.36 498C104.904 498 103.72 496.816 103.72 495.36C103.72 493.904 104.904 492.72 106.36 492.72C107.816 492.72 109 493.904 109 495.36C109 496.816 107.816 498 106.36 498Z" fill="#454545"/>
<path opacity="0.15" d="M159.36 69H139.36C139.161 69 139 69.161 139 69.36V79.36C139 79.559 139.161 79.72 139.36 79.72H159.36C159.559 79.72 159.72 79.559 159.72 79.36V69.36C159.72 69.161 159.559 69 159.36 69ZM159 71.963C157.835 71.802 156.918 70.886 156.757 69.72H159V71.963ZM159 72.684V76.036C157.439 76.206 156.206 77.438 156.036 79H142.683C142.513 77.438 141.281 76.206 139.719 76.036V72.684C141.281 72.515 142.513 71.282 142.683 69.72H156.036C156.206 71.282 157.438 72.514 159 72.684ZM141.964 69.72C141.803 70.886 140.886 71.802 139.72 71.963V69.72H141.964ZM139.72 76.757C140.885 76.918 141.802 77.834 141.964 79H139.72V76.757ZM156.757 79C156.918 77.835 157.834 76.918 159 76.757V79H156.757ZM149.36 71C147.507 71 146 72.508 146 74.36C146 76.212 147.508 77.72 149.36 77.72C151.212 77.72 152.72 76.212 152.72 74.36C152.72 72.508 151.213 71 149.36 71ZM149.36 77C147.904 77 146.72 75.816 146.72 74.36C146.72 72.904 147.904 71.72 149.36 71.72C150.816 71.72 152 72.904 152 74.36C152 75.816 150.816 77 149.36 77Z" fill="#454545"/>
<path opacity="0.15" d="M312.36 0H292.36C292.161 0 292 0.161002 292 0.360002V10.36C292 10.559 292.161 10.72 292.36 10.72H312.36C312.559 10.72 312.72 10.559 312.72 10.36V0.360002C312.72 0.161002 312.559 0 312.36 0ZM312 2.963C310.835 2.802 309.918 1.886 309.757 0.720002H312V2.963ZM312 3.684V7.036C310.439 7.206 309.206 8.438 309.036 10H295.683C295.513 8.438 294.281 7.206 292.719 7.036V3.684C294.281 3.515 295.513 2.282 295.683 0.720002H309.036C309.206 2.282 310.438 3.514 312 3.684ZM294.964 0.720002C294.803 1.886 293.886 2.802 292.72 2.963V0.720002H294.964ZM292.72 7.757C293.885 7.918 294.802 8.834 294.964 10H292.72V7.757ZM309.757 10C309.918 8.835 310.834 7.918 312 7.757V10H309.757ZM302.36 2C300.507 2 299 3.508 299 5.36C299 7.212 300.508 8.72 302.36 8.72C304.212 8.72 305.72 7.212 305.72 5.36C305.72 3.508 304.213 2 302.36 2ZM302.36 8C300.904 8 299.72 6.816 299.72 5.36C299.72 3.904 300.904 2.72 302.36 2.72C303.816 2.72 305 3.904 305 5.36C305 6.816 303.816 8 302.36 8Z" fill="#454545"/>
<path opacity="0.15" d="M22.2214 466.641L8.07927 452.499C7.93855 452.358 7.71086 452.358 7.57015 452.499L0.49908 459.57C0.358365 459.711 0.358365 459.938 0.499079 460.079L14.6412 474.221C14.7819 474.362 15.0096 474.362 15.1503 474.221L22.2214 467.15C22.3621 467.009 22.3621 466.782 22.2214 466.641ZM19.8717 468.482C19.1617 467.544 19.161 466.248 19.8717 465.309L21.4577 466.896L19.8717 468.482ZM19.3619 468.991L16.9916 471.362C15.7676 470.378 14.0246 470.377 12.7999 471.362L3.35791 461.92C4.34221 460.695 4.3422 458.953 3.35791 457.728L5.72813 455.358C6.95214 456.343 8.69515 456.342 9.91986 455.358L19.3619 464.8C18.3776 466.024 18.3776 467.767 19.3619 468.991ZM9.41145 454.849C8.47312 455.56 7.177 455.559 6.23866 454.849L7.82471 453.262L9.41145 454.849ZM2.8488 458.238C3.55873 459.176 3.55944 460.472 2.8495 461.411L1.26276 459.824L2.8488 458.238ZM13.3097 471.871C14.2474 471.161 15.5435 471.161 16.4818 471.871L14.8958 473.457L13.3097 471.871ZM13.7361 460.984C12.4259 459.674 10.2939 459.675 8.98436 460.984C7.6748 462.294 7.6748 464.426 8.98436 465.736C10.2939 467.045 12.4266 467.045 13.7361 465.736C15.0457 464.426 15.0464 462.294 13.7361 460.984ZM9.49348 465.227C8.46393 464.197 8.46393 462.523 9.49348 461.493C10.523 460.464 12.1975 460.464 13.227 461.493C14.2565 462.523 14.2565 464.197 13.227 465.227C12.1975 466.256 10.523 466.256 9.49348 465.227Z" fill="#454545"/>
<path opacity="0.15" d="M369.618 31.3059L353.077 42.5481C352.912 42.66 352.869 42.8836 352.981 43.0482L358.602 51.3189C358.714 51.4834 358.938 51.5261 359.102 51.4142L375.644 40.172C375.808 40.0602 375.851 39.8365 375.739 39.6719L370.118 31.4013C370.006 31.2367 369.782 31.1941 369.618 31.3059ZM370.986 33.9589C369.932 34.4806 368.658 34.2384 367.87 33.3646L369.725 32.1038L370.986 33.9589ZM371.391 34.5552L373.275 37.3275C372.08 38.3455 371.752 40.0576 372.49 41.445L361.446 48.9509C360.427 47.7545 358.716 47.4281 357.328 48.1655L355.444 45.3932C356.641 44.3754 356.967 42.6632 356.23 41.2757L367.273 33.7699C368.292 34.9662 370.003 35.2926 371.391 34.5552ZM355.635 41.6799C356.157 42.7347 355.914 44.0078 355.04 44.7964L353.779 42.9413L355.635 41.6799ZM357.735 48.7613C358.789 48.2396 360.062 48.4817 360.851 49.355L358.995 50.6164L357.735 48.7613ZM373.086 41.0397C372.564 39.9857 372.806 38.7124 373.68 37.9238L374.941 39.7789L373.086 41.0397ZM362.471 38.5811C360.939 39.6227 360.54 41.717 361.581 43.2488C362.622 44.7805 364.717 45.18 366.249 44.139C367.78 43.098 368.18 41.0031 367.139 39.4714C366.098 37.9397 364.004 37.5396 362.471 38.5811ZM365.844 43.5435C364.64 44.362 362.995 44.0482 362.177 42.844C361.358 41.6398 361.672 39.9951 362.876 39.1766C364.08 38.3582 365.725 38.6719 366.544 39.8761C367.362 41.0803 367.048 42.7251 365.844 43.5435Z" fill="#454545"/>
<path opacity="0.15" d="M136.839 169.202L120.298 180.445C120.133 180.556 120.091 180.78 120.202 180.945L125.823 189.215C125.935 189.38 126.159 189.423 126.324 189.311L142.865 178.068C143.029 177.957 143.072 177.733 142.96 177.568L137.339 169.298C137.227 169.133 137.004 169.091 136.839 169.202ZM138.207 171.855C137.153 172.377 135.879 172.135 135.091 171.261L136.946 170L138.207 171.855ZM138.612 172.452L140.496 175.224C139.301 176.242 138.974 177.954 139.711 179.341L128.667 186.847C127.649 185.651 125.937 185.325 124.55 186.062L122.665 183.29C123.862 182.272 124.188 180.56 123.451 179.172L134.495 171.666C135.513 172.863 137.225 173.189 138.612 172.452ZM122.856 179.576C123.378 180.631 123.135 181.904 122.261 182.693L121 180.838L122.856 179.576ZM124.956 186.658C126.01 186.136 127.283 186.378 128.073 187.251L126.217 188.513L124.956 186.658ZM140.307 178.936C139.786 177.882 140.028 176.609 140.902 175.82L142.162 177.675L140.307 178.936ZM129.693 176.478C128.16 177.519 127.761 179.614 128.802 181.145C129.843 182.677 131.938 183.076 133.47 182.035C135.002 180.994 135.401 178.9 134.36 177.368C133.319 175.836 131.225 175.436 129.693 176.478ZM133.065 181.44C131.861 182.258 130.216 181.945 129.398 180.741C128.579 179.536 128.893 177.892 130.097 177.073C131.302 176.255 132.946 176.568 133.765 177.773C134.583 178.977 134.269 180.622 133.065 181.44Z" fill="#454545"/>
<path opacity="0.15" d="M15.7001 212.718L-1.62036 202.718C-1.7927 202.619 -2.01263 202.678 -2.11213 202.85L-7.11213 211.51C-7.21163 211.682 -7.1527 211.902 -6.98036 212.002L10.3401 222.002C10.5125 222.101 10.7324 222.042 10.8319 221.87L15.8319 213.21C15.9314 213.038 15.8725 212.818 15.7001 212.718ZM13.9069 215.104C12.9785 214.382 12.6423 213.13 13.0859 212.04L15.0284 213.162L13.9069 215.104ZM13.5464 215.729L11.8704 218.631C10.4335 217.998 8.7497 218.449 7.82148 219.716L-3.74256 213.04C-3.10878 211.602 -3.55973 209.919 -4.82746 208.991L-3.15146 206.088C-1.71423 206.723 -0.0307832 206.271 0.897441 205.003L12.4615 211.68C11.8277 213.117 12.2786 214.8 13.5464 215.729ZM0.274769 204.644C-0.447661 205.573 -1.69981 205.908 -2.79009 205.464L-1.66859 203.522L0.274769 204.644ZM-5.18709 209.616C-4.25867 210.338 -3.92253 211.59 -4.36523 212.68L-6.30859 211.558L-5.18709 209.616ZM8.44588 220.077C9.16781 219.148 10.4196 218.812 11.5099 219.256L10.3884 221.198L8.44588 220.077ZM6.03989 209.45C4.43515 208.524 2.37605 209.076 1.45005 210.68C0.524048 212.284 1.07601 214.344 2.67989 215.27C4.28377 216.196 6.34374 215.644 7.26974 214.04C8.19574 212.436 7.64464 210.377 6.03989 209.45ZM3.03989 214.646C1.77896 213.918 1.34559 212.301 2.07359 211.04C2.80159 209.779 4.41896 209.346 5.67989 210.074C6.94083 210.802 7.3742 212.419 6.6462 213.68C5.9182 214.941 4.30083 215.374 3.03989 214.646Z" fill="#454545"/>
<g opacity="0.15">
<path d="M198.272 350.445L202 342L198.272 350.445ZM193.316 350.632L189 342L193.316 350.632ZM196.761 350.048L192.835 342L196.761 350.048ZM198.36 342L197.32 344.5L198.36 342ZM190 356C190 357.591 190.632 359.117 191.757 360.243C192.883 361.368 194.409 362 196 362C197.591 362 199.117 361.368 200.243 360.243C201.368 359.117 202 357.591 202 356C202 354.409 201.368 352.883 200.243 351.757C199.117 350.632 197.591 350 196 350C194.409 350 192.883 350.632 191.757 351.757C190.632 352.883 190 354.409 190 356V356Z" stroke="#454545" stroke-width="1.5" stroke-linecap="round" stroke-linejoin="round"/>
</g>
<g opacity="0.15">
<path d="M98.272 587.445L102 579L98.272 587.445ZM93.316 587.632L89 579L93.316 587.632ZM96.761 587.048L92.835 579L96.761 587.048ZM98.36 579L97.32 581.5L98.36 579ZM90 593C90 594.591 90.6321 596.117 91.7574 597.243C92.8826 598.368 94.4087 599 96 599C97.5913 599 99.1174 598.368 100.243 597.243C101.368 596.117 102 594.591 102 593C102 591.409 101.368 589.883 100.243 588.757C99.1174 587.632 97.5913 587 96 587C94.4087 587 92.8826 587.632 91.7574 588.757C90.6321 589.883 90 591.409 90 593V593Z" stroke="#454545" stroke-width="1.5" stroke-linecap="round" stroke-linejoin="round"/>
</g>
<g opacity="0.15">
<path d="M354.272 340.445L358 332L354.272 340.445ZM349.316 340.632L345 332L349.316 340.632ZM352.761 340.048L348.835 332L352.761 340.048ZM354.36 332L353.32 334.5L354.36 332ZM346 346C346 347.591 346.632 349.117 347.757 350.243C348.883 351.368 350.409 352 352 352C353.591 352 355.117 351.368 356.243 350.243C357.368 349.117 358 347.591 358 346C358 344.409 357.368 342.883 356.243 341.757C355.117 340.632 353.591 340 352 340C350.409 340 348.883 340.632 347.757 341.757C346.632 342.883 346 344.409 346 346V346Z" stroke="#454545" stroke-width="1.5" stroke-linecap="round" stroke-linejoin="round"/>
</g>
<g opacity="0.15">
<path d="M49.272 301.445L53 293L49.272 301.445ZM44.316 301.632L40 293L44.316 301.632ZM47.761 301.048L43.835 293L47.761 301.048ZM49.36 293L48.32 295.5L49.36 293ZM41 307C41 308.591 41.6321 310.117 42.7574 311.243C43.8826 312.368 45.4087 313 47 313C48.5913 313 50.1174 312.368 51.2426 311.243C52.3679 310.117 53 308.591 53 307C53 305.409 52.3679 303.883 51.2426 302.757C50.1174 301.632 48.5913 301 47 301C45.4087 301 43.8826 301.632 42.7574 302.757C41.6321 303.883 41 305.409 41 307V307Z" stroke="#454545" stroke-width="1.5" stroke-linecap="round" stroke-linejoin="round"/>
</g>
<g opacity="0.15">
<path d="M194.272 159.445L198 151L194.272 159.445ZM189.316 159.632L185 151L189.316 159.632ZM192.761 159.048L188.835 151L192.761 159.048ZM194.36 151L193.32 153.5L194.36 151ZM186 165C186 166.591 186.632 168.117 187.757 169.243C188.883 170.368 190.409 171 192 171C193.591 171 195.117 170.368 196.243 169.243C197.368 168.117 198 166.591 198 165C198 163.409 197.368 161.883 196.243 160.757C195.117 159.632 193.591 159 192 159C190.409 159 188.883 159.632 187.757 160.757C186.632 161.883 186 163.409 186 165V165Z" stroke="#454545" stroke-width="1.5" stroke-linecap="round" stroke-linejoin="round"/>
</g>
<g opacity="0.15">
<path d="M25.272 623.445L29 615L25.272 623.445ZM20.316 623.632L16 615L20.316 623.632ZM23.761 623.048L19.835 615L23.761 623.048ZM25.36 615L24.32 617.5L25.36 615ZM17 629C17 630.591 17.6321 632.117 18.7574 633.243C19.8826 634.368 21.4087 635 23 635C24.5913 635 26.1174 634.368 27.2426 633.243C28.3679 632.117 29 630.591 29 629C29 627.409 28.3679 625.883 27.2426 624.757C26.1174 623.632 24.5913 623 23 623C21.4087 623 19.8826 623.632 18.7574 624.757C17.6321 625.883 17 627.409 17 629V629Z" stroke="#454545" stroke-width="1.5" stroke-linecap="round" stroke-linejoin="round"/>
</g>
<path opacity="0.15" d="M220.005 527.25L226.5 516L232.995 527.25H220.005Z" stroke="#454545"/>
<path opacity="0.15" d="M358.005 635.25L364.5 624L370.995 635.25H358.005Z" stroke="#454545"/>
<path opacity="0.15" d="M212.005 69.25L218.5 58L224.995 69.25H212.005Z" stroke="#454545"/>
<path opacity="0.15" d="M258.005 97.25L264.5 86L270.995 97.25H258.005Z" stroke="#454545"/>
<path opacity="0.15" d="M98.0048 12.25L104.5 1L110.995 12.25H98.0048Z" stroke="#454545"/>
<path opacity="0.15" d="M307.005 506.25L313.5 495L319.995 506.25H307.005Z" stroke="#454545"/>
<path opacity="0.15" d="M113.005 134.25L119.5 123L125.995 134.25H113.005Z" stroke="#454545"/>
<path opacity="0.15" d="M52.0048 167.25L58.5 156L64.9952 167.25H52.0048Z" stroke="#454545"/>
<line opacity="0.15" x1="196.212" y1="412.788" x2="207.212" y2="423.788" stroke="#454545" stroke-width="0.6"/>
<line opacity="0.15" x1="317.212" y1="73.7879" x2="328.212" y2="84.7879" stroke="#454545" stroke-width="0.6"/>
<line opacity="0.15" x1="321.393" y1="122.255" x2="308.158" y2="130.43" stroke="#454545" stroke-width="0.6"/>
<line opacity="0.15" x1="172.212" y1="539.788" x2="183.212" y2="550.788" stroke="#454545" stroke-width="0.6"/>
<line opacity="0.15" x1="359.212" y1="243.788" x2="370.212" y2="254.788" stroke="#454545" stroke-width="0.6"/>
<line opacity="0.15" x1="251.351" y1="452.086" x2="259.129" y2="438.614" stroke="#454545" stroke-width="0.6"/>
<line opacity="0.15" x1="296.74" y1="457.322" x2="304.518" y2="443.85" stroke="#454545" stroke-width="0.6"/>
<line opacity="0.15" x1="285.74" y1="563.322" x2="293.518" y2="549.85" stroke="#454545" stroke-width="0.6"/>
<line opacity="0.15" x1="195.74" y1="17.3222" x2="203.518" y2="3.84997" stroke="#454545" stroke-width="0.6"/>
<line opacity="0.15" x1="59.5562" y1="515.3" x2="43.9998" y2="515.3" stroke="#454545" stroke-width="0.6"/>
<line opacity="0.15" x1="353.556" y1="435.3" x2="338" y2="435.3" stroke="#454545" stroke-width="0.6"/>
<line opacity="0.15" x1="366.556" y1="551.3" x2="351" y2="551.3" stroke="#454545" stroke-width="0.6"/>
<g opacity="0.15">
<path d="M8.272 364.445L12 356L8.272 364.445ZM3.316 364.632L-1 356L3.316 364.632ZM6.761 364.048L2.835 356L6.761 364.048ZM8.36 356L7.32 358.5L8.36 356ZM0 370C0 371.591 0.632141 373.117 1.75736 374.243C2.88258 375.368 4.4087 376 6 376C7.5913 376 9.11742 375.368 10.2426 374.243C11.3679 373.117 12 371.591 12 370C12 368.409 11.3679 366.883 10.2426 365.757C9.11742 364.632 7.5913 364 6 364C4.4087 364 2.88258 364.632 1.75736 365.757C0.632141 366.883 0 368.409 0 370V370Z" stroke="#454545" stroke-width="1.5" stroke-linecap="round" stroke-linejoin="round"/>
</g>
<g opacity="0.15">
<path d="M7 149C7.55228 149 8 148.552 8 148C8 147.448 7.55228 147 7 147C6.44772 147 6 147.448 6 148C6 148.552 6.44772 149 7 149Z" stroke="#454545" stroke-width="0.9" stroke-linecap="round" stroke-linejoin="round"/>
<path d="M18 149C18.5523 149 19 148.552 19 148C19 147.448 18.5523 147 18 147C17.4477 147 17 147.448 17 148C17 148.552 17.4477 149 18 149Z" stroke="#454545" stroke-width="0.9" stroke-linecap="round" stroke-linejoin="round"/>
<path d="M-1 128H3L5.68 141.39C5.77144 141.85 6.02191 142.264 6.38755 142.558C6.75318 142.853 7.2107 143.009 7.68 143H17.4C17.8693 143.009 18.3268 142.853 18.6925 142.558C19.0581 142.264 19.3086 141.85 19.4 141.39L21 133H4" stroke="#454545" stroke-width="0.9" stroke-linecap="round" stroke-linejoin="round"/>
</g>
<g opacity="0.15">
<path d="M310 288C310.552 288 311 287.552 311 287C311 286.448 310.552 286 310 286C309.448 286 309 286.448 309 287C309 287.552 309.448 288 310 288Z" stroke="#454545" stroke-width="0.9" stroke-linecap="round" stroke-linejoin="round"/>
<path d="M321 288C321.552 288 322 287.552 322 287C322 286.448 321.552 286 321 286C320.448 286 320 286.448 320 287C320 287.552 320.448 288 321 288Z" stroke="#454545" stroke-width="0.9" stroke-linecap="round" stroke-linejoin="round"/>
<path d="M302 267H306L308.68 280.39C308.771 280.85 309.022 281.264 309.388 281.558C309.753 281.853 310.211 282.009 310.68 282H320.4C320.869 282.009 321.327 281.853 321.692 281.558C322.058 281.264 322.309 280.85 322.4 280.39L324 272H307" stroke="#454545" stroke-width="0.9" stroke-linecap="round" stroke-linejoin="round"/>
</g>
<g opacity="0.15">
<path d="M71 207H53C51.8954 207 51 207.895 51 209V221C51 222.105 51.8954 223 53 223H71C72.1046 223 73 222.105 73 221V209C73 207.895 72.1046 207 71 207Z" stroke="#454545" stroke-width="0.8" stroke-linecap="round" stroke-linejoin="round"/>
<path d="M51 213H73" stroke="#454545" stroke-width="0.8" stroke-linecap="round" stroke-linejoin="round"/>
</g>
</svg>
