<svg width="11" height="12" viewBox="0 0 11 12" fill="none" xmlns="http://www.w3.org/2000/svg">
<path d="M5.5 11.5C8.53737 11.5 11 9.03737 11 6C11 2.96263 8.53737 0.5 5.5 0.5C2.46263 0.5 0 2.96263 0 6C0 9.03737 2.46263 11.5 5.5 11.5ZM7.81917 5.34L5.29833 7.86083C5.16943 7.98958 4.99469 8.06189 4.8125 8.06189C4.63031 8.06189 4.45557 7.98958 4.32667 7.86083L3.41 6.94417C3.28856 6.81384 3.22245 6.64146 3.22559 6.46335C3.22873 6.28524 3.30088 6.11531 3.42685 5.98935C3.55281 5.86338 3.72274 5.79123 3.90085 5.78809C4.07896 5.78495 4.25134 5.85106 4.38167 5.9725L4.8125 6.40287L6.8475 4.36787C6.97722 4.2427 7.15092 4.17349 7.33118 4.17514C7.51144 4.17679 7.68384 4.24917 7.81125 4.3767C7.93866 4.50423 8.01088 4.6767 8.01236 4.85696C8.01384 5.03722 7.94446 5.21085 7.81917 5.34046V5.34Z" fill="#219653"/>
</svg>
