<svg width="37" height="37" viewBox="0 0 37 37" fill="none" xmlns="http://www.w3.org/2000/svg">
<rect width="37" height="37" rx="18.5" fill="#EF5555" fill-opacity="0.1"/>
<path d="M28.1826 14.4313C27.6556 13.1762 26.889 12.0355 25.9255 11.0727C24.9648 10.1081 23.8237 9.34129 22.5668 8.81565C21.2793 8.27455 19.8959 7.99718 18.4989 8.00002H18.4519C17.031 8.00705 15.657 8.2883 14.3628 8.84143C13.1168 9.37246 11.9864 10.1407 11.0347 11.1031C10.0805 12.0638 9.3227 13.2006 8.80346 14.45C8.26447 15.7493 7.99136 17.143 8.00021 18.5492C8.00725 20.1758 8.39714 21.7906 9.12524 23.2344V26.7969C9.12524 27.3922 9.60907 27.875 10.2033 27.875H13.7686C15.2222 28.6069 16.8262 28.992 18.4543 29H18.5036C19.9081 29 21.268 28.7281 22.5504 28.1961C23.8009 27.6767 24.9378 26.9188 25.8973 25.9648C26.865 25.0063 27.6259 23.8859 28.1591 22.6367C28.7111 21.343 28.9929 19.9672 28.9999 18.5469C29.0046 17.1195 28.7275 15.7344 28.1826 14.4313ZM13.8109 19.625C13.1908 19.625 12.6859 19.1211 12.6859 18.5C12.6859 17.8789 13.1908 17.375 13.8109 17.375C14.431 17.375 14.9359 17.8789 14.9359 18.5C14.9359 19.1211 14.4333 19.625 13.8109 19.625ZM18.4989 19.625C17.8788 19.625 17.3739 19.1211 17.3739 18.5C17.3739 17.8789 17.8788 17.375 18.4989 17.375C19.119 17.375 19.6239 17.8789 19.6239 18.5C19.6239 19.1211 19.119 19.625 18.4989 19.625ZM23.1869 19.625C22.5668 19.625 22.0619 19.1211 22.0619 18.5C22.0619 17.8789 22.5668 17.375 23.1869 17.375C23.807 17.375 24.3119 17.8789 24.3119 18.5C24.3119 19.1211 23.807 19.625 23.1869 19.625Z" fill="#EF5555"/>
</svg>
