<svg width="14" height="15" viewBox="0 0 14 15" fill="none" xmlns="http://www.w3.org/2000/svg">
<g clip-path="url(#clip0_1138_94)">
<path d="M6.99999 5.16671C5.71082 5.16671 4.66665 6.21087 4.66665 7.50004C4.66665 8.78921 5.71082 9.83337 6.99999 9.83337C8.28915 9.83337 9.33332 8.78921 9.33332 7.50004C9.33332 6.21087 8.28915 5.16671 6.99999 5.16671ZM12.215 6.91671C11.9467 4.48421 10.0158 2.55337 7.58332 2.28504V1.08337H6.41665V2.28504C3.98415 2.55337 2.05332 4.48421 1.78499 6.91671H0.583321V8.08337H1.78499C2.05332 10.5159 3.98415 12.4467 6.41665 12.715V13.9167H7.58332V12.715C10.0158 12.4467 11.9467 10.5159 12.215 8.08337H13.4167V6.91671H12.215ZM6.99999 11.5834C4.74249 11.5834 2.91665 9.75754 2.91665 7.50004C2.91665 5.24254 4.74249 3.41671 6.99999 3.41671C9.25749 3.41671 11.0833 5.24254 11.0833 7.50004C11.0833 9.75754 9.25749 11.5834 6.99999 11.5834Z" fill="#545458" fill-opacity="0.65"/>
</g>
<defs>
<clipPath id="clip0_1138_94">
<rect width="14" height="14" fill="white" transform="translate(0 0.5)"/>
</clipPath>
</defs>
</svg>
