<svg fill="none" height="100" viewBox="0 0 100 100" width="100" xmlns="http://www.w3.org/2000/svg"><circle cx="50" cy="50" fill="#25314d" r="50"/><path d="m52.4409 25.9322c-1.6149-2.8039-5.1974-3.7646-8.0022-2.1458-1.8768 1.0844-3.0012 3.1057-2.9297 5.2757 0 .0002.0002.0004.0002.0005 0 .0004-.0002.0005-.0002.0009l.1554 4.5681-3.8805-2.418c-1.8396-1.1487-4.1512-1.1872-6.031-.1029-2.7981 1.615-3.7622 5.2056-2.1458 8.0065 1.0843 1.8754 3.0584 2.9254 5.0869 2.9254.9928 0 1.997-.2518 2.9182-.7825l12.6858-7.3243c2.7981-1.6164 3.7594-5.2055 2.1429-8.0036z" fill="#ffea80"/><path d="m44.4387 23.7864c-1.8769 1.0844-3.0012 3.1057-2.9297 5.2757 0 .0002.0002.0004.0002.0005 0 .0004-.0002.0005-.0002.0009l.1554 4.5682 2.2954 3.9635 6.3383-3.6594c2.798-1.6165 3.7593-5.2057 2.1428-8.0037-1.6148-2.8039-5.1973-3.7646-8.0022-2.1457z" fill="#ffdf40"/><path d="m48.9023 73h-14.6485c-.8089 0-1.4648-.6559-1.4648-1.4649v-17.7734c0-.809.6559-1.4648 1.4648-1.4648h14.6485c1.618 0 2.9297 1.3116 2.9297 2.9297v14.8437c0 1.6181-1.3117 2.9297-2.9297 2.9297z" fill="#ff7c44"/><path d="m70.8749 71.5351c0 .809-.6558 1.4648-1.4648 1.4648h-14.6484c-1.6181 0-2.9297-1.3116-2.9297-2.9297v-14.8437c0-1.6181 1.3116-2.9297 2.9297-2.9297h14.6484c.809 0 1.4648.6559 1.4648 1.4649z" fill="#ff4a57"/><g fill="#ffdf40"><path d="m72.5351 37.6484h-1.4649v-1.4649c0-.8096-.6551-1.4648-1.4648-1.4648s-1.4648.6552-1.4648 1.4648v1.4649h-1.4649c-.8096 0-1.4648.6552-1.4648 1.4648 0 .8097.6552 1.4649 1.4648 1.4649h1.4649v1.4648c0 .8097.6551 1.4648 1.4648 1.4648s1.4648-.6551 1.4648-1.4648v-1.4648h1.4649c.8097 0 1.4648-.6552 1.4648-1.4649 0-.8096-.6551-1.4648-1.4648-1.4648z"/><path d="m63.5507 43.5077h-1.4648v-1.4648c0-.8097-.6552-1.4648-1.4649-1.4648-.8096 0-1.4648.6551-1.4648 1.4648v1.4648h-1.4649c-.8096 0-1.4648.6552-1.4648 1.4649s.6552 1.4648 1.4648 1.4648h1.4649v1.4649c0 .8096.6552 1.4648 1.4648 1.4648.8097 0 1.4649-.6552 1.4649-1.4648v-1.4649h1.4648c.8097 0 1.4649-.6551 1.4649-1.4648s-.6552-1.4649-1.4649-1.4649z"/><path d="m54.7617 73h-5.8594v-20.7031h5.8594z"/></g><path d="m44.3581 44.124-16.4942 9.5215c-.1697-.2933-3.8984-6.7365-3.6621-6.328-.4101-.7031-.1758-1.6113.5274-1.9922l15.2343-8.789 4.0474 3.0716z" fill="#ff7c44"/><path d="m65.9206 31.6729-16.4942 9.5215-4.4368-2.6372.013-4.9506 15.2344-8.7891c.3515-.2051.7617-.2637 1.1133-.1465.3808.0878.7031.3223.9082.6738.1697.2934 3.8984 6.7366 3.6621 6.3281z" fill="#ff4a57"/><path d="m49.4263 41.1943-2.5341 1.4648-2.5342 1.4649-4.3945-7.5878 5.039-2.9297z" fill="#ffdf40"/><path d="m45.0025 33.6065-2.5082 1.4582 4.3979 7.5944 2.5341-1.4648z" fill="#ffbe40"/><path d="m51.832 52.2969h2.9297v20.7032h-2.9297z" fill="#ffbe40"/></svg>