<svg width="20" height="20" viewBox="0 0 20 20" fill="none" xmlns="http://www.w3.org/2000/svg">
<path d="M10 0C4.47715 0 0 4.47715 0 10C0 15.5228 4.47715 20 10 20C15.5228 20 20 15.5228 20 10C20 4.47715 15.5228 0 10 0Z" fill="#121212"/>
<path fill-rule="evenodd" clip-rule="evenodd" d="M9.13332 7.50073C8.85682 7.97879 8.24512 8.1421 7.76702 7.86561C7.28896 7.58906 7.12559 6.97733 7.40214 6.49927C7.91934 5.60518 8.88852 5 10.0002 5C11.657 5 13.0002 6.34315 13.0002 8C13.0001 9.0977 12.3268 9.994 11.5002 10.5C10.8362 10.9065 11.2502 12 9.99752 12C9.44532 12 8.99752 11.5523 8.99752 11C8.99752 10.9649 8.99932 10.9302 9.00292 10.896C9.03062 10.3672 9.26642 9.9368 9.52322 9.6239C9.79442 9.2935 10.1509 9.0237 10.4235 8.8616C11.9402 7.96 10.0903 6.1154 9.13332 7.50073ZM9.99752 13C9.44532 13 8.99752 13.4477 8.99752 14C8.99752 14.5523 9.44532 15 9.99752 15C10.5498 15 10.9975 14.5523 10.9975 14C10.9975 13.4477 10.5498 13 9.99752 13Z" fill="white"/>
</svg>
