<svg width="405" height="315" viewBox="0 0 405 315" fill="none" xmlns="http://www.w3.org/2000/svg">
<path d="M404.948 278.345H0V278.548H404.948V278.345Z" fill="#EBEBEB"/>
<path d="M63.1719 286.055H42.4872V286.258H63.1719V286.055Z" fill="#EBEBEB"/>
<path d="M213.813 283.861H124.773V284.063H213.813V283.861Z" fill="#EBEBEB"/>
<path d="M137.682 288.696H78.8272V288.898H137.682V288.696Z" fill="#EBEBEB"/>
<path d="M364.381 292.219H286.428V292.421H364.381V292.219Z" fill="#EBEBEB"/>
<path d="M279.212 292.219H274.085V292.421H279.212V292.219Z" fill="#EBEBEB"/>
<path d="M300.383 288.801H243.957V289.003H300.383V288.801Z" fill="#EBEBEB"/>
<path d="M191.945 242.224H35.5625C34.3375 242.222 33.1633 241.733 32.2978 240.866C31.4322 239.999 30.9461 238.824 30.9461 237.599V17.7691C30.9568 16.551 31.4476 15.3863 32.312 14.528C33.1763 13.6697 34.3444 13.1871 35.5625 13.1851H191.945C193.172 13.1851 194.348 13.6723 195.215 14.5395C196.083 15.4068 196.57 16.5831 196.57 17.8096V237.599C196.57 238.826 196.083 240.002 195.215 240.869C194.348 241.737 193.172 242.224 191.945 242.224ZM35.5625 13.347C34.3912 13.3492 33.2685 13.816 32.4409 14.6451C31.6134 15.4741 31.1486 16.5977 31.1486 17.7691V237.599C31.1486 238.771 31.6134 239.894 32.4409 240.723C33.2685 241.552 34.3912 242.019 35.5625 242.021H191.945C193.118 242.019 194.241 241.553 195.07 240.724C195.899 239.895 196.365 238.771 196.368 237.599V17.7691C196.365 16.5969 195.899 15.4734 195.07 14.6446C194.241 13.8158 193.118 13.3492 191.945 13.347H35.5625Z" fill="#EBEBEB"/>
<path d="M367.134 242.224H210.743C209.517 242.222 208.342 241.734 207.476 240.867C206.609 240 206.121 238.825 206.119 237.599V17.7691C206.131 16.5503 206.624 15.3856 207.49 14.5275C208.355 13.6695 209.524 13.1871 210.743 13.1851H367.134C368.351 13.1893 369.517 13.6728 370.38 14.5309C371.242 15.389 371.732 16.5524 371.742 17.7691V237.599C371.742 238.823 371.257 239.997 370.394 240.864C369.53 241.73 368.358 242.219 367.134 242.224ZM210.743 13.347C209.571 13.3492 208.447 13.8158 207.619 14.6446C206.79 15.4734 206.323 16.5969 206.321 17.7691V237.599C206.323 238.771 206.79 239.895 207.619 240.724C208.447 241.553 209.571 242.019 210.743 242.021H367.134C368.306 242.019 369.43 241.553 370.259 240.724C371.087 239.895 371.554 238.771 371.556 237.599V17.7691C371.554 16.5969 371.087 15.4734 370.259 14.6446C369.43 13.8158 368.306 13.3492 367.134 13.347H210.743Z" fill="#EBEBEB"/>
<path d="M342.044 278.345H366.478V182.186H342.044V278.345Z" fill="#F0F0F0"/>
<path d="M340.424 182.186H366.478V178.404H340.424V182.186Z" fill="#E6E6E6"/>
<path d="M190.585 46.5447H64.1762V278.345H190.585V46.5447Z" fill="#E6E6E6"/>
<path d="M177.076 46.5447H50.6671V270.586H177.076V46.5447Z" fill="#F5F5F5"/>
<path d="M130.158 61.2363H104.55L68.1933 270.586H93.8022L130.158 61.2363Z" fill="#FAFAFA"/>
<path d="M164.676 61.2363H139.067L102.711 270.586H128.328L164.676 61.2363Z" fill="#FAFAFA"/>
<path d="M177.076 46.5447H50.6671V66.46H177.076V46.5447Z" fill="#E0E0E0"/>
<path d="M127.47 139.707H123.218V173.067H127.47V139.707Z" fill="#E0E0E0"/>
<path d="M114.681 46.5447H113.053V270.586H114.681V46.5447Z" fill="#E6E6E6"/>
<path d="M104.517 139.707H100.265V173.067H104.517V139.707Z" fill="#E0E0E0"/>
<path d="M340.424 178.404H181.417V182.186H340.424V178.404Z" fill="#F0F0F0"/>
<path d="M342.044 182.186H183.442V278.345H342.044V182.186Z" fill="#F5F5F5"/>
<path d="M262.366 278.345H263.127V182.186H262.366V278.345Z" fill="#E6E6E6"/>
<path d="M286.971 150.236H278.062C277.753 150.234 277.458 150.11 277.239 149.892C277.021 149.674 276.898 149.378 276.896 149.07C276.896 148.76 277.018 148.462 277.237 148.242C277.455 148.022 277.752 147.897 278.062 147.895H286.971C287.282 147.895 287.581 148.019 287.801 148.239C288.021 148.459 288.145 148.758 288.145 149.07C288.143 149.38 288.018 149.676 287.798 149.895C287.578 150.113 287.281 150.236 286.971 150.236Z" fill="#E0E0E0"/>
<path d="M318.791 141.691H282.338C281.519 141.691 280.856 142.355 280.856 143.174V176.922C280.856 177.74 281.519 178.404 282.338 178.404H318.791C319.61 178.404 320.274 177.74 320.274 176.922V143.174C320.274 142.355 319.61 141.691 318.791 141.691Z" fill="#EBEBEB"/>
<path d="M288.801 138.67L279.082 140.638C278.74 140.703 278.434 140.894 278.225 141.173C278.017 141.452 277.92 141.799 277.955 142.146C277.989 142.492 278.152 142.813 278.412 143.046C278.672 143.278 279.009 143.404 279.358 143.4H321.731C322.08 143.404 322.417 143.278 322.677 143.046C322.937 142.813 323.1 142.492 323.134 142.146C323.169 141.799 323.072 141.452 322.864 141.173C322.655 140.894 322.349 140.703 322.007 140.638L312.288 138.67C304.537 137.104 296.552 137.104 288.801 138.67Z" fill="#F5F5F5"/>
<path d="M323.149 150.236H314.24C313.931 150.234 313.636 150.11 313.418 149.892C313.199 149.674 313.076 149.378 313.074 149.07C313.074 148.76 313.196 148.462 313.415 148.242C313.633 148.022 313.93 147.897 314.24 147.895H323.149C323.459 147.897 323.755 148.022 323.974 148.242C324.192 148.462 324.315 148.76 324.315 149.07C324.313 149.378 324.189 149.674 323.971 149.892C323.753 150.11 323.457 150.234 323.149 150.236Z" fill="#E0E0E0"/>
<path d="M245.982 156.918H239.187C238.95 156.918 238.724 156.824 238.557 156.657C238.39 156.489 238.296 156.263 238.296 156.027C238.296 155.79 238.39 155.564 238.557 155.397C238.724 155.23 238.95 155.136 239.187 155.136H245.982C246.218 155.136 246.445 155.23 246.612 155.397C246.779 155.564 246.873 155.79 246.873 156.027C246.873 156.263 246.779 156.489 246.612 156.657C246.445 156.824 246.218 156.918 245.982 156.918Z" fill="#E0E0E0"/>
<path d="M270.246 150.398H242.451C241.824 150.398 241.317 150.905 241.317 151.532V177.27C241.317 177.896 241.824 178.404 242.451 178.404H270.246C270.872 178.404 271.38 177.896 271.38 177.27V151.532C271.38 150.905 270.872 150.398 270.246 150.398Z" fill="#EBEBEB"/>
<path d="M247.375 148.098L239.972 149.596C239.708 149.642 239.472 149.786 239.31 150C239.148 150.213 239.073 150.48 239.099 150.747C239.126 151.013 239.252 151.26 239.453 151.437C239.654 151.614 239.915 151.709 240.183 151.702H272.506C272.774 151.709 273.034 151.614 273.235 151.437C273.436 151.26 273.563 151.013 273.59 150.747C273.616 150.48 273.541 150.213 273.379 150C273.217 149.786 272.98 149.642 272.716 149.596L265.314 148.098C259.394 146.899 253.295 146.899 247.375 148.098Z" fill="#F5F5F5"/>
<path d="M273.575 156.918H266.78C266.663 156.918 266.547 156.894 266.439 156.85C266.331 156.805 266.233 156.739 266.15 156.657C266.067 156.574 266.002 156.476 265.957 156.368C265.912 156.259 265.889 156.144 265.889 156.027C265.889 155.91 265.912 155.794 265.957 155.686C266.002 155.578 266.067 155.479 266.15 155.397C266.233 155.314 266.331 155.248 266.439 155.204C266.547 155.159 266.663 155.136 266.78 155.136H273.575C273.811 155.136 274.038 155.23 274.205 155.397C274.372 155.564 274.466 155.79 274.466 156.027C274.466 156.263 274.372 156.489 274.205 156.657C274.038 156.824 273.811 156.918 273.575 156.918Z" fill="#E0E0E0"/>
<path d="M327.465 83.8728H228.812V89.8093H327.465V83.8728Z" fill="#FAFAFA"/>
<path d="M327.465 50.2622H288.939L228.812 83.8729H327.465V50.2622Z" fill="#F5F5F5"/>
<path d="M327.465 89.8093H359.999V83.8728H327.465V89.8093Z" fill="#EBEBEB"/>
<path d="M327.465 50.2622H337.905L359.999 83.8729H327.465V50.2622Z" fill="#EBEBEB"/>
<path d="M312.523 0H327.465V50.2622H288.939V23.5842C288.939 17.3293 291.423 11.3305 295.846 6.90765C300.269 2.48475 306.268 0 312.523 0Z" fill="#FAFAFA"/>
<path d="M327.474 50.2622H337.913V3.05176e-05H327.474V50.2622Z" fill="#EBEBEB"/>
<path d="M202.474 314.92C289.2 314.92 359.505 310.815 359.505 305.752C359.505 300.689 289.2 296.584 202.474 296.584C115.748 296.584 45.4433 300.689 45.4433 305.752C45.4433 310.815 115.748 314.92 202.474 314.92Z" fill="#F5F5F5"/>
<path d="M226.366 298.941L219.774 298.998L218.769 283.739L225.362 283.674L226.366 298.941Z" fill="#FFB573"/>
<path d="M219.417 298.269L226.828 298.204C226.889 298.201 226.951 298.21 227.009 298.23C227.068 298.251 227.121 298.283 227.167 298.324C227.213 298.365 227.25 298.416 227.277 298.471C227.303 298.527 227.319 298.588 227.322 298.649L227.735 304.505C227.739 304.813 227.622 305.11 227.408 305.332C227.194 305.553 226.901 305.681 226.593 305.687C224.009 305.687 222.778 305.525 219.522 305.558C217.514 305.558 211.537 305.866 208.767 305.89C205.997 305.914 206.054 303.185 207.228 302.926C212.476 301.759 216.437 300.172 218.291 298.69C218.61 298.43 219.006 298.282 219.417 298.269Z" fill="#263238"/>
<path opacity="0.2" d="M225.37 283.682L218.769 283.747L219.288 291.611L225.888 291.547L225.37 283.682Z" fill="black"/>
<path d="M222.317 131.625C222.317 131.625 214.137 189.637 212.452 208.476C210.605 229.096 216.412 290 216.412 290L228.472 289.352C228.472 289.352 227.751 233.299 231.452 213.157C235.502 191.29 245.876 131.625 245.876 131.625H222.317Z" fill="#263238"/>
<path opacity="0.3" d="M235.947 160.262C228.925 171.334 231.72 189.5 234.198 197.906C236.441 185.385 239.171 169.9 241.422 157.047C240.45 154.698 239.729 154.358 235.947 160.262Z" fill="black"/>
<path d="M228.82 289.481L215.91 290.178L214.525 285.294L229.371 285.432L228.82 289.481Z" fill="#EF5555"/>
<path d="M217.093 299.411C217.686 299.388 218.275 299.304 218.85 299.16C218.879 299.152 218.905 299.137 218.925 299.116C218.945 299.094 218.958 299.067 218.964 299.038C218.969 299.009 218.965 298.979 218.954 298.952C218.942 298.924 218.923 298.901 218.899 298.884C218.688 298.739 216.809 297.483 216.008 297.807C215.916 297.844 215.835 297.903 215.773 297.98C215.711 298.056 215.669 298.147 215.651 298.244C215.608 298.385 215.604 298.535 215.64 298.678C215.676 298.82 215.75 298.95 215.854 299.054C216.207 299.326 216.649 299.453 217.093 299.411ZM218.421 298.941C217.247 299.184 216.38 299.16 216.064 298.852C215.998 298.78 215.953 298.692 215.933 298.596C215.913 298.501 215.919 298.402 215.951 298.309C215.957 298.261 215.976 298.215 216.006 298.177C216.036 298.139 216.076 298.109 216.121 298.091C216.55 297.912 217.652 298.463 218.421 298.941Z" fill="#EF5555"/>
<path d="M218.81 299.16C218.833 299.167 218.859 299.167 218.883 299.16C218.906 299.148 218.925 299.131 218.939 299.11C218.954 299.088 218.962 299.064 218.964 299.038C218.964 298.957 219.101 297.062 218.429 296.422C218.342 296.341 218.238 296.28 218.125 296.244C218.011 296.207 217.891 296.196 217.773 296.212C217.642 296.22 217.516 296.271 217.417 296.357C217.317 296.443 217.249 296.56 217.222 296.689C217.077 297.41 218.073 298.771 218.737 299.16C218.761 299.167 218.786 299.167 218.81 299.16ZM217.862 296.495C217.987 296.495 218.106 296.545 218.194 296.633C218.599 297.005 218.656 298.099 218.648 298.722C218.073 298.244 217.409 297.2 217.498 296.73C217.498 296.641 217.571 296.536 217.789 296.503L217.862 296.495Z" fill="#EF5555"/>
<path d="M230.691 82.3178C228.254 86.7699 225.549 91.0702 222.592 95.1952C221.102 97.2604 219.539 99.3095 217.805 101.294C216.001 103.459 213.949 105.405 211.691 107.093C211.391 107.319 211.01 107.554 210.662 107.773C210.314 107.992 210.022 108.129 209.698 108.316C209.075 108.664 208.443 108.988 207.836 109.263C206.597 109.846 205.406 110.316 204.175 110.794C201.745 111.733 199.316 112.414 196.934 113.183C192.142 114.556 187.275 115.651 182.356 116.463L181.028 111.693C185.499 109.83 190.018 107.959 194.399 106.024C196.594 105.068 198.765 104.072 200.838 103.035C201.859 102.517 202.887 101.982 203.819 101.415C204.313 101.148 204.75 100.873 205.171 100.605C205.365 100.468 205.633 100.322 205.779 100.2C205.924 100.079 206.078 99.9817 206.256 99.8197C207.798 98.4148 209.203 96.8663 210.452 95.1952C211.828 93.4053 213.181 91.494 214.501 89.5259C217.093 85.6222 219.628 81.4836 221.985 77.4666L230.691 82.3178Z" fill="#FFB573"/>
<path d="M219.263 78.9487C216.234 82.1397 213.764 90.2873 205.9 98.7993L209.666 109.968C219.798 104.906 232.57 83.9215 232.618 79.5157C232.691 72.9393 226.277 71.5544 219.263 78.9487Z" fill="#EF5555"/>
<path opacity="0.7" d="M219.263 78.9487C216.234 82.1397 213.764 90.2873 205.9 98.7993L209.666 109.968C219.798 104.906 232.57 83.9215 232.618 79.5157C232.691 72.9393 226.277 71.5544 219.263 78.9487Z" fill="white"/>
<path opacity="0.3" d="M227.273 84.2698C222.114 88.8862 219.458 96.2724 217.425 103.788C221.705 99.1893 225.464 94.1319 228.634 88.708L227.273 84.2698Z" fill="#EF5555"/>
<path d="M252.501 299.006H245.909L245.05 283.739H251.643L252.501 299.006Z" fill="#FFB573"/>
<path d="M245.561 298.269H252.971C253.033 298.267 253.094 298.277 253.152 298.298C253.21 298.32 253.263 298.353 253.308 298.395C253.353 298.437 253.39 298.487 253.415 298.544C253.441 298.6 253.455 298.661 253.457 298.722L253.822 304.578C253.822 304.886 253.7 305.183 253.483 305.403C253.267 305.622 252.972 305.748 252.663 305.752C250.088 305.704 248.857 305.558 245.593 305.558C243.593 305.558 238.563 305.76 235.801 305.76C233.04 305.76 233.113 303.031 234.279 302.78C239.543 301.67 242.564 300.14 244.427 298.674C244.749 298.416 245.148 298.274 245.561 298.269Z" fill="#263238"/>
<path opacity="0.2" d="M251.651 283.739H245.05L245.496 291.611H252.088L251.651 283.739Z" fill="black"/>
<path d="M235.194 131.292C235.194 131.292 234.562 181.676 235.631 200.555C236.806 221.231 242.669 289.716 242.669 289.716H254.745C254.745 289.716 254.388 222.9 255.109 202.434C255.919 180.218 256.729 131.292 256.729 131.292H235.194Z" fill="#263238"/>
<path d="M255.231 289.716H242.183L241.454 285.132L255.863 285.845L255.231 289.716Z" fill="#EF5555"/>
<path d="M243.228 299.394C243.821 299.377 244.409 299.298 244.986 299.16C245.014 299.152 245.04 299.137 245.06 299.115C245.08 299.094 245.094 299.067 245.099 299.038C245.104 299.009 245.101 298.979 245.089 298.952C245.078 298.924 245.059 298.901 245.034 298.884C244.824 298.738 242.961 297.459 242.151 297.775C242.059 297.811 241.979 297.871 241.916 297.947C241.854 298.024 241.812 298.115 241.795 298.212C241.756 298.352 241.754 298.5 241.788 298.642C241.822 298.783 241.891 298.914 241.989 299.022C242.341 299.297 242.783 299.43 243.228 299.394ZM244.564 298.933C243.382 299.168 242.515 299.135 242.208 298.828C242.143 298.754 242.098 298.664 242.078 298.567C242.058 298.471 242.064 298.371 242.094 298.277C242.102 298.229 242.121 298.184 242.151 298.145C242.181 298.107 242.22 298.077 242.264 298.058C242.702 297.888 243.779 298.447 244.589 298.933H244.564Z" fill="#EF5555"/>
<path d="M244.945 299.16H245.018C245.041 299.148 245.061 299.131 245.075 299.11C245.089 299.088 245.097 299.064 245.099 299.038C245.099 298.957 245.253 297.062 244.589 296.422C244.506 296.337 244.404 296.272 244.291 296.234C244.179 296.196 244.058 296.186 243.941 296.203C243.81 296.207 243.684 296.255 243.582 296.339C243.481 296.422 243.411 296.537 243.382 296.665C243.228 297.386 244.192 298.763 244.872 299.16H244.945ZM244.046 296.487C244.171 296.487 244.29 296.536 244.378 296.625C244.744 297.256 244.895 297.989 244.807 298.714C244.24 298.236 243.584 297.192 243.682 296.714C243.682 296.625 243.755 296.519 243.973 296.495L244.046 296.487Z" fill="#EF5555"/>
<path d="M182.154 111.239L174.573 111.766L177.408 118.496C177.408 118.496 184.438 116.876 184.373 114.608L182.154 111.239Z" fill="#FFB573"/>
<path d="M172.233 117.759L174.095 119.379C174.415 119.665 174.829 119.823 175.258 119.823C175.686 119.823 176.1 119.665 176.42 119.379L177.408 118.496L174.573 111.766L171.957 115.434C171.708 115.787 171.598 116.22 171.649 116.649C171.7 117.079 171.908 117.474 172.233 117.759Z" fill="#FFB573"/>
<path d="M171.811 109.077L170.435 110.656L194.732 142.866H196.351L171.811 109.077ZM172.621 112.802L171.301 111.045L172.03 110.235L173.285 111.96L172.621 112.802Z" fill="#263238"/>
<path d="M217.368 155.46L257.944 157.889C258.195 154.739 257.401 123.015 257.944 109.968C258.317 101.205 258.948 86.3997 261.143 76.4218C261.204 76.1474 261.209 75.8636 261.158 75.5873C261.106 75.311 260.999 75.048 260.843 74.8141C260.687 74.5803 260.486 74.3804 260.251 74.2266C260.015 74.0728 259.751 73.9682 259.475 73.9192C258.843 73.8139 258.098 73.6924 257.28 73.579C255.15 73.2632 252.485 72.9473 249.869 72.8177C244.876 72.5341 239.871 72.5341 234.878 72.8177C232.578 73.0364 230.327 73.417 228.529 73.7653C227.783 73.9111 227.144 74.0569 226.609 74.1783C226.09 74.3041 225.616 74.5724 225.241 74.953C224.866 75.3337 224.605 75.8115 224.487 76.3327C222.77 84.1077 215.991 117.419 217.368 155.46Z" fill="#EF5555"/>
<path opacity="0.7" d="M217.368 155.46L257.944 157.889C258.195 154.739 257.401 123.015 257.944 109.968C258.317 101.205 258.948 86.3997 261.143 76.4218C261.204 76.1474 261.209 75.8636 261.158 75.5873C261.106 75.311 260.999 75.048 260.843 74.8141C260.687 74.5803 260.486 74.3804 260.251 74.2266C260.015 74.0728 259.751 73.9682 259.475 73.9192C258.843 73.8139 258.098 73.6924 257.28 73.579C255.15 73.2632 252.485 72.9473 249.869 72.8177C244.876 72.5341 239.871 72.5341 234.878 72.8177C232.578 73.0364 230.327 73.417 228.529 73.7653C227.783 73.9111 227.144 74.0569 226.609 74.1783C226.09 74.3041 225.616 74.5724 225.241 74.953C224.866 75.3337 224.605 75.8115 224.487 76.3327C222.77 84.1077 215.991 117.419 217.368 155.46Z" fill="white"/>
<path d="M263.67 78.5115C264.48 79.7182 265.112 80.8116 265.776 81.9778C266.44 83.1441 267.063 84.2941 267.679 85.4604C268.886 87.8172 270.02 90.2226 271.024 92.7009C272.054 95.2022 272.949 97.757 273.705 100.354C274.053 101.691 274.401 103.019 274.652 104.404L274.757 104.914L274.814 105.173V105.327L274.863 105.635C274.964 106.363 274.964 107.102 274.863 107.83C274.704 108.897 274.384 109.935 273.915 110.907C273.203 112.352 272.328 113.711 271.307 114.957C270.392 116.083 269.453 117.111 268.489 118.083C266.61 119.937 264.634 121.688 262.568 123.331C258.523 126.598 254.261 129.588 249.813 132.281L246.881 128.296C250.541 124.927 254.17 121.428 257.628 117.913C259.329 116.131 261.005 114.357 262.487 112.519C263.233 111.612 263.937 110.705 264.545 109.806C265.084 109.033 265.535 108.201 265.889 107.328C265.973 107.15 266.017 106.957 266.019 106.761C265.993 106.862 265.993 106.967 266.019 107.068V107.133C266.019 107.133 266.019 107.085 266.019 107.06L265.954 106.85L265.832 106.445C265.541 105.351 265.152 104.258 264.779 103.165C263.97 100.962 263.038 98.7751 262.042 96.5965C261.046 94.4178 259.944 92.2554 258.802 90.1173C258.262 89.0374 257.682 87.9711 257.061 86.9182L255.279 83.8406L263.67 78.5115Z" fill="#FFB573"/>
<path opacity="0.3" d="M254.575 88.2139C253.668 93.5106 257.004 101.674 258.195 104.412C258.357 101.075 258.568 97.3495 258.867 93.5592L254.575 88.2139Z" fill="#EF5555"/>
<path d="M258.819 73.7978C252.105 73.3038 249.91 82.9335 251.627 88.2221C253.052 92.6522 258.559 97.131 263.548 106.558L276.021 104.825C272.312 89.1616 265.589 74.2919 258.819 73.7978Z" fill="#EF5555"/>
<path opacity="0.7" d="M258.819 73.7978C252.105 73.3038 249.91 82.9335 251.627 88.2221C253.052 92.6522 258.559 97.131 263.548 106.558L276.021 104.825C272.312 89.1616 265.589 74.2919 258.819 73.7978Z" fill="white"/>
<path d="M246.209 129L242.443 136.759L250.679 135.617C250.679 135.617 252.299 129.851 249.254 129.26L248.233 128.506C248.073 128.389 247.889 128.308 247.694 128.269C247.5 128.23 247.299 128.234 247.106 128.281C246.913 128.329 246.732 128.417 246.577 128.541C246.422 128.666 246.297 128.822 246.209 129Z" fill="#FFB573"/>
<path d="M184.227 144.834H180.38C180.021 144.834 179.677 144.691 179.424 144.438C179.17 144.184 179.028 143.84 179.028 143.481C179.03 143.123 179.173 142.78 179.426 142.527C179.679 142.274 180.022 142.131 180.38 142.129H184.227C184.585 142.133 184.926 142.277 185.179 142.529C185.432 142.782 185.576 143.124 185.58 143.481C185.578 143.839 185.434 144.182 185.181 144.435C184.928 144.688 184.585 144.832 184.227 144.834Z" fill="#EF5555"/>
<path d="M209.034 141.91L205.795 143.975C205.645 144.071 205.477 144.137 205.302 144.168C205.127 144.199 204.947 144.196 204.774 144.157C204.6 144.119 204.435 144.046 204.289 143.944C204.144 143.842 204.019 143.712 203.924 143.562C203.735 143.26 203.672 142.895 203.749 142.546C203.826 142.198 204.038 141.894 204.337 141.699L207.576 139.626C207.879 139.437 208.244 139.374 208.592 139.451C208.941 139.529 209.245 139.74 209.439 140.039C209.632 140.342 209.697 140.708 209.621 141.058C209.546 141.408 209.335 141.714 209.034 141.91Z" fill="#EF5555"/>
<path d="M189.872 144.194C182.583 144.194 180.834 140.954 180.761 140.801L180.955 140.695C180.955 140.736 182.745 143.975 189.864 143.975H190.674C194.885 143.838 197.266 142.032 199.372 140.444C201.275 139.003 202.928 137.763 205.487 138.014C206.17 138.015 206.846 138.159 207.47 138.438C208.094 138.717 208.652 139.125 209.107 139.634C209.693 140.446 209.934 141.456 209.779 142.445L209.569 142.404C209.708 141.475 209.481 140.529 208.937 139.764C208.503 139.272 207.969 138.878 207.372 138.607C206.775 138.336 206.127 138.195 205.471 138.193C202.992 137.982 201.373 139.205 199.502 140.622C197.372 142.242 194.966 144.056 190.682 144.194H189.872Z" fill="#EF5555"/>
<path d="M176.104 145.789C176.104 145.789 174.606 142.023 177.683 140.744C179.303 140.063 180.712 141.06 182.348 142.218C183.984 143.376 186.041 144.842 188.714 144.469C196.003 143.465 196.189 137.334 196.189 137.269H196.4C196.4 137.334 196.189 143.651 188.746 144.68C185.985 145.06 183.984 143.643 182.219 142.396C180.599 141.278 179.279 140.306 177.764 140.938C174.889 142.137 176.242 145.563 176.298 145.708L176.104 145.789Z" fill="#EF5555"/>
<path d="M202.928 139.221L200.798 140.339C200.701 140.396 200.593 140.432 200.482 140.445C200.37 140.459 200.257 140.449 200.15 140.416C200.043 140.383 199.943 140.328 199.858 140.255C199.773 140.182 199.704 140.092 199.656 139.991C199.599 139.894 199.562 139.786 199.549 139.675C199.536 139.563 199.546 139.45 199.579 139.343C199.611 139.236 199.666 139.136 199.739 139.051C199.813 138.966 199.903 138.897 200.004 138.849L202.134 137.715C202.231 137.658 202.339 137.622 202.451 137.609C202.563 137.597 202.676 137.607 202.784 137.641C202.891 137.675 202.99 137.73 203.075 137.804C203.16 137.878 203.228 137.969 203.276 138.071C203.334 138.168 203.372 138.276 203.386 138.389C203.4 138.501 203.39 138.615 203.357 138.723C203.324 138.832 203.269 138.932 203.195 139.018C203.121 139.104 203.03 139.173 202.928 139.221Z" fill="#EF5555"/>
<path d="M217.052 142.299L213.432 141.052C213.101 140.929 212.83 140.682 212.679 140.362C212.527 140.043 212.507 139.677 212.622 139.343C212.746 139.011 212.995 138.74 213.316 138.589C213.637 138.438 214.004 138.417 214.339 138.533L217.951 139.78C218.283 139.903 218.553 140.15 218.705 140.469C218.856 140.789 218.876 141.155 218.761 141.489C218.64 141.822 218.393 142.093 218.073 142.245C217.753 142.397 217.386 142.416 217.052 142.299Z" fill="#EF5555"/>
<path d="M221.013 145.312L179.578 148.997C178.619 149.085 177.662 148.794 176.914 148.187L171.803 144.032L227.783 139.043L223.491 144.04C222.859 144.766 221.971 145.222 221.013 145.312Z" fill="#263238"/>
<path d="M223.013 140.525L255.522 137.496L257.839 139.343L254.445 140.088L253.538 139.156L222.892 141.805L223.013 140.525Z" fill="#263238"/>
<path d="M245.172 140.801L248.946 141.343C249.199 141.378 249.457 141.357 249.701 141.28C249.945 141.204 250.168 141.074 250.356 140.901C250.543 140.727 250.69 140.514 250.785 140.277C250.88 140.039 250.922 139.784 250.906 139.529L250.679 135.617L242.443 136.759L243.56 139.521C243.691 139.858 243.91 140.154 244.193 140.379C244.476 140.604 244.814 140.749 245.172 140.801Z" fill="#FFB573"/>
<path d="M244.824 78.1549C243.409 78.2446 242.009 77.8156 240.888 76.9482C240.559 76.6607 240.3 76.3017 240.132 75.8988C239.963 75.4959 239.889 75.0597 239.916 74.6238C239.914 74.6007 239.918 74.5776 239.927 74.5561C239.935 74.5346 239.949 74.5154 239.966 74.4998C239.983 74.4843 240.003 74.4728 240.025 74.4662C240.048 74.4596 240.071 74.4581 240.094 74.4618C240.117 74.4628 240.14 74.4685 240.16 74.4785C240.181 74.4885 240.2 74.5027 240.215 74.5201C240.23 74.5376 240.241 74.5579 240.249 74.5799C240.256 74.6019 240.258 74.6251 240.256 74.6481C240.227 75.032 240.29 75.4172 240.439 75.772C240.588 76.1269 240.82 76.4412 241.114 76.689C242.272 77.7338 244.354 78.0659 246.889 77.6285C248.155 77.4338 249.325 76.8364 250.225 75.9246C251.125 75.0129 251.708 73.8354 251.886 72.5667C251.888 72.5446 251.894 72.5231 251.905 72.5036C251.916 72.4841 251.93 72.467 251.947 72.4534C251.965 72.4397 251.985 72.4298 252.006 72.4242C252.028 72.4186 252.05 72.4175 252.072 72.4209C252.095 72.4229 252.116 72.4293 252.136 72.4398C252.156 72.4503 252.174 72.4646 252.188 72.4819C252.202 72.4993 252.213 72.5192 252.22 72.5407C252.226 72.5622 252.228 72.5848 252.226 72.6071C252.024 73.9436 251.404 75.182 250.456 76.145C249.508 77.108 248.279 77.7463 246.946 77.9687C246.244 78.0871 245.535 78.1494 244.824 78.1549Z" fill="#263238"/>
<path d="M227.994 153.297C227.949 153.297 227.906 153.279 227.874 153.247C227.842 153.215 227.824 153.172 227.824 153.127C227.727 134.216 229.403 93.4944 231.509 82.7308C231.519 82.69 231.542 82.6534 231.574 82.6255C235.113 79.9934 238.474 77.2235 238.506 77.1992C238.522 77.1831 238.541 77.1702 238.562 77.1615C238.583 77.1527 238.605 77.1482 238.628 77.1482C238.651 77.1482 238.673 77.1527 238.694 77.1615C238.715 77.1702 238.734 77.1831 238.749 77.1992C238.78 77.2309 238.796 77.2729 238.796 77.3167C238.796 77.3604 238.78 77.4025 238.749 77.4341C238.749 77.4341 235.38 80.2121 231.857 82.8361C229.76 93.6806 228.091 134.24 228.188 153.095C228.188 153.141 228.171 153.185 228.139 153.218C228.107 153.251 228.064 153.271 228.018 153.273L227.994 153.297Z" fill="#263238"/>
<path d="M235.494 87.566C235.372 88.5217 234.829 89.2425 234.279 89.1858C233.728 89.1291 233.364 88.2868 233.469 87.3312C233.574 86.3755 234.125 85.6547 234.684 85.7114C235.243 85.7681 235.607 86.6104 235.494 87.566Z" fill="#263238"/>
<path d="M241.284 87.566C241.171 88.5217 240.628 89.2425 240.07 89.1858C239.511 89.1291 239.154 88.2868 239.26 87.3312C239.365 86.3755 239.924 85.6547 240.474 85.7114C241.025 85.7681 241.398 86.6104 241.284 87.566Z" fill="#263238"/>
<path d="M234.465 101.61C234.344 102.565 233.801 103.286 233.25 103.23C232.699 103.173 232.335 102.331 232.44 101.375C232.546 100.419 233.096 99.6984 233.655 99.7551C234.214 99.8118 234.578 100.654 234.465 101.61Z" fill="#263238"/>
<path d="M240.256 101.61C240.142 102.565 239.6 103.286 239.041 103.23C238.482 103.173 238.126 102.331 238.231 101.375C238.336 100.419 238.895 99.6984 239.446 99.7551C239.997 99.8118 240.369 100.654 240.256 101.61Z" fill="#263238"/>
<path d="M233.25 117.103C233.137 118.059 232.594 118.779 232.035 118.723C231.477 118.666 231.12 117.832 231.225 116.876C231.331 115.92 231.89 115.2 232.44 115.256C232.991 115.313 233.372 116.147 233.25 117.103Z" fill="#263238"/>
<path d="M239.057 117.103C238.936 118.059 238.393 118.779 237.834 118.723C237.275 118.666 236.927 117.832 237.024 116.876C237.122 115.92 237.68 115.2 238.239 115.256C238.798 115.313 239.171 116.147 239.057 117.103Z" fill="#263238"/>
<path d="M232.44 134.37C232.327 135.326 231.784 136.046 231.225 135.99C230.667 135.933 230.318 135.091 230.416 134.135C230.513 133.179 231.072 132.459 231.63 132.515C232.189 132.572 232.562 133.414 232.44 134.37Z" fill="#263238"/>
<path d="M238.239 134.37C238.126 135.326 237.583 136.046 237.024 135.99C236.465 135.933 236.109 135.091 236.214 134.135C236.32 133.179 236.87 132.459 237.429 132.515C237.988 132.572 238.353 133.414 238.239 134.37Z" fill="#263238"/>
<path d="M236.085 77.2641C235.612 77.2687 235.143 77.1713 234.712 76.9784C234.28 76.7855 233.894 76.5017 233.582 76.1464C232.327 74.7372 234.392 72.5829 234.457 72.4938C234.472 72.4778 234.49 72.4652 234.51 72.4565C234.531 72.4478 234.552 72.4434 234.574 72.4434C234.596 72.4434 234.618 72.4478 234.638 72.4565C234.658 72.4652 234.677 72.4778 234.692 72.4938C234.708 72.5096 234.721 72.5285 234.73 72.5494C234.738 72.5702 234.743 72.5926 234.743 72.6153C234.743 72.6379 234.738 72.6603 234.73 72.6811C234.721 72.702 234.708 72.7209 234.692 72.7367C234.692 72.7367 232.78 74.7534 233.833 75.9277C234.197 76.3369 234.664 76.6397 235.187 76.8037C235.709 76.9678 236.265 76.9869 236.798 76.8591C237.454 76.7419 238.075 76.4759 238.613 76.0814C239.15 75.6869 239.591 75.1744 239.899 74.5833C239.916 74.5416 239.948 74.5079 239.989 74.4898C240.03 74.4716 240.076 74.4702 240.118 74.4861C240.139 74.4925 240.159 74.5031 240.176 74.5173C240.193 74.5315 240.206 74.549 240.216 74.5687C240.226 74.5884 240.232 74.61 240.233 74.632C240.234 74.654 240.231 74.676 240.223 74.6967C239.891 75.3414 239.415 75.9013 238.832 76.3337C238.25 76.7661 237.576 77.0594 236.862 77.1912C236.606 77.2421 236.346 77.2665 236.085 77.2641Z" fill="#263238"/>
<path d="M235.599 72.7531C239.956 71.7164 240.726 69.0276 240.458 66.0634C240.388 65.3225 240.272 64.5867 240.11 63.8604L245.569 59.325L249.578 55.9963C248.468 60.8557 247.213 69.6188 250.477 72.8422C250.477 72.8422 247.099 75.7011 240.11 75.3772C234.416 75.1099 235.599 72.7531 235.599 72.7531Z" fill="#FFB573"/>
<path opacity="0.2" d="M240.086 63.8604C240.248 64.5867 240.364 65.3224 240.434 66.0633C242.467 65.6502 245.188 63.4797 245.472 61.3983C245.573 60.7121 245.598 60.0166 245.544 59.325L240.086 63.8604Z" fill="black"/>
<path d="M251.206 49.0475C249.813 55.4618 249.327 59.2765 245.536 62.2002C244.315 63.1533 242.858 63.7562 241.32 63.9442C239.782 64.1323 238.223 63.8983 236.808 63.2675C235.393 62.6366 234.176 61.6326 233.289 60.3632C232.401 59.0937 231.875 57.6066 231.768 56.0612C231.274 50.0922 233.639 40.6083 240.385 38.7942C241.833 38.3702 243.367 38.3334 244.833 38.6873C246.299 39.0412 247.647 39.7734 248.742 40.811C249.837 41.8486 250.641 43.1553 251.073 44.6005C251.505 46.0457 251.551 47.5791 251.206 49.0475Z" fill="#FFB573"/>
<path d="M235.623 55.0893C236.061 54.6713 236.638 54.4316 237.243 54.417C237.824 54.4271 238.395 54.5712 238.911 54.8382C239.422 55.0812 239.875 55.4375 240.361 55.3889C240.847 55.3403 240.952 54.579 240.531 54.3603L240.628 54.1741C240.769 54.2534 240.882 54.3728 240.955 54.5171C241.027 54.6614 241.054 54.824 241.033 54.984C241.009 55.1471 240.942 55.301 240.839 55.4294C240.719 55.5456 240.566 55.622 240.402 55.6481C239.823 55.6206 239.263 55.4358 238.782 55.1135C238.308 54.8834 237.786 54.767 237.259 54.7734C236.748 54.7968 236.264 55.0139 235.907 55.3808L235.623 55.0893Z" fill="#263238"/>
<path d="M234.303 55.2998C234.221 55.141 234.107 55.0012 233.967 54.8895C233.828 54.7779 233.666 54.6969 233.493 54.6519C233.133 54.6393 232.781 54.7605 232.505 54.9921C232.321 55.1411 232.094 55.2263 231.857 55.235C231.734 55.2228 231.615 55.1792 231.513 55.1083C231.411 55.0375 231.329 54.9417 231.274 54.8301C231.172 54.6302 231.127 54.406 231.144 54.1822C231.148 54.0614 231.185 53.9439 231.25 53.842C231.285 53.7833 231.334 53.7351 231.394 53.7023C231.454 53.6695 231.522 53.6534 231.59 53.6557V53.8582C231.46 53.8582 231.387 54.0121 231.379 54.1903C231.372 54.3693 231.417 54.5466 231.509 54.7005C231.542 54.771 231.593 54.8314 231.657 54.8755C231.721 54.9197 231.796 54.9459 231.873 54.9516C232.042 54.9332 232.201 54.8624 232.327 54.7491C232.66 54.4452 233.099 54.2826 233.55 54.2956C233.777 54.3453 233.991 54.4434 234.177 54.5832C234.363 54.7229 234.516 54.901 234.627 55.1054L234.303 55.2998Z" fill="#263238"/>
<path d="M246.816 43.4106C243.342 44.5849 236.879 43.775 234.327 44.0747C234.248 44.0841 234.168 44.0715 234.095 44.0385C234.022 44.0054 233.96 43.9531 233.915 43.8872C233.87 43.8212 233.844 43.7442 233.839 43.6645C233.835 43.5848 233.853 43.5054 233.89 43.4349C235.315 40.5921 236.546 38.859 237.94 37.9519C239.187 37.142 246.46 35.1091 251.578 39.677C256.697 44.2448 252.736 53.4452 252.736 53.4452L248.387 53.5424C248.212 53.5485 248.039 53.5081 247.885 53.4254C247.731 53.3426 247.602 53.2205 247.51 53.0715C247.419 52.9224 247.369 52.7518 247.365 52.577C247.361 52.4022 247.404 52.2295 247.488 52.0765C248.298 50.6268 249.294 48.4805 249.108 47.2171C247.999 46.1906 247.204 44.8707 246.816 43.4106Z" fill="#263238"/>
<path d="M234.87 42.0904C240.807 42.9813 249.651 47.6949 253.498 52.773C253.692 53.024 254.048 52.773 254.162 52.3032L257.264 39.523C257.3 39.4204 257.31 39.3105 257.293 39.203C257.276 39.0956 257.232 38.994 257.166 38.9075C252.501 34.445 247.853 31.2945 240.969 30.1606C240.831 30.1606 240.661 30.2578 240.547 30.4684L234.789 41.159C234.506 41.5316 234.57 42.0499 234.87 42.0904Z" fill="#EF5555"/>
<path opacity="0.7" d="M234.87 42.0904C240.807 42.9813 249.651 47.6949 253.498 52.773C253.692 53.024 254.048 52.773 254.162 52.3032L257.264 39.523C257.3 39.4204 257.31 39.3105 257.293 39.203C257.276 39.0956 257.232 38.994 257.166 38.9075C252.501 34.445 247.853 31.2945 240.969 30.1606C240.831 30.1606 240.661 30.2578 240.547 30.4684L234.789 41.159C234.506 41.5316 234.57 42.0499 234.87 42.0904Z" fill="white"/>
<path opacity="0.2" d="M257.11 38.8994C252.445 34.445 247.796 31.2945 240.912 30.1606C240.766 30.1606 240.612 30.2578 240.491 30.4684L236.595 37.6927C240.734 39.5473 249.027 39.6445 252.258 39.6688C253.813 41.8151 255.247 42.9084 256.357 43.0461L257.215 39.523C257.25 39.4184 257.259 39.3068 257.24 39.1981C257.222 39.0893 257.177 38.9868 257.11 38.8994Z" fill="#EF5555"/>
<path d="M252.809 39.199C248.306 38.8022 234.587 37.482 233.712 33.1248C232.667 27.9495 236.725 25.1392 241.519 25.1311C249.124 25.1311 258.43 30.6465 260.228 36.8341C262.164 43.5319 257.458 45.8969 252.809 39.199Z" fill="#EF5555"/>
<path opacity="0.7" d="M252.809 39.199C248.306 38.8022 234.587 37.482 233.712 33.1248C232.667 27.9495 236.725 25.1392 241.519 25.1311C249.124 25.1311 258.43 30.6465 260.228 36.8341C262.164 43.5319 257.458 45.8969 252.809 39.199Z" fill="white"/>
<path d="M252.688 55.7371C251.657 56.9882 250.227 57.8462 248.638 58.1668C246.622 58.515 246.168 56.6361 247.189 54.83C248.12 53.2102 250.282 51.0559 252.088 51.5337C253.894 52.0115 254 54.1659 252.688 55.7371Z" fill="#FFB573"/>
<path d="M241.292 50.2622C241.212 50.7886 240.863 51.1774 240.523 51.1369C240.183 51.0964 239.964 50.6347 240.045 50.1083C240.126 49.5819 240.466 49.1931 240.815 49.2336C241.163 49.2741 241.349 49.7357 241.292 50.2622Z" fill="#263238"/>
<path d="M235.024 49.5495C234.943 50.0759 234.603 50.4728 234.254 50.4242C233.906 50.3756 233.696 49.9301 233.777 49.4037C233.858 48.8773 234.206 48.4804 234.587 48.5209C234.967 48.5614 235.105 49.023 235.024 49.5495Z" fill="#263238"/>
<path d="M236.684 49.2175C235.797 50.7545 234.707 52.1655 233.445 53.4128C234.254 54.3928 235.874 54.2227 235.874 54.2227L236.684 49.2175Z" fill="#ED893E"/>
<path d="M238.677 57.7295C239.294 57.7376 239.906 57.6204 240.477 57.3852C241.048 57.1499 241.565 56.8015 241.997 56.3608C242.024 56.3296 242.037 56.2891 242.034 56.2481C242.031 56.2071 242.012 56.169 241.981 56.1421C241.95 56.1153 241.909 56.1019 241.868 56.1049C241.827 56.108 241.789 56.1272 241.762 56.1583C241.286 56.6303 240.707 56.9861 240.071 57.1982C239.434 57.4103 238.758 57.4729 238.093 57.3812C238.073 57.379 238.053 57.3808 238.033 57.3865C238.014 57.3922 237.995 57.4018 237.98 57.4146C237.964 57.4274 237.951 57.4432 237.941 57.4611C237.931 57.479 237.925 57.4987 237.923 57.5189C237.92 57.5393 237.921 57.5603 237.926 57.5803C237.931 57.6003 237.941 57.619 237.954 57.6351C237.967 57.6512 237.983 57.6643 238.002 57.6736C238.02 57.6829 238.04 57.6881 238.061 57.689C238.265 57.7184 238.471 57.7319 238.677 57.7295Z" fill="#263238"/>
<path d="M242.969 48.3912C243.02 48.403 243.072 48.403 243.123 48.3912C243.2 48.3605 243.261 48.3009 243.295 48.2252C243.328 48.1494 243.33 48.0637 243.301 47.9863C243.128 47.525 242.844 47.1135 242.474 46.7885C242.104 46.4635 241.659 46.2351 241.179 46.1235C241.139 46.1153 241.097 46.1154 241.056 46.1237C241.016 46.132 240.978 46.1483 240.944 46.1718C240.91 46.1952 240.881 46.2252 240.859 46.2601C240.836 46.2949 240.821 46.3339 240.815 46.3746C240.803 46.457 240.823 46.5408 240.871 46.6087C240.92 46.6766 240.992 46.7232 241.074 46.739C241.444 46.8367 241.784 47.0226 242.066 47.2807C242.348 47.5389 242.564 47.8616 242.694 48.2211C242.72 48.2717 242.759 48.3142 242.808 48.3441C242.856 48.3741 242.912 48.3903 242.969 48.3912Z" fill="#263238"/>
<path d="M232.853 46.4962C232.903 46.513 232.956 46.5165 233.007 46.5066C233.058 46.4966 233.105 46.4735 233.145 46.4396C233.446 46.1761 233.803 45.9851 234.189 45.8812C234.575 45.7773 234.98 45.7633 235.372 45.8402C235.451 45.8627 235.535 45.8532 235.606 45.8137C235.677 45.7742 235.73 45.708 235.753 45.6297C235.776 45.5502 235.766 45.465 235.727 45.3923C235.688 45.3196 235.621 45.2653 235.542 45.2409C235.051 45.1357 234.542 45.146 234.056 45.2711C233.57 45.3962 233.119 45.6326 232.74 45.9617C232.678 46.0151 232.639 46.0906 232.631 46.1722C232.624 46.2538 232.648 46.3352 232.7 46.3991C232.74 46.4459 232.794 46.4796 232.853 46.4962Z" fill="#263238"/>
<path d="M262.099 104.938C262.436 106.495 263.114 107.958 264.083 109.223C265.095 110.332 268.06 107.749 271.623 108.972C275.187 110.194 276.069 109.862 276.482 107.489C276.896 105.116 276.701 103.27 276.142 102.784C275.583 102.298 261.597 103.229 262.099 104.938Z" fill="#EF5555"/>
<path d="M206.459 96.896C205.463 98.2809 204.151 98.451 203.705 99.7387C203.106 101.464 206.224 103.489 206.507 107.238C206.791 110.988 207.447 111.677 209.804 111.15C212.16 110.624 213.772 109.684 213.991 108.98C214.21 108.275 208.816 93.6078 206.459 96.896Z" fill="#EF5555"/>
<path d="M248.347 154.99H179.011V157.055H248.347V154.99Z" fill="#263238"/>
<path d="M300.18 155.735H114.325V159.873H300.18V155.735Z" fill="#EF5555"/>
<path opacity="0.3" d="M300.18 155.735H281.868V159.873H300.18V155.735Z" fill="#263238"/>
<path d="M298.406 159.882H116.099V305.752H298.406V159.882Z" fill="#EF5555"/>
<path opacity="0.8" d="M298.406 159.882H116.099V305.752H298.406V159.882Z" fill="white"/>
<path opacity="0.3" d="M298.406 159.882H283.812V305.752H298.406V159.882Z" fill="#EF5555"/>
<g opacity="0.3">
<path d="M156.861 305.744H157.501L157.501 159.874H156.861L156.861 305.744Z" fill="#EF5555"/>
<path d="M157.501 305.744H158.14L158.14 159.874H157.501L157.501 305.744Z" fill="white"/>
<path d="M283.812 293.247V293.887H158.132L157.493 293.247H283.812Z" fill="#EF5555"/>
<path d="M158.132 293.879V294.519H283.812V293.879H158.132Z" fill="white"/>
</g>
<path opacity="0.3" d="M298.406 159.882H116.099V161.842L298.406 163.81V159.882Z" fill="#EF5555"/>
<path d="M119.719 98.4672C120.251 97.9424 120.968 97.6482 121.715 97.6482C122.463 97.6482 123.18 97.9424 123.712 98.4672L143.862 118.626C144.391 119.155 144.688 119.873 144.688 120.622C144.688 121.37 144.391 122.088 143.862 122.618C142.769 123.712 142.023 122.618 140.922 121.557L123.963 104.598L119.719 102.46C119.19 101.93 118.893 101.212 118.893 100.464C118.893 99.715 119.19 98.9971 119.719 98.4672Z" fill="#263238"/>
<path d="M126.514 104.833C126.858 104.833 127.138 104.554 127.138 104.209C127.138 103.865 126.858 103.586 126.514 103.586C126.17 103.586 125.89 103.865 125.89 104.209C125.89 104.554 126.17 104.833 126.514 104.833Z" fill="white"/>
<path d="M134.629 111.442C134.716 111.529 134.775 111.64 134.799 111.761C134.823 111.882 134.811 112.007 134.764 112.121C134.717 112.235 134.637 112.332 134.534 112.401C134.432 112.469 134.311 112.506 134.188 112.506C134.064 112.506 133.944 112.469 133.841 112.401C133.739 112.332 133.659 112.235 133.612 112.121C133.564 112.007 133.552 111.882 133.576 111.761C133.6 111.64 133.659 111.529 133.746 111.442C133.804 111.384 133.873 111.338 133.949 111.306C134.025 111.275 134.106 111.259 134.188 111.259C134.27 111.259 134.351 111.275 134.427 111.306C134.502 111.338 134.571 111.384 134.629 111.442Z" fill="white"/>
<path d="M161.858 137.383L146.47 155.257C134.564 149.644 124.971 140.079 119.322 128.19L137.196 112.762C137.424 112.55 137.724 112.432 138.035 112.432C138.346 112.432 138.645 112.55 138.873 112.762L161.89 135.779C162.079 136.005 162.18 136.292 162.174 136.587C162.168 136.882 162.056 137.164 161.858 137.383Z" fill="#EF5555"/>
<path opacity="0.8" d="M161.858 137.383L146.47 155.257C134.564 149.644 124.971 140.079 119.322 128.19L137.196 112.762C137.424 112.55 137.724 112.432 138.035 112.432C138.346 112.432 138.645 112.55 138.873 112.762L161.89 135.779C162.079 136.005 162.18 136.292 162.174 136.587C162.168 136.882 162.056 137.164 161.858 137.383Z" fill="white"/>
<path opacity="0.4" d="M125.121 123.153L119.33 128.19C124.962 140.082 134.537 149.658 146.429 155.29L151.426 149.499C139.95 143.917 130.685 134.637 125.121 123.153Z" fill="#EF5555"/>
<g opacity="0.6">
<path d="M140.315 114.139L130.474 143.991C132.187 145.734 134.016 147.357 135.949 148.851L145.668 119.484L140.315 114.139Z" fill="white"/>
<path d="M148.657 122.472L139.205 151.135C140.153 151.766 141.125 152.382 142.129 152.965L151.313 125.129L148.657 122.472Z" fill="white"/>
</g>
<path d="M169.082 152.423H124.473C123.596 152.423 122.755 152.77 122.134 153.39C121.513 154.009 121.163 154.85 121.161 155.727H172.387C172.384 154.851 172.036 154.012 171.416 153.393C170.797 152.774 169.958 152.425 169.082 152.423Z" fill="#EF5555"/>
<path opacity="0.5" d="M169.082 152.423H124.473C123.596 152.423 122.755 152.77 122.134 153.39C121.513 154.009 121.163 154.85 121.161 155.727H172.387C172.384 154.851 172.036 154.012 171.416 153.393C170.797 152.774 169.958 152.425 169.082 152.423Z" fill="white"/>
<path opacity="0.5" d="M154.188 152.423H124.473C123.596 152.423 122.755 152.77 122.134 153.39C121.513 154.009 121.163 154.85 121.161 155.727H157.493C157.49 154.851 157.142 154.012 156.522 153.393C155.903 152.774 155.064 152.425 154.188 152.423Z" fill="white"/>
<path opacity="0.4" d="M289.255 127.696L287.894 126.352C287.57 126.035 287.311 125.657 287.133 125.241C286.955 124.824 286.862 124.376 286.857 123.922V114.56C286.904 114.567 286.951 114.565 286.996 114.552C287.041 114.539 287.083 114.517 287.119 114.486C287.154 114.456 287.183 114.418 287.202 114.376C287.222 114.333 287.232 114.287 287.232 114.24C287.232 114.193 287.222 114.147 287.202 114.104C287.183 114.062 287.154 114.024 287.119 113.994C287.083 113.963 287.041 113.941 286.996 113.928C286.951 113.915 286.904 113.913 286.857 113.92H283.359C283.282 113.932 283.213 113.971 283.163 114.03C283.113 114.088 283.086 114.163 283.086 114.24C283.086 114.317 283.113 114.392 283.163 114.45C283.213 114.509 283.282 114.548 283.359 114.56V123.89C283.356 124.343 283.263 124.79 283.087 125.207C282.91 125.624 282.653 126.002 282.33 126.32L280.969 127.664C280.318 128.306 279.948 129.18 279.941 130.094V155.2C279.94 155.266 279.952 155.331 279.976 155.392C280 155.453 280.037 155.508 280.083 155.555C280.129 155.602 280.183 155.639 280.244 155.664C280.304 155.69 280.369 155.703 280.435 155.703H289.805C289.871 155.703 289.936 155.69 289.996 155.664C290.057 155.639 290.112 155.602 290.158 155.555C290.204 155.508 290.24 155.453 290.264 155.392C290.288 155.331 290.3 155.266 290.299 155.2V130.094C290.276 129.189 289.901 128.329 289.255 127.696Z" fill="#EF5555"/>
<path opacity="0.4" d="M280.775 144.575V154.107C280.775 154.322 280.86 154.528 281.012 154.68C281.164 154.832 281.37 154.917 281.585 154.917H288.623C288.838 154.917 289.044 154.832 289.196 154.68C289.347 154.528 289.433 154.322 289.433 154.107V144.137C289.437 143.95 289.377 143.767 289.262 143.619C289.147 143.472 288.984 143.369 288.801 143.327C287.578 143.005 286.286 143.067 285.1 143.506C284.024 143.913 282.853 143.998 281.731 143.749C281.611 143.727 281.489 143.732 281.372 143.764C281.255 143.795 281.146 143.853 281.055 143.932C280.963 144.012 280.89 144.111 280.842 144.222C280.793 144.333 280.771 144.454 280.775 144.575Z" fill="#EF5555"/>
<path d="M287.643 134.329H282.565C282.194 134.329 281.893 134.63 281.893 135.002V144.647C281.893 145.019 282.194 145.32 282.565 145.32H287.643C288.014 145.32 288.315 145.019 288.315 144.647V135.002C288.315 134.63 288.014 134.329 287.643 134.329Z" fill="white"/>
<path d="M270.092 145.198C270.198 144.461 268.999 143.943 268.189 143.983C267.541 144.025 266.892 143.926 266.286 143.692C266.957 144.146 267.703 144.477 268.489 144.672C269.043 144.782 269.581 144.959 270.092 145.198Z" fill="#263238"/>
<path d="M270.092 145.198C270.505 144.575 269.639 143.578 268.894 143.287C268.278 143.053 267.724 142.682 267.274 142.202C267.682 142.904 268.215 143.527 268.845 144.04C269.307 144.374 269.726 144.763 270.092 145.198Z" fill="#263238"/>
<path d="M270.173 145.198C270.003 144.469 271.161 143.854 271.963 143.838C272.615 143.824 273.256 143.67 273.842 143.384C273.213 143.895 272.497 144.287 271.728 144.542C271.186 144.697 270.663 144.918 270.173 145.198Z" fill="#263238"/>
<path d="M270.173 145.198C269.858 144.526 270.854 143.676 271.639 143.489C272.269 143.35 272.861 143.073 273.372 142.679C272.866 143.323 272.249 143.872 271.55 144.299C271.057 144.542 270.594 144.844 270.173 145.198Z" fill="#263238"/>
<path d="M277.049 148.478C276.96 143.392 272.449 143.91 270.044 144.988C267.768 143.676 262.147 144.348 262.423 149.248C262.601 152.431 264.383 155.063 267.339 155.727C267.97 155.873 269.364 155.354 270.044 155.354C270.724 155.354 271.591 155.775 272.109 155.711C275.268 155.29 277.114 151.799 277.049 148.478Z" fill="#EF5555"/>
</svg>
