<svg width="17" height="21" viewBox="0 0 17 21" fill="none" xmlns="http://www.w3.org/2000/svg">
<path d="M1.75049 3.89386L1.75 14.7188C1.75 16.9555 3.49072 18.7857 5.69137 18.9285L5.96875 18.9375L13.418 18.9387C13.0702 19.9212 12.1329 20.625 11.0312 20.625H5.125C2.32906 20.625 0.0625 18.3584 0.0625 15.5625V6.28125C0.0625 5.17894 0.767104 4.24121 1.75049 3.89386ZM14.4062 0.375C15.8042 0.375 16.9375 1.50828 16.9375 2.90625V14.7188C16.9375 16.1167 15.8042 17.25 14.4062 17.25H5.96875C4.57078 17.25 3.4375 16.1167 3.4375 14.7188V2.90625C3.4375 1.50828 4.57078 0.375 5.96875 0.375H14.4062ZM14.4062 2.0625H5.96875C5.50276 2.0625 5.125 2.44026 5.125 2.90625V14.7188C5.125 15.1847 5.50276 15.5625 5.96875 15.5625H14.4062C14.8722 15.5625 15.25 15.1847 15.25 14.7188V2.90625C15.25 2.44026 14.8722 2.0625 14.4062 2.0625Z" fill="#212121"/>
</svg>
