<svg width="33" height="33" viewBox="0 0 33 33" fill="none" xmlns="http://www.w3.org/2000/svg">
<circle cx="16.5" cy="16.5" r="16.5" fill="#FFECA9"/>
<path d="M24.7561 11.7317C24.7561 11.9348 24.6815 12.1309 24.5465 12.2826C24.4116 12.4344 24.2256 12.5314 24.0239 12.5552L23.9268 12.561H23.2261L22.2053 22.9434C22.1497 23.5068 21.8866 24.0293 21.4671 24.4094C21.0475 24.7896 20.5017 25.0001 19.9356 25H13.8205C13.2544 25.0001 12.7085 24.7896 12.289 24.4094C11.8695 24.0293 11.6064 23.5068 11.5508 22.9434L10.53 12.561H9.82927C9.60933 12.561 9.3984 12.4736 9.24289 12.3181C9.08737 12.1626 9 11.9516 9 11.7317C9 11.5118 9.08737 11.3008 9.24289 11.1453C9.3984 10.9898 9.60933 10.9024 9.82927 10.9024H13.9756C13.9756 10.5213 14.0507 10.1439 14.1965 9.79172C14.3424 9.43958 14.5562 9.11962 14.8257 8.8501C15.0952 8.58059 15.4152 8.3668 15.7673 8.22094C16.1195 8.07507 16.4969 8 16.878 8C17.2592 8 17.6366 8.07507 17.9888 8.22094C18.3409 8.3668 18.6609 8.58059 18.9304 8.8501C19.1999 9.11962 19.4137 9.43958 19.5596 9.79172C19.7054 10.1439 19.7805 10.5213 19.7805 10.9024H23.9268C24.1468 10.9024 24.3577 10.9898 24.5132 11.1453C24.6687 11.3008 24.7561 11.5118 24.7561 11.7317ZM18.7439 14.4268C18.5936 14.4268 18.4484 14.4813 18.3351 14.5801C18.2219 14.6788 18.1482 14.8153 18.1278 14.9642L18.122 15.0488V20.8537L18.1278 20.9382C18.1482 21.0871 18.2219 21.2235 18.3352 21.3223C18.4485 21.421 18.5936 21.4754 18.7439 21.4754C18.8942 21.4754 19.0394 21.421 19.1526 21.3223C19.2659 21.2235 19.3396 21.0871 19.36 20.9382L19.3659 20.8537V15.0488L19.36 14.9642C19.3396 14.8153 19.2659 14.6788 19.1527 14.5801C19.0394 14.4813 18.8942 14.4268 18.7439 14.4268ZM15.0122 14.4268C14.8619 14.4268 14.7167 14.4813 14.6034 14.5801C14.4902 14.6788 14.4165 14.8153 14.396 14.9642L14.3902 15.0488V20.8537L14.396 20.9382C14.4165 21.0871 14.4902 21.2235 14.6035 21.3223C14.7167 21.421 14.8619 21.4754 15.0122 21.4754C15.1625 21.4754 15.3076 21.421 15.4209 21.3223C15.5342 21.2235 15.6079 21.0871 15.6283 20.9382L15.6341 20.8537V15.0488L15.6283 14.9642C15.6079 14.8153 15.5342 14.6788 15.421 14.5801C15.3077 14.4813 15.1625 14.4268 15.0122 14.4268ZM16.878 9.65854C16.5481 9.65854 16.2318 9.78959 15.9985 10.0229C15.7652 10.2561 15.6341 10.5725 15.6341 10.9024H18.122C18.122 10.5725 17.9909 10.2561 17.7576 10.0229C17.5243 9.78959 17.208 9.65854 16.878 9.65854Z" fill="black"/>
</svg>
