<svg width="11" height="18" viewBox="0 0 11 18" fill="none" xmlns="http://www.w3.org/2000/svg">
<path d="M2.95144 4.35669C2.68297 4.62704 2.68297 5.06527 2.95144 5.33561L5.01394 7.41254C5.14834 7.54788 5.324 7.61538 5.5 7.61538C5.676 7.61538 5.85165 7.54788 5.98606 7.41254C6.25453 7.14219 6.25453 6.70396 5.98606 6.43361L3.92356 4.35669C3.65509 4.08635 3.21991 4.08635 2.95144 4.35669Z" fill="black"/>
<path d="M1.375 1.38462H9.625C10.0045 1.38462 10.3125 1.07446 10.3125 0.692308C10.3125 0.310154 10.0045 0 9.625 0H1.375C0.9955 0 0.6875 0.310154 0.6875 0.692308C0.6875 1.07446 0.9955 1.38462 1.375 1.38462Z" fill="black"/>
<path d="M1.375 18H9.625C10.0045 18 10.3125 17.6898 10.3125 17.3077C10.3125 16.9255 10.0045 16.6154 9.625 16.6154H1.375C0.9955 16.6154 0.6875 16.9255 0.6875 17.3077C0.6875 17.6898 0.9955 18 1.375 18Z" fill="black"/>
<path d="M5.5 7.61538C5.8795 7.61538 6.1875 7.30523 6.1875 6.92308V0.692308C6.1875 0.310154 5.8795 0 5.5 0C5.1205 0 4.8125 0.310154 4.8125 0.692308V6.92308C4.8125 7.30523 5.1205 7.61538 5.5 7.61538Z" fill="black"/>
<path d="M0.6875 15.2308H10.3125C10.692 15.2308 11 14.9206 11 14.5385C11 14.1563 10.692 13.8462 10.3125 13.8462H0.6875C0.308 13.8462 0 14.1563 0 14.5385C0 14.9206 0.308 15.2308 0.6875 15.2308Z" fill="black"/>
<path d="M9.625 1.38392V1.38462C9.625 1.76677 9.933 2.07692 10.3125 2.07692C10.692 2.07692 11 1.76677 11 1.38462C11 0.621 10.3833 0 9.625 0C9.2455 0 8.9375 0.309808 8.9375 0.691962C8.9375 1.07412 9.2455 1.38392 9.625 1.38392Z" fill="black"/>
<path d="M10.3128 15.9231C9.93334 15.9231 9.62569 16.2332 9.62569 16.6154H9.625C9.2455 16.6154 8.9375 16.9255 8.9375 17.3077C8.9375 17.6898 9.2455 18 9.625 18C10.3833 18 11 17.379 11 16.6154C11 16.2332 10.6923 15.9231 10.3128 15.9231Z" fill="black"/>
<path d="M1.375 18C1.7545 18 2.0625 17.6905 2.0625 17.308C2.0625 16.9255 1.7545 16.6161 1.375 16.6161V16.6154C1.375 16.2332 1.067 15.9231 0.6875 15.9231C0.308 15.9231 0 16.2332 0 16.6154C0 17.379 0.616687 18 1.375 18Z" fill="black"/>
<path d="M0.687156 2.07692C1.06666 2.07692 1.37397 1.76677 1.37397 1.38462H1.375C1.7545 1.38462 2.0625 1.07446 2.0625 0.692308C2.0625 0.310154 1.7545 0 1.375 0C0.616687 0 0 0.621 0 1.38462C0 1.76677 0.307313 2.07692 0.687156 2.07692Z" fill="black"/>
<path d="M5.5 7.61538C5.676 7.61538 5.85165 7.54788 5.98606 7.41254L8.04856 5.33561C8.31703 5.06527 8.31703 4.62704 8.04856 4.35669C7.78009 4.08635 7.3449 4.08635 7.07643 4.35669L5.01394 6.43361C4.74547 6.70396 4.74547 7.14219 5.01394 7.41254C5.14834 7.54788 5.324 7.61538 5.5 7.61538Z" fill="black"/>
<path d="M10.3125 17.3077C10.692 17.3077 11 16.9975 11 16.6154V1.38462C11 1.00246 10.692 0.692308 10.3125 0.692308C9.933 0.692308 9.625 1.00246 9.625 1.38462V16.6154C9.625 16.9975 9.933 17.3077 10.3125 17.3077Z" fill="black"/>
<path d="M0.6875 17.3077C1.067 17.3077 1.375 16.9975 1.375 16.6154V1.38462C1.375 1.00246 1.067 0.692308 0.6875 0.692308C0.308 0.692308 0 1.00246 0 1.38462V16.6154C0 16.9975 0.308 17.3077 0.6875 17.3077Z" fill="black"/>
</svg>
