<svg width="20" height="18" viewBox="0 0 20 18" fill="none" xmlns="http://www.w3.org/2000/svg">
<path d="M2 12V4.8C2 3.11984 2 2.27976 2.32698 1.63803C2.6146 1.07354 3.07354 0.6146 3.63803 0.32698C4.27976 1.19209e-07 5.11984 0 6.8 0H13.2C14.8802 0 15.7202 1.19209e-07 16.362 0.32698C16.9265 0.6146 17.3854 1.07354 17.673 1.63803C18 2.27976 18 3.11984 18 4.8V12H2Z" fill="black"/>
<path d="M2.66667 18C2.04669 18 1.7367 18 1.48236 17.9319C0.79218 17.7469 0.25308 17.2078 0.06815 16.5176C4.47035e-08 16.2633 0 15.9533 0 15.3333C0 15.0233 1.49012e-08 14.8683 0.03407 14.7412C0.12654 14.3961 0.39609 14.1265 0.74118 14.0341C0.86835 14 1.02334 14 1.33333 14H18.6667C18.9767 14 19.1317 14 19.2588 14.0341C19.6039 14.1265 19.8735 14.3961 19.9659 14.7412C20 14.8683 20 15.0233 20 15.3333C20 15.9533 20 16.2633 19.9319 16.5176C19.7469 17.2078 19.2078 17.7469 18.5176 17.9319C18.2633 18 17.9533 18 17.3333 18H2.66667Z" fill="black"/>
</svg>
