<svg width="24" height="25" viewBox="0 0 24 25" fill="none" xmlns="http://www.w3.org/2000/svg">
<path d="M18 2.5H6C5.73478 2.5 5.48043 2.60536 5.29289 2.79289C5.10536 2.98043 5 3.23478 5 3.5V12.5L10 8.5V11.5H16V13.5H10V16.5L5 12.5V21.5C5 21.7652 5.10536 22.0196 5.29289 22.2071C5.48043 22.3946 5.73478 22.5 6 22.5H18C18.2652 22.5 18.5196 22.3946 18.7071 22.2071C18.8946 22.0196 19 21.7652 19 21.5V3.5C19 3.23478 18.8946 2.98043 18.7071 2.79289C18.5196 2.60536 18.2652 2.5 18 2.5Z" fill="#7D7A7A"/>
</svg>
