<svg width="19" height="19" viewBox="0 0 19 19" fill="none" xmlns="http://www.w3.org/2000/svg">
<path d="M15.6475 2.68583L14.355 3.97833C15.675 5.3075 16.5 7.14083 16.5 9.16667C16.5 13.2183 13.2183 16.5 9.16667 16.5C5.115 16.5 1.83333 13.2183 1.83333 9.16667C1.83333 5.42667 4.62917 2.34667 8.25 1.8975V3.74917C5.64667 4.18917 3.66667 6.44417 3.66667 9.16667C3.66667 12.2008 6.1325 14.6667 9.16667 14.6667C12.2008 14.6667 14.6667 12.2008 14.6667 9.16667C14.6667 7.645 14.0525 6.27 13.0533 5.28L11.7608 6.5725C12.4208 7.24167 12.8333 8.15833 12.8333 9.16667C12.8333 11.1925 11.1925 12.8333 9.16667 12.8333C7.14083 12.8333 5.5 11.1925 5.5 9.16667C5.5 7.46167 6.67333 6.04083 8.25 5.62833V7.59C7.7 7.91083 7.33333 8.48833 7.33333 9.16667C7.33333 10.175 8.15833 11 9.16667 11C10.175 11 11 10.175 11 9.16667C11 8.48833 10.6333 7.90167 10.0833 7.59V0H9.16667C4.10667 0 0 4.10667 0 9.16667C0 14.2267 4.10667 18.3333 9.16667 18.3333C14.2267 18.3333 18.3333 14.2267 18.3333 9.16667C18.3333 6.63667 17.3067 4.345 15.6475 2.68583Z" fill="black"/>
</svg>
