<svg width="21" height="21" viewBox="0 0 21 21" fill="none" xmlns="http://www.w3.org/2000/svg">
<path d="M10.5005 3.34082C3.91734 3.34082 0.00976562 10.5002 0.00976562 10.5002C0.00976562 10.5002 3.91734 17.6595 10.5005 17.6595C17.0836 17.6595 20.9912 10.5002 20.9912 10.5002C20.9912 10.5002 17.0836 3.34082 10.5005 3.34082ZM10.5003 14.7718C8.14499 14.7718 6.22874 12.8556 6.22874 10.5002C6.22874 8.14492 8.14499 6.22867 10.5003 6.22867C12.8556 6.22867 14.7719 8.14492 14.7719 10.5002C14.7719 12.8556 12.8556 14.7718 10.5003 14.7718Z" fill="black"/>
<path d="M10.5001 13.1232C11.8927 13.1232 13.0217 11.9943 13.0217 10.6017C13.0217 9.20903 11.8927 8.08008 10.5001 8.08008C9.10746 8.08008 7.97852 9.20903 7.97852 10.6017C7.97852 11.9943 9.10746 13.1232 10.5001 13.1232Z" fill="black"/>
</svg>
