<svg fill="none" height="27" viewBox="0 0 83 27" width="83" xmlns="http://www.w3.org/2000/svg"><g fill="#fff"><path d="m30.3651 13.7395c.1974.0315.391.0835.5775.1552.612.2536.9382.724.9678 1.3657.0552 1.1849-.5196 2.0554-1.4685 2.7078-.6099.417-1.3339.6384-2.0744.6343-.9819.0074-1.9645 0-2.9471 0-.2629 0-.3222-.0736-.2696-.3265.5944-2.8597 1.189-5.7195 1.7839-8.57924.0607-.29374.1348-.3513.4313-.3513h1.9032c.587 0 1.166.06693 1.7091.30443.5891.25764 1.0312.66181 1.0945 1.32821.0903.9508-.2325 1.7503-1.0041 2.3499-.2198.1607-.4555.2986-.7036.4115zm-2.5994 3.7824v-.01c.2075 0 .4151.0087.622 0 .9968-.0475 1.6505-.6183 1.8304-1.5912.1456-.7908-.2413-1.3382-1.0358-1.4572-.496-.073-.9968-.0174-1.4948-.0348-.0822 0-.0869.0454-.0984.1017-.0553.2723-.1126.5446-.1699.8163-.1401.669-.2776 1.3382-.4225 2.0073-.0296.1338-.004.184.1469.174.2062-.0161.4145-.0061.6221-.0061zm.5593-4.1759c.2128.0128.4263.0006.6362-.0361.7744-.176 1.3654-.8605 1.4423-1.6728.0613-.6456-.2251-1.0297-.862-1.1595-.2824-.0575-.5688-.0415-.8532-.0596-.1955-.0127-.2615.0462-.2986.2396-.1624.8511-.3423 1.6988-.5256 2.5466-.029.1338.0114.1492.1246.1418.1133-.0073.2238 0 .3363 0z"/><path d="m38.2104 12.7466c.0883-.2174.1699-.4014.2373-.5868.019-.0733.0639-.1373.1265-.1804s.1387-.0624.2145-.0544c.2864.006.5728 0 .8593 0 .2122 0 .2743.0783.2338.2796-.3145 1.543-.629 3.0862-.9435 4.6296-.0319.1245-.0429.2533-.0324.3814.029.2141.1011.2897.3168.3178.1348.0174.1914.091.1685.2168-.0384.2134-.0829.4262-.1348.637-.0111.0644-.0456.1225-.0968.1634-.0513.0409-.1158.0618-.1816.0587-.2696.0125-.5397-.0136-.8019-.0776-.4145-.1084-.6409-.374-.6935-.8029-.0061-.0489-.0081-.0984-.0128-.1559-.0728.0174-.0984.0776-.1348.1191-.8357.906-1.8709 1.2271-3.0772 1.019-.8128-.1405-1.3183-.6443-1.5002-1.4493-.1557-.6858-.0721-1.3629.0674-2.038.1644-.803.4414-1.5597.9435-2.2275.8674-1.1636 2.2638-1.4105 3.3259-1.1462.4913.1265.8539.4222 1.116.8966zm-3.9762 3.7102c.0001.1509.0132.3016.0391.4503.0734.4443.3201.6905.7676.7648.8762.1459 1.7145-.2322 2.1505-1.0123.4325-.7857.6434-1.6727.6106-2.5674-.0155-.633-.318-1.0258-.8545-1.1817-.3148-.0856-.6453-.0983-.9658-.0367-.5674.095-.8983.4723-1.1302.9528-.4016.831-.5445 1.7229-.6173 2.6302z"/><path d="m51.2071 9.40234c-.1861.90106-.3732 1.80036-.5607 2.69786-.1857.8986-.3713 1.7972-.5584 2.7018.0876-.0054.1158-.0669.1571-.107.8417-.8277 1.6848-1.6541 2.5206-2.4878.0849-.0922.1893-.1645.306-.2121.1162-.0475.2419-.069.3677-.0629.3078.0114.6174 0 .9261.0061.0672 0 .1521-.0181.1816.0488.03.0669-.0522.1137-.099.1566-1.0332.9657-2.0697 1.9297-3.1093 2.8918-.1094.1011-.1094.164-.0318.2831.6442.9909 1.2807 1.9872 1.9213 2.9815.0304.0468.0608.0944.0871.1425.0554.1004.025.1706-.0898.1713-.4885 0-.977.0047-1.4651-.006-.1462 0-.2306-.1184-.3019-.2395-.4848-.8271-.9715-1.6523-1.4596-2.4757-.0299-.0502-.044-.1144-.1189-.1492-.1385.669-.2756 1.3294-.4136 1.9912-.0431.2074-.0844.4148-.1312.6209-.0472.2061-.1262.2617-.3278.263-.3141 0-.6288 0-.9434 0-.2805 0-.3332-.0616-.2769-.3285.1725-.8277.3477-1.6554.5203-2.4838.3781-1.807.7536-3.6113 1.1259-5.413.0059-.0459.0236-.0895.0517-.1265.0277-.0371.0649-.0663.1076-.085.4817-.23682.9593-.4817 1.4392-.7219.0513-.03664.1126-.05674.1752-.05756z"/><path d="m42.9051 13.0048c.2337-.3107.5033-.5929.8033-.8411.7083-.5755 2.1438-.4858 2.8094.1184.5394.4905.6856 1.1188.5689 1.7999-.1516.8825-.3528 1.7564-.5289 2.6349-.0386.1907-.0749.3841-.0213.5795.0367.1371.0962.2475.2692.2462.1457 0 .2024.0883.1779.2215-.0381.2127-.0812.4262-.1312.6369-.0118.0619-.0454.1175-.0949.1565-.0494.0392-.1116.0592-.1747.0563-.2697.0147-.5397-.0126-.8007-.0809-.6065-.1693-.9058-.6022-.8761-1.2713.0196-.4544.1537-.8879.2338-1.3309.1092-.6022.2919-1.191.3256-1.8065.0077-.1222.0077-.2446 0-.3667-.0472-.6758-.4718-.9983-1.1397-.8859-.2086.0335-.4077.1104-.5842.2257-.1766.1153-.3266.2664-.4401.4434-.3006.4376-.428.9367-.5345 1.4466-.2323 1.1107-.4666 2.2214-.7029 3.3321-.0499.2342-.1301.2951-.3714.2958-.3255 0-.6516 0-.9771 0-.207 0-.2696-.0844-.2305-.2864.3145-1.526.6303-3.052.9475-4.578.035-.1686.0769-.3346.0256-.5112-.0404-.1338-.1132-.2208-.2695-.2335-.1881-.0154-.2285-.0803-.1907-.2677.0377-.1873.0754-.3713.1145-.556.0085-.0703.0431-.135.0971-.1814.0539-.0464.1234-.0712.1947-.0695.2752-.0175.5515.0092.8182.0789.4441.1279.6294.3533.6739.8096 0 .0482 0 .0964.0088.1848z"/><path d="m3.5443 13.3288h1.01764 1.51638c.24329 0 .3019.0709.25405.3078-.03772.1853-.07817.37-.11994.5547-.05326.2328-.13479.2971-.39021.2971-.77504 0-1.55007 0-2.32442-.0054-.1476 0-.20893.0281-.2406.1867-.23453 1.1789-.48389 2.3545-.72718 3.5322-.0674.3345-.12131.38-.47176.38-.32011 0-.64024 0-.95968 0-.231838 0-.291819-.0743-.244643-.3004.283053-1.3623.566783-2.7241.851183-4.0856.31001-1.4876.61912-2.975.92734-4.46221.07548-.36402.12603-.40819.50478-.40751l4.38059.00807c.31271 0 .35988.05683.29587.35328-.03773.17394-.07346.34857-.11527.52187-.05189.2161-.1287.2763-.35243.2763-1.0109 0-2.02183 0-3.03274 0-.13478 0-.1914.0248-.2197.1673-.17523.8866-.36258 1.7738-.54926 2.6758z"/><path d="m16.8014 18.7498c-.5334-.0049-1.0625-.0953-1.5669-.2676-.1778-.0549-.3396-.1516-.4718-.2817-.1348-.1398-.1348-.2677-.0168-.4175.0768-.0957.1624-.184.2446-.2764.2022-.2295.2359-.2375.5392-.1338.4205.1405.8437.2676 1.2906.2897.3956.0208.7844.0054 1.1578-.1458.147-.0573.2773-.1499.3792-.2697.1019-.1197.1721-.2627.2044-.4162.0627-.2415-.0081-.4081-.2217-.5419-.2274-.1326-.4706-.2364-.7238-.3092-.2871-.0923-.5735-.192-.8654-.2676-1.0445-.2763-1.2959-1.0585-1.0917-1.9491.2432-1.0605 1.0884-1.8066 2.2118-1.9658.8-.1118 1.5899-.0669 2.3433.2629.1514.0594.2912.1446.4131.2516.1254.1191.1348.2181.027.35-.1348.1592-.275.3091-.4091.4683-.0674.0783-.1409.073-.2271.0482-.3282-.093-.6416-.2355-.9792-.2964-.3848-.0669-.7704-.0904-1.1504.018-.1639.043-.314.1271-.4356.2443-.1217.1172-.211.2635-.2593.4248-.1213.358.0115.6136.3741.7267.4488.1398.8997.2723 1.3478.4082.2266.0624.4446.1523.649.2676.3788.2242.5661.5607.5884.991.0599 1.1548-.5661 2.0708-1.7199 2.5205-.4953.1926-1.0116.2689-1.6316.2669z"/><path d="m22.4341 12.9279c-.2056 0-.4131 0-.6201 0-.2399 0-.2931-.0622-.2473-.2904.0331-.1639.0674-.3272.1071-.4891.0113-.067.0471-.1276.1006-.17.0535-.0423.1209-.0635.1893-.0595.1853 0 .3713-.0107.556 0 .124.0087.1617-.0381.1813-.1519.0512-.3011.1172-.6022.1752-.9013.0108-.0548.0155-.105.0768-.1338.5547-.277 1.1086-.5567 1.6788-.84372.0148.18002-.0438.33052-.0728.48312-.0883.4683-.1847.928-.2844 1.391-.0263.1212-.0081.1673.1314.16.2291-.0114.4603-.0054.6901 0 .186.0033.244.0702.2109.2529-.033.1826-.0727.3486-.1152.5212-.0424.1726-.1502.2389-.3194.2375-.2413 0-.4832 0-.7245 0-.0863 0-.1301.0195-.1489.1105-.2503 1.2445-.5028 2.4881-.7576 3.7309-.0309.1425-.0237.2906.021.4295.034.0954.0976.1775.1816.2346.0841.0571.1842.0863.2861.0833.4454.0113.4495.0154.3646.4509-.0263.1339-.056.2724-.0877.4075-.0093.0618-.0408.1182-.0888.1587-.0479.0405-.1091.0623-.172.0614-.3585.0087-.7204.0322-1.0783-.0307-.7009-.1245-1.0479-.5353-1.0601-1.2499-.008-.4684.1207-.9147.213-1.367.2022-.9923.4104-1.9839.6153-2.9762.0015-.0165.0009-.0331-.002-.0495z"/><path d="m13.1292 12.6656c.0653-.0831.1348-.1628.2082-.2389.5035-.4737 1.1188-.6323 1.7941-.6196.1348 0 .1934.0428.157.1934-.0728.297-.1287.5981-.1934.8972-.0573.2677-.1456.3119-.4145.279-.6894-.0836-1.4436.1519-1.668 1.1375-.2992 1.3181-.5856 2.6397-.8761 3.9598-.0674.3151-.1267.3633-.4556.3626-.2972 0-.5951 0-.8923 0-.2325 0-.2898-.0743-.2406-.3017.3312-1.5283.6627-3.0561.9948-4.5834.0356-.1347.0532-.2735.0525-.4128-.0108-.2222-.0916-.3145-.316-.3506-.1348-.0214-.1982-.0964-.1719-.2329.0384-.2007.0768-.4015.1227-.6022.0094-.0675.0435-.1293.0958-.1735.0523-.0441.1192-.0677.1879-.066.3477-.0053.6962 0 1.0338.1024.3141.095.5068.2957.5337.6343z"/><path d="m7.2335 17.4677c.01416-.4771.15299-.9328.25273-1.3944.2743-1.2713.55601-2.5426.83571-3.8139.05121-.2336.13479-.2971.37064-.2985h.94353c.23657 0 .29382.067.24465.2938-.33114 1.5229-.66342 3.0453-.99678 4.5673-.04563.1844-.0622.3746-.04917.5641.0202.2134.09634.2943.30395.3251.12398.0188.18128.0917.16039.2088-.03909.2195-.08358.4376-.13479.6537-.0128.0578-.0454.1094-.0922.146-.04681.0366-.10501.056-.16457.0548-.337.0106-.67395-.0161-.9907-.1493-.46975-.194-.69552-.5861-.68339-1.1575z"/><path d="m9.696 9.41585c.17928 0 .3586-.00402.5392 0 .163.00468.2271.07896.1961.2342-.0701.34882-.1442.69635-.2224 1.04245-.0411.1787-.1348.2516-.32349.253-.337 0-.67395 0-1.01095 0-.21024-.0034-.26953-.083-.22441-.2864.06742-.3259.1402-.6518.21365-.97628.04381-.194.13075-.26292.32687-.26761h.50412z"/><path d="m46.7293 23.0457c.5689.3205.6188.9635.1349 1.4272-.3532.3412-1.1241.451-1.5622.2235-.1021-.0488-.1881-.1255-.2478-.2212s-.0906-.2063-.0891-.3188c-.0133-.1931.0284-.386.1202-.5567.0919-.1708.2303-.3124.3994-.4088.0842-.0522.1765-.0917.2641-.1338 0-.0127 0-.0281-.0054-.0308-.4791-.2463-.3726-.6979-.1219-1.0519.1267-.1659.3083-.2822.5128-.3284.2287-.06.4684-.0691.7008-.0268.2238.0368.4286.1291.498.3673.0427.1269.0513.2625.0259.3938-.025.1313-.084.2539-.1707.3563-.1194.1391-.2769.2228-.459.3091zm-1.1901.9434c-.005.0954.0258.1892.0865.2634.0606.0741.1467.1233.2418.1381.4455.095.8759-.3573.7647-.8029-.0177-.0881-.0659-.1673-.1358-.2243-.0699-.0569-.1575-.0881-.2483-.0882-.3793-.0161-.7102.3158-.7089.7139zm.9323-1.9859c-.0645-.0004-.1285.0118-.188.0358-.0598.0241-.114.0596-.1599.1046-.0458.0449-.0823.0984-.1072.1573-.025.0589-.0381.1222-.0384.1861-.0028.0444.0035.089.0183.131.0149.042.038.0806.068.1137.0301.033.0665.0597.1071.0786s.0844.0295.1294.0313c.246.004.5053-.2676.5107-.5292.0036-.1834-.1339-.3078-.34-.3092z"/><path d="m49.8465 22.2212c-.0141-.149-.0767-.2893-.1789-.3992-.1021-.1099-.2383-.1833-.3868-.209-.2106-.0375-.4281-.0207-.6306.0488-.5811.2081-.7917.6778-.8467 1.2325-.0572.5968.292.9046.8944.835.2279-.0267.385-.1532.5466-.3011-.0159.1948-.0776.3831-.1811.5494-.1748.3131-.4354.4724-.8045.4108-.1226-.0139-.2433-.0394-.3609-.0763-.2021-.0756-.2066.1017-.2643.1934-.0712.1144.0536.1392.1194.1713.5575.275 1.1695.1566 1.55-.3453.4771-.6202.6446-1.3395.5434-2.1103zm-.4826.2964c-.0245.1883-.0858.37-.1798.5353-.1067.1733-.2528.2776-.468.2676-.2693-.0067-.3873-.1265-.3814-.4329.0127-.1817.0599-.3594.1403-.5232.0504-.1127.1339-.2074.2397-.2717.1571-.0903.3305-.1392.493-.0361.1621.103.1866.2803.1562.461z"/><path d="m51.367 24.0186h-1.193c-.1648 0-.1966-.0515-.1213-.2007.03-.0531.0668-.1021.1094-.1459.5453-.6209 1.0992-1.2345 1.6335-1.8641.1571-.1854.3369-.166.5316-.156.1099.0054.0677.0957.055.1546-.0954.463-.1916.9256-.2888 1.3877-.0163.1045-.039.2079-.0672.3098-.0386.1178.0141.1245.1113.1298.0758.004.2115-.0669.2079.1004-.0046.2275-.0545.2998-.2256.2817-.1712-.0181-.2311.0495-.242.2007-.0077.0551-.0186.1096-.0332.1633-.084.4095-.084.4061-.5053.3834-.1044-.006-.1234-.0475-.1044-.1338.0436-.1961.0849-.3921.1321-.6109zm.3156-1.5282-.9607 1.1374h.6415c.0127.0017.0254.0008.0372-.0026.0123-.0034.0232-.0093.0327-.0172.01-.0079.0177-.0178.0232-.0288.0059-.0111.0091-.0233.0095-.0357.0676-.3345.1367-.6704.2156-1.0538z"/><path d="m32.1427 24.8002c-.2573-.0004-.5121-.0504-.7501-.1472-.0593-.0254-.1759-.0409-.1227-.1338.0533-.093.0627-.2737.2528-.2289.2602.0686.5287.1015.7979.0977.1415-.0033.2802-.0402.4044-.1077.3134-.174.3248-.5058.0148-.6872-.1526-.0804-.3102-.151-.4718-.2114-.6652-.2844-.7885-.9288-.2608-1.4279.4246-.4015.9361-.4356 1.4773-.2977.0485.0127.0957.0301.1435.0462.2568.0876.2615.1063.1214.3265-.0074.0161-.0178.0307-.0307.0427-.013.0122-.0283.0216-.0449.0278-.0167.0062-.0344.0091-.0522.0085-.0178-.0007-.0354-.0048-.0515-.0121-.2631-.0814-.5396-.1114-.8141-.0883-.0932.0057-.1836.0333-.2638.0805-.0803.0473-.1481.1128-.1979.1911-.1348.2174-.0849.4149.1449.5266.1557.0756.3201.1338.4792.2007.686.2891.7831 1.0492.194 1.5055-.2452.1873-.5694.2864-.9697.2884z"/><path d="m36.1196 22.8463c.157-.168.2884-.3266.5075-.3747.5937-.1298 1.0035.2636.8821.8538-.0566.2776-.1165.5546-.1704.833-.0189.099-.0304.188.1038.2429.1051.0428.0141.1465.0107.2228.0013.0166-.0008.0334-.0064.0491-.0056.0158-.0143.0302-.0258.0424s-.0254.0219-.0408.0285c-.0155.0066-.0321.0099-.049.0098-.3679.0415-.5984-.1934-.5337-.5574.0485-.2736.1078-.5453.1617-.8183.0099-.044.016-.0888.0182-.1338.0048-.1586 0-.3192-.1691-.4015-.1456-.0716-.3741-.0107-.5048.1338-.1308.1446-.1907.3346-.2312.5287-.0782.37-.159.7393-.2325 1.1107-.0007.0205-.0058.0407-.0149.0591-.0091.0185-.022.0349-.0379.0481-.0159.0131-.0344.0229-.0544.0285-.0199.0056-.0408.007-.0613.0041-.3943.0093-.3936.0127-.314-.3707.0876-.4251.1745-.85.2608-1.2746.0209-.1038.0505-.2135-.1038-.2523-.0674-.0174-.0526-.0809-.035-.1251.031-.0769-.0074-.1887.1111-.2222.0571-.0179.1174-.0231.1768-.0154.0593.0078.1162.0284.1666.0603.0505.032.0933.0746.1253.1247.0321.0502.0527.1067.0604.1657z"/><path d="m41.1708 23.8138c-.1456 0-.2925.0074-.4374 0-.1079-.0067-.1348.0388-.1348.1338-.0142.352.1772.5387.5284.4958.1444-.018.2866-.0503.4245-.0963.1072-.0355.1469 0 .1894.0903s.0236.1599-.0674.2055c-.2769.1395-.5889.1958-.8977.1619-.5223-.0509-.7588-.3513-.7096-.8732.0211-.2836.0963-.5606.2217-.8163.2581-.5106.7413-.7461 1.2953-.6357.3222.0669.5122.2763.5284.6022.0054.1001-.0014.2006-.0202.2991-.0674.3225-.2022.4316-.5332.4383-.1287 0-.258 0-.3868 0zm-.4833-.366h.7191c.0276.0033.0555-.0013.0806-.0131.025-.0119.0461-.0305.061-.0538.0727-.1238.0384-.3834-.0674-.4851s-.2635-.1097-.4199-.0214c-.219.1225-.2992.3412-.3734.5734z"/><path d="m44.0619 22.2902c-.1819.0749-.345.1424-.5095.2073-.0404.0161-.099.0442-.124.0282-.0485-.0308-.0101-.0917-.0074-.1399.0101-.1739.0998-.275.2696-.3385.3087-.1178.6066-.2576.9118-.3868.0445-.0194.0937-.0669.1348-.0388s.0061.093 0 .1385c-.1934.9435-.3902 1.8862-.5816 2.8297-.0256.1264-.0822.1719-.215.1699-.3834-.0053-.3807 0-.3019-.3714.1402-.6584.2763-1.3181.4138-1.9772.0047-.0314.004-.0655.0094-.121z"/><path d="m37.9494 23.9999c.0069-.3074.081-.6097.217-.8859.281-.5821 1.0304-.8438 1.6026-.5574.0728.0368.2083.0555.1604.1887-.0546.1485-.1873.2121-.3181.1505-.5155-.2408-.8801.0623-1.0183.4892-.0743.2104-.1081.4328-.0998.6557.0176.277.1908.4242.4718.4015.1334-.0175.2642-.0508.3896-.0991.0673-.0221.128-.0435.1624.0495.0283.077.0828.1439-.0095.2221-.2837.2403-1.0156.259-1.3074.0275-.213-.1646-.2561-.3948-.2507-.6423z"/><path d="m33.9529 24.2507c.062-.3071.1348-.6691.2109-1.0364.0391-.1907.0849-.3801.1186-.5715.0006-.0205.0055-.0407.0145-.0593.009-.0185.0218-.035.0377-.0483.0158-.0132.0343-.023.0543-.0287.0199-.0057.0408-.0071.0613-.0042.3984-.012.3963-.0153.3168.366-.0883.4249-.1759.8491-.2602 1.2747-.0202.103-.0397.2007.1052.2563.1024.0388.0155.1338.0121.208-.0034.0743-.0236.1285-.1092.1453-.3026.0588-.562-.1439-.562-.5019z"/><path d="m34.7703 21.5476h.1692c.0498 0 .095.0214.0849.0776-.0229.1252-.0512.2489-.0822.372-.0121.0469-.0553.063-.1024.0717-.3977.0709-.4435.0153-.3627-.3721.0412-.2101.1935-.1311.2932-.1492z"/></g><path d="m63.2824 0h19.612c-.1485.70791-.2942 1.41649-.4459 2.12373-.5802 2.7063-1.1626 5.41174-1.7465 8.11627-.2361 1.0993-.4721 2.1993-.7105 3.2973-.0304.1338-.0168.1813.1349.1833.5389.0081 1.0782 0 1.6175-.0207.2633-.0156.528.0015.7877.0508.4717.0991.6034.437.321.8298-.158.2043-.3637.3678-.5988.4763-.5317.2724-1.1073.3888-1.693.4644-.2882.044-.5797.0663-.8721.0669-.113 0-.1421.0522-.1607.1425-.1798.8476-.3614 1.6969-.5439 2.548l-1.6643 7.7897c-.0336.1579-.0672.3151-.099.4744-.0159.0896-.0486.1439-.1516.1251-.0277-.0027-.0563-.0027-.084 0h-19.1893c-.2315 0-.2311 0-.1811-.2355.9606-4.491 1.9208-8.9821 2.8805-13.4731.2143-1.0018.4291-2.0033.6447-3.00428.0186-.05792.015-.1207-.0109-.17596-.286-.5627-.3772-1.17363-.4372-1.79055-.153-1.56837.2143-3.06648.6451-4.55323.1244-.42823.5939-.69185 1.1051-.63431.1879.02074.2419-.03011.2769-.20675.1707-.84575.3573-1.688153.5393-2.5318938.0064-.0214253.0141-.0422518.0241-.0622262zm6.6723 13.8504c.0499-.0053.1008-.0053.1507 0 .6161.1392.9316-.2221 1.1809-.6938.0281-.0542.0572-.1091.0817-.1646.1729-.3914.1725-.3921-.1467-.6691-.0209-.0196-.0431-.0375-.0672-.0535-.1393-.0843-.1389-.1747-.0531-.3125.2652-.4282.6524-.7685 1.1132-.9773.4604-.2089.9729-.277 1.4728-.1956.1707.0229.3318.0924.4653.2007.4381.3486.8912.6771 1.3533.9942.4254.2998.8694.5727 1.3293.817.1703.0883.1798.0843.1644-.0976-.0295-.344-.064-.6877-.1031-1.0311-.0871-.7722-.3223-1.4834-.8194-2.10369-.3569-.44429-.6955-.90265-1.0596-1.34157-.0355-.03777-.0618-.08312-.0768-.13252s-.0186-.10155-.01-.15253c.0808-.63296.0822-.63697-.3155-1.13747-.8762-1.10268-1.9167-2.04746-2.9804-2.96679-.0622-.04714-.1353-.07879-.213-.09234-.735-.17959-1.4872-.28208-2.244-.30578-.4395-.02007-.8463.02811-1.2072.29575-.2942.21879-.6065.25492-.9765.19403-1.194-.19738-2.3944-.3593-3.5934-.52792-.3491-.04884-.6946-.13382-1.0514-.11642-.3065.01405-.4772.11976-.5543.37068-.3823 1.23916-.6742 2.49644-.6315 3.80452.0218 1.2072.4244 2.37717 1.1508 3.34555.809 1.0826 1.9032 1.7771 3.1548 2.2475 1.4428.5406 2.9514.734 4.4823.7996zm-.1348 8.212c-.0709.0461-.1176.0769-.1644.1063-.5843.3641-1.1681.7294-1.7556 1.088-.1189.0723-.1244.1097-.0136.2007.9434.7729 1.8827 1.5517 2.8243 2.3279.0236.02.0454.0541.0953.0307.01-.1726.03-.3499.0273-.5272 0-.2002.0422-.3982.1248-.5808.2624-.6209.513-1.2465.7704-1.8695.0327-.0764.0477-.1592.0436-.2422-.0227-.5513-.0445-1.1027-.0613-1.654-.0027-.0997-.0331-.1968-.088-.2804-.5961-.9568-1.1877-1.9156-1.7856-2.8718-.0263-.038-.0436-.0816-.0499-.1273-.0068-.0458-.0023-.0924.0122-.1363.0999-.3419.1903-.6865.2892-1.0291.0373-.134.0491-.2739.0336-.4121-.0349-.3774-.0672-.7548-.0935-1.1329-.0073-.1257-.0431-.1672-.1771-.1679-.8925.0006-1.7832-.087-2.6581-.2616-2.2786-.4684-4.1149-1.6005-5.4252-3.5322-.0263-.0381-.039-.093-.1094-.1084-.0072.0315-.0154.0622-.0222.093-.5811 2.738-1.1622 5.4764-1.7433 8.2153-.0727.3419-.0727.3459.2737.3821.2234.0233.4367.0943.6737.0086 1.1491-.4101 2.3059-.7996 3.4581-1.2044.0572-.0261.1203-.0357.1829-.0279.0622.0078.1213.0328.1703.0721 1.5299 1.0839 3.0626 2.1639 4.5989 3.2398zm-5.3875-3.0492v2.4349c.0013.1379-.0259.2746-.0804.4015-.4449 1.0511-.8839 2.105-1.3302 3.1562-.0254.0486-.0377.103-.0354.1578.0023.0547.0186.108.0477.1546.0939.1646.1775.3346.2551.5079.0145.0438.0436.0814.0822.1065.039.0251.0853.0362.1316.0313 1.0728-.006 2.1451 0 3.2175-.0047.0463 0 .0994.0215.1493-.0328-.0985-.2007-.1934-.4088-.2996-.6095-.0549-.0966-.0713-.2099-.0459-.3179.2629-1.2753.519-2.5526.7859-3.8272.0268-.1265 0-.1894-.1012-.2596-.8799-.608-1.7579-1.2183-2.6345-1.8307-.0386-.0408-.0913-.0661-.1476-.0709zm14.8368-3.8499c.1231 0 .2466.004.37 0 .7364-.0295 1.4637-.1199 2.1647-.3607.2156-.0639.4145-.1743.582-.3232.0794-.0756.1516-.1646.1053-.279-.0413-.1017-.1525-.1091-.2452-.1098-.2247 0-.4503-.006-.6741.0141-.9466.0897-1.9018.0194-2.8243-.2081-1.6421-.4048-3.1049-1.1736-4.4582-2.1612-.1757-.1362-.3854-.222-.6065-.2482-.6315-.0669-1.1804.0782-1.5885.5975-.0754.0957-.0777.1566.0213.2435.5212.4584 1.0823.8694 1.6775 1.2279 1.6784 1.0157 3.4875 1.6058 5.4706 1.6044zm-5.0238-.724c.0177.1164.034.2007.0426.291.0277.2877.1226.5674.0936.8605-.089.8986-.2815 1.7818-.4005 2.6764-.0912.6966-.1852 1.3938-.1475 2.0977.0304.5687.2165 1.0812.7023 1.4191.4585.3185.9616.4155 1.4909.1446.0409-.0173.0758-.0471.0985-.0851.0232-.038.0336-.0822.0296-.1264-.0023-.1893-.0209-.378-.0559-.564-.0236-.1178-.0622-.1486-.1902-.1258-.4758.0849-.8027-.255-.7096-.724.0813-.4122.2465-.7962.4045-1.1823.3832-.9267.839-1.822 1.2371-2.7433.1017-.2596.1644-.5326.1853-.8103.0109-.091 0-.1379-.1144-.1526-.1885-.0273-.3755-.0658-.5594-.1151-.7377-.1922-1.4464-.4816-2.1069-.8604z" fill="#dfac0f"/><path d="m69.951 13.8477c-1.5308-.0669-3.0394-.259-4.4836-.8029-1.2516-.4684-2.3457-1.165-3.1548-2.2476-.7263-.96834-1.1286-2.13831-1.1508-3.34551-.04-1.30808.2492-2.56532.6315-3.80451.0772-.25092.2479-.35663.5543-.37068.3568-.0174.7023.06691 1.0514.11642 1.199.16861 2.3994.33054 3.5934.52792.3695.06089.6823.02476.9765-.19404.3609-.26764.7677-.31581 1.2072-.29574.7572.0254 1.5095.12969 2.245.31113.0771.01355.1502.0452.2129.09234 1.0637.91933 2.102 1.86411 2.98 2.96679.3977.49919.3963.5032.3155 1.13747-.0082.05098-.005.10313.0104.15253.015.0494.0414.09475.0768.13252.3636.43892.7028.89728 1.0591 1.34157.4976.62029.7328 1.33149.8195 2.10369.039.343.0735.6867.1031 1.0311.0158.1819.0063.1859-.1644.0976-.4599-.2443-.9034-.5172-1.3288-.8169-.4622-.3172-.9153-.6457-1.3534-.9943-.1334-.1083-.2946-.1778-.4658-.2007-.4994-.0814-1.0124-.0133-1.4727.1956-.4604.2088-.8481.5491-1.1132.9773-.0854.1378-.0863.2282.0536.3125.0236.016.0463.0339.0672.0535.3187.2743.3196.275.1461.6691-.024.0555-.0531.1104-.0812.1646-.2497.4684-.5648.833-1.1809.6938-.0508-.0071-.1026-.0086-.1539-.0046zm1.634-5.8353-.9107-1.01433c-.0763-.08501-.1181 0-.1626.0361-.4608.39881-.9207.79893-1.3801 1.2004-.0391.03412-.0972.05688-.1049.13048z" fill="#162d4c"/><path d="m69.8143 22.0596-.567-.4014c-1.5336-1.0786-3.0667-2.1579-4.5989-3.2378-.0486-.0394-.1076-.0644-.1703-.0722-.0622-.0078-.1257.0019-.1825.028-1.1527.4015-2.309.7916-3.458 1.2044-.2393.0856-.4522.0147-.6742-.0087-.3464-.0361-.3464-.0402-.2733-.3821.5793-2.7402 1.159-5.4795 1.7392-8.2179.0068-.0308.015-.0615.0223-.093.0672.0154.0831.0703.1089.1084 1.3102 1.9317 3.1466 3.0665 5.4252 3.5322.8753.1746 1.7656.2622 2.6581.2616.1349 0 .1698.0422.1776.1679.0236.3781.0585.7555.0935 1.1329.015.1382.0036.2781-.0336.4121-.099.3426-.1893.6872-.2892 1.0291-.015.0439-.0191.0905-.0127.1363.0068.0457.024.0893.0504.1273.5979.9562 1.1894 1.915 1.7851 2.8718.0549.0836.0858.1806.0885.2804.0168.5513.0386 1.1027.0613 1.654.0041.083-.0109.1658-.0441.2422-.2574.623-.508 1.2486-.7699 1.8695-.0826.1826-.1253.3806-.1249.5808 0 .1773-.0172.3546-.0277.5272-.0499.0234-.0712-.0107-.0948-.0307-.9434-.7762-1.8805-1.555-2.8243-2.3279-.1108-.0903-.1054-.1277.0131-.2007.588-.3586 1.1713-.7239 1.7556-1.088.0495-.0287.0958-.0595.1666-.1057z" fill="#162d4c"/><path d="m64.427 19.0105c.0549.0056.1062.0308.1444.0709.878.6102 1.7564 1.2198 2.6345 1.8287.1021.0702.128.1338.1007.2596-.2696 1.2713-.523 2.5519-.7858 3.8273-.025.1079-.0086.2212.0458.3178.1067.2007.2025.4075.3001.6095-.0499.0542-.103.0328-.1498.0328-1.0723 0-2.1442 0-3.2174.0047-.0459.0048-.0922-.0062-.1312-.0313-.0391-.0251-.0681-.0627-.0822-.1065-.0776-.1726-.1612-.3433-.2556-.5079-.029-.0466-.0454-.0999-.0477-.1547-.0018-.0547.0105-.1091.0355-.1578.4462-1.0511.8857-2.105 1.3306-3.1561.0545-.1269.0817-.2636.0799-.4015-.0045-.8089-.0018-1.6165-.0018-2.4355z" fill="#162d4c"/><path d="m79.2638 15.1604c-1.983 0-3.7922-.5888-5.4747-1.6058-.5947-.3585-1.1563-.7695-1.6775-1.2278-.0989-.087-.0967-.1479-.0213-.2435.4086-.5193.957-.6638 1.5885-.5976.2211.0262.4309.1121.6066.2483 1.3533.9875 2.8165 1.7564 4.4581 2.1612.9221.226 1.8759.2952 2.8211.2047.223-.0201.4486-.0161.6738-.014.093 0 .2024.008.2456.1097.0463.1144-.0259.2007-.1054.279-.1679.1489-.3668.2593-.5824.3232-.7005.2409-1.4278.3312-2.1647.3606-.1212.006-.2447.002-.3677.002z" fill="#162d4c"/><path d="m74.2453 14.4392c.661.3793 1.3706.6689 2.1088.8611.1843.0493.3709.0878.5593.1151.1112.0148.1253.0616.1149.1526-.0214.2777-.0836.5507-.1857.8103-.3981.92-.8535 1.8153-1.2371 2.7433-.1598.3861-.3251.7701-.4045 1.1823-.0931.4684.2338.8089.7096.724.1284-.0228.1666.008.1902.1258.0349.186.054.3748.0558.564.0041.0442-.0063.0885-.029.1264-.0232.038-.0577.0678-.099.0851-.5289.2709-1.0324.1739-1.4904-.1446-.4863-.3379-.6742-.8504-.7024-1.4191-.0376-.7039.0559-1.4011.1476-2.0977.1185-.8939.3114-1.7771.4004-2.6764.0286-.2931-.0676-.5728-.094-.8605-.0104-.0883-.0268-.1773-.0445-.2917z" fill="#162d4c"/><path d="m71.585 8.01249-2.561.35266c.0078-.07361.0672-.09637.1049-.13049.459-.40147.9189-.80158 1.3802-1.20039.0444-.03814.0862-.12112.1625-.03611z" fill="#dcaa10"/></svg>