<svg width="12" height="13" viewBox="0 0 12 13" fill="none" xmlns="http://www.w3.org/2000/svg">
<path d="M6.29167 0.875C5.25917 0.875 4.34917 1.5575 4.0575 2.54917C3.74833 2.40917 3.42167 2.33333 3.08333 2.33333C2.46449 2.33333 1.871 2.57917 1.43342 3.01675C0.995833 3.45434 0.75 4.04783 0.75 4.66667C0.751382 5.1834 0.92383 5.68514 1.24042 6.09354C1.55701 6.50194 1.99992 6.79402 2.5 6.92417V11.0833H10.0833V6.92417C11.11 6.65583 11.8333 5.72833 11.8333 4.66667C11.8333 4.04783 11.5875 3.45434 11.1499 3.01675C10.7123 2.57917 10.1188 2.33333 9.5 2.33333C9.16167 2.33333 8.835 2.40917 8.52583 2.54917C8.23417 1.5575 7.32417 0.875 6.29167 0.875ZM6 6.125H6.58333V10.2083H6V6.125ZM4.25 7.29167H4.83333V10.2083H4.25V7.29167ZM7.75 7.29167H8.33333V10.2083H7.75V7.29167ZM2.5 11.6667V12.25C2.5 12.4047 2.56146 12.5531 2.67085 12.6625C2.78025 12.7719 2.92862 12.8333 3.08333 12.8333H9.5C9.65471 12.8333 9.80308 12.7719 9.91248 12.6625C10.0219 12.5531 10.0833 12.4047 10.0833 12.25V11.6667H2.5Z" fill="#15CF74"/>
</svg>
