<svg width="11" height="15" viewBox="0 0 11 15" fill="none" xmlns="http://www.w3.org/2000/svg">
<path d="M5.47061 0.65361C4.84951 0.65361 4.28408 0.969431 3.99111 1.46308L3.86221 1.68047L3.63955 1.56093C3.43154 1.44814 3.19424 1.38838 2.95693 1.38838C2.12783 1.38838 1.454 2.0789 1.454 2.94726C1.454 3.72363 1.99893 4.37109 2.72842 4.48828L2.95107 4.52343V6.08789C4.64736 5.76269 6.34951 5.74804 8.04873 6.08789V4.0459L8.18936 3.96972C8.64932 3.72656 8.954 3.20508 8.954 2.61767C8.954 1.77392 8.34756 1.12002 7.62393 1.12002C7.4335 1.12002 7.24307 1.16718 7.07022 1.2583L6.88857 1.35205L6.75381 1.20293C6.4374 0.858102 5.96865 0.65361 5.47061 0.65361ZM5.4999 6.36035C4.7499 6.36035 4.00283 6.43066 3.25283 6.56543C3.22646 6.74121 3.21475 6.92285 3.21475 7.11035C3.21475 7.95996 3.48428 8.72754 3.90615 9.26953C4.32803 9.81152 4.8876 10.1279 5.4999 10.1279C6.11221 10.1279 6.67178 9.81152 7.09365 9.26953C7.51553 8.72754 7.78506 7.95996 7.78506 7.11035C7.78506 6.92285 7.77041 6.73828 7.74697 6.5625C6.99697 6.4248 6.2499 6.35742 5.4999 6.36035ZM4.11416 10.1953L1.50088 11.0654L0.681152 14.3467H7.42178L6.99697 11.3672L7.51846 11.291L7.95498 14.3467H10.3192L9.49893 11.0654L6.88564 10.1953C6.48135 10.4853 6.00674 10.6553 5.4999 10.6553C4.99307 10.6553 4.51846 10.4853 4.11416 10.1953ZM6.14443 11.7393C6.18291 11.7393 6.22101 11.7468 6.25655 11.7615C6.2921 11.7763 6.3244 11.7978 6.3516 11.8251C6.37881 11.8523 6.40039 11.8846 6.41511 11.9201C6.42983 11.9557 6.43741 11.9937 6.4374 12.0322C6.43741 12.0707 6.42983 12.1088 6.41511 12.1443C6.40039 12.1799 6.37881 12.2122 6.3516 12.2394C6.3244 12.2666 6.2921 12.2882 6.25655 12.3029C6.22101 12.3176 6.18291 12.3252 6.14443 12.3252C6.10596 12.3252 6.06786 12.3176 6.03231 12.3029C5.99677 12.2882 5.96447 12.2666 5.93727 12.2394C5.91006 12.2122 5.88848 12.1799 5.87376 12.1443C5.85904 12.1088 5.85146 12.0707 5.85147 12.0322C5.85146 11.9937 5.85904 11.9557 5.87376 11.9201C5.88848 11.8846 5.91006 11.8523 5.93727 11.8251C5.96447 11.7978 5.99677 11.7763 6.03231 11.7615C6.06786 11.7468 6.10596 11.7393 6.14443 11.7393ZM6.34951 13.0869C6.42721 13.0869 6.50173 13.1178 6.55667 13.1727C6.61161 13.2277 6.64248 13.3022 6.64248 13.3799C6.64248 13.4576 6.61161 13.5321 6.55667 13.587C6.50173 13.642 6.42721 13.6728 6.34951 13.6728C6.27181 13.6728 6.19729 13.642 6.14235 13.587C6.08741 13.5321 6.05654 13.4576 6.05654 13.3799C6.05654 13.3022 6.08741 13.2277 6.14235 13.1727C6.19729 13.1178 6.27181 13.0869 6.34951 13.0869Z" fill="#219653"/>
</svg>
