<svg width="14" height="14" viewBox="0 0 14 14" fill="none" xmlns="http://www.w3.org/2000/svg">
<path d="M12.3398 0.157281C12.3398 0.157281 1.66745 0.154 1.67051 0.157281C0.686789 0.157281 0.133789 0.665875 0.133789 1.70472V12.416C0.133789 13.3879 0.631008 13.8967 1.61385 13.8967H12.3704C13.3533 13.8967 13.8512 13.4133 13.8512 12.416V1.70472C13.8514 0.691031 13.3535 0.157281 12.3398 0.157281ZM6.72626 5.11306C6.72626 5.44906 6.42023 5.80891 6.02298 5.80891V11.4822C6.02298 12.2876 4.92529 12.2876 4.92529 11.4822V5.80891C4.53876 5.80891 4.2021 5.51119 4.2021 5.06516V1.94294C4.2021 1.67125 4.59476 1.66075 4.59476 1.95366V4.26147H4.92354V1.93222C4.92354 1.68262 5.30176 1.66666 5.30176 1.94294V4.26147H5.64148V1.9355C5.64148 1.67453 6.00854 1.66403 6.00854 1.94578V4.26147H6.34279V1.9355C6.34279 1.67737 6.72626 1.66709 6.72626 1.94578V5.11306ZM9.65444 11.4796C9.65444 12.2673 8.55457 12.2555 8.55457 11.4796V7.9835H7.96898V2.66853C7.96898 1.43128 9.65466 1.43128 9.65466 2.66853V11.4796H9.65444Z" fill="#219653"/>
</svg>
