<svg fill="none" height="29" viewBox="0 0 29 29" width="29" xmlns="http://www.w3.org/2000/svg"><circle cx="14.5" cy="14.5" fill="#c377ff" opacity=".8" r="14.5"/><g fill="#fff"><path d="m14.5333 19.3334c-.184 0-.3333.1493-.3333.3333s.1493.3333.3333.3333.3334-.1493.3334-.3333-.1494-.3333-.3334-.3333z"/><path d="m21.6362 8.51233c-.8202-.33036-1.8867-.51233-3.0029-.51233-1.1161 0-2.1826.18197-3.0029.51233-.4847.19524-.8548.43384-1.0971.70157-.2422-.26773-.6123-.5063-1.0971-.70153-.8202-.3304-1.8867-.51237-3.0029-.51237-1.11613 0-2.1826.18197-3.00287.51233-.92243.37154-1.43043.89987-1.43043 1.48767v8c0 .5878.508 1.1161 1.43043 1.4877.7629.3072 1.73884.4859 2.76957.5094v.0029c0 1.1402 1.8629 2 4.3333 2s4.3334-.8598 4.3334-2v-.0029c1.0307-.0235 2.0066-.2022 2.7695-.5094.9225-.3716 1.4305-.8999 1.4305-1.4877v-8c0-.5878-.508-1.11613-1.4305-1.48767zm.7638 7.48767c0 .2846-.3881.6176-1.0128.8693-.6762.2723-1.584.4371-2.5205.4607v-1.33c0-.001-.0001-.0019-.0001-.0029 1.0308-.0235 2.0067-.2021 2.7697-.5094.2994-.1206.5548-.2578.7637-.4082zm-8.2-4c0 .2846-.3881.6176-1.0128.8693-.7323.2949-1.736.464-2.7539.464-1.01783 0-2.02157-.1691-2.7538-.464-.62473-.2517-1.01283-.5847-1.01283-.8693v-.9205c.2089.1504.46433.2876.76376.4082.82027.3303 1.88674.5123 3.00287.5123 1.1162 0 2.1827-.182 3.0029-.5123.2995-.1206.5549-.2578.7638-.4082zm-6.76957 1.4877c.82027.3303 1.88674.5123 3.00287.5123 1.1162 0 2.1827-.182 3.0029-.5123.2995-.1206.5549-.2578.7638-.4082v.9264c-.8623.0292-1.6893.1707-2.3582.4063-.6709.2363-1.1537.5514-1.4162.921-1.01523-.0008-2.01573-.1698-2.7461-.4639-.62473-.2517-1.01283-.5847-1.01283-.8693v-.9205c.2089.1504.46433.2876.76376.4082zm-.76376 1.5918c.2089.1504.46433.2876.76376.4082.76294.3072 1.7389.4859 2.76967.5094 0 .001-.0001.002-.0001.0029v1.33c-.93653-.0236-1.8443-.1884-2.52047-.4607-.62476-.2517-1.01286-.5847-1.01286-.8693zm4.23523.7567c.2471-.5749 1.6729-1.1695 3.6314-1.1695 1.9586 0 3.3844.5946 3.6312 1.1689.0239.056.0355.1098.0355.1644 0 .2931-.3613.6186-.9665.8708-.7159.2983-1.6748.4625-2.7002.4625-1.0253 0-1.9843-.1642-2.7001-.4625-.6052-.2522-.9665-.5777-.9665-.8708 0-.0546.0116-.1084.0352-.1638zm11.4981-1.8362c0 .2846-.3881.6176-1.0128.8693-.7304.2941-1.7308.4631-2.746.4639-.2623-.3694-.7452-.6846-1.4163-.921-.6689-.2356-1.4959-.3771-2.3582-.4063v-.9264c.2089.1504.4643.2876.7637.4082.8203.3303 1.8868.5123 3.0029.5123 1.1162 0 2.1827-.182 3.0029-.5123.2995-.1206.5549-.2578.7638-.4082zm0-2c0 .2846-.3881.6176-1.0128.8693-.7323.2949-1.736.464-2.7539.464-1.0178 0-2.0216-.1691-2.7538-.464-.6247-.2517-1.0128-.5847-1.0128-.8693v-.9205c.2089.1504.4643.2876.7637.4082.8203.3303 1.8868.5123 3.0029.5123 1.1162 0 2.1827-.182 3.0029-.5123.2995-.1206.5549-.2578.7638-.4082zm-6.5205-2.86927c.7322-.29493 1.736-.46406 2.7538-.46406 1.0179 0 2.0216.16913 2.7539.46406.6247.25164 1.0128.5847 1.0128.86927 0 .2846-.3881.6176-1.0128.8693-.7323.2949-1.736.464-2.7539.464-1.0178 0-2.0216-.1691-2.7538-.464-.6247-.2517-1.0128-.5847-1.0128-.8693 0-.28457.3881-.61763 1.0128-.86927zm-8.2 0c.73223-.29493 1.73597-.46406 2.7538-.46406 1.0179 0 2.0216.16913 2.7539.46406.6247.25164 1.0128.5847 1.0128.86927 0 .2846-.3881.6176-1.0128.8693-.7323.2949-1.736.464-2.7539.464-1.01783 0-2.02157-.1691-2.7538-.464-.62473-.2517-1.01283-.5847-1.01283-.8693 0-.28457.3881-.61763 1.01283-.86927zm0 9.73857c-.62473-.2517-1.01283-.5847-1.01283-.8693v-.9205c.2089.1504.46433.2876.76376.4082.7629.3072 1.73884.4859 2.76957.5094v1.333c-.93657-.0237-1.84433-.1885-2.5205-.4608zm9.554 2.0015c-.7159.2983-1.6748.4625-2.7002.4625-1.0253 0-1.9843-.1642-2.7001-.4625-.6052-.2522-.9665-.5777-.9665-.8708v-.901c.0755.0546.1589.1089.2514.1624.5177.2996 1.222.5211 2.0368.6407.0165.0024.0327.0036.0489.0036.1626 0 .305-.1192.3293-.285.0268-.1821-.0992-.3514-.2813-.3782-1.5492-.2274-2.3851-.8099-2.3851-1.2425v-.904c.7544.5521 2.0862.904 3.6666.904 1.5805 0 2.9122-.3519 3.6667-.904v.904c0 .4326-.8359 1.0151-2.3851 1.2425-.1821.0268-.3081.1961-.2814.3782.0244.1658.1667.285.3294.285.0161 0 .0324-.0012.0488-.0036.8149-.1196 1.5192-.3411 2.0368-.6407.0925-.0535.176-.1078.2515-.1624v.901c0 .2931-.3613.6186-.9665.8708zm4.1537-2.0015c-.6762.2723-1.584.4371-2.5205.4607v-1.3329c1.0307-.0235 2.0066-.2022 2.7695-.5095.2995-.1206.5549-.2578.7638-.4081v.9205c0 .2846-.3881.6176-1.0128.8693z"/></g></svg>