<svg width="17" height="18" viewBox="0 0 17 18" fill="none" xmlns="http://www.w3.org/2000/svg">
<path d="M10.3765 5.57648L13.8353 3.38824L10.447 0L8.25882 4.87059L6.98823 1.05882L3.6 3.31764L6.42351 5.57646H0V10.0941H1.12941V18H15.1059V10.0941H16.2353V5.57648H10.3765ZM10.7328 1.48366L12.5057 3.25659L8.88923 5.54994L10.7328 1.48366ZM6.53532 2.37879L7.53641 5.38203L5.03369 3.37987L6.53532 2.37879ZM6.98823 16.8706H2.25882V9.74034H6.98823V16.8706ZM6.98823 8.96469H1.12941V6.70588H6.98823V8.96469ZM13.9765 16.8706H9.24704V9.74034H13.9765V16.8706ZM15.1059 8.96469H9.24704V6.70588H15.1059V8.96469Z" fill="black"/>
</svg>
