<svg width="29" height="29" viewBox="0 0 29 29" fill="none" xmlns="http://www.w3.org/2000/svg">
<path d="M26.1657 12.0498H25.1991V12H14.3991V16.8H21.1809C20.1915 19.5942 17.5329 21.6 14.3991 21.6C10.4229 21.6 7.19911 18.3762 7.19911 14.4C7.19911 10.4238 10.4229 7.20002 14.3991 7.20002C16.2345 7.20002 17.9043 7.89242 19.1757 9.02342L22.5699 5.62922C20.4267 3.63182 17.5599 2.40002 14.3991 2.40002C7.77211 2.40002 2.39911 7.77302 2.39911 14.4C2.39911 21.027 7.77211 26.4 14.3991 26.4C21.0261 26.4 26.3991 21.027 26.3991 14.4C26.3991 13.5954 26.3163 12.81 26.1657 12.0498Z" fill="#FFC107"/>
<path d="M3.78339 8.81462L7.72599 11.706C8.79279 9.06482 11.3764 7.20002 14.3998 7.20002C16.2352 7.20002 17.905 7.89242 19.1764 9.02342L22.5706 5.62922C20.4274 3.63182 17.5606 2.40002 14.3998 2.40002C9.79059 2.40002 5.79339 5.00222 3.78339 8.81462Z" fill="#FF3D00"/>
<path d="M14.3992 26.4C17.4988 26.4 20.3152 25.2138 22.4446 23.2848L18.7306 20.142C17.4854 21.089 15.9637 21.6012 14.3992 21.6C11.278 21.6 8.62785 19.6098 7.62945 16.8324L3.71625 19.8474C5.70225 23.7336 9.73545 26.4 14.3992 26.4Z" fill="#4CAF50"/>
<path d="M26.1654 12.0497H25.1988V11.9999H14.3988V16.7999H21.1806C20.7074 18.1297 19.8548 19.2918 18.7284 20.1425L18.7302 20.1413L22.4442 23.2841C22.1814 23.5229 26.3988 20.3999 26.3988 14.3999C26.3988 13.5953 26.316 12.8099 26.1654 12.0497Z" fill="#1976D2"/>
</svg>
