<svg width="36" height="36" viewBox="0 0 36 36" fill="none" xmlns="http://www.w3.org/2000/svg">
<path d="M4.86088 9.10512C5.80088 8.44812 7.21788 8.57412 8.06188 9.27112L7.09388 7.86412C6.31488 6.75312 6.59388 5.55112 7.70588 4.77112C8.81788 3.99412 11.9689 6.08312 11.9689 6.08312C11.1829 4.96112 11.3299 3.53912 12.4519 2.75212C13.5739 1.96812 15.1219 2.23912 15.9079 3.36312L26.3279 18.0831L24.9999 30.9581L13.9169 26.9161L4.24988 12.5831C3.45688 11.4541 3.73088 9.89712 4.86088 9.10512Z" fill="#90603E"/>
<path d="M2.69497 17.2941C2.69497 17.2941 1.56297 15.6441 3.21397 14.5131C4.86297 13.3821 5.99397 15.0311 5.99397 15.0311L11.245 22.6891C11.426 22.3871 11.624 22.0891 11.845 21.7951L4.55697 11.1681C4.55697 11.1681 3.42597 9.51909 5.07597 8.38809C6.72497 7.25709 7.85597 8.90609 7.85597 8.90609L14.711 18.9031C14.966 18.6951 15.227 18.4861 15.496 18.2811L7.54897 6.69009C7.54897 6.69009 6.41797 5.04109 8.06797 3.91009C9.71697 2.77909 10.848 4.42809 10.848 4.42809L18.795 16.0171C19.087 15.8381 19.376 15.6831 19.666 15.5191L12.238 4.68709C12.238 4.68709 11.107 3.03809 12.756 1.90709C14.405 0.776088 15.536 2.42509 15.536 2.42509L23.39 13.8791L24.584 15.6211C19.636 19.0151 19.165 25.4001 21.992 29.5231C22.557 30.3481 23.382 29.7831 23.382 29.7831C19.989 24.8341 21.025 19.2731 25.974 15.8801L24.515 8.57809C24.515 8.57809 23.97 6.65409 25.893 6.10809C27.817 5.56309 28.363 7.48709 28.363 7.48709L30.048 12.4911C30.716 14.4751 31.427 16.4521 32.368 18.3221C35.025 23.6021 33.438 30.1641 28.428 33.6011C22.963 37.3481 15.492 35.9551 11.744 30.4911L2.69497 17.2941Z" fill="#AF7E57"/>
<path d="M12 32C8.00001 32 3.95801 27.958 3.95801 23.958C3.95801 23.405 3.55301 22.958 3.00001 22.958C2.44701 22.958 1.95801 23.405 1.95801 23.958C1.95801 29.958 6.00001 34 12 34C12.553 34 13 33.511 13 32.958C13 32.405 12.553 32 12 32Z" fill="#5DADEC"/>
<path d="M7 33.958C4 33.958 2 31.958 2 28.958C2 28.405 1.553 27.958 1 27.958C0.447 27.958 0 28.405 0 28.958C0 32.958 3 35.958 7 35.958C7.553 35.958 8 35.511 8 34.958C8 34.405 7.553 33.958 7 33.958ZM24 1.95801C23.448 1.95801 23 2.40601 23 2.95801C23 3.51001 23.448 3.95801 24 3.95801C28 3.95801 32 7.54701 32 11.958C32 12.51 32.448 12.958 33 12.958C33.552 12.958 34 12.51 34 11.958C34 6.44401 30 1.95801 24 1.95801Z" fill="#5DADEC"/>
<path d="M29 0C28.448 0 28 0.406 28 0.958C28 1.51 28.448 2 29 2C32 2 33.958 4.225 33.958 6.958C33.958 7.51 34.447 7.958 35 7.958C35.553 7.958 35.958 7.51 35.958 6.958C35.958 3.121 33 0 29 0Z" fill="#5DADEC"/>
</svg>
