<svg width="73" height="73" viewBox="0 0 73 73" fill="none" xmlns="http://www.w3.org/2000/svg">
<path d="M36.1389 71.2778C55.5456 71.2778 71.2778 55.5456 71.2778 36.1389C71.2778 16.7322 55.5456 1 36.1389 1C16.7322 1 1 16.7322 1 36.1389C1 55.5456 16.7322 71.2778 36.1389 71.2778Z" stroke="#25AE88" stroke-width="2" stroke-linecap="round" stroke-linejoin="round"/>
<path d="M51.1335 50.2354C46.9116 53.7159 41.6104 55.6193 36.1388 55.6193C30.6672 55.6193 25.3661 53.7159 21.1442 50.2354" stroke="#25AE88" stroke-width="2" stroke-linecap="round" stroke-linejoin="round"/>
<path d="M29.5604 32.1722C28.9932 30.8956 28.068 29.811 26.8968 29.0497C25.7255 28.2885 24.3587 27.8833 22.9618 27.8833C21.5649 27.8833 20.198 28.2885 19.0268 29.0497C17.8556 29.811 16.9303 30.8956 16.3632 32.1722" stroke="#25AE88" stroke-width="2" stroke-miterlimit="10" stroke-linecap="round"/>
<path d="M55.9145 32.1722C55.3474 30.8956 54.4221 29.811 53.2509 29.0497C52.0797 28.2885 50.7128 27.8833 49.3159 27.8833C47.919 27.8833 46.5522 28.2885 45.3809 29.0497C44.2097 29.811 43.2844 30.8956 42.7173 32.1722" stroke="#25AE88" stroke-width="2" stroke-miterlimit="10" stroke-linecap="round"/>
</svg>
