<svg width="24" height="25" viewBox="0 0 24 25" fill="none" xmlns="http://www.w3.org/2000/svg">
<path d="M12 2C9.9233 2 7.89323 2.61581 6.16652 3.76957C4.4398 4.92332 3.09399 6.5632 2.29927 8.48182C1.50455 10.4004 1.29661 12.5116 1.70176 14.5484C2.1069 16.5852 3.10693 18.4562 4.57538 19.9246C6.04383 21.3931 7.91476 22.3931 9.95156 22.7982C11.9884 23.2034 14.0996 22.9955 16.0182 22.2007C17.9368 21.406 19.5767 20.0602 20.7304 18.3335C21.8842 16.6068 22.5 14.5767 22.5 12.5C22.5 9.71523 21.3938 7.04451 19.4246 5.07538C17.4555 3.10625 14.7848 2 12 2ZM12 19.25C11.7775 19.25 11.56 19.184 11.375 19.0604C11.19 18.9368 11.0458 18.7611 10.9606 18.5555C10.8755 18.35 10.8532 18.1238 10.8966 17.9055C10.94 17.6873 11.0472 17.4868 11.2045 17.3295C11.3618 17.1722 11.5623 17.065 11.7805 17.0216C11.9988 16.9782 12.225 17.0005 12.4305 17.0856C12.6361 17.1708 12.8118 17.315 12.9354 17.5C13.059 17.685 13.125 17.9025 13.125 18.125C13.125 18.4234 13.0065 18.7095 12.7955 18.9205C12.5845 19.1315 12.2984 19.25 12 19.25ZM12.8565 13.4345V15.3102H11.169V11.75H12.7628C13.2355 11.75 13.6888 11.5622 14.0231 11.228C14.3573 10.8937 14.5451 10.4403 14.5451 9.96762C14.5451 9.49491 14.3573 9.04156 14.0231 8.7073C13.6888 8.37304 13.2355 8.18525 12.7628 8.18525H11.6378C11.1655 8.18585 10.7128 8.3737 10.3789 8.70762C10.045 9.04154 9.8571 9.49427 9.85651 9.9665V10.445H8.16901V9.9665C8.1702 9.0471 8.53611 8.16574 9.18643 7.51584C9.83675 6.86593 10.7184 6.5006 11.6378 6.5H12.7628C13.673 6.50208 14.546 6.86197 15.1933 7.50201C15.8405 8.14205 16.2102 9.01092 16.2225 9.92111C16.2348 10.8313 15.8888 11.7098 15.259 12.3671C14.6293 13.0245 13.7664 13.4078 12.8565 13.4345Z" fill="#7D7A7A"/>
</svg>
