<svg width="26" height="18" viewBox="0 0 26 18" fill="none" xmlns="http://www.w3.org/2000/svg">
<path d="M22.2968 0.242804C21.9385 -0.0832266 21.3551 -0.0786347 20.9917 0.242804L17.7163 3.18167C13.6578 1.52856 9.32815 1.93265 5.19805 4.35263C2.12222 6.15269 0.254211 8.41653 0.177443 8.51296C-0.0682137 8.81604 -0.057978 9.22931 0.203032 9.5232C1.95334 11.4518 3.78552 12.9534 5.65865 14.0004L2.77731 16.5857C2.41906 16.9071 2.41906 17.4306 2.77731 17.7566C2.95643 17.9173 3.19185 18 3.42727 18C3.6627 18 3.89812 17.9173 4.07724 17.7566L22.2968 1.41376C22.655 1.09232 22.655 0.568835 22.2968 0.242804ZM10.2596 9.87219C10.1265 9.60126 10.06 9.30738 10.06 8.99971C10.06 8.40735 10.3159 7.84713 10.7867 7.42466C11.5237 6.76342 12.6138 6.60729 13.5145 6.95169L10.2596 9.87219ZM14.8759 5.73481C13.2024 4.7705 10.9454 4.94499 9.4868 6.25371C8.66795 6.98843 8.2227 7.96193 8.2227 8.99512C8.2227 9.74821 8.46323 10.4691 8.90849 11.0891L7.00977 12.7927C5.34647 11.9294 3.70876 10.6528 2.11711 8.98594C2.79778 8.26959 4.23589 6.8874 6.20626 5.73481C9.61475 3.74189 13.0079 3.31025 16.314 4.44447L14.8759 5.73481Z" fill="black"/>
<path d="M24.8757 8.47767C23.6116 7.08171 22.3014 5.90616 20.9708 4.97399C20.5665 4.69388 19.9882 4.75816 19.6709 5.11634C19.3587 5.47451 19.4303 5.99341 19.8295 6.27811C20.8838 7.01742 21.9381 7.93582 22.9616 9.01034C22.3577 9.64403 21.1806 10.7828 19.5839 11.8252C16.508 13.8319 13.4015 14.5575 10.3564 13.9789C9.85996 13.8824 9.36864 14.1717 9.26629 14.6171C9.15881 15.0626 9.48124 15.5034 9.97767 15.5952C10.7709 15.7468 11.5693 15.8202 12.3728 15.8202C13.5806 15.8202 14.7987 15.6503 16.0116 15.3105C17.6033 14.8651 19.1847 14.1304 20.7149 13.1293C23.2943 11.4349 24.8348 9.56597 24.9013 9.4879C25.147 9.18483 25.1367 8.77156 24.8757 8.47767Z" fill="black"/>
</svg>
