<svg width="34" height="34" viewBox="0 0 34 34" fill="none" xmlns="http://www.w3.org/2000/svg">
<path d="M31.8762 16.0151H13.8023C13.2579 16.0151 12.8125 16.4606 12.8125 17.0049C12.8125 17.5493 13.2579 17.9948 13.8023 17.9948H31.8762C32.4206 17.9948 32.8661 17.5493 32.8661 17.0049C32.8661 16.4606 32.4305 16.0151 31.8762 16.0151Z" fill="#1D3262"/>
<path d="M5.73543 12.4023C3.19162 12.4023 1.13281 14.4611 1.13281 17.005C1.13281 19.5488 3.19162 21.6076 5.73543 21.6076C8.27925 21.6076 10.3381 19.5488 10.3381 17.005C10.3381 14.4611 8.27925 12.4023 5.73543 12.4023ZM5.73543 19.628C4.28041 19.628 3.11243 18.4501 3.11243 17.005C3.11243 15.5499 4.29031 14.382 5.73543 14.382C7.18056 14.382 8.35843 15.5598 8.35843 17.005C8.35843 18.4501 7.18056 19.628 5.73543 19.628Z" fill="#1D3262"/>
<path d="M31.8762 3.64246H13.8023C13.2579 3.64246 12.8125 4.08787 12.8125 4.63227C12.8125 5.17666 13.2579 5.62208 13.8023 5.62208H31.8762C32.4206 5.62208 32.8661 5.17666 32.8661 4.63227C32.8661 4.08787 32.4305 3.64246 31.8762 3.64246Z" fill="#1D3262"/>
<path d="M5.73543 0C3.19162 0 1.13281 2.05881 1.13281 4.60262C1.13281 7.14643 3.19162 9.20524 5.73543 9.20524C8.27925 9.20524 10.3381 7.14643 10.3381 4.60262C10.3381 2.0687 8.27925 0.00989811 5.73543 0ZM5.73543 7.23552C4.28041 7.23552 3.11243 6.05764 3.11243 4.61252C3.11243 3.16739 4.29031 1.98952 5.73543 1.98952C7.19045 1.98952 8.35843 3.16739 8.35843 4.61252C8.35843 6.05764 7.18056 7.23552 5.73543 7.23552Z" fill="#1D3262"/>
<path d="M31.8762 28.3878H13.8023C13.2579 28.3878 12.8125 28.8332 12.8125 29.3776C12.8125 29.922 13.2579 30.3674 13.8023 30.3674H31.8762C32.4206 30.3674 32.8661 29.922 32.8661 29.3776C32.8661 28.8332 32.4305 28.3878 31.8762 28.3878Z" fill="#1D3262"/>
<path d="M5.73543 24.7948C3.19162 24.7948 1.13281 26.8536 1.13281 29.3974C1.13281 31.9412 3.19162 34 5.73543 34C8.27925 34 10.3381 31.9412 10.3381 29.3974C10.3381 26.8635 8.27925 24.7948 5.73543 24.7948ZM5.73543 32.0303C4.28041 32.0303 3.11243 30.8524 3.11243 29.4073C3.11243 27.9523 4.29031 26.7843 5.73543 26.7843C7.19045 26.7843 8.35843 27.9622 8.35843 29.4073C8.35843 30.8524 7.18056 32.0303 5.73543 32.0303Z" fill="#1D3262"/>
</svg>
