<svg width="38" height="38" viewBox="0 0 38 38" fill="none" xmlns="http://www.w3.org/2000/svg">
<g clip-path="url(#clip0_998_5573)">
<path d="M34.152 18.444C33.4405 18.1479 32.673 18.0913 31.9414 18.2738C31.6583 17.2555 30.9373 16.3741 29.9116 15.9472C29.1901 15.647 28.4114 15.593 27.6709 15.7847C27.3678 14.7675 26.6135 13.8962 25.5484 13.4868C25.1154 13.3203 24.6723 13.2455 24.2314 13.2513L27.4572 4.85958C28.1486 3.06084 27.2853 1.00401 25.5328 0.274538C24.6418 -0.0962821 23.6632 -0.0914585 22.7772 0.288043C21.891 0.667694 21.2124 1.37223 20.8665 2.27208L15.7606 15.5549L15.7278 15.5423C14.0283 14.8889 12.1139 15.7402 11.4605 17.4399L10.0842 21.0203C7.61291 27.4492 10.8327 34.6901 17.2617 37.1614C18.7173 37.721 20.2339 37.9999 21.748 37.9999C23.4732 37.9999 25.195 37.6377 26.8188 36.9156C29.8674 35.56 32.2057 33.0983 33.4029 29.9839L36.0764 23.0289C36.7678 21.2302 35.9045 19.1734 34.152 18.444ZM33.9984 22.2301L31.3249 29.1852C30.3411 31.7444 28.4196 33.7675 25.9143 34.8814C23.4091 35.9954 20.6199 36.0672 18.0605 35.0834C12.7774 33.0526 10.1314 27.1022 12.1623 21.819L13.5385 18.2388C13.7028 17.8114 14.1116 17.5487 14.5443 17.5487C14.6724 17.5487 14.8026 17.5718 14.9292 17.6204L17.04 18.4317L22.9446 3.07086C23.073 2.73692 23.3248 2.47541 23.6539 2.33449C23.9828 2.19364 24.3462 2.19208 24.6774 2.32989C25.3274 2.60045 25.6421 3.3769 25.3793 4.0608L20.974 15.521L23.052 16.3198C23.312 15.6436 24.0735 15.3049 24.7498 15.5648C25.426 15.8248 25.7647 16.5864 25.5032 17.2665L25.2439 17.9486L27.3234 18.7435C27.4517 18.4096 27.7037 18.1482 28.0326 18.0072C28.3614 17.8665 28.7251 17.8648 29.0563 18.0026C29.7062 18.2731 30.021 19.0495 29.758 19.7336L29.4874 20.4376C29.4869 20.439 29.4864 20.4402 29.4859 20.4415L31.5639 21.2403L31.5647 21.2384C31.6933 20.9054 31.9447 20.6447 32.2731 20.504C32.602 20.3632 32.9655 20.3616 33.2967 20.4995C33.9464 20.7698 34.2612 21.5463 33.9984 22.2301Z" fill="#1D3262"/>
<path d="M6.84165 1.90177L5.26747 0.327581L1.68513 3.90992L5.26747 7.49219L6.84165 5.918L5.94662 5.02305L12.4365 5.02305L12.4365 2.79679L5.94662 2.79679L6.84165 1.90177Z" fill="#1D3262"/>
<path d="M16.8896 5.02307L14.6634 5.02307L14.6634 2.79681L16.8896 2.79681L16.8896 5.02307Z" fill="#1D3262"/>
</g>
<defs>
<clipPath id="clip0_998_5573">
<rect width="38" height="38" fill="white"/>
</clipPath>
</defs>
</svg>
