<svg width="60" height="60" viewBox="0 0 60 60" fill="none" xmlns="http://www.w3.org/2000/svg">
<g filter="url(#filter0_d_558_9183)">
<path d="M10 8C10 6.34315 11.3431 5 13 5H47C48.6569 5 50 6.34315 50 8V25C50 36.0457 41.0457 45 30 45C18.9543 45 10 36.0457 10 25V8Z" fill="#F1C72F"/>
</g>
<path d="M22.28 24.88C22.08 24.88 21.84 24.84 21.68 24.72C21.16 24.44 20.52 23.72 20.52 21.8C20.52 17.8 18.36 15.48 18.36 15.48L18 15.08L19.88 13L20.2 13.48C20.24 13.52 21.24 14.96 22.8 14.56L23 15.6C21.44 16 20.32 15.16 19.76 14.56L19.36 15.08C20.04 15.96 21.48 18.28 21.48 21.8C21.48 22.84 21.68 23.56 22.08 23.76C22.36 23.92 22.8 23.76 23.2 23.36C24.24 22.32 25 19.76 25 19.76L25.88 20.08C25.84 20.2 25.04 22.96 23.8 24.16C23.28 24.64 22.76 24.88 22.28 24.88ZM37.72 24.88C37.92 24.88 38.16 24.84 38.32 24.72C38.84 24.44 39.48 23.72 39.48 21.8C39.48 17.76 41.6 15.48 41.64 15.44L42 15.08L40.12 13L39.8 13.48C39.76 13.52 38.76 14.96 37.2 14.56L37 15.6C38.56 16 39.68 15.16 40.24 14.56L40.72 15.08C40.04 15.96 38.6 18.28 38.6 21.8C38.6 22.84 38.4 23.56 38 23.76C37.72 23.92 37.28 23.76 36.88 23.36C35.84 22.32 35.08 19.76 35.08 19.76L34.2 20.08C34.24 20.2 35.04 22.96 36.28 24.16C36.72 24.64 37.24 24.88 37.72 24.88ZM28.8 22.16H31.24V31.96H28.8V22.16Z" fill="#1D3262"/>
<path d="M29.28 22.16H30.72V31.96H29.28V22.16Z" fill="#1D3262"/>
<path d="M21.92 13C22.6 19.16 25.96 24.08 30 24.08C34.04 24.08 37.4 19.16 38.08 13H21.92Z" fill="#1D3262"/>
<path d="M23.48 13C24.04 19.24 26.76 24.2 30 24.2C33.24 24.2 35.96 19.24 36.52 13H23.48Z" fill="#1D3262"/>
<path d="M36.24 33.8H23.76C23.76 33.8 26.56 30.2 30 30.2C33.44 30.2 36.24 33.8 36.24 33.8Z" fill="#1D3262"/>
<path d="M34.76 33.8H25.24C25.24 33.8 27.36 30.12 30 30.12C32.64 30.12 34.76 33.8 34.76 33.8Z" fill="#1D3262"/>
<path d="M21.92 34.6H38.08V37H21.92V34.6Z" fill="#F6F6F6"/>
<path d="M23.76 33.8H36.28V34.6H23.76V33.8Z" fill="#F6F6F6"/>
<path d="M26 35.2H34V36.4H26V35.2Z" fill="#1D3262"/>
<path d="M21.92 34.6H22.72V37H21.92V34.6Z" fill="#F6F6F6"/>
<path d="M37.28 34.6H38.08V37H37.28V34.6Z" fill="#F6F6F6"/>
<path d="M26.4 35.2H33.6V36.4H26.4V35.2Z" fill="#1D3262"/>
<defs>
<filter id="filter0_d_558_9183" x="0" y="0" width="60" height="60" filterUnits="userSpaceOnUse" color-interpolation-filters="sRGB">
<feFlood flood-opacity="0" result="BackgroundImageFix"/>
<feColorMatrix in="SourceAlpha" type="matrix" values="0 0 0 0 0 0 0 0 0 0 0 0 0 0 0 0 0 0 127 0" result="hardAlpha"/>
<feOffset dy="5"/>
<feGaussianBlur stdDeviation="5"/>
<feComposite in2="hardAlpha" operator="out"/>
<feColorMatrix type="matrix" values="0 0 0 0 0.945098 0 0 0 0 0.780392 0 0 0 0 0.184314 0 0 0 0.3 0"/>
<feBlend mode="normal" in2="BackgroundImageFix" result="effect1_dropShadow_558_9183"/>
<feBlend mode="normal" in="SourceGraphic" in2="effect1_dropShadow_558_9183" result="shape"/>
</filter>
</defs>
</svg>
