<svg width="23" height="24" viewBox="0 0 23 24" fill="none" xmlns="http://www.w3.org/2000/svg">
<path d="M14.3344 23.4367C14.6495 23.1047 14.8442 22.6531 14.8442 22.1555V22.1547V10.7172H16.777C16.7931 10.7172 16.8076 10.7164 16.8222 10.7133C17.4976 10.6469 17.9791 9.69844 17.9791 9.05156C17.9791 8.72891 17.8587 8.42188 17.6487 8.19688C17.6402 8.18672 16.7762 7.17578 15.9589 6.31094C15.2452 5.53594 14.2577 4.94609 13.1805 4.63984C13.7571 4.14844 14.1059 3.41406 14.1059 2.62578C14.1059 1.17812 12.9375 0 11.5008 0C10.0648 0 8.89717 1.17812 8.89717 2.62578C8.89717 3.41406 9.24523 4.14844 9.82177 4.63984C8.7584 4.94219 7.79087 5.52031 7.04567 6.30781C6.22457 7.17578 5.3613 8.18672 5.36053 8.18828C5.1428 8.42266 5.0232 8.72891 5.0232 9.05156C5.0232 9.69844 5.5039 10.6469 6.17933 10.7133C6.1939 10.7156 6.20923 10.7172 6.22457 10.7172H8.15887V11.8766L5.45407 14.4695C4.91127 15.1156 4.98717 16.0914 5.61277 16.6359L8.87877 19.7227C9.4576 20.2273 10.6038 20.2078 11.2232 19.7352V22.1547L11.2255 22.1555C11.2255 22.6531 11.4195 23.1047 11.7354 23.4367H0V24H23V23.4367H14.3344ZM6.25523 10.1547C5.93937 10.1547 5.57443 9.48672 5.57443 9.05078C5.57443 8.87266 5.64037 8.70312 5.7684 8.56484C5.77683 8.55469 6.63167 7.55391 7.4428 6.69688C8.25317 5.83984 9.35717 5.25391 10.5539 5.04609C10.6015 5.04297 10.6482 5.02813 10.6889 5C10.7671 4.94844 10.8146 4.85859 10.8146 4.76328C10.8146 4.68047 10.7793 4.60234 10.7172 4.54922C10.6889 4.52422 10.6559 4.50625 10.6214 4.49531C9.90763 4.15703 9.4484 3.42656 9.4484 2.62344C9.4484 1.48594 10.3684 0.560156 11.5 0.560156C12.6324 0.560156 13.5531 1.48594 13.5531 2.62344C13.5531 3.42812 13.0916 4.16016 12.3748 4.49687C12.3418 4.50859 12.3111 4.52578 12.2843 4.54922C12.2222 4.60234 12.1869 4.68203 12.1869 4.76484C12.1869 4.86016 12.2345 4.94844 12.3127 5.00078C12.3556 5.02891 12.4031 5.04375 12.4522 5.04609C13.6559 5.25625 14.7867 5.85547 15.5603 6.69609C16.3706 7.55312 17.2247 8.55313 17.2408 8.57266C17.3612 8.70234 17.4271 8.87109 17.4271 9.04922C17.4271 9.48516 17.0622 10.1531 16.7471 10.1531H11.7775V7.59297C11.9991 7.67422 12.2398 7.82734 12.4614 7.97109C12.7903 8.18516 13.074 8.37031 13.3523 8.37188H14.5184C14.6709 8.37188 14.7944 8.24609 14.7944 8.09062C14.7944 7.93516 14.6702 7.80938 14.5184 7.80938H13.353C13.2357 7.80859 12.9705 7.63594 12.7581 7.49766C12.3786 7.25078 11.9493 6.97109 11.4946 6.97109C11.0523 6.97109 10.6229 7.25078 10.2442 7.49766C10.0311 7.63594 9.7658 7.80859 9.6508 7.80938H8.4847C8.33213 7.80938 8.2087 7.93516 8.2087 8.09062C8.2087 8.24609 8.33213 8.37188 8.4847 8.37188H9.65233C9.92987 8.37031 10.2135 8.18516 10.5417 7.97109C10.7617 7.82812 11.0009 7.67578 11.2255 7.59453V10.1531H6.25523V10.1547ZM11.2232 17.3523L9.49363 15.6039C9.83403 15.2734 10.5041 14.6234 10.7947 14.3398L11.2232 14.5281V17.3523ZM14.2922 22.1547C14.2922 22.8617 13.7287 23.4367 13.0349 23.4367C12.341 23.4367 11.7775 22.8625 11.7775 22.1555L11.7752 22.1547V18.6594C11.7806 18.5844 11.7806 18.5102 11.7752 18.4352V14.3422C11.7752 14.2297 11.7101 14.1289 11.6081 14.0836L10.8437 13.7484C10.7402 13.7031 10.6191 13.7273 10.5394 13.8086C10.4589 13.8914 8.90713 15.3945 8.90713 15.3945C8.85347 15.4469 8.82203 15.5188 8.82127 15.5953C8.8205 15.6719 8.84963 15.7445 8.90253 15.7984L10.889 17.8055C11.0906 17.982 11.2033 18.225 11.2225 18.475V18.6266C11.2071 18.8266 11.132 19.0234 10.9955 19.1867C10.6605 19.5844 9.64237 19.6469 9.24523 19.3023L5.97923 16.2156C5.57673 15.8641 5.52843 15.2445 5.85197 14.8562L8.62347 12.2023C8.67867 12.1492 8.7101 12.075 8.7101 11.9977V10.7164H14.2914L14.2922 22.1547Z" fill="black"/>
</svg>
