<svg width="163" height="173" viewBox="0 0 163 173" fill="none" xmlns="http://www.w3.org/2000/svg">
<path opacity="0.4" d="M50.6079 170.907L17.9747 150.693C15.2121 148.976 15.5578 145.991 18.7494 144.013L97.5762 95.1907C100.777 93.2123 105.595 92.9993 108.358 94.7098L140.991 114.924C143.754 116.641 143.408 119.629 140.216 121.604L61.3896 170.43C58.198 172.405 53.3706 172.621 50.6079 170.907Z" fill="#D6D8E5"/>
<path d="M54.7407 168.248L22.1107 148.035C19.3449 146.317 19.6938 143.329 22.8854 141.354L101.709 92.5217C104.91 90.5467 109.712 90.3304 112.494 92.0443L145.124 112.258C147.887 113.975 147.541 116.96 144.349 118.939L65.5257 167.768C62.334 169.746 57.5066 169.959 54.7407 168.248Z" fill="#B1B4C4"/>
<path d="M20.2443 145.088V141.866L23.7689 143.291L20.2443 145.088Z" fill="#B1B4C4"/>
<path d="M146.99 115.047V111.949L144.189 113.886L146.99 115.047Z" fill="#B1B4C4"/>
<path d="M54.7407 165.518L22.1107 145.304C19.3449 143.587 19.6938 140.602 22.8854 138.624L101.709 89.7947C104.91 87.8163 109.712 87.6033 112.494 89.3138L145.124 109.528C147.887 111.245 147.541 114.233 144.349 116.208L65.5257 165.04C62.334 167.015 57.5066 167.232 54.7407 165.518Z" fill="#616E84"/>
<path d="M26.048 149.447C26.2149 149.344 26.2148 149.008 26.0477 148.698C25.8806 148.387 25.6099 148.219 25.443 148.323C25.2761 148.426 25.2763 148.762 25.4433 149.072C25.6104 149.383 25.8811 149.55 26.048 149.447Z" fill="#757B89"/>
<path d="M27.6188 150.421C27.7857 150.318 27.7855 149.982 27.6184 149.672C27.4514 149.361 27.1806 149.193 27.0137 149.297C26.8468 149.4 26.847 149.736 27.0141 150.046C27.1811 150.357 27.4519 150.525 27.6188 150.421Z" fill="#757B89"/>
<path d="M29.1897 151.392C29.3566 151.288 29.3565 150.953 29.1894 150.642C29.0223 150.332 28.7516 150.164 28.5847 150.267C28.4178 150.371 28.418 150.706 28.585 151.017C28.7521 151.327 29.0229 151.495 29.1897 151.392Z" fill="#757B89"/>
<path d="M30.7596 152.367C30.9265 152.264 30.9264 151.928 30.7593 151.618C30.5922 151.307 30.3215 151.139 30.1546 151.243C29.9877 151.346 29.9879 151.682 30.1549 151.992C30.322 152.303 30.5927 152.471 30.7596 152.367Z" fill="#757B89"/>
<path d="M44.248 160.719C44.4149 160.616 44.4148 160.28 44.2477 159.97C44.0806 159.659 43.8099 159.492 43.643 159.595C43.4761 159.698 43.4763 160.034 43.6433 160.344C43.8104 160.655 44.0811 160.823 44.248 160.719Z" fill="#757B89"/>
<path d="M45.8163 161.695C45.9832 161.592 45.983 161.256 45.816 160.946C45.6489 160.635 45.3781 160.467 45.2112 160.571C45.0443 160.674 45.0445 161.01 45.2116 161.32C45.3787 161.631 45.6494 161.799 45.8163 161.695Z" fill="#757B89"/>
<path d="M47.387 162.666C47.5539 162.562 47.5537 162.227 47.3867 161.916C47.2196 161.606 46.9489 161.438 46.782 161.541C46.6151 161.645 46.6152 161.98 46.7823 162.291C46.9494 162.601 47.2201 162.769 47.387 162.666Z" fill="#757B89"/>
<path d="M48.9596 163.639C49.1265 163.536 49.1263 163.2 48.9593 162.89C48.7922 162.579 48.5214 162.412 48.3546 162.515C48.1877 162.618 48.1878 162.954 48.3549 163.264C48.522 163.575 48.7927 163.743 48.9596 163.639Z" fill="#757B89"/>
<path d="M39.3748 158.023L35.0627 155.347C34.9114 155.233 34.7875 155.081 34.7013 154.905C34.615 154.729 34.5688 154.533 34.5665 154.334C34.5665 153.943 34.7874 153.764 35.0627 153.932L39.3748 156.608C39.5261 156.723 39.65 156.875 39.7362 157.051C39.8225 157.227 39.8686 157.422 39.8709 157.621C39.8549 158.013 39.6341 158.191 39.3748 158.023Z" fill="#757B89"/>
<path d="M137.114 122.724L133.1 125.211C132.847 125.365 132.639 125.211 132.639 124.836C132.642 124.651 132.685 124.469 132.765 124.305C132.845 124.141 132.96 124 133.1 123.892L137.114 121.408C137.367 121.25 137.572 121.408 137.572 121.779C137.57 121.964 137.527 122.146 137.448 122.31C137.368 122.474 137.254 122.616 137.114 122.724Z" fill="#757B89"/>
<path d="M130.968 126.53L126.954 129.016C126.701 129.174 126.493 129.016 126.493 128.642C126.496 128.457 126.54 128.276 126.62 128.113C126.7 127.95 126.814 127.808 126.954 127.701L130.968 125.214C131.221 125.056 131.426 125.214 131.426 125.588C131.424 125.773 131.381 125.954 131.302 126.118C131.222 126.281 131.108 126.422 130.968 126.53Z" fill="#757B89"/>
<path d="M54.7407 165.023L22.1107 144.81C19.3449 143.092 19.6938 140.107 22.8854 138.129L101.709 89.3C104.91 87.3216 109.712 87.1052 112.494 88.8191L145.124 109.033C147.887 110.75 147.541 113.735 144.349 115.713L65.5257 164.542C62.334 166.521 57.5066 166.734 54.7407 165.023Z" fill="#20232D"/>
<path d="M141.622 109.84L128.881 101.94L128.852 101.961C127.344 102.892 124.905 102.892 123.41 101.961C121.915 101.03 121.905 99.5151 123.41 98.5843L123.442 98.5637L110.701 90.6637C108.78 89.465 105.63 89.465 103.694 90.6637L26.9156 138.235C24.9949 139.434 24.9949 141.378 26.9156 142.577L57.8426 161.736C59.7793 162.935 62.9165 162.935 64.8501 161.736L141.622 114.178C143.555 112.979 143.555 111.039 141.622 109.84Z" fill="white"/>
<path opacity="0.5" d="M141.622 114.178L64.8502 161.736C63.1024 162.818 60.3685 162.924 58.4286 162.045C58.2286 161.955 58.034 161.852 57.846 161.736L26.9158 142.591C26.4868 142.338 26.116 141.986 25.8306 141.56C25.1007 140.451 25.4625 139.132 26.9158 138.232L103.684 90.6772C105.621 89.4819 108.755 89.4819 110.692 90.6772L123.432 98.5772H123.4C121.896 99.5081 121.896 101.019 123.4 101.954C124.905 102.888 127.348 102.884 128.843 101.954L128.875 101.933L141.615 109.833C143.555 111.039 143.555 112.979 141.622 114.178Z" fill="url(#paint0_linear_1469_4437)"/>
<path d="M125.289 101.703C126.097 101.703 126.752 101.297 126.752 100.796C126.752 100.295 126.097 99.8894 125.289 99.8894C124.481 99.8894 123.826 100.295 123.826 100.796C123.826 101.297 124.481 101.703 125.289 101.703Z" fill="#2B303F"/>
<path opacity="0.1" d="M124.847 101.064C124.796 101.044 124.752 101.008 124.72 100.96C124.689 100.912 124.672 100.855 124.672 100.796C124.672 100.738 124.689 100.681 124.72 100.633C124.752 100.585 124.796 100.548 124.847 100.528C124.982 100.455 125.13 100.417 125.281 100.417C125.432 100.417 125.58 100.455 125.715 100.528C125.768 100.547 125.814 100.582 125.846 100.631C125.879 100.679 125.896 100.737 125.896 100.796C125.896 100.856 125.879 100.914 125.846 100.962C125.814 101.01 125.768 101.046 125.715 101.064C125.58 101.137 125.432 101.175 125.281 101.175C125.13 101.175 124.982 101.137 124.847 101.064Z" fill="white"/>
<path d="M130.533 107.333L129.979 106.989L130.904 106.416L131.458 106.759L130.533 107.333Z" fill="#E9EAF2"/>
<path d="M131.272 107.789L130.718 107.446L132.012 106.646L132.565 106.989L131.272 107.789Z" fill="#E9EAF2"/>
<path d="M132.012 108.246L131.458 107.903L133.305 106.759L133.859 107.103L132.012 108.246Z" fill="#E9EAF2"/>
<path d="M132.751 108.707L132.198 108.363L134.784 106.759L135.338 107.103L132.751 108.707Z" fill="#E9EAF2"/>
<path d="M135.152 110.194L134.291 109.658L136.017 108.59L136.878 109.125L135.152 110.194Z" fill="#E9EAF2"/>
<path d="M136.305 110.905L135.44 110.372L137.166 109.304L138.027 109.837L136.305 110.905Z" fill="#E9EAF2"/>
<path d="M137.454 111.616L136.589 111.083L138.315 110.015L139.176 110.548L137.454 111.616Z" fill="#E9EAF2"/>
<path d="M101.367 101.126L97.4002 98.6667C96.8496 98.3232 96.9201 97.7358 97.5539 97.3443L101.213 95.0773C101.537 94.8821 101.9 94.7716 102.271 94.7549C102.643 94.7382 103.013 94.8157 103.351 94.9811L107.318 97.437C107.865 97.7805 107.798 98.3713 107.164 98.7628L103.505 101.03C103.18 101.224 102.818 101.334 102.446 101.351C102.075 101.367 101.705 101.29 101.367 101.126Z" fill="#E9EAF2"/>
<path d="M128.347 117.84L105.134 103.462C104.587 103.118 104.658 102.527 105.288 102.136L108.95 99.8688C109.274 99.6743 109.636 99.5644 110.007 99.5476C110.378 99.5309 110.748 99.608 111.086 99.7726L134.298 114.151C134.845 114.494 134.778 115.085 134.144 115.476L130.485 117.743C130.16 117.937 129.798 118.046 129.426 118.063C129.055 118.08 128.685 118.003 128.347 117.84Z" fill="#E9EAF2"/>
<path d="M93.3315 106.103L89.3652 103.643C88.8178 103.3 88.885 102.713 89.5188 102.321L93.1778 100.054C93.5022 99.8589 93.8648 99.7484 94.2363 99.7317C94.6079 99.715 94.9779 99.7925 95.3163 99.9579L99.2826 102.404C99.83 102.747 99.7628 103.338 99.1289 103.729L95.4699 105.996C95.146 106.192 94.7839 106.304 94.4125 106.322C94.0411 106.341 93.6709 106.266 93.3315 106.103Z" fill="#E9EAF2"/>
<path d="M120.311 122.816L97.1024 108.438C96.555 108.095 96.6222 107.504 97.2561 107.113L100.915 104.846C101.24 104.651 101.602 104.542 101.974 104.525C102.345 104.508 102.715 104.585 103.053 104.75L126.262 119.128C126.81 119.471 126.742 120.062 126.109 120.453L122.45 122.72C122.125 122.914 121.762 123.023 121.391 123.04C121.02 123.057 120.65 122.98 120.311 122.816Z" fill="#E9EAF2"/>
<g opacity="0.6">
<path opacity="0.6" d="M85.2996 111.08L81.3301 108.62C80.7827 108.277 80.8499 107.69 81.4837 107.298L85.146 105.031C85.4697 104.836 85.8318 104.725 86.2028 104.709C86.5739 104.692 86.9433 104.77 87.2812 104.935L91.2507 107.391C91.7981 107.734 91.7277 108.325 91.097 108.717L87.4348 110.99C87.1103 111.184 86.748 111.293 86.3771 111.308C86.0063 111.324 85.6372 111.245 85.2996 111.08Z" fill="#E9EAF2"/>
<path opacity="0.6" d="M112.279 127.793L89.0675 113.416C88.52 113.072 88.5873 112.481 89.2211 112.09L92.8801 109.823C93.2048 109.629 93.5673 109.519 93.9387 109.502C94.31 109.485 94.6799 109.562 95.0185 109.727L118.231 124.105C118.778 124.448 118.708 125.039 118.077 125.43L114.415 127.697C114.09 127.891 113.728 128 113.358 128.017C112.987 128.033 112.618 127.957 112.279 127.793Z" fill="#E9EAF2"/>
</g>
<path d="M77.2644 116.057L73.3077 113.598C72.7603 113.254 72.8307 112.667 73.4614 112.275L77.1236 110.005C77.4478 109.811 77.81 109.702 78.1809 109.685C78.5518 109.669 78.921 109.747 79.2588 109.912L83.2315 112.365C83.7789 112.708 83.7117 113.299 83.0778 113.69L79.39 115.961C79.0672 116.153 78.7069 116.263 78.3379 116.279C77.9688 116.296 77.6012 116.22 77.2644 116.057Z" fill="#E9EAF2"/>
<path d="M104.245 132.77L81.0326 118.392C80.4852 118.049 80.5556 117.458 81.1862 117.067L84.8484 114.8C85.1724 114.605 85.5344 114.495 85.9053 114.479C86.2762 114.462 86.6456 114.539 86.9836 114.703L110.196 129.081C110.743 129.425 110.673 130.016 110.042 130.407L106.38 132.674C106.055 132.868 105.694 132.977 105.323 132.994C104.952 133.01 104.583 132.934 104.245 132.77Z" fill="#E9EAF2"/>
<path d="M69.2296 121.034L65.2633 118.575C64.7158 118.231 64.7831 117.644 65.4169 117.252L69.0759 114.982C69.4007 114.788 69.7634 114.679 70.1348 114.662C70.5062 114.646 70.876 114.724 71.2143 114.889L75.1806 117.345C75.728 117.689 75.6608 118.279 75.027 118.671L71.368 120.952C71.0423 121.144 70.6792 121.251 70.3079 121.265C69.9365 121.28 69.5672 121.2 69.2296 121.034Z" fill="#E9EAF2"/>
<path d="M96.2094 137.748L72.9878 123.356C72.4404 123.012 72.5108 122.422 73.1414 122.03L76.8036 119.763C77.1282 119.569 77.4907 119.459 77.8621 119.442C78.2336 119.425 78.6034 119.502 78.942 119.667L102.151 134.045C102.698 134.388 102.631 134.979 101.997 135.371L98.3382 137.638C98.0155 137.832 97.6553 137.943 97.2858 137.962C96.9164 137.981 96.5479 137.907 96.2094 137.748Z" fill="#E9EAF2"/>
<g opacity="0.6">
<path opacity="0.6" d="M61.1945 126.011L57.2282 123.551C56.6808 123.208 56.748 122.621 57.3819 122.229L61.0409 119.959C61.3657 119.765 61.7284 119.655 62.0998 119.639C62.4712 119.623 62.8409 119.701 63.1793 119.866L67.1456 122.325C67.6962 122.669 67.6258 123.26 66.9919 123.651L63.3329 125.918C63.008 126.112 62.6454 126.221 62.274 126.237C61.9027 126.253 61.5329 126.176 61.1945 126.011Z" fill="#E9EAF2"/>
<path opacity="0.6" d="M88.1744 142.724L64.9656 128.346C64.4182 128.003 64.4854 127.412 65.1192 127.021L68.7782 124.754C69.1029 124.559 69.4654 124.45 69.8368 124.433C70.2082 124.416 70.578 124.493 70.9167 124.657L94.1159 139.035C94.6633 139.379 94.5961 139.97 93.9622 140.361L90.3032 142.628C89.9795 142.82 89.6188 142.928 89.2494 142.945C88.88 142.962 88.512 142.886 88.1744 142.724Z" fill="#E9EAF2"/>
</g>
<path d="M53.1625 130.988L49.193 128.529C48.6456 128.185 48.716 127.598 49.3467 127.206L53.0089 124.936C53.3331 124.742 53.6953 124.632 54.0662 124.616C54.4371 124.6 54.8063 124.678 55.1441 124.843L59.1136 127.299C59.661 127.642 59.5906 128.233 58.9599 128.625L55.2977 130.892C54.9738 131.086 54.6117 131.196 54.2408 131.213C53.8699 131.229 53.5006 131.152 53.1625 130.988Z" fill="#E9EAF2"/>
<path d="M80.1426 147.702L56.9306 133.317C56.3831 132.973 56.4504 132.382 57.0842 131.991L60.7432 129.724C61.0678 129.53 61.4304 129.42 61.8018 129.403C62.1731 129.386 62.543 129.463 62.8816 129.628L86.0936 144.006C86.641 144.349 86.5706 144.94 85.94 145.332L82.2714 147.605C81.9479 147.798 81.5871 147.906 81.2176 147.923C80.848 147.94 80.48 147.864 80.1426 147.702Z" fill="#E9EAF2"/>
<g opacity="0.6">
<path opacity="0.6" d="M45.1373 135.965L41.1678 133.506C40.6203 133.162 40.6908 132.575 41.3214 132.183L44.9836 129.913C45.3084 129.719 45.6711 129.609 46.0425 129.593C46.4139 129.577 46.7837 129.655 47.122 129.82L51.0787 132.286C51.6261 132.63 51.5589 133.22 50.9251 133.612L47.2629 135.879C46.9393 136.07 46.5786 136.177 46.2096 136.192C45.8405 136.207 45.4733 136.129 45.1373 135.965Z" fill="#E9EAF2"/>
<path opacity="0.6" d="M72.1076 152.679L48.8955 138.301C48.3481 137.957 48.4186 137.366 49.0492 136.975L52.7114 134.708C53.0354 134.513 53.3974 134.403 53.7683 134.387C54.1392 134.37 54.5086 134.447 54.8466 134.612L78.0586 148.99C78.606 149.333 78.5388 149.924 77.905 150.315L74.2428 152.582C73.9185 152.776 73.5565 152.885 73.1858 152.902C72.8151 152.919 72.4459 152.842 72.1076 152.679Z" fill="#E9EAF2"/>
</g>
<g opacity="0.6">
<path opacity="0.6" d="M37.0926 140.942L33.1263 138.469C32.5789 138.125 32.6461 137.538 33.28 137.146L36.9389 134.876C37.2638 134.682 37.6265 134.573 37.9979 134.557C38.3693 134.541 38.739 134.618 39.0774 134.783L43.0437 137.239C43.5911 137.583 43.5239 138.173 42.89 138.565L39.231 140.832C38.9074 141.028 38.5454 141.141 38.174 141.16C37.8026 141.179 37.4322 141.104 37.0926 140.942Z" fill="#E9EAF2"/>
<path opacity="0.6" d="M64.0726 157.655L40.8638 143.277C40.3132 142.934 40.3836 142.347 41.0142 141.955L44.6764 139.688C45.001 139.494 45.3636 139.384 45.735 139.367C46.1064 139.35 46.4763 139.427 46.8149 139.592L70.0237 153.97C70.5711 154.313 70.5039 154.904 69.87 155.296L66.211 157.563C65.8859 157.756 65.5233 157.864 65.1521 157.881C64.7808 157.897 64.4112 157.82 64.0726 157.655Z" fill="#E9EAF2"/>
</g>
<path d="M22.9432 63.9547V80.9225C22.9428 81.0397 22.9233 81.156 22.8856 81.266C22.8649 81.3361 22.8381 81.4039 22.8055 81.4686C22.7098 81.6748 22.5638 81.8493 22.383 81.9735L1.09488 95.1631C1.03506 95.2124 0.962834 95.2414 0.887521 95.2463C0.812207 95.2512 0.737252 95.2318 0.672316 95.1906C0.635371 95.1608 0.605709 95.122 0.585883 95.0772C0.550041 94.9957 0.532499 94.9063 0.534663 94.8162V77.8483C0.535009 77.7317 0.552289 77.6158 0.585883 77.5049C0.608934 77.4319 0.636747 77.3607 0.669114 77.2919C0.767026 77.0862 0.913919 76.912 1.09488 76.787L22.3766 63.5906C22.4374 63.5416 22.5105 63.5134 22.5865 63.5097C22.6624 63.506 22.7377 63.527 22.8023 63.57C22.8376 63.6001 22.867 63.6375 22.8888 63.6799C22.9274 63.7654 22.946 63.8597 22.9432 63.9547Z" fill="#BD3737"/>
<path d="M0.713745 95.2042L1.53326 95.6885L1.58448 94.1292L0.713745 95.2042Z" fill="#DDB545"/>
<path d="M22.7446 63.5493L23.6281 64.068L22.3829 65.6686L22.7446 63.5493Z" fill="#DDB545"/>
<path d="M23.769 64.4424V81.4103C23.767 81.5273 23.7476 81.6433 23.7114 81.7537C23.6894 81.8233 23.6626 81.891 23.6313 81.9564C23.5356 82.1626 23.3896 82.3371 23.2088 82.4613L1.92068 95.644C1.8602 95.6923 1.78765 95.72 1.71234 95.7237C1.63704 95.7274 1.56243 95.7068 1.49812 95.6646C1.46198 95.6354 1.43243 95.5978 1.41169 95.5547C1.37353 95.4739 1.35482 95.3842 1.35727 95.2936V78.3258C1.35711 78.2088 1.37551 78.0927 1.41169 77.9823C1.50311 77.6922 1.68226 77.4432 1.92068 77.2748L23.2024 64.0921C23.2627 64.0437 23.335 64.0156 23.4103 64.0113C23.4855 64.007 23.5602 64.0268 23.6249 64.068C23.6619 64.0977 23.6915 64.1366 23.7114 64.1814C23.7506 64.2619 23.7704 64.3516 23.769 64.4424Z" fill="#EF5555"/>
<path opacity="0.12" d="M1.4502 95.7264L12.5616 79.7993L23.6538 81.9014V83.5844L1.35736 97.3957L1.4502 95.7264Z" fill="black"/>
<path opacity="0.05" d="M12.5616 79.7994L1.47256 77.8347L0.451372 77.4844L0 96.8359L1.49817 95.6647L12.5616 79.7994Z" fill="black"/>
<path opacity="0.05" d="M12.5616 79.7994L23.6539 64.0921L24.675 62.4812L25.1264 81.2695L23.6539 81.9015L12.5616 79.7994Z" fill="black"/>
<path d="M159.629 21.7654V41.6321C159.626 41.7679 159.603 41.9024 159.561 42.0306C159.535 42.1114 159.504 42.1905 159.469 42.2676C159.356 42.5092 159.185 42.7134 158.972 42.8584L134.044 58.3149C133.973 58.3709 133.888 58.4031 133.8 58.4074C133.711 58.4117 133.624 58.3879 133.548 58.3389C133.505 58.3044 133.47 58.2597 133.446 58.2084C133.403 58.1132 133.382 58.0084 133.385 57.9027V38.0188C133.387 37.8876 133.408 37.7577 133.449 37.6341C133.475 37.5491 133.507 37.4664 133.545 37.3868C133.658 37.1434 133.83 36.9378 134.044 36.7925L158.966 21.3429C159.037 21.2854 159.122 21.2521 159.21 21.2472C159.299 21.2423 159.386 21.2661 159.462 21.3154C159.506 21.349 159.541 21.3939 159.565 21.4459C159.61 21.5453 159.632 21.6549 159.629 21.7654Z" fill="#B02F2F"/>
<path d="M133.596 58.356L134.557 58.9228L134.618 57.0955L133.596 58.356Z" fill="#DDB545"/>
<path d="M159.395 21.2844L160.432 21.8958L158.972 23.7678L159.395 21.2844Z" fill="#DDB545"/>
<path d="M160.595 22.3354V42.2021C160.593 42.3379 160.57 42.4724 160.528 42.6006C160.501 42.6814 160.47 42.7605 160.435 42.8376C160.321 43.0778 160.15 43.2816 159.939 43.4284L135.011 58.8849C134.94 58.9414 134.855 58.9738 134.767 58.9781C134.678 58.9824 134.591 58.9583 134.515 58.9089C134.471 58.8753 134.436 58.8305 134.413 58.7784C134.37 58.6832 134.349 58.5784 134.352 58.4727V38.5888C134.354 38.4576 134.375 38.3277 134.416 38.2041C134.441 38.1185 134.473 38.0357 134.512 37.9568C134.625 37.7134 134.797 37.5078 135.011 37.3625L159.933 21.9232C160.004 21.8659 160.09 21.8327 160.179 21.8278C160.268 21.8229 160.356 21.8465 160.432 21.8957C160.475 21.9303 160.51 21.9749 160.535 22.0262C160.577 22.1228 160.598 22.2287 160.595 22.3354Z" fill="#EF5555"/>
<path opacity="0.12" d="M134.454 58.9641L147.474 40.3132L160.461 42.776V44.7475L134.352 60.9219L134.454 58.9641Z" fill="black"/>
<path opacity="0.05" d="M147.474 40.3131L134.486 38.0152L133.292 37.603L132.761 60.2657L134.515 58.8952L147.474 40.3131Z" fill="black"/>
<path opacity="0.05" d="M147.474 40.3131L160.461 21.9233L161.655 20.0342L162.183 42.0374L160.461 42.7759L147.474 40.3131Z" fill="black"/>
<path d="M105.173 15.7717C105.136 15.6738 105.074 15.5892 104.994 15.5278C104.833 15.438 104.66 15.3765 104.481 15.3457L77.4471 7.00952L50.4128 48.8417C50.2237 49.0672 50.0623 49.3176 49.9326 49.5871C49.85 49.7559 49.7804 49.9316 49.7245 50.1126C49.6414 50.3773 49.5971 50.6542 49.5933 50.9335V93.1298C49.5888 93.355 49.6326 93.5783 49.7213 93.7824C49.7734 93.8907 49.8478 93.9847 49.939 94.0572C50.0987 94.1626 50.2842 94.214 50.4714 94.2048C50.6586 94.1956 50.839 94.1262 50.989 94.0057L103.908 61.2241C104.495 60.8021 104.935 60.1838 105.16 59.4655C105.251 59.1931 105.298 58.9063 105.301 58.6171V16.4208C105.306 16.1967 105.262 15.9744 105.173 15.7717Z" fill="#BD3737"/>
<path d="M104.92 15.4797L106.581 16.5376L104.26 18.3649L104.92 15.4797Z" fill="#CEB95F"/>
<path d="M51.6389 95.1391L49.9391 94.04L52.5609 92.0134L51.6389 95.1391Z" fill="#DDB545"/>
<path d="M77.4471 7.00952L79.0702 8.05713L106.581 16.5342L105.215 15.6652C104.686 15.4183 104.14 15.2184 103.582 15.0675L77.4471 7.00952Z" fill="#C19B3D"/>
<path d="M106.921 17.4682V59.6474C106.916 59.9353 106.869 60.2206 106.78 60.4923C106.725 60.6648 106.657 60.8324 106.578 60.9938C106.341 61.5071 105.978 61.9415 105.528 62.2509L52.6153 95.0325C52.4653 95.1543 52.2845 95.2247 52.0966 95.2345C51.9087 95.2443 51.7224 95.1931 51.5621 95.0874C51.4718 95.0134 51.3985 94.9183 51.3476 94.8092C51.2575 94.6068 51.2136 94.3843 51.2196 94.16V51.9775C51.2235 51.6982 51.2677 51.4213 51.3508 51.1566C51.4073 50.9758 51.4769 50.8001 51.5589 50.6311C51.7982 50.1149 52.1647 49.679 52.6185 49.3705L105.519 16.5958L104.616 17.2622C105.038 17.0045 106.325 16.3313 106.581 16.5374C106.672 16.6114 106.745 16.7066 106.796 16.8156C106.885 17.0194 106.928 17.2431 106.921 17.4682Z" fill="#EF5555"/>
<path opacity="0.12" d="M51.5622 95.0876L79.0703 55.6392L106.646 60.8669V65.0505L51.2165 99.3845L51.5622 95.0876Z" fill="black"/>
<path opacity="0.05" d="M79.0702 55.639L51.4981 50.7582L48.9659 49.8857L47.8391 97.9933L51.5621 95.0875L79.0702 55.639Z" fill="black"/>
<path opacity="0.05" d="M80 56.3142L107.572 17.2745L110.104 13.2661L111.231 59.9757L107.572 61.542L80 56.3142Z" fill="black"/>
<path d="M51.5555 50.6312L79.07 8.05713L106.581 16.5376L79.07 55.6392L51.5555 50.6312Z" fill="#9F2323"/>
<path opacity="0.3" d="M107.026 16.3819L100.799 25.2333L79.5145 55.4834L58.2328 51.609L52 50.4755L58.2328 40.8307L73.5666 17.1032L79.5145 7.90142L85.4623 9.73559L100.799 14.4653L107.026 16.3819Z" fill="black"/>
<path d="M100.355 0.390625V25.389L79.07 55.6391L57.7883 51.7647V26.7594L100.355 0.390625Z" fill="#FAFBFF"/>
<path d="M71.9441 37.7439L61.4409 44.2494V31.2384L71.9441 24.7295V37.7439Z" fill="#E9EAF2"/>
<path d="M84.3231 30.074L73.8199 36.5829V23.5685L84.3231 17.0596V30.074Z" fill="#E9EAF2"/>
<path d="M96.7024 22.4075L86.196 28.9164V15.902L96.7024 9.39307V22.4075Z" fill="#E9EAF2"/>
<path d="M96.7023 27.8104L61.4409 49.6522V47.3887L96.7023 25.5435V27.8104Z" fill="#E9EAF2"/>
<path d="M91.4492 33.677V35.944L64.2069 52.819L61.4378 52.5168V52.2695L91.4492 33.677Z" fill="#E9EAF2"/>
<path d="M86.196 41.4639V43.7308L70.1355 53.678L66.819 53.4684L86.196 41.4639Z" fill="#E9EAF2"/>
<path d="M83.4333 48.0552V49.4394L82.3321 51.0022L75.792 55.0553L72.9461 54.5538L83.4333 48.0552Z" fill="#E9EAF2"/>
<defs>
<linearGradient id="paint0_linear_1469_4437" x1="84.2688" y1="162.636" x2="84.2688" y2="89.7808" gradientUnits="userSpaceOnUse">
<stop offset="0.21" stop-color="white" stop-opacity="0"/>
<stop offset="1" stop-color="white" stop-opacity="0.2"/>
</linearGradient>
</defs>
</svg>
