<svg width="12" height="12" viewBox="0 0 12 12" fill="none" xmlns="http://www.w3.org/2000/svg">
<path fill-rule="evenodd" clip-rule="evenodd" d="M1.00016 4H1.66683V7.33333H10.3335V4H11.0002V7.33333H11.5002C11.5922 7.33333 11.6668 7.40797 11.6668 7.5V7.83333C11.6668 7.92537 11.5922 8 11.5002 8H0.500163C0.408116 8 0.333496 7.92537 0.333496 7.83333V7.5C0.333496 7.40797 0.408116 7.33333 0.500163 7.33333H1.00016V4ZM1.3335 9V11.3333H10.6668V9H1.3335ZM1.00016 8.33333C0.816069 8.33333 0.666829 8.48257 0.666829 8.66667V11.6667C0.666829 11.8508 0.816069 12 1.00016 12H11.0002C11.1843 12 11.3335 11.8508 11.3335 11.6667V8.66667C11.3335 8.48257 11.1843 8.33333 11.0002 8.33333H1.00016Z" fill="#F6F6F6"/>
<path fill-rule="evenodd" clip-rule="evenodd" d="M1.39627 0.666667L0.68118 2.63763C0.671593 2.66407 0.666667 2.69203 0.666667 2.7203V3.517C0.666667 3.7864 0.88249 4 1.14286 4C1.40323 4 1.61903 3.7864 1.61903 3.517C1.61903 3.3329 1.7683 3.18367 1.95237 3.18367C2.13647 3.18367 2.2857 3.3329 2.2857 3.517C2.2857 3.7864 2.50153 4 2.7619 4C3.02227 4 3.2381 3.7864 3.2381 3.517C3.2381 3.3329 3.38733 3.18367 3.57143 3.18367C3.75553 3.18367 3.90477 3.3329 3.90477 3.517C3.90477 3.7864 4.1206 4 4.38097 4C4.6412 4 4.85693 3.7866 4.85713 3.5174C4.8573 3.33343 5.0065 3.18433 5.19047 3.18433C5.37447 3.18433 5.52367 3.33343 5.5238 3.5174C5.52403 3.7866 5.73977 4 6 4C6.26037 4 6.4762 3.7864 6.4762 3.517C6.4762 3.3329 6.62543 3.18367 6.80953 3.18367C6.99363 3.18367 7.14287 3.3329 7.14287 3.517C7.14287 3.7864 7.35867 4 7.61903 4C7.8793 4 8.09503 3.7866 8.09523 3.5174C8.0954 3.33343 8.24457 3.18433 8.42857 3.18433C8.61257 3.18433 8.76177 3.33343 8.7619 3.5174C8.76213 3.7866 8.97787 4 9.2381 4C9.49847 4 9.7143 3.7864 9.7143 3.517C9.7143 3.3329 9.86353 3.18367 10.0476 3.18367C10.2317 3.18367 10.381 3.3329 10.381 3.517C10.381 3.7864 10.5968 4 10.8571 4C11.1175 4 11.3333 3.7864 11.3333 3.517V2.7203C11.3333 2.69203 11.3284 2.66407 11.3188 2.63763L10.6037 0.666667H1.39627ZM10.5921 0.63465L10.5921 0.634567L10.6394 0.617417L10.5921 0.634563C10.5921 0.634593 10.5921 0.634623 10.5921 0.63465ZM10.0476 4.32853C9.8411 4.53717 9.5552 4.66667 9.2381 4.66667C8.92097 4.66667 8.6351 4.53717 8.42857 4.32853C8.22207 4.53717 7.93617 4.66667 7.61903 4.66667C7.30193 4.66667 7.01603 4.53717 6.80953 4.32853C6.603 4.53717 6.31713 4.66667 6 4.66667C5.68287 4.66667 5.397 4.53717 5.19047 4.32853C4.98397 4.53717 4.69807 4.66667 4.38097 4.66667C4.06383 4.66667 3.77793 4.53717 3.57143 4.32853C3.3649 4.53717 3.07903 4.66667 2.7619 4.66667C2.4448 4.66667 2.1589 4.53717 1.95237 4.32853C1.74587 4.53717 1.45997 4.66667 1.14286 4.66667C0.50905 4.66667 0 4.1493 0 3.517V2.7203C0 2.6146 0.0184266 2.50967 0.0544833 2.41027L0.78121 0.407197C0.86943 0.164033 1.10004 0 1.36063 0H10.6394C10.9 0 11.1306 0.164033 11.2188 0.4072L11.9455 2.41027C11.9816 2.50967 12 2.6146 12 2.7203V3.517C12 4.1493 11.4909 4.66667 10.8571 4.66667C10.54 4.66667 10.2541 4.53717 10.0476 4.32853V4.32853Z" fill="#F6F6F6"/>
<path d="M2 6.49998C2 6.40795 2.07463 6.33331 2.16667 6.33331H3.16667C3.2587 6.33331 3.33333 6.40795 3.33333 6.49998V7.16665C3.33333 7.25868 3.2587 7.33331 3.16667 7.33331H2.16667C2.07463 7.33331 2 7.25868 2 7.16665V6.49998Z" fill="#F6F6F6"/>
<path d="M2.6665 6.83335C2.6665 6.74132 2.74114 6.66669 2.83317 6.66669H3.83317C3.9252 6.66669 3.99984 6.74132 3.99984 6.83335V7.16669C3.99984 7.25872 3.9252 7.33335 3.83317 7.33335H2.83317C2.74114 7.33335 2.6665 7.25872 2.6665 7.16669V6.83335Z" fill="#F6F6F6"/>
<path d="M5.3335 6.83331C5.3335 7.10945 5.10963 7.33331 4.8335 7.33331C4.55736 7.33331 4.3335 7.10945 4.3335 6.83331C4.3335 6.55718 4.55736 6.33331 4.8335 6.33331C5.10963 6.33331 5.3335 6.55718 5.3335 6.83331Z" fill="#F6F6F6"/>
</svg>
