<svg xmlns="http://www.w3.org/2000/svg" width="283.56579" height="124.1066" viewBox="0 0 283.56579 124.1066">
  <g>
    <rect width="283.56579" height="124.1066" style="fill: none"/>
    <g>
      <path d="M520.44979,348.2908h1.3876v.3429h-.5175v1.4196h-.3525v-1.4196h-.5176Zm2.9689,0-.3863.9537c-.019.0467-.0402.1034-.0656.1709-.0233-.0621-.0445-.1187-.0656-.1709l-.3864-.9537h-.4075v1.7625h.3525v-.8546c0-.0479-.0011-.098-.0011-.148l.4107,1.0026h.1958l.4107-1.0026c0,.05-.0011.1001-.0011.148v.8546h.3525v-1.7625Zm-3.6358-79.5002c0-5.0517-2.7908-6.8439-5.1813-6.8439h-30.5774v3.3831h30.5774c1.7066,0,1.8919,2.4209,1.8919,3.4608v29.9617h3.2894Zm-82.3785,0c0-1.0399.1852-3.4608,1.8932-3.4608h30.5773v-3.3831h-30.5773c-2.3915,0-5.18259,1.7922-5.18259,6.8439v29.9617h3.28939Zm82.3785,74.418V313.2472h-3.2894v29.9614c0,1.0403-.1853,3.4611-1.8919,3.4611h-30.5774v3.3836h30.5774C516.99209,350.0533,519.78289,348.2612,519.78289,343.2086Zm-80.4867,6.8447h30.5774v-3.3836h-30.5774c-1.7066,0-1.8918-2.4208-1.8918-3.4611V313.2472H434.115v29.9614C434.115,348.2612,436.90569,350.0533,439.29619,350.0533Zm39.2976-59.6418V275.6788H475.304v28.6425H447.501v3.3831h31.09279Zm27.7003,13.9098h-22.1658v3.3831h22.1658Zm-27.7003,16.8077v-7.8729H475.304v23.0642h3.28979Zm-8.6934-45.4369h-22.4326V298.763h22.4326Zm-19.1428,3.3835H466.611v16.3039H450.75759Zm55.6725-3.3835h-22.4326V298.763h22.4326Zm-19.1428,3.3835h15.8534v16.3039h-15.8534Zm-17.3869,34.1872h-22.4326v23.0704h22.4326Zm-19.1428,3.3839H466.611v16.3035H450.75759Zm36.5297-3.3906h-3.2898v15.7448h3.2898Zm19.1428,9.8537v-9.8537h-3.2894v19.6941H484.054v3.383h22.37609Zm-9.572-6.4628v-3.3909h-3.2899v10.682h3.2899Z" transform="translate(-254.21709 -243.9467)"/>
      <path d="M409.61889,261.9467v88.1066h1.6453V261.9467Z" transform="translate(-254.21709 -243.9467)"/>
      <g>
        <rect x="60.4951" y="32.6718" width="31.5" height="56.6064" style="fill: #ff5f00"/>
        <path d="M316.71239,304.9217a35.93765,35.93765,0,0,1,13.7499-28.3032,36,36,0,1,0,0,56.6064A35.9378,35.9378,0,0,1,316.71239,304.9217Z" transform="translate(-254.21709 -243.9467)" style="fill: #eb001b"/>
        <path d="M385.27289,327.2295v-1.1589h.4673v-.2361h-1.1901v.2361h.4675v1.1589Zm2.3104,0v-1.3973h-.3648l-.4196.9611-.4197-.9611h-.365v1.3973h.2576v-1.054l.3935.9087h.2671l.3935-.911v1.0563Z" transform="translate(-254.21709 -243.9467)" style="fill: #f79e1b"/>
        <path d="M388.70749,304.9217a35.99867,35.99867,0,0,1-58.2452,28.3032,36.00518,36.00518,0,0,0,0-56.6064,35.99867,35.99867,0,0,1,58.2452,28.3032Z" transform="translate(-254.21709 -243.9467)" style="fill: #f79e1b"/>
      </g>
    </g>
  </g>
</svg>
