<svg fill="none" height="29" viewBox="0 0 29 29" width="29" xmlns="http://www.w3.org/2000/svg"><circle cx="14.5" cy="14.5" fill="#162e4d" opacity=".8" r="14.5"/><path d="m22.9816 8.13079c.081-.37756-.2886-.69592-.6491-.55814l-15.63953 5.97915c-.18823.072-.31273.2526-.31312.4544s.1234.383.31137.4556l4.39348 1.6994v5.3524c0 .2258.1548.422.3741.4742.2179.0519.4451-.0519.5472-.2549l1.8171-3.6111 4.4343 3.2958c.2698.2005.6575.0729.7556-.2492 4.1403-13.59467 3.9613-13.00346 3.9686-13.03761zm-3.8605 1.71309-7.6187 5.43382-3.27809-1.2679zm-7.063 6.23432 6.6408-4.7365c-5.7143 6.0373-5.4159 5.7196-5.4408 5.7532-.037.0499.0644-.1446-1.2 2.3683zm6.2252 4.1446-3.9033-2.901 7.0576-7.45648z" fill="#f6f6f6"/></svg>