<svg fill="none" height="20" viewBox="0 0 20 20" width="20" xmlns="http://www.w3.org/2000/svg"><path d="m17.4219 1.5625h-1.7969v-.9375c0-.345156-.2798-.625-.625-.625s-.625.279844-.625.625v.9375h-8.75v-.9375c0-.345156-.2798-.625-.625-.625s-.625.279844-.625.625v.9375h-1.79688c-1.4216 0-2.57812 1.15652-2.57812 2.57812v13.28128c0 1.4216 1.15652 2.5781 2.57812 2.5781h14.84378c1.4216 0 2.5781-1.1565 2.5781-2.5781v-13.28128c0-1.4216-1.1565-2.57812-2.5781-2.57812zm-14.84378 1.25h1.79688v.625c0 .34516.2798.625.625.625s.625-.27984.625-.625v-.625h8.75v.625c0 .34516.2798.625.625.625s.625-.27984.625-.625v-.625h1.7969c.7323 0 1.3281.59578 1.3281 1.32812v1.48438h-17.5v-1.48438c0-.73234.59578-1.32812 1.32812-1.32812zm14.84378 15.9375h-14.84378c-.73234 0-1.32812-.5958-1.32812-1.3281v-10.5469h17.5v10.5469c0 .7323-.5958 1.3281-1.3281 1.3281z" fill="#000"/></svg>