<svg fill="none" height="19" viewBox="0 0 20 19" width="20" xmlns="http://www.w3.org/2000/svg"><g fill="#000"><path d="m17.6786 18.3549h-15.35717c-.61964 0-1.2025-.2414-1.64143-.6793-.438572-.4396-.68-1.0225-.68-1.6421v-12.94645c0-.62.241429-1.20285.679643-1.64142.438927-.43858 1.021787-.680005 1.641787-.680005h15.35717c.6196 0 1.2025.241425 1.6414.679285.4386.43964.68 1.0225.68 1.64214v12.94645c0 .6193-.2414 1.2021-.6793 1.6414-.44.4386-1.0228.68-1.6421.68zm-15.35717-16.51785c-.33393 0-.64786.13-.88429.36607-.23571.23608-.36571.55001-.36571.88393v12.94645c0 .3339.13.6478.36607.8846.2325.2318.555.3654.88393.3654h15.35717c.3339 0 .6475-.13.8846-.3661.2354-.2364.3654-.55.3654-.8839v-12.94645c0-.32892-.1336-.65142-.3661-.88428-.2357-.23572-.55-.36572-.8839-.36572z"/><path d="m3.69163 15.6599h-.00107c-.39786 0-.77536-.1921-1.00965-.5135-.23464-.3207-.30178-.7397-.17964-1.1193.59536-1.7939 2.43-3.0436 4.46285-3.0436 2.04 0 3.87038 1.2529 4.45068 3.0468.1207.3775.054.7918-.1782 1.1093-.2314.3182-.6057.5082-1 .5082-1.57177.0121-4.93069.0121-6.54497.0121zm3.27249-3.6053c-1.5775 0-2.99392.9478-3.44428 2.3053-.01607.0497-.00643.1093.02679.155.03393.0465.0875.0736.14393.0736h.00107c1.61285 0 4.96892 0 6.54067-.0121.0572 0 .1075-.0254.139-.0682.0314-.0429.04-.0986.0235-.1497-.43854-1.3557-1.84961-2.3039-3.43068-2.3039z"/><path d="m6.96429 10.0961c-1.77215 0-3.21429-1.44219-3.21429-3.21433 0-1.77215 1.44214-3.21429 3.21429-3.21429 1.77214 0 3.21431 1.44214 3.21431 3.21429 0 1.77214-1.44217 3.21433-3.21431 3.21433zm0-5.35719c-1.18179 0-2.14286.96107-2.14286 2.14286 0 1.18178.96107 2.14285 2.14286 2.14285 1.18178 0 2.14285-.96107 2.14285-2.14285 0-1.18179-.96107-2.14286-2.14285-2.14286z"/><path d="m17.1422 5.09596h-5c-.2958 0-.5358-.23964-.5358-.53571s.24-.53571.5358-.53571h5c.2957 0 .5357.23964.5357.53571s-.24.53571-.5357.53571z"/><path d="m17.1422 8.13161h-5c-.2958 0-.5358-.23964-.5358-.53572 0-.29607.24-.53571.5358-.53571h5c.2957 0 .5357.23964.5357.53571 0 .29608-.24.53572-.5357.53572z"/><path d="m17.1422 11.1675h-5c-.2958 0-.5358-.24-.5358-.5357s.24-.5357.5358-.5357h5c.2957 0 .5357.24.5357.5357s-.24.5357-.5357.5357z"/></g></svg>