<svg fill="none" height="20" viewBox="0 0 20 20" width="20" xmlns="http://www.w3.org/2000/svg"><g fill="#000"><path d="m17.8125 3.125h-15.625c-1.206172 0-2.1875.98133-2.1875 2.1875v9.375c0 1.2062.981328 2.1875 2.1875 2.1875h15.625c1.2062 0 2.1875-.9813 2.1875-2.1875v-9.375c0-1.20617-.9813-2.1875-2.1875-2.1875zm-15.625 1.25h15.625c.5169 0 .9375.42059.9375.9375v1.25h-17.5v-1.25c0-.51691.42059-.9375.9375-.9375zm15.625 11.25h-15.625c-.51691 0-.9375-.4206-.9375-.9375v-6.875h17.5v6.875c0 .5169-.4206.9375-.9375.9375z"/><path d="m4.375 13.75h-.625c-.34516 0-.625-.2798-.625-.625v-.625c0-.3452.27984-.625.625-.625h.625c.34516 0 .625.2798.625.625v.625c0 .3452-.27984.625-.625.625z"/></g></svg>