<svg fill="none" height="24" viewBox="0 0 24 24" width="24" xmlns="http://www.w3.org/2000/svg"><g fill="#000"><path d="m21.051 9h-.096c-.1407-.00124-.2778-.04484-.3934-.1251-.1156-.08027-.2043-.19348-.2546-.3249-.053-.1269-.067-.26669-.0403-.40158s.093-.25879.1903-.35592l.0682-.06825c.4115-.41299.6425-.97218.6425-1.55512 0-.58295-.231-1.14214-.6425-1.55513l-1.1332-1.1325c-.4127-.41173-.9718-.64296-1.5548-.64296-.5829 0-1.142.23123-1.5547.64296l-.0683.06825c-.1005.09683-.2271.16221-.3643.1881-.1372.0259-.2789.01118-.4079-.04233-.1289-.05352-.2394-.14351-.3179-.25893-.0786-.11543-.1217-.25126-.1241-.39084v-.09675c-.0006-.58303-.2325-1.14201-.6447-1.55427-.4123-.412263-.9713-.644134-1.5543-.64473h-1.602c-.583.000596-1.142.232467-1.55427.64473-.41226.41226-.64413.97124-.64473 1.55427v.09675c-.00366.13858-.0474.27312-.12595.38735-.07854.11423-.18852.20323-.31661.25625-.12808.05301-.26879.06775-.40509.04245-.13629-.02531-.26233-.08959-.36285-.18505l-.0645-.06825c-.41267-.41173-.97181-.64296-1.55475-.64296s-1.14208.23123-1.55475.64296l-1.137 1.1325c-.41141.41299-.64241.97218-.64241 1.55513 0 .58294.231 1.14213.64241 1.55512l.06825.06825c.09829.10056.16408.22835.18882.36677.02474.13843.0073.2811-.05007.40948-.05147.12787-.1399.2375-.25399.31485-.1141.07735-.24867.11893-.38651.1194h-.096c-.58303.0006-1.14201.23247-1.55427.64473-.412263.41227-.644134.97127-.64473 1.55427v1.602c.000596.583.232467 1.142.64473 1.5543.41226.4122.97124.6441 1.55427.6447h.096c.14071.0012.27779.0448.39337.1251.11559.0803.20431.1935.25463.3249.05297.1269.067.2667.04029.4016-.02672.1349-.09295.2588-.19029.3559l-.06825.0683c-.41141.4129-.64241.9721-.64241 1.5551 0 .5829.231 1.1421.64241 1.5551l1.1325 1.1317c.4126.4122.97194.6437 1.55513.6437.58318 0 1.14252-.2315 1.55512-.6437l.06825-.0682c.10062-.0982.2284-.1639.3668-.1887.1384-.0247.28105-.0073.40945.0499.12788.0513.23753.1396.3149.2536.07737.1139.11893.2484.11935.3862v.0967c-.0002.2894.05664.5759.16727.8432.11063.2674.27288.5103.47746.7149s.44752.3668.71482.4774c.2673.1107.5539.1675.8432.1673h1.602c.583-.0006 1.142-.2325 1.5543-.6447.4122-.4123.6441-.9713.6447-1.5543v-.0967c.0037-.1386.0474-.2732.1259-.3874.0786-.1142.1886-.2032.3167-.2562.128-.0531.2688-.0678.405-.0425.1363.0253.2624.0896.3629.1851l.0682.0682c.4127.4117.9719.643 1.5548.643s1.1421-.2313 1.5548-.643l1.1332-1.1317c.4114-.413.6424-.9722.6424-1.5552 0-.5829-.231-1.1421-.6424-1.5551l-.0682-.0682c-.0983-.1006-.1641-.2284-.1889-.3668-.0247-.1384-.0073-.2811.0501-.4095.0514-.128.1397-.2378.2538-.3153s.2488-.1192.3867-.1197h.096c.583-.0006 1.142-.2325 1.5543-.6447.4122-.4123.6441-.9713.6447-1.5543v-1.602c-.0006-.583-.2325-1.142-.6447-1.55427-.4123-.41226-.9713-.64413-1.5543-.64473zm.699 3.801c-.0002.1853-.0739.363-.205.494-.131.1311-.3087.2048-.494.205h-.096c-.4352.0037-.8597.1354-1.2206.3788-.3609.2433-.6421.5875-.8087.9896s-.2112.8443-.1281 1.2716c.0831.4272.2901.8206.5951 1.131l.0676.0682c.1309.1314.2044.3092.2044.4947 0 .1854-.0735.3633-.2044.4946l-1.1333 1.1318c-.1311.131-.3089.2047-.4942.2047-.1854 0-.3632-.0737-.4943-.2047l-.0675-.0683c-.3105-.3047-.7039-.5114-1.131-.5943-.4271-.0828-.8692-.0382-1.2712.1283-.4019.1665-.746.4476-.9894.8083-.2434.3606-.3754.7849-.3794 1.22v.0967c-.0002.1853-.0739.363-.205.494-.131.1311-.3087.2048-.494.205h-1.602c-.1853-.0002-.363-.0739-.494-.205-.1311-.131-.2048-.3087-.205-.494v-.0967c-.0021-.436-.1329-.8616-.376-1.2235-.24312-.3619-.58769-.6439-.99048-.8107s-.84587-.2109-1.27365-.1268c-.42777.0841-.82118.2926-1.13087.5994l-.06825.0683c-.13128.1307-.30899.2041-.49425.2041s-.36297-.0734-.49425-.2041l-1.1325-1.1317c-.13094-.1314-.20447-.3092-.20447-.4947 0-.1854.07353-.3633.20447-.4946l.06825-.0683c.3054-.3104.51261-.7039.59579-1.1313s.03864-.8699-.12807-1.2722-.44819-.7466-.80933-.9899-.78594-.3749-1.22139-.3783h-.096c-.18533-.0002-.363-.0739-.49405-.205-.13104-.131-.20475-.3087-.20495-.494v-1.602c.0002-.1853.07391-.363.20495-.494.13105-.1311.30872-.2048.49405-.205h.096c.43523-.0037.85974-.1354 1.22061-.3788.36087-.24331.64213-.58749.80872-.98959.16658-.40211.21112-.84436.12806-1.2716-.08306-.42725-.29004-.8206-.59514-1.13101l-.0675-.06825c-.13089-.13118-.2044-.30893-.2044-.49425s.07351-.36307.2044-.49425l1.1325-1.13325c.13109-.13108.30887-.20471.49425-.20471s.36316.07363.49425.20471l.0675.06825c.31046.30496.70378.51183 1.13097.59486s.86936.03854 1.27145-.12792c.40208-.16646.74631-.44755.98983-.80823.2435-.36069.3754-.78505.3795-1.22021v-.09675c.0002-.18533.0739-.363.205-.49405.131-.13104.3087-.20475.494-.20495h1.602c.1853.0002.363.07391.494.20495.1311.13105.2048.30872.205.49405v.09675c.0038.43517.1357.85958.3791 1.22033.2434.36076.5876.64191.9896.8084.4021.16649.8443.21097 1.2715.12788.4272-.08308.8204-.29005 1.1308-.59511l.0682-.06825c.1311-.13108.3089-.20471.4943-.20471s.3632.07363.4943.20471l1.1325 1.13325c.1308.13118.2044.30893.2044.49425s-.0736.36307-.2044.49425l-.0683.06825c-.3051.31045-.5121.70387-.5952 1.13119-.083.42731-.0384.86962.1283 1.27176.1666.40213.448.7463.809.98955.361.2433.7856.3749 1.2209.3785h.096c.1853.0002.363.0739.494.205.1311.131.2048.3087.205.494z"/><path d="m12 6.75c-1.0384 0-2.05339.30791-2.91674.88478-.86336.57688-1.53627 1.39682-1.93363 2.35613-.39736.95929-.50132 2.01489-.29875 3.03329s.70259 1.9539 1.43681 2.6881 1.66968 1.2343 2.68811 1.4368c1.0184.2026 2.074.0986 3.0333-.2987.9593-.3974 1.7792-1.0703 2.3561-1.9337.5769-.8633.8848-1.8783.8848-2.9167-.0016-1.3919-.5552-2.72633-1.5395-3.71056-.9842-.98422-2.3186-1.53785-3.7105-1.53944zm0 9c-.7417 0-1.4667-.2199-2.08339-.632-.61668-.412-1.09733-.9977-1.38116-1.6829-.28383-.6853-.35809-1.4393-.2134-2.1667.1447-.7274.50185-1.3956 1.0263-1.92005.52444-.52445 1.19265-.8816 1.92005-1.0263.7274-.14469 1.4814-.07043 2.1667.2134.6852.28383 1.2708.76448 1.6829 1.38116.4121.61669.632 1.34169.632 2.08339-.0012.9942-.3967 1.9473-1.0997 2.6503s-1.6561 1.0985-2.6503 1.0997z"/></g></svg>