<svg fill="none" height="21" viewBox="0 0 21 21" width="21" xmlns="http://www.w3.org/2000/svg"><g fill="#000"><path d="m10.5 20.3438c-1.94691 0-3.85009-.5774-5.46889-1.659-1.6188-1.0817-2.88049-2.619-3.62554-4.4178-.745055-1.7987-.939994-3.7779-.560171-5.68742.379821-1.9095 1.317351-3.66348 2.694021-5.04016 1.37667-1.37667 3.13066-2.3142 5.04016-2.694021 1.90952-.379823 3.88872-.184884 5.68742.560171 1.7988.74505 3.3361 2.00674 4.4178 3.62554 1.0816 1.6188 1.659 3.52198 1.659 5.46889 0 2.6107-1.0372 5.1145-2.8832 6.9606-1.8461 1.846-4.3499 2.8832-6.9606 2.8832zm0-18.37505c-1.68732 0-3.33675.50035-4.7397 1.43778-1.40296.93743-2.49643 2.26982-3.14214 3.82871-.64571 1.55888-.81466 3.27426-.48548 4.92916s1.1417 3.175 2.33482 4.3681 2.71324 2.0056 4.36814 2.3348c1.65486.3292 3.37026.1603 4.92916-.4854 1.5589-.6458 2.8913-1.7392 3.8287-3.1422.9374-1.4029 1.4378-3.0524 1.4378-4.7397 0-2.26262-.8989-4.43258-2.4988-6.0325s-3.7699-2.49875-6.0325-2.49875z"/><path d="m6.4173 9.4828c.56541 0 1.02375-.45835 1.02375-1.02375s-.45834-1.02375-1.02375-1.02375c-.5654 0-1.02375.45835-1.02375 1.02375s.45835 1.02375 1.02375 1.02375z"/><path d="m14.5814 9.4828c.5654 0 1.0237-.45835 1.0237-1.02375s-.4583-1.02375-1.0237-1.02375-1.0238.45835-1.0238 1.02375.4584 1.02375 1.0238 1.02375z"/><path d="m14.1099 14.7264c-.0864.0005-.172-.0161-.252-.0488-.0799-.0326-.1526-.0807-.214-.1416-.8341-.8327-1.9647-1.3004-3.1434-1.3004-1.17869 0-2.30923.4677-3.14342 1.3004-.06101.0616-.13359.1104-.21356.1437s-.16574.0505-.25238.0505c-.08663 0-.1724-.0172-.25237-.0505s-.15256-.0821-.21356-.1437c-.12223-.1229-.19083-.2892-.19083-.4626s.0686-.3397.19083-.4627c1.08234-1.078 2.54771-1.6832 4.07529-1.6832 1.5276 0 2.993.6052 4.0753 1.6832.1222.123.1909.2893.1909.4627s-.0687.3397-.1909.4626c-.0613.0609-.134.109-.214.1416-.0799.0327-.1656.0493-.2519.0488z"/></g></svg>