<svg fill="none" height="21" viewBox="0 0 21 21" width="21" xmlns="http://www.w3.org/2000/svg" xmlns:xlink="http://www.w3.org/1999/xlink"><clipPath id="a"><path d="m0 0h21v21h-21z"/></clipPath><g clip-path="url(#a)" fill="#000"><path d="m18.6702 2.32742c-.3-.30426-.7886-.29997-1.0928 0l-2.7427 2.74267c-3.3983-1.54275-7.02379-1.16563-10.48212 1.09278-2.57554 1.67989-4.139717 3.7926-4.203999 3.88263-.2056996.2828-.1971288.6685.021427.9428 1.465612 1.7998 2.999792 3.2012 4.568252 4.1782l-2.41269 2.4127c-.29998.3-.29998.7885 0 1.0928.14999.15.34712.2271.54425.2271s.39426-.0771.54425-.2271l15.25613-15.25179c.2999-.29998.2999-.78852 0-1.09279zm-10.07935 8.98648c-.11142-.2528-.16713-.5271-.16713-.8142 0-.5528.21427-1.07563.60853-1.46988.6171-.6171 1.52985-.76281 2.28415-.4414zm3.86545-3.86112c-1.4013-.89993-3.2912-.73709-4.51255.48426-.68566.68566-1.05849 1.59417-1.05849 2.55836 0 .7028.20141 1.3756.57424 1.9542l-1.58989 1.5899c-1.39276-.8057-2.76409-1.997-4.09686-3.5526.56996-.66857 1.77417-1.95848 3.42405-3.03412 2.85409-1.85987 5.6953-2.2627 8.4637-1.2042z"/><path d="m20.83 10.0112c-1.0585-1.3028-2.1555-2.39987-3.2697-3.26981-.3386-.26141-.8228-.20141-1.0885.13285-.2615.33426-.2015.81852.1328 1.08421.8828.68996 1.7656 1.54704 2.6227 2.54985-.5057.5914-1.4913 1.6541-2.8284 2.6269-2.5755 1.8728-5.1768 2.5499-7.7266 2.0099-.41569-.09-.82709.18-.91279.5957-.09.4157.17998.8271.59567.9128.66424.1414 1.33276.2099 2.00562.2099 1.0113 0 2.0312-.1585 3.0469-.4756 1.3327-.4157 2.6569-1.1014 3.9383-2.0356 2.1598-1.5813 3.4497-3.3255 3.5055-3.3983.2057-.2829.1971-.6686-.0215-.9428z"/></g></svg>