<svg fill="none" height="20" viewBox="0 0 20 20" width="20" xmlns="http://www.w3.org/2000/svg" xmlns:xlink="http://www.w3.org/1999/xlink"><clipPath id="a"><path d="m0 0h20v20h-20z"/></clipPath><g clip-path="url(#a)"><path d="m18.7505 0h-17.50001c-.43152 0-.781252.349731-.781252.78125 0 8.31238 1.649322 15.55545 9.195862 19.14305.2121.1009.4587.101.6709 0 7.5467-3.5878 9.1957-10.83128 9.1957-19.14305 0-.431519-.3497-.78125-.7812-.78125zm-8.75 18.3488c-6.42381-3.2421-7.88362-9.61864-7.96449-16.7863h15.92899c-.0808 7.16568-1.5396 13.5437-7.9645 16.7863zm.8465-5.0848c0 .6239-.507 1.1957-1.19579 1.1957-.68542 0-1.21124-.5678-1.21124-1.1957 0-.6744.55649-1.1957 1.21124-1.1957.68909-.0001 1.19579.5722 1.19579 1.1957zm-4.03758-8.16833c0-.87829.98694-2.08084 3.05923-2.08084 1.68935 0 3.30765.88791 3.30765 2.56226 0 1.89163-1.8481 2.6593-2.3526 3.48633-.2576.4219-.2718.64117-.2718 1.29668 0 .4245-.3054.6366-.9161.6366-.68863 0-.85418-.2928-.85418-1.02493 0-.9584.34668-1.7334 1.04049-2.32498.25559-.25177 1.38199-.8754 1.38199-1.72821 0-.73776-.658-1.04019-1.39267-1.04019-1.21399 0-1.28921.63446-1.6095.93063-.29769.27557-.78887.1973-1.1061-.06103-.19104-.15534-.28641-.37278-.28641-.65232z" fill="#000"/></g></svg>