<svg fill="none" height="10" viewBox="0 0 24 10" width="24" xmlns="http://www.w3.org/2000/svg"><g fill="#000"><path d="m22 0h-19.99998c-1.103067 0-2.00002.897002-2.00002 2.00002v6.00001c0 1.10301.896953 1.99997 2.00002 1.99997h19.99998c1.103 0 2-.89696 2-1.99997v-6.00001c0-1.103018-.897-2.00002-2-2.00002zm1 8.00003c0 .55125-.4487.99998-1 .99998h-19.99998c-.55125 0-.99999-.44873-.99999-.99998v-6.00001c0-.55125.44874-.99999.99999-.99999h19.99998c.5513 0 1 .44874 1 .99999z"/><path d="m6.23168 4.00004c-.13865-.24024-.44578-.32082-.68311-.1831l-.54881.31688v-.6338c0-.27638-.22364-.50002-.50001-.50002-.27638 0-.50002.22364-.50002.50002v.6338l-.54881-.31688c-.23878-.13772-.54492-.05714-.68311.1831-.13819.23925-.05616.54492.18309.68311l.54877.31687-.54877.31688c-.23925.13819-.32128.44386-.18309.68311.09276.16064.26076.24999.43359.24999.08499 0 .17091-.02147.24952-.06689l.54881-.31688v.6338c0 .27637.22364.50002.50002.50002.27637 0 .50001-.22365.50001-.50002v-.6338l.54881.31688c.07861.04542.16453.06689.24952.06689.17287 0 .34083-.08935.43359-.24999.13819-.23925.05616-.54492-.18309-.68311l-.54877-.31688.54877-.31687c.23925-.13819.32128-.44386.18309-.68311z"/><path d="m11.2317 4.00004c-.1392-.24024-.4453-.32082-.6831-.1831l-.54883.31688v-.6338c0-.27638-.22364-.50002-.50002-.50002s-.50002.22364-.50002.50002v.6338l-.54881-.31688c-.23925-.13772-.54539-.05714-.68311.1831-.13819.23925-.05616.54492.18309.68311l.54877.31687-.54877.31688c-.23925.13819-.32128.44386-.18309.68311.09276.16064.26076.24999.43359.24999.08499 0 .17091-.02147.24952-.06689l.54881-.31688v.6338c0 .27637.22364.50002.50002.50002s.50002-.22365.50002-.50002v-.6338l.54883.31688c.0786.04542.1645.06689.2495.06689.1729 0 .3408-.08935.4336-.24999.1382-.23925.0561-.54492-.1831-.68311l-.5488-.31688.5487-.31687c.2393-.13819.3214-.44386.1832-.68311z"/><path d="m16.2317 4.00004c-.1387-.24024-.4458-.32082-.6831-.1831l-.5488.31688v-.6338c0-.27638-.2237-.50002-.5001-.50002-.2763 0-.5.22364-.5.50002v.6338l-.5488-.31688c-.2388-.13772-.5449-.05714-.6831.1831-.1382.23925-.0561.54492.1831.68311l.5488.31687-.5488.31688c-.2392.13819-.3213.44386-.1831.68311.0928.16064.2608.24999.4336.24999.085 0 .1709-.02147.2495-.06689l.5488-.31688v.6338c0 .27637.2237.50002.5.50002.2764 0 .5001-.22365.5001-.50002v-.6338l.5488.31688c.0786.04542.1645.06689.2495.06689.1729 0 .3408-.08935.4336-.24999.1382-.23925.0561-.54492-.1831-.68311l-.5488-.31688.5488-.31687c.2392-.13819.3213-.44386.1831-.68311z"/><path d="m21.2317 4.00004c-.1382-.24024-.4453-.32082-.6831-.1831l-.5488.31688v-.6338c0-.27638-.2237-.50002-.5001-.50002-.2763 0-.5.22364-.5.50002v.6338l-.5488-.31688c-.2397-.13772-.5444-.05714-.6831.1831-.1382.23925-.0561.54492.1831.68311l.5488.31687-.5488.31688c-.2392.13819-.3213.44386-.1831.68311.0928.16064.2608.24999.4336.24999.085 0 .1709-.02147.2495-.06689l.5488-.31688v.6338c0 .27637.2237.50002.5.50002.2764 0 .5001-.22365.5001-.50002v-.6338l.5488.31688c.0786.04542.1645.06689.2495.06689.1729 0 .3408-.08935.4336-.24999.1382-.23925.0561-.54492-.1831-.68311l-.5488-.31688.5488-.31687c.2392-.13819.3213-.44386.1831-.68311z"/></g></svg>