<svg fill="none" height="22" viewBox="0 0 22 22" width="22" xmlns="http://www.w3.org/2000/svg"><path d="m.507765 11.7637c-.178289-2.42277.490681-4.83227 1.892505-6.81639 1.40182-1.98411 3.44941-3.41959 5.7926-4.060926l.14437-.039487c1.47043-.394855 3.00956-.462588 4.50896-.198432s2.9227.853785 4.1697 1.727365 2.2873 2.00988 3.0477 3.3289 1.2225 2.7887 1.3536 4.30557c.0284.3159.0469.6305.0617.944.007.1634-.0511.323-.1618.4436-.1106.1205-.2645.1922-.428.1993-.0814.0057-.1631-.0052-.2402-.0321-.0771-.0268-.1479-.0691-.2081-.1241-.0602-.0551-.1087-.1218-.1423-.1961-.0337-.0743-.0519-.1548-.0535-.2363-.0124-.2962-.0309-.5948-.0568-.8934-.1159-1.33761-.5236-2.63351-1.1945-3.79649-.6708-1.16297-1.5885-2.16472-2.6883-2.9347-1.0999-.76998-2.3552-1.28946-3.6775-1.52186s-2.67951-.17207-3.976.17675l-.1456.03949c-2.06747.56591-3.87395 1.83284-5.11022 3.58392s-1.82545 3.87743-1.66669 6.01509c.01118.1631-.04283.324-.15019.4473-.10735.1233-.25927.199-.42237.2104h-.04442c-.153889-.0027-.301223-.0628-.41309-.1685s-.180189-.2494-.191555-.4029zm16.437535 7.5112c.0764.0279.1574.0404.2386.0369s.1608-.0231.2345-.0575c.0736-.0344.1397-.083.1944-.143.0548-.06.0972-.1302.1248-.2066 1.0543-2.7685 1.4719-5.7389 1.2216-8.6908-.1014-1.15671-.4549-2.27717-1.0358-3.28258-.5808-1.00542-1.3749-1.87137-2.3263-2.53698s-2.0371-1.1147-3.1807-1.3157-2.3174-.14903-3.43873.15227l-.14808.03949c-1.7897.49142-3.35311 1.58928-4.42291 3.10587-1.06981 1.51659-1.57956 3.35771-1.4421 5.20853.06485.852-.13051 1.7035-.56022 2.442l-.69965 1.2142c-.08182.1419-.10393.3105-.06146.4686.04246.1582.14602.293.28789.3749.14187.0818.31043.1039.4686.0614.15817-.0424.29299-.146.37481-.2879l.69472-1.213c.55256-.952.8046-2.0488.7231-3.1466-.11813-1.56512.31131-3.1227 1.21484-4.40618.90353-1.28349 2.22498-2.21311 3.73828-2.62982l.14807-.03949c.94724-.25404 1.93864-.29753 2.90444-.12739.9659.17014 1.8827.54976 2.6862 1.11219.8034.56243 1.4739 1.294 1.9643 2.14331.4904.8493.7888 1.79571.8742 2.77268.2346 2.7715-.1585 5.5603-1.15 8.159-.028.0761-.0406.157-.0373.2381.0034.081.0227.1606.0569.2342.0341.0736.0824.1397.1422.1946.0597.0549.1297.0975.2059.1253zm-3.6216 1.7633c.1416.0814.3097.1034.4674.061.1578-.0423.2923-.1455.3741-.2868 1.812-3.1454 2.6265-6.7667 2.3359-10.385-.0703-.79704-.3143-1.56897-.7147-2.26164-.4005-.69267-.9478-1.28926-1.6034-1.74789s-1.4036-.76817-2.1916-.90689c-.788-.13871-1.5968-.10323-2.36961.10394l-.14807.03825c-1.23673.34257-2.3161 1.104-3.05365 2.15418-.73756 1.05017-1.0875 2.32385-.99004 3.60345.10035 1.3429-.20716 2.6848-.88228 3.85l-1.27345 2.1977c-.04464.0702-.07461.1487-.08812.2308-.0135.0821-.01026.1661.00954.247.0198.0808.05574.1568.10566.2233.04992.0666.1128.1224.18484.164.07204.0417.15176.0683.23437.0783.0826.0101.16638.0033.2463-.0199.07991-.0232.15431-.0623.21872-.115.06441-.0526.1175-.1178.15607-.1915l1.26851-2.1965c.79937-1.3787 1.16407-2.9665 1.0464-4.5558-.07809-.9934.19146-1.9831.76252-2.79974.57106-.81663 1.40814-1.40946 2.36804-1.67705l.14807-.03948c.59858-.16051 1.22498-.18813 1.83528-.08094.6103.10718 1.1898.34659 1.6979.70142.508.35483.9323.81651 1.243 1.35264.3107.53614.5004 1.13377.5558 1.75095.2697 3.3671-.4879 6.7369-2.173 9.6644-.082.1416-.1043.3098-.0622.4679.0421.158.1452.2929.2867.3749zm-3.0528.3504c.1417.0818.3101.104.4681.0617.1581-.0424.2928-.1458.3747-.2875l.9143-1.5844c1.5609-2.7083 2.2631-5.8265 2.0138-8.9425-.0399-.4377-.1751-.86143-.396-1.24141-.221-.37999-.5224-.70705-.8831-.95828-.3606-.25123-.7719-.42055-1.2049-.49608-.433-.07554-.8773-.05547-1.3017.0588l-.1457.03825c-.68442.19308-1.28049.61807-1.68612 1.20222-.40564.58414-.59563 1.2911-.53743 1.9999.13426 1.8335-.28716 3.665-1.20928 5.2554l-1.46595 2.5432c-.04115.0702-.06801.1479-.07903.2285-.01103.0806-.00599.1626.0148.2413.0208.0786.05695.1524.10638.2171.04943.0646.11115.1188.18161.1595.07047.0407.14829.067.22897.0775.08069.0105.16266.0049.24118-.0164.07853-.0213.15206-.058.21637-.1078.0643-.0499.11812-.1119.15833-.1827l1.46718-2.5419c1.04635-1.8058 1.52451-3.8848 1.37216-5.9662-.04273-.4225.06505-.8465.30434-1.19733.23928-.35081.59469-.60588 1.00369-.72028l.1443-.03825c.2505-.06745.5127-.07935.7683-.03488.2555.04448.4983.14425.7113.29234.2129.14809.391.34093.5216.565.1307.2241.2108.474.2348.7323.2296 2.8644-.4159 5.7311-1.851 8.2207l-.9143 1.5844c-.08049.1409-.10216.3079-.06036.4648.04176.1568.14376.2908.28366.373zm1.3277-10.3529c-.0162-.1611-.0927-.3101-.2143-.417s-.2791-.1638-.4409-.1593c-.0809.0052-.1599.0263-.2327.062-.0727.0358-.1377.0855-.1912.1463-.0535.0609-.0945.1316-.1206.2083-.0262.0767-.037.1578-.0318.2387.1512 2.3103-.38688 4.6135-1.54614 6.6177l-1.35736 2.3606c-.04464.0702-.07462.1487-.08812.2308-.01351.0821-.01026.1661.00953.247.0198.0808.05574.1568.10566.2233.04993.0666.1128.1224.18484.164.07205.0417.15177.0683.23437.0784.08261.01.16638.0032.2463-.02s.15432-.0623.21873-.115c.06441-.0526.11749-.1178.15606-.1915l1.35489-2.3606c1.28084-2.2151 1.87514-4.7605 1.70784-7.3137z" fill="#000"/></svg>