<svg fill="none" height="21" viewBox="0 0 20 21" width="20" xmlns="http://www.w3.org/2000/svg"><g fill="#000"><path d="m4.17188 18.7338c0 1.1501.93586 2.0859 2.08588 2.0859s2.08588-.9358 2.08588-2.0859c0-1.15-.93586-2.0859-2.08588-2.0859s-2.08588.9359-2.08588 2.0859zm2.78117 0c0 .3831-.31218.6953-.69529.6953s-.6953-.3122-.6953-.6953.31219-.6953.6953-.6953.69529.3122.69529.6953z"/><path d="m16.6874 18.7338c0-1.15-.9359-2.0859-2.0859-2.0859s-2.0859.9359-2.0859 2.0859c0 1.1501.9359 2.0859 2.0859 2.0859s2.0859-.9358 2.0859-2.0859zm-2.7812 0c0-.3831.3122-.6953.6953-.6953s.6953.3122.6953.6953-.3122.6953-.6953.6953-.6953-.3122-.6953-.6953z"/><path d="m2.15541 2.04684c.08622.82114 1.04573 9.93506 1.19382 11.34306.11195 1.0645 1.00401 1.8675 2.07476 1.8675h10.83481c.9769 0 1.8349-.6939 2.04-1.6492l1.6701-7.79356c.0883-.413-.0133-.83783-.2789-1.16531-.2656-.32818-.6598-.51661-1.0818-.51661h-14.83484l-.30036-2.85349c-.03755-.354596-.33583-.62298-.69182-.62298h-2.085885c-.383803 0-.695295.311492-.695295.69529 0 .38381.311492.6953.695295.6953zm16.45279 3.47647-1.6694 7.79359c-.0689.3184-.3546.5499-.6807.5499h-10.83411c-.35738 0-.65427-.2676-.69182-.6222l-.81279-7.72129z"/></g></svg>