<svg fill="none" height="25" viewBox="0 0 19 25" width="19" xmlns="http://www.w3.org/2000/svg"><g fill="#1d3262"><path d="m9.52979.705933c-3.75 0-6.75 2.999997-6.75 6.749997v2.99997c-1.275 0-2.250005.975-2.250005 2.25v9.75c0 1.275.975005 2.25 2.250005 2.25h13.50001c1.275 0 2.25-.975 2.25-2.25v-9.75c0-1.275-.975-2.25-2.25-2.25v-2.99997c0-3.75-3-6.749997-6.75001-6.749997zm7.50001 11.999967v9.75c0 .45-.3.75-.75.75h-13.50001c-.45 0-.75-.3-.75-.75v-9.75c0-.45.3-.75.75-.75h.75 12.00001.75c.45 0 .75.3.75.75zm-12.75001-2.25v-2.99997c0-2.925 2.32499-5.25 5.25-5.25s5.25001 2.325 5.25001 5.25v2.99997z"/><path d="m9.52978 14.2059c-1.275 0-2.24999.975-2.24999 2.25 0 .975.6 1.8 1.49999 2.1v1.65c0 .45.3.75.75.75s.75002-.3.75002-.75v-1.65c.9-.3 1.5-1.125 1.5-2.1 0-1.275-.975-2.25-2.25002-2.25zm0 3c-.45 0-.75-.3-.75-.75s.3-.75.75-.75.75002.3.75002.75-.30002.75-.75002.75z"/></g></svg>