<svg width="15" height="15" viewBox="0 0 15 15" fill="none" xmlns="http://www.w3.org/2000/svg">
<path d="M14.1636 12.8986C13.7 12.4853 13.2941 12.0115 12.9568 11.4899C12.5887 10.77 12.368 9.9838 12.3078 9.17743V6.80241C12.3058 6.51392 12.2801 6.22609 12.2309 5.94183C11.8525 5.86618 11.4888 5.72981 11.1539 5.53798C11.2816 5.94896 11.3464 6.37687 11.3462 6.80722V9.18224C11.4052 10.1659 11.6758 11.1253 12.1395 11.9948C12.4714 12.5207 12.8653 13.005 13.3126 13.4371H1.00001C1.44732 13.005 1.84117 12.5207 2.17309 11.9948C2.63685 11.1253 2.90744 10.1659 2.96637 9.18224V6.80241C2.96384 6.24601 3.07109 5.69457 3.28197 5.17967C3.49285 4.66477 3.80323 4.19652 4.19533 3.80174C4.58743 3.40696 5.05355 3.09341 5.567 2.87902C6.08045 2.66464 6.63115 2.55364 7.18756 2.55238C8.00188 2.55303 8.79791 2.79385 9.47604 3.24469C9.40128 2.97016 9.35932 2.68774 9.35104 2.40334V2.10045C8.84904 1.85351 8.30975 1.69107 7.75487 1.61968V1.0139C7.75487 0.843678 7.68725 0.680426 7.56688 0.560059C7.44652 0.439692 7.28326 0.37207 7.11304 0.37207C6.94281 0.37207 6.77956 0.439692 6.6592 0.560059C6.53883 0.680426 6.47121 0.843678 6.47121 1.0139V1.64372C5.22875 1.81898 4.09166 2.43783 3.26984 3.386C2.44803 4.33418 1.997 5.54766 2.00002 6.80241V9.17743C1.9398 9.9838 1.71914 10.77 1.35097 11.4899C1.01966 12.0103 0.620291 12.4841 0.163463 12.8986C0.11218 12.9437 0.0710782 12.9991 0.0428933 13.0613C0.0147085 13.1235 8.64412e-05 13.1909 0 13.2592V13.913C0 14.0406 0.0506527 14.1628 0.140815 14.253C0.230978 14.3432 0.353264 14.3938 0.480773 14.3938H13.8463C13.9738 14.3938 14.0961 14.3432 14.1862 14.253C14.2764 14.1628 14.327 14.0406 14.327 13.913V13.2592C14.327 13.1909 14.3123 13.1235 14.2841 13.0613C14.256 12.9991 14.2149 12.9437 14.1636 12.8986Z" fill="#F6F6F6"/>
</svg>
