<svg width="32" height="31" viewBox="0 0 32 31" fill="none" xmlns="http://www.w3.org/2000/svg">
<path d="M31.5206 14.4463L15.0951 0.169803C14.969 0.0609548 14.8082 0 14.6386 0H10.7909C10.4692 0 10.3214 0.400562 10.5648 0.609551L25.7904 13.8455H0.347814C0.156516 13.8455 0 14.0022 0 14.1938V16.8062C0 16.9978 0.156516 17.1545 0.347814 17.1545H25.786L10.5605 30.3904C10.317 30.6038 10.4648 31 10.7866 31H14.7647C14.8473 31 14.9299 30.9695 14.9908 30.9129L31.5206 16.5537C31.6711 16.4226 31.7918 16.2607 31.8745 16.0789C31.9572 15.8972 32 15.6997 32 15.5C32 15.3003 31.9572 15.1028 31.8745 14.9211C31.7918 14.7393 31.6711 14.5774 31.5206 14.4463Z" fill="white"/>
</svg>
