<svg width="51" height="51" viewBox="0 0 51 51" fill="none" xmlns="http://www.w3.org/2000/svg">
<path d="M29.0098 2.99095C27.3626 0.130958 23.7084 -0.849 20.8475 0.802227C18.9332 1.90829 17.7863 3.97001 17.8593 6.18343C17.8593 6.18363 17.8595 6.18383 17.8595 6.18393C17.8595 6.18433 17.8593 6.18443 17.8593 6.18483L18.0177 10.8444L14.0597 8.37793C12.1832 7.20632 9.82536 7.16698 7.90797 8.27294C5.05396 9.92028 4.07051 13.5827 5.71925 16.4396C6.82532 18.3525 8.83882 19.4235 10.9079 19.4235C11.9205 19.4235 12.9448 19.1667 13.8845 18.6254L26.824 11.1546C29.6781 9.50591 30.6587 5.84496 29.0098 2.99095Z" fill="#FFEA80"/>
<path d="M20.8475 0.802178C18.9331 1.90824 17.7863 3.96996 17.8592 6.18338C17.8592 6.18358 17.8594 6.18378 17.8594 6.18388C17.8594 6.18428 17.8592 6.18438 17.8592 6.18478L18.0177 10.8443L20.359 14.8872L26.8241 11.1545C29.6781 9.50566 30.6587 5.84471 29.0098 2.9907C27.3627 0.13081 23.7085 -0.849149 20.8475 0.802178Z" fill="#FFDF40"/>
<path d="M25.4004 51.0002H10.459C9.63382 51.0002 8.96484 50.3312 8.96484 49.506V31.3771C8.96484 30.5519 9.63382 29.8829 10.459 29.8829H25.4004C27.0508 29.8829 28.3887 31.2208 28.3887 32.8712V48.0119C28.3887 49.6623 27.0508 51.0002 25.4004 51.0002Z" fill="#FF7C44"/>
<path d="M47.8125 49.5059C47.8125 50.3311 47.1436 51 46.3184 51H31.377C29.7265 51 28.3887 49.6622 28.3887 48.0117V32.8711C28.3887 31.2207 29.7265 29.8828 31.377 29.8828H46.3184C47.1436 29.8828 47.8125 30.5518 47.8125 31.377V49.5059Z" fill="#FF4A57"/>
<path d="M49.5059 14.9414H48.0117V13.4473C48.0117 12.6214 47.3434 11.9531 46.5176 11.9531C45.6917 11.9531 45.0234 12.6214 45.0234 13.4473V14.9414H43.5293C42.7034 14.9414 42.0352 15.6097 42.0352 16.4356C42.0352 17.2614 42.7034 17.9297 43.5293 17.9297H45.0234V19.4238C45.0234 20.2497 45.6917 20.918 46.5176 20.918C47.3434 20.918 48.0117 20.2497 48.0117 19.4238V17.9297H49.5059C50.3317 17.9297 51 17.2614 51 16.4356C51 15.6097 50.3317 14.9414 49.5059 14.9414Z" fill="#FFDF40"/>
<path d="M40.3418 20.918H38.8477V19.4238C38.8477 18.598 38.1794 17.9297 37.3535 17.9297C36.5277 17.9297 35.8594 18.598 35.8594 19.4238V20.918H34.3652C33.5394 20.918 32.8711 21.5863 32.8711 22.4121C32.8711 23.238 33.5394 23.9063 34.3652 23.9063H35.8594V25.4004C35.8594 26.2263 36.5277 26.8945 37.3535 26.8945C38.1794 26.8945 38.8477 26.2263 38.8477 25.4004V23.9063H40.3418C41.1677 23.9063 41.836 23.238 41.836 22.4121C41.836 21.5863 41.1677 20.918 40.3418 20.918Z" fill="#FFDF40"/>
<path d="M31.377 51.0002H25.4004V29.8829H31.377V51.0002Z" fill="#FFDF40"/>
<path d="M20.7653 21.5466L3.94122 31.2585C3.7681 30.9593 -0.0351954 24.3872 0.20586 24.8039C-0.2125 24.0867 0.0265626 23.1603 0.743751 22.7719L16.2828 13.807L20.4112 16.9401L20.7653 21.5466Z" fill="#FF7C44"/>
<path d="M42.759 8.8463L25.935 18.5582L21.4094 15.8683L21.4227 10.8187L36.9618 1.85381C37.3204 1.64463 37.7387 1.58477 38.0973 1.7044C38.4858 1.79395 38.8145 2.03311 39.0237 2.3916C39.1968 2.69093 43.0001 9.26297 42.759 8.8463Z" fill="#FF4A57"/>
<path d="M25.9349 18.5583L23.3501 20.0524L20.7653 21.5466L16.2828 13.807L21.4226 10.8187L25.9349 18.5583Z" fill="#FFDF40"/>
<path d="M21.4226 10.8187L18.8643 12.3061L23.3502 20.0524L25.9349 18.5583L21.4226 10.8187Z" fill="#FFBE40"/>
<path d="M28.3887 29.8829H31.377V51.0002H28.3887V29.8829Z" fill="#FFBE40"/>
</svg>
