<svg width="16" height="21" viewBox="0 0 16 21" fill="none" xmlns="http://www.w3.org/2000/svg">
<path d="M7.79172 0C4.54517 0 1.94793 2.625 1.94793 5.90625V8.53125C0.844103 8.53125 0 9.38437 0 10.5V19.0312C0 20.1469 0.844103 21 1.94793 21H13.6355C14.7393 21 15.5834 20.1469 15.5834 19.0312V10.5C15.5834 9.38437 14.7393 8.53125 13.6355 8.53125V5.90625C13.6355 2.625 11.0383 0 7.79172 0ZM14.2848 10.5V19.0312C14.2848 19.425 14.0251 19.6875 13.6355 19.6875H1.94793C1.55834 19.6875 1.29862 19.425 1.29862 19.0312V10.5C1.29862 10.1062 1.55834 9.84375 1.94793 9.84375H2.59724H12.9862H13.6355C14.0251 9.84375 14.2848 10.1062 14.2848 10.5ZM3.24655 8.53125V5.90625C3.24655 3.34687 5.25941 1.3125 7.79172 1.3125C10.324 1.3125 12.3369 3.34687 12.3369 5.90625V8.53125H3.24655Z" fill="black"/>
<path d="M7.79217 11.8119C6.68834 11.8119 5.84424 12.665 5.84424 13.7806C5.84424 14.6338 6.36369 15.3556 7.14286 15.6181V17.0619C7.14286 17.4556 7.40258 17.7181 7.79217 17.7181C8.18175 17.7181 8.44148 17.4556 8.44148 17.0619V15.6181C9.22065 15.3556 9.7401 14.6338 9.7401 13.7806C9.7401 12.665 8.89599 11.8119 7.79217 11.8119ZM7.79217 14.4369C7.40258 14.4369 7.14286 14.1744 7.14286 13.7806C7.14286 13.3869 7.40258 13.1244 7.79217 13.1244C8.18175 13.1244 8.44148 13.3869 8.44148 13.7806C8.44148 14.1744 8.18175 14.4369 7.79217 14.4369Z" fill="black"/>
</svg>
