<svg width="24" height="25" viewBox="0 0 24 25" fill="none" xmlns="http://www.w3.org/2000/svg">
<path d="M1.5 8.75C1.5 7.75544 1.89509 6.80161 2.59835 6.09835C3.30161 5.39509 4.25544 5 5.25 5H18.75C19.7446 5 20.6984 5.39509 21.4016 6.09835C22.1049 6.80161 22.5 7.75544 22.5 8.75V14.75C22.5 15.2425 22.403 15.7301 22.2145 16.1851C22.0261 16.64 21.7499 17.0534 21.4016 17.4017C21.0534 17.7499 20.64 18.0261 20.1851 18.2145C19.7301 18.403 19.2425 18.5 18.75 18.5H5.25C4.25544 18.5 3.30161 18.1049 2.59835 17.4017C1.89509 16.6984 1.5 15.7446 1.5 14.75V8.75ZM7.719 9.719L6.75 10.6895L5.781 9.719C5.71127 9.64927 5.62848 9.59395 5.53737 9.55621C5.44627 9.51848 5.34862 9.49905 5.25 9.49905C5.15138 9.49905 5.05373 9.51848 4.96263 9.55621C4.87152 9.59395 4.78873 9.64927 4.719 9.719C4.64927 9.78873 4.59395 9.87152 4.55622 9.96262C4.51848 10.0537 4.49905 10.1514 4.49905 10.25C4.49905 10.3486 4.51848 10.4463 4.55622 10.5374C4.59395 10.6285 4.64927 10.7113 4.719 10.781L5.6895 11.75L4.719 12.719C4.64927 12.7887 4.59395 12.8715 4.55622 12.9626C4.51848 13.0537 4.49905 13.1514 4.49905 13.25C4.49905 13.3486 4.51848 13.4463 4.55622 13.5374C4.59395 13.6285 4.64927 13.7113 4.719 13.781C4.85983 13.9218 5.05084 14.0009 5.25 14.0009C5.34862 14.0009 5.44627 13.9815 5.53737 13.9438C5.62848 13.906 5.71127 13.8507 5.781 13.781L6.75 12.8105L7.719 13.781C7.78873 13.8507 7.87152 13.906 7.96262 13.9438C8.05373 13.9815 8.15138 14.0009 8.25 14.0009C8.34862 14.0009 8.44627 13.9815 8.53738 13.9438C8.62848 13.906 8.71127 13.8507 8.781 13.781C8.85073 13.7113 8.90605 13.6285 8.94379 13.5374C8.98152 13.4463 9.00095 13.3486 9.00095 13.25C9.00095 13.1514 8.98152 13.0537 8.94379 12.9626C8.90605 12.8715 8.85073 12.7887 8.781 12.719L7.8105 11.75L8.781 10.781C8.85073 10.7113 8.90605 10.6285 8.94379 10.5374C8.98152 10.4463 9.00095 10.3486 9.00095 10.25C9.00095 10.1514 8.98152 10.0537 8.94379 9.96262C8.90605 9.87152 8.85073 9.78873 8.781 9.719C8.71127 9.64927 8.62848 9.59395 8.53738 9.55621C8.44627 9.51848 8.34862 9.49905 8.25 9.49905C8.15138 9.49905 8.05373 9.51848 7.96262 9.55621C7.87152 9.59395 7.78873 9.64927 7.719 9.719ZM13.719 9.719L12.75 10.6895L11.781 9.719C11.7113 9.64927 11.6285 9.59395 11.5374 9.55621C11.4463 9.51848 11.3486 9.49905 11.25 9.49905C11.1514 9.49905 11.0537 9.51848 10.9626 9.55621C10.8715 9.59395 10.7887 9.64927 10.719 9.719C10.6493 9.78873 10.594 9.87152 10.5562 9.96262C10.5185 10.0537 10.4991 10.1514 10.4991 10.25C10.4991 10.3486 10.5185 10.4463 10.5562 10.5374C10.594 10.6285 10.6493 10.7113 10.719 10.781L11.6895 11.75L10.719 12.719C10.6493 12.7887 10.594 12.8715 10.5562 12.9626C10.5185 13.0537 10.4991 13.1514 10.4991 13.25C10.4991 13.3486 10.5185 13.4463 10.5562 13.5374C10.594 13.6285 10.6493 13.7113 10.719 13.781C10.8598 13.9218 11.0508 14.0009 11.25 14.0009C11.3486 14.0009 11.4463 13.9815 11.5374 13.9438C11.6285 13.906 11.7113 13.8507 11.781 13.781L12.75 12.8105L13.719 13.781C13.8598 13.9218 14.0508 14.0009 14.25 14.0009C14.4492 14.0009 14.6402 13.9218 14.781 13.781C14.9218 13.6402 15.0009 13.4492 15.0009 13.25C15.0009 13.0508 14.9218 12.8598 14.781 12.719L13.8105 11.75L14.781 10.781C14.9218 10.6402 15.0009 10.4492 15.0009 10.25C15.0009 10.0508 14.9218 9.85983 14.781 9.719C14.6402 9.57817 14.4492 9.49905 14.25 9.49905C14.0508 9.49905 13.8598 9.57817 13.719 9.719ZM16.5 13.25C16.5 13.4489 16.579 13.6397 16.7197 13.7803C16.8603 13.921 17.0511 14 17.25 14H18.75C18.9489 14 19.1397 13.921 19.2803 13.7803C19.421 13.6397 19.5 13.4489 19.5 13.25C19.5 13.0511 19.421 12.8603 19.2803 12.7197C19.1397 12.579 18.9489 12.5 18.75 12.5H17.25C17.0511 12.5 16.8603 12.579 16.7197 12.7197C16.579 12.8603 16.5 13.0511 16.5 13.25Z" fill="#7D7A7A"/>
</svg>
