<svg width="24" height="12" viewBox="0 0 24 12" fill="none" xmlns="http://www.w3.org/2000/svg">
<path d="M22 0H2.00002C0.896953 0 0 0.995489 0 2.21961V8.8784C0 10.1025 0.896953 11.098 2.00002 11.098H22C23.103 11.098 24 10.1025 24 8.8784V2.21961C24 0.995489 23.103 0 22 0ZM23 8.8784C23 9.49018 22.5513 9.98818 22 9.98818H2.00002C1.44877 9.98818 1.00003 9.49018 1.00003 8.8784V2.21961C1.00003 1.60784 1.44877 1.10983 2.00002 1.10983H22C22.5513 1.10983 23 1.60784 23 2.21961V8.8784Z" fill="black"/>
<path d="M6.23217 4.43967C6.09351 4.17306 5.78639 4.08363 5.54906 4.23647L5.00025 4.58814V3.88475C5.00025 3.57803 4.77661 3.32983 4.50023 3.32983C4.22386 3.32983 4.00022 3.57803 4.00022 3.88475V4.58814L3.45141 4.23647C3.21262 4.08363 2.90648 4.17306 2.7683 4.43967C2.63011 4.70519 2.71214 5.04442 2.95139 5.19778L3.50016 5.54945L2.95139 5.90112C2.71214 6.05448 2.63011 6.39372 2.7683 6.65924C2.86106 6.83751 3.02906 6.93667 3.20189 6.93667C3.28687 6.93667 3.3728 6.91284 3.45141 6.86243L4.00022 6.51076V7.21415C4.00022 7.52087 4.22386 7.76907 4.50023 7.76907C4.77661 7.76907 5.00025 7.52087 5.00025 7.21415V6.51076L5.54906 6.86243C5.62767 6.91284 5.71359 6.93667 5.79858 6.93667C5.97145 6.93667 6.13941 6.83751 6.23217 6.65924C6.37036 6.39372 6.28833 6.05448 6.04908 5.90112L5.50031 5.54945L6.04908 5.19778C6.28833 5.04442 6.37036 4.70519 6.23217 4.43967Z" fill="black"/>
<path d="M11.2322 4.43967C11.093 4.17306 10.7869 4.08363 10.5491 4.23647L10.0003 4.58814V3.88475C10.0003 3.57803 9.77661 3.32983 9.50024 3.32983C9.22386 3.32983 9.00022 3.57803 9.00022 3.88475V4.58814L8.45141 4.23647C8.21216 4.08363 7.90602 4.17306 7.7683 4.43967C7.63011 4.70519 7.71214 5.04442 7.95139 5.19778L8.50016 5.54945L7.95139 5.90112C7.71214 6.05448 7.63011 6.39372 7.7683 6.65924C7.86106 6.83751 8.02906 6.93667 8.20189 6.93667C8.28688 6.93667 8.3728 6.91284 8.45141 6.86243L9.00022 6.51076V7.21415C9.00022 7.52087 9.22386 7.76907 9.50024 7.76907C9.77661 7.76907 10.0003 7.52087 10.0003 7.21415V6.51076L10.5491 6.86243C10.6277 6.91284 10.7136 6.93667 10.7986 6.93667C10.9715 6.93667 11.1394 6.83751 11.2322 6.65924C11.3704 6.39372 11.2883 6.05448 11.0491 5.90112L10.5003 5.54945L11.049 5.19778C11.2883 5.04442 11.3704 4.70519 11.2322 4.43967Z" fill="black"/>
<path d="M16.2317 4.43967C16.093 4.17306 15.7859 4.08363 15.5486 4.23647L14.9998 4.58814V3.88475C14.9998 3.57803 14.7761 3.32983 14.4997 3.32983C14.2234 3.32983 13.9997 3.57803 13.9997 3.88475V4.58814L13.4509 4.23647C13.2121 4.08363 12.906 4.17306 12.7678 4.43967C12.6296 4.70519 12.7117 5.04442 12.9509 5.19778L13.4997 5.54945L12.9509 5.90112C12.7117 6.05448 12.6296 6.39372 12.7678 6.65924C12.8606 6.83751 13.0286 6.93667 13.2014 6.93667C13.2864 6.93667 13.3723 6.91284 13.4509 6.86243L13.9997 6.51076V7.21415C13.9997 7.52087 14.2234 7.76907 14.4997 7.76907C14.7761 7.76907 14.9998 7.52087 14.9998 7.21415V6.51076L15.5486 6.86243C15.6272 6.91284 15.7131 6.93667 15.7981 6.93667C15.971 6.93667 16.1389 6.83751 16.2317 6.65924C16.3699 6.39372 16.2878 6.05448 16.0486 5.90112L15.4998 5.54945L16.0486 5.19778C16.2878 5.04442 16.3699 4.70519 16.2317 4.43967Z" fill="black"/>
<path d="M21.2327 4.43967C21.0945 4.17306 20.7873 4.08363 20.5495 4.23647L20.0007 4.58814V3.88475C20.0007 3.57803 19.7771 3.32983 19.5007 3.32983C19.2243 3.32983 19.0007 3.57803 19.0007 3.88475V4.58814L18.4519 4.23647C18.2121 4.08363 17.9074 4.17306 17.7688 4.43967C17.6306 4.70519 17.7126 5.04442 17.9519 5.19778L18.5006 5.54945L17.9519 5.90112C17.7126 6.05448 17.6306 6.39372 17.7688 6.65924C17.8615 6.83751 18.0295 6.93667 18.2024 6.93667C18.2874 6.93667 18.3733 6.91284 18.4519 6.86243L19.0007 6.51076V7.21415C19.0007 7.52087 19.2243 7.76907 19.5007 7.76907C19.7771 7.76907 20.0007 7.52087 20.0007 7.21415V6.51076L20.5495 6.86243C20.6282 6.91284 20.7141 6.93667 20.7991 6.93667C20.9719 6.93667 21.1399 6.83751 21.2327 6.65924C21.3708 6.39372 21.2888 6.05448 21.0496 5.90112L20.5008 5.54945L21.0496 5.19778C21.2888 5.04442 21.3708 4.70519 21.2327 4.43967Z" fill="black"/>
</svg>
