<svg width="14" height="18" viewBox="0 0 14 18" fill="none" xmlns="http://www.w3.org/2000/svg">
<path fill-rule="evenodd" clip-rule="evenodd" d="M4.60398 4.53363H8.55014C8.91318 4.53363 9.20783 4.24347 9.20783 3.88596C9.20783 3.52844 8.91318 3.23828 8.55014 3.23828H4.60398C4.24094 3.23828 3.94629 3.52844 3.94629 3.88596C3.94629 4.24347 4.24094 4.53363 4.60398 4.53363Z" fill="black"/>
<path fill-rule="evenodd" clip-rule="evenodd" d="M3.28855 7.12445H9.86548C10.2285 7.12445 10.5232 6.83429 10.5232 6.47678C10.5232 6.11926 10.2285 5.8291 9.86548 5.8291H3.28855C2.92551 5.8291 2.63086 6.11926 2.63086 6.47678C2.63086 6.83429 2.92551 7.12445 3.28855 7.12445Z" fill="black"/>
<path fill-rule="evenodd" clip-rule="evenodd" d="M3.28855 9.71527H9.86548C10.2285 9.71527 10.5232 9.42511 10.5232 9.0676C10.5232 8.71008 10.2285 8.41992 9.86548 8.41992H3.28855C2.92551 8.41992 2.63086 8.71008 2.63086 9.0676C2.63086 9.42511 2.92551 9.71527 3.28855 9.71527Z" fill="black"/>
<path fill-rule="evenodd" clip-rule="evenodd" d="M3.28855 12.3061H9.86548C10.2285 12.3061 10.5232 12.0159 10.5232 11.6584C10.5232 11.3009 10.2285 11.0107 9.86548 11.0107H3.28855C2.92551 11.0107 2.63086 11.3009 2.63086 11.6584C2.63086 12.0159 2.92551 12.3061 3.28855 12.3061Z" fill="black"/>
<path fill-rule="evenodd" clip-rule="evenodd" d="M13.1538 16.3259C13.1538 13.289 13.1538 5.12569 13.1538 1.94302C13.1538 1.42747 12.946 0.933298 12.5757 0.569306C12.2061 0.204665 11.7043 0 11.1808 0C8.90318 0 4.25067 0 1.97308 0C1.44955 0 0.947735 0.204665 0.578112 0.569306C0.207831 0.933298 0 1.42747 0 1.94302V16.3259C0 16.7825 0.279519 17.1938 0.707677 17.3687C1.13583 17.5436 1.6291 17.447 1.95664 17.1239L3.01026 16.0863C3.19638 15.903 3.493 15.8868 3.6982 16.0487C4.40062 16.6018 5.37269 17.368 5.8607 17.7528C6.27965 18.0824 6.8742 18.0824 7.29315 17.7528C7.78116 17.368 8.75323 16.6018 9.45564 16.0487C9.66084 15.8868 9.95746 15.903 10.1436 16.0863L11.1972 17.1239C11.5247 17.447 12.018 17.5436 12.4462 17.3687C12.8743 17.1938 13.1538 16.7825 13.1538 16.3259ZM11.8385 15.9237V1.94302C11.8385 1.77139 11.7694 1.60623 11.6458 1.48512C11.5228 1.36335 11.3551 1.29535 11.1808 1.29535C8.90318 1.29535 4.25067 1.29535 1.97308 1.29535C1.79879 1.29535 1.63108 1.36335 1.50809 1.48512C1.38444 1.60623 1.31538 1.77139 1.31538 1.94302V15.9237L2.08028 15.1705C2.7406 14.5202 3.79094 14.4632 4.51966 15.0371L6.57692 16.6575L8.63419 15.0371C9.36291 14.4632 10.4132 14.5202 11.0736 15.1705L11.8385 15.9237Z" fill="black"/>
</svg>
