<svg fill="none" height="29" viewBox="0 0 29 29" width="29" xmlns="http://www.w3.org/2000/svg"><circle cx="14.5" cy="14.5" fill="#69b179" opacity=".8" r="14.5"/><g clip-rule="evenodd" fill="#f6f6f6" fill-rule="evenodd"><path d="m12.7601 10.4399h3.48c.3201 0 .58-.2598.58-.57999 0-.32016-.2599-.58-.58-.58h-3.48c-.3202 0-.58.25984-.58.58 0 .32019.2598.57999.58.57999z"/><path d="m11.6 12.7599h5.8c.3201 0 .58-.2599.58-.58 0-.3202-.2599-.58-.58-.58h-5.8c-.3202 0-.58.2598-.58.58 0 .3201.2598.58.58.58z"/><path d="m11.6 15.0799h5.8c.3201 0 .58-.2598.58-.58 0-.3201-.2599-.58-.58-.58h-5.8c-.3202 0-.58.2599-.58.58 0 .3202.2598.58.58.58z"/><path d="m11.6 17.3999h5.8c.3201 0 .58-.2599.58-.58 0-.3202-.2599-.58-.58-.58h-5.8c-.3202 0-.58.2598-.58.58 0 .3201.2598.58.58.58z"/><path d="m20.3 20.9999c0-2.7196 0-10.0299 0-12.88002 0-.46168-.1833-.90422-.5098-1.23018-.326-.32654-.7685-.50982-1.2302-.50982-2.0085 0-6.1114 0-8.12 0-.46167 0-.90421.18328-1.23017.50982-.32654.32596-.50982.7685-.50982 1.23018v12.88002c0 .4089.2465.7772.62408.9338s.81261.0702 1.10141-.2192l.9292-.9292c.1641-.1641.4257-.1786.6067-.0336.6194.4953 1.4766 1.1815 1.907 1.526.3695.2952.8938.2952 1.2632 0 .4304-.3445 1.2876-1.0307 1.9071-1.526.1809-.145.4425-.1305.6067.0336l.9291.9292c.2889.2894.7239.3758 1.1014.2192.3776-.1566.6241-.5249.6241-.9338zm-1.16-.3601v-12.51992c0-.1537-.0609-.3016-.1699-.41006-.1085-.10904-.2564-.16994-.4101-.16994-2.0085 0-6.1114 0-8.12 0-.1537 0-.3016.0609-.41.16994-.10909.10846-.16999.25636-.16999.41006v12.51992l.67459-.6746c.5823-.5823 1.5085-.6333 2.1512-.1195l1.8142 1.4512 1.8143-1.4512c.6426-.5138 1.5689-.4628 2.1512.1195z"/></g></svg>