<svg width="17" height="17" viewBox="0 0 17 17" fill="none" xmlns="http://www.w3.org/2000/svg">
<g clip-path="url(#clip0_886_8582)">
<path d="M16.2914 6.15967C15.8997 6.15967 15.5831 5.84233 15.5831 5.45133V2.09383C15.5831 1.72054 15.2792 1.41667 14.9067 1.41667H11.5492C11.1574 1.41667 10.8408 1.09933 10.8408 0.708333C10.8408 0.317333 11.1574 0 11.5492 0H14.9067C16.0612 0 16.9998 0.93925 16.9998 2.09383V5.45133C16.9998 5.84233 16.6831 6.15967 16.2914 6.15967Z" fill="black"/>
<path d="M0.708333 6.15967C0.316625 6.15967 0 5.84233 0 5.45133V2.09383C0 0.93925 0.938542 0 2.09313 0H5.45063C5.84233 0 6.15896 0.317333 6.15896 0.708333C6.15896 1.09933 5.84233 1.41667 5.45063 1.41667H2.09313C1.72054 1.41667 1.41667 1.72054 1.41667 2.09383V5.45133C1.41667 5.84233 1.10004 6.15967 0.708333 6.15967Z" fill="black"/>
<path d="M14.9067 17.0005H11.5492C11.1574 17.0005 10.8408 16.6832 10.8408 16.2922C10.8408 15.9012 11.1574 15.5838 11.5492 15.5838H14.9067C15.2792 15.5838 15.5831 15.2799 15.5831 14.9067V11.5492C15.5831 11.1582 15.8997 10.8408 16.2914 10.8408C16.6831 10.8408 16.9998 11.1582 16.9998 11.5492V14.9067C16.9998 16.0612 16.0612 17.0005 14.9067 17.0005Z" fill="black"/>
<path d="M5.45063 17.0005H2.09313C0.938542 17.0005 0 16.0612 0 14.9067V11.5492C0 11.1582 0.316625 10.8408 0.708333 10.8408C1.10004 10.8408 1.41667 11.1582 1.41667 11.5492V14.9067C1.41667 15.2799 1.72054 15.5838 2.09313 15.5838H5.45063C5.84233 15.5838 6.15896 15.9012 6.15896 16.2922C6.15896 16.6832 5.84233 17.0005 5.45063 17.0005Z" fill="black"/>
<path d="M6.71391 7.90462H3.18783C2.79612 7.90462 2.47949 7.58728 2.47949 7.19628V3.18783C2.47949 2.79683 2.79612 2.47949 3.18783 2.47949H6.71391C7.10562 2.47949 7.42224 2.79683 7.42224 3.18783V7.19628C7.42224 7.58728 7.10491 7.90462 6.71391 7.90462ZM3.89616 6.48795H6.00558V3.89616H3.89616V6.48795Z" fill="black"/>
<path d="M13.8122 14.5208H10.4476C10.0559 14.5208 9.73926 14.2035 9.73926 13.8125V11.5586C9.73926 11.1676 10.0559 10.8503 10.4476 10.8503C10.8393 10.8503 11.1559 11.1676 11.1559 11.5586V13.1042H13.1038V10.9792H12.2666C11.8749 10.9792 11.5583 10.6618 11.5583 10.2708C11.5583 9.87983 11.8749 9.5625 12.2666 9.5625H13.8122C14.2039 9.5625 14.5205 9.87983 14.5205 10.2708V13.8125C14.5205 14.2035 14.2039 14.5208 13.8122 14.5208Z" fill="black"/>
<path d="M13.8122 6.79395H10.9144C10.5227 6.79395 10.2061 6.47662 10.2061 6.08562V3.18783C10.2061 2.79683 10.5227 2.47949 10.9144 2.47949H13.8122C14.2039 2.47949 14.5205 2.79683 14.5205 3.18783V6.08562C14.5205 6.47662 14.2039 6.79395 13.8122 6.79395ZM11.6227 5.37728H13.1038V3.89616H11.6227V5.37728Z" fill="black"/>
<path d="M8.8389 10.013H3.18782C2.79612 10.013 2.47949 9.69567 2.47949 9.30467C2.47949 8.91367 2.79612 8.59633 3.18782 8.59633H8.13057V3.83138C8.13057 3.44038 8.4472 3.12305 8.8389 3.12305C9.23061 3.12305 9.54724 3.44038 9.54724 3.83138V9.30467C9.54724 9.69567 9.2299 10.013 8.8389 10.013Z" fill="black"/>
<path d="M10.8021 9.83622C10.4104 9.83622 10.0938 9.51889 10.0938 9.12789V8.16243C10.0938 7.77143 10.4104 7.4541 10.8021 7.4541H13.9896C14.3813 7.4541 14.6979 7.77143 14.6979 8.16243C14.6979 8.55343 14.3813 8.87076 13.9896 8.87076H11.5104V9.12789C11.5104 9.51889 11.1938 9.83622 10.8021 9.83622Z" fill="black"/>
<path d="M8.51595 13.6012C8.12424 13.6012 7.80762 13.2839 7.80762 12.8929V11.2835C7.80762 10.8925 8.12424 10.5752 8.51595 10.5752C8.90766 10.5752 9.22429 10.8925 9.22429 11.2835V12.8929C9.22429 13.2839 8.90766 13.6012 8.51595 13.6012Z" fill="black"/>
<path d="M6.55241 14.5205H3.18783C2.79612 14.5205 2.47949 14.2032 2.47949 13.8122V11.2367C2.47949 10.8457 2.79612 10.5283 3.18783 10.5283H6.55241C6.94412 10.5283 7.26074 10.8457 7.26074 11.2367V13.8122C7.26074 14.2032 6.94412 14.5205 6.55241 14.5205ZM3.89616 13.1038H5.84408V11.945H3.89616V13.1038Z" fill="black"/>
</g>
<defs>
<clipPath id="clip0_886_8582">
<rect width="17" height="17" fill="white"/>
</clipPath>
</defs>
</svg>
