<svg width="18" height="21" viewBox="0 0 18 21" fill="none" xmlns="http://www.w3.org/2000/svg">
<path d="M5.68555 16.9844H7.24805V18.1562H5.68555V16.9844Z" fill="black"/>
<path d="M8.41992 16.9844H9.98242V18.1562H8.41992V16.9844Z" fill="black"/>
<path d="M2.95117 16.9844H4.51367V18.1562H2.95117V16.9844Z" fill="black"/>
<path d="M5.68555 14.6406H7.24805V15.8125H5.68555V14.6406Z" fill="black"/>
<path d="M8.41992 14.6406H9.98242V15.8125H8.41992V14.6406Z" fill="black"/>
<path d="M2.95117 14.6406H4.51367V15.8125H2.95117V14.6406Z" fill="black"/>
<path d="M5.68555 12.2969H7.24805V13.4688H5.68555V12.2969Z" fill="black"/>
<path d="M8.41992 12.2969H9.98242V13.4688H8.41992V12.2969Z" fill="black"/>
<path d="M2.95117 12.2969H4.51367V13.4688H2.95117V12.2969Z" fill="black"/>
<path d="M5.68555 9.95312H7.24805V11.125H5.68555V9.95312Z" fill="black"/>
<path d="M8.41992 9.95312H9.98242V11.125H8.41992V9.95312Z" fill="black"/>
<path d="M2.95117 9.95312H4.51367V11.125H2.95117V9.95312Z" fill="black"/>
<path d="M2.63867 8.78125H10.2949V5.1875H2.63867V8.78125ZM3.81055 6.35938H9.12305V7.60938H3.81055V6.35938Z" fill="black"/>
<path d="M17.9122 3.42969H12.8154L12.8441 2.7375C12.8686 2.14723 12.6568 1.58738 12.2478 1.16109C11.8389 0.734766 11.2883 0.5 10.6976 0.5H2.23616C1.64542 0.5 1.09479 0.734766 0.685845 1.16105C0.276861 1.58738 0.0650638 2.14723 0.089556 2.7375L0.741158 18.4406C0.789048 19.5954 1.73194 20.5 2.88776 20.5H10.046C11.2018 20.5 12.1447 19.5954 12.1926 18.4406L12.2287 17.5703H17.9122V3.42969ZM11.6733 2.68891L11.0217 18.392C10.9999 18.917 10.5713 19.3281 10.046 19.3281H2.88776C2.36241 19.3281 1.93377 18.917 1.91202 18.392L1.26042 2.68891C1.24928 2.42059 1.34553 2.16613 1.53143 1.97234C1.71737 1.77859 1.96764 1.67188 2.23616 1.67188H10.6976C10.9661 1.67188 11.2164 1.77859 11.4023 1.97234C11.5881 2.16613 11.6844 2.42062 11.6733 2.68891ZM16.7403 16.3984H12.2773L12.7668 4.60156H16.7403V16.3984H16.7403Z" fill="black"/>
<path d="M14.9824 15.2266C15.306 15.2266 15.5684 14.9642 15.5684 14.6406C15.5684 14.317 15.306 14.0547 14.9824 14.0547C14.6588 14.0547 14.3965 14.317 14.3965 14.6406C14.3965 14.9642 14.6588 15.2266 14.9824 15.2266Z" fill="black"/>
<path d="M14.9824 14.0547C15.306 14.0547 15.5684 13.7924 15.5684 13.4688C15.5684 13.1451 15.306 12.8828 14.9824 12.8828C14.6588 12.8828 14.3965 13.1451 14.3965 13.4688C14.3965 13.7924 14.6588 14.0547 14.9824 14.0547Z" fill="black"/>
<path d="M3.22461 2.84375H9.70899V4.01562H3.22461V2.84375Z" fill="black"/>
</svg>
