<svg width="269" height="265" viewBox="0 0 269 265" fill="none" xmlns="http://www.w3.org/2000/svg">
<path d="M258.873 258.901H263.033V259.929H261.482V264.185H260.425V259.929H258.873V258.901ZM267.775 258.901L266.617 261.76C266.559 261.9 266.496 262.07 266.42 262.272C266.35 262.086 266.287 261.917 266.223 261.76L265.065 258.901H263.843V264.185H264.9V261.623C264.9 261.479 264.897 261.329 264.897 261.179L266.128 264.185H266.715L267.947 261.179C267.947 261.329 267.943 261.479 267.943 261.623V264.185H269V258.901H267.775ZM256.873 20.5212C256.873 5.37366 248.505 0 241.337 0H149.652V10.1443H241.337C246.454 10.1443 247.01 17.4031 247.01 20.5212V110.361H256.873V20.5212ZM9.86345 20.5212C9.86345 17.4031 10.4187 10.1443 15.5401 10.1443H107.225V0H15.5401C8.36926 0 0 5.37366 0 20.5212V110.361H9.86345V20.5212ZM256.873 243.662V153.823H247.01V243.662C247.01 246.781 246.454 254.04 241.337 254.04H149.652V264.185H241.337C248.505 264.185 256.873 258.812 256.873 243.662ZM15.536 264.185H107.221V254.04H15.536C10.4187 254.04 9.86345 246.781 9.86345 243.662V153.823H0V243.662C0 258.812 8.36811 264.185 15.536 264.185ZM133.369 85.351V41.1754H123.504V127.059H40.1378V137.203H133.369V85.351ZM216.427 127.059H149.964V137.203H216.427V127.059ZM133.369 177.457V153.85H123.504V223.007H133.369V177.457ZM107.302 41.2154H40.0383V110.392H107.302V41.2154ZM49.9025 51.3607H97.4385V100.247H49.9025V51.3607ZM216.835 41.2154H149.572V110.392H216.835V41.2154ZM159.436 51.3607H206.972V100.247H159.436V51.3607ZM107.302 153.87H40.0383V223.046H107.302V153.87ZM49.9025 164.016H97.4385V212.902H49.9025V164.016ZM159.436 153.85H149.572V201.06H159.436V153.85ZM216.835 183.396V153.85H206.972V212.902H149.741V223.046H216.835V183.396ZM188.134 164.017V153.85H178.269V185.88H188.134V164.017Z" fill="black"/>
</svg>
