<svg width="14" height="14" viewBox="0 0 14 14" fill="none" xmlns="http://www.w3.org/2000/svg">
<rect width="14" height="14" fill="#EF5555"/>
<path d="M11.6418 5.13789L8.6664 4.70547L7.33632 2.00898C7.29999 1.93515 7.24023 1.87539 7.1664 1.83906C6.98124 1.74765 6.75624 1.82383 6.66366 2.00898L5.33358 4.70547L2.35819 5.13789C2.27616 5.14961 2.20116 5.18828 2.14374 5.24687C2.07432 5.31822 2.03607 5.41422 2.03739 5.51376C2.0387 5.6133 2.07949 5.70825 2.15077 5.77773L4.30351 7.87656L3.79491 10.8402C3.78299 10.9092 3.79062 10.9801 3.81694 11.0449C3.84325 11.1097 3.88721 11.1659 3.94382 11.207C4.00043 11.2481 4.06743 11.2725 4.13722 11.2775C4.20701 11.2825 4.27679 11.2678 4.33866 11.2352L6.99999 9.83594L9.66132 11.2352C9.73398 11.2738 9.81835 11.2867 9.89921 11.2727C10.1031 11.2375 10.2402 11.0441 10.2051 10.8402L9.69648 7.87656L11.8492 5.77773C11.9078 5.72031 11.9465 5.64531 11.9582 5.56328C11.9898 5.3582 11.8469 5.16836 11.6418 5.13789V5.13789Z" fill="white"/>
</svg>
