<svg width="24" height="22" viewBox="0 0 24 22" fill="none" xmlns="http://www.w3.org/2000/svg">
<path d="M0 3.5C0 2.70435 0.316071 1.94129 0.87868 1.37868C1.44129 0.816071 2.20435 0.5 3 0.5H21C21.7956 0.5 22.5587 0.816071 23.1213 1.37868C23.6839 1.94129 24 2.70435 24 3.5V18.5C24 19.2956 23.6839 20.0587 23.1213 20.6213C22.5587 21.1839 21.7956 21.5 21 21.5H3C2.20435 21.5 1.44129 21.1839 0.87868 20.6213C0.316071 20.0587 0 19.2956 0 18.5V3.5ZM14.25 11.75H9.75C9.55109 11.75 9.36032 11.829 9.21967 11.9697C9.07902 12.1103 9 12.3011 9 12.5C9 12.6989 9.07902 12.8897 9.21967 13.0303C9.36032 13.171 9.55109 13.25 9.75 13.25H14.25C14.4489 13.25 14.6397 13.171 14.7803 13.0303C14.921 12.8897 15 12.6989 15 12.5C15 12.3011 14.921 12.1103 14.7803 11.9697C14.6397 11.829 14.4489 11.75 14.25 11.75ZM4.719 11.219C4.64927 11.2887 4.59395 11.3715 4.55622 11.4626C4.51848 11.5537 4.49905 11.6514 4.49905 11.75C4.49905 11.8486 4.51848 11.9463 4.55622 12.0374C4.59395 12.1285 4.64927 12.2113 4.719 12.281C4.85983 12.4218 5.05084 12.5009 5.25 12.5009C5.34862 12.5009 5.44627 12.4815 5.53737 12.4438C5.62848 12.406 5.71127 12.3507 5.781 12.281L8.781 9.281C8.85085 9.21133 8.90626 9.12857 8.94407 9.03745C8.98188 8.94633 9.00134 8.84865 9.00134 8.75C9.00134 8.65135 8.98188 8.55367 8.94407 8.46255C8.90626 8.37143 8.85085 8.28867 8.781 8.219L5.781 5.219C5.71127 5.14927 5.62848 5.09395 5.53737 5.05621C5.44627 5.01848 5.34862 4.99905 5.25 4.99905C5.15138 4.99905 5.05373 5.01848 4.96263 5.05621C4.87152 5.09395 4.78873 5.14927 4.719 5.219C4.64927 5.28873 4.59395 5.37152 4.55622 5.46262C4.51848 5.55373 4.49905 5.65138 4.49905 5.75C4.49905 5.84862 4.51848 5.94627 4.55622 6.03738C4.59395 6.12848 4.64927 6.21127 4.719 6.281L7.1895 8.75L4.719 11.219Z" fill="#7D7A7A"/>
</svg>
