<svg width="22" height="16" viewBox="0 0 22 16" fill="none" xmlns="http://www.w3.org/2000/svg">
<path d="M8.00004 10C5.33004 10 3.8147e-05 11.33 3.8147e-05 14V16H16V14C16 11.33 10.67 10 8.00004 10ZM8.00004 8C9.06091 8 10.0783 7.57857 10.8285 6.82843C11.5786 6.07828 12 5.06087 12 4C12 2.93913 11.5786 1.92172 10.8285 1.17157C10.0783 0.421427 9.06091 0 8.00004 0C6.93917 0 5.92176 0.421427 5.17161 1.17157C4.42147 1.92172 4.00004 2.93913 4.00004 4C4.00004 5.06087 4.42147 6.07828 5.17161 6.82843C5.92176 7.57857 6.93917 8 8.00004 8ZM18 5.59L15.88 3.46L14.46 4.88L16.59 7L14.46 9.12L15.88 10.54L18 8.41L20.12 10.54L21.54 9.12L19.41 7L21.54 4.88L20.12 3.46L18 5.59Z" fill="black"/>
</svg>
