<svg fill="none" height="40" viewBox="0 0 40 40" width="40" xmlns="http://www.w3.org/2000/svg"><circle cx="20" cy="20" fill="#f1c72f" opacity=".5" r="20"/><path d="m28.3333 12.8242h-2.3016c.5385-.8018.746-1.7808.5788-2.7321-.1671-.95132-.6959-1.80102-1.4756-2.37116-.7796-.57013-1.7496-.81646-2.7068-.68739s-1.8273.62353-2.4281 1.3798c-.6008-.75627-1.4709-1.25073-2.4281-1.3798s-1.9272.11726-2.7068.68739c-.7797.57014-1.3085 1.41984-1.4756 2.37116-.1672.9513.0403 1.9303.5788 2.7321h-2.3016c-.4419.0004-.8656.1762-1.1781.4886-.3124.3125-.4882.7362-.4886 1.178v3.3334c.0004.4419.1762.8655.4886 1.178.3125.3125.7362.4882 1.1781.4886v8.3334c.0004.4419.1761.8655.4886 1.178s.7361.4882 1.178.4886h13.3334c.4419-.0004.8655-.1761 1.178-.4886s.4882-.7361.4886-1.178v-8.3334c.4419-.0004.8656-.1761 1.1781-.4886.3124-.3125.4882-.7361.4886-1.178v-3.3334c-.0004-.4418-.1762-.8655-.4886-1.178-.3125-.3124-.7362-.4882-1.1781-.4886zm-7.5-2.0834c0-.412.1222-.81479.3511-1.15739.229-.3426.5543-.60963.935-.76731s.7996-.19894 1.2037-.11856c.4041.08039.7753.27881 1.0667.57017s.4898.66257.5702 1.06669c.0804.4041.0391.823-.1186 1.2037s-.4247.7061-.7673.935-.7454.3511-1.1574.3511h-2.0834zm-3.75-2.08329c.5524.00067 1.0819.22037 1.4724.61093.3906.39056.6103.92006.611 1.47236v2.0834h-2.0834c-.5525 0-1.0824-.2195-1.4731-.6102s-.6102-.9206-.6102-1.4732c0-.5525.2195-1.08239.6102-1.47309s.9206-.6102 1.4731-.6102zm-5.4166 5.83329h7.5v3.3334h-7.5zm1.6666 5h5.8334v8.3334h-5.8334zm13.3342 8.3334h-5.8342v-8.3334h5.8334zm-5.8342-10v-3.3334h7.5l.0009 3.3334z" fill="#25314d"/></svg>