<svg width="51" height="51" viewBox="0 0 51 51" fill="none" xmlns="http://www.w3.org/2000/svg">
<path d="M29.0098 2.99092C27.3625 0.130935 23.7084 -0.849023 20.8475 0.802204C18.9331 1.90827 17.7863 3.96999 17.8592 6.18341C17.8592 6.18361 17.8594 6.18381 17.8594 6.18391C17.8594 6.18431 17.8592 6.18441 17.8592 6.1848L18.0177 10.8443L14.0596 8.37791C12.1832 7.2063 9.82529 7.16695 7.90791 8.27292C5.0539 9.92026 4.07045 13.5827 5.71919 16.4396C6.82525 18.3525 8.83876 19.4235 10.9079 19.4235C11.9205 19.4235 12.9448 19.1667 13.8845 18.6253L26.824 11.1546C29.6781 9.50588 30.6586 5.84494 29.0098 2.99092V2.99092Z" fill="#FFECA9"/>
<path d="M20.8475 0.802178C18.9331 1.90824 17.7863 3.96996 17.8593 6.18338C17.8593 6.18358 17.8595 6.18378 17.8595 6.18388C17.8595 6.18428 17.8593 6.18438 17.8593 6.18478L18.0177 10.8443L20.3591 14.8872L26.8241 11.1545C29.6781 9.50566 30.6587 5.84471 29.0098 2.9907C27.3627 0.13081 23.7085 -0.849149 20.8475 0.802178V0.802178Z" fill="#FFECA9"/>
<path d="M25.4004 51.0001H10.459C9.63382 51.0001 8.96484 50.3312 8.96484 49.506V31.3771C8.96484 30.5519 9.63382 29.8829 10.459 29.8829H25.4004C27.0508 29.8829 28.3887 31.2208 28.3887 32.8712V48.0119C28.3887 49.6623 27.0508 51.0001 25.4004 51.0001Z" fill="#273862"/>
<path d="M47.8126 49.5059C47.8126 50.3311 47.1436 51 46.3184 51H31.377C29.7266 51 28.3887 49.6622 28.3887 48.0118V32.8711C28.3887 31.2207 29.7266 29.8828 31.377 29.8828H46.3184C47.1436 29.8828 47.8126 30.5518 47.8126 31.377V49.5059Z" fill="#273862"/>
<path d="M49.5059 14.9414H48.0118V13.4473C48.0118 12.6214 47.3435 11.9531 46.5176 11.9531C45.6918 11.9531 45.0235 12.6214 45.0235 13.4473V14.9414H43.5293C42.7035 14.9414 42.0352 15.6097 42.0352 16.4356C42.0352 17.2614 42.7035 17.9297 43.5293 17.9297H45.0235V19.4239C45.0235 20.2497 45.6918 20.918 46.5176 20.918C47.3435 20.918 48.0118 20.2497 48.0118 19.4239V17.9297H49.5059C50.3318 17.9297 51.0001 17.2614 51.0001 16.4356C51.0001 15.6097 50.3318 14.9414 49.5059 14.9414Z" fill="#FFECA9"/>
<path d="M40.3419 20.918H38.8477V19.4239C38.8477 18.598 38.1794 17.9297 37.3536 17.9297C36.5277 17.9297 35.8594 18.598 35.8594 19.4239V20.918H34.3653C33.5394 20.918 32.8711 21.5863 32.8711 22.4121C32.8711 23.238 33.5394 23.9063 34.3653 23.9063H35.8594V25.4004C35.8594 26.2263 36.5277 26.8946 37.3536 26.8946C38.1794 26.8946 38.8477 26.2263 38.8477 25.4004V23.9063H40.3419C41.1677 23.9063 41.836 23.238 41.836 22.4121C41.836 21.5863 41.1677 20.918 40.3419 20.918Z" fill="#FFECA9"/>
<path d="M31.377 51.0001H25.4004V29.8829H31.377V51.0001Z" fill="#FFECA9"/>
<path d="M20.7653 21.5466L3.94122 31.2585C3.7681 30.9593 -0.0351954 24.3872 0.20586 24.8039C-0.2125 24.0867 0.0265626 23.1603 0.743751 22.7718L16.2828 13.807L20.4112 16.9401L20.7653 21.5466Z" fill="#273862"/>
<path d="M42.759 8.84635L25.935 18.5583L21.4094 15.8683L21.4227 10.8187L36.9617 1.85386C37.3203 1.64468 37.7387 1.58481 38.0973 1.70444C38.4858 1.79399 38.8145 2.03316 39.0237 2.39165C39.1968 2.69098 43.0001 9.26301 42.759 8.84635Z" fill="#273862"/>
<path d="M25.9349 18.5582L23.3502 20.0524L20.7653 21.5465L16.2829 13.807L21.4226 10.8187L25.9349 18.5582Z" fill="#FFECA9"/>
<path d="M21.4226 10.8187L18.8642 12.3061L23.3501 20.0524L25.9349 18.5582L21.4226 10.8187Z" fill="#FFECA9"/>
<path d="M28.3887 29.8829H31.3769V51.0001H28.3887V29.8829Z" fill="#FFECA9"/>
</svg>
