<svg width="20" height="16" viewBox="0 0 20 16" fill="none" xmlns="http://www.w3.org/2000/svg">
<rect width="20" height="16" rx="3" fill="black"/>
<path fill-rule="evenodd" clip-rule="evenodd" d="M6 3C5.44772 3 5 3.44772 5 4C5 4.55228 5.44772 5 6 5H10C10.5523 5 11 4.55228 11 4C11 3.44772 10.5523 3 10 3H6ZM7 8C7 7.4477 7.44772 7 8 7H12C12.5523 7 13 7.4477 13 8C13 8.5523 12.5523 9 12 9H8C7.44772 9 7 8.5523 7 8ZM9 12C9 11.4477 9.4477 11 10 11H14C14.5523 11 15 11.4477 15 12C15 12.5523 14.5523 13 14 13H10C9.4477 13 9 12.5523 9 12Z" fill="white"/>
</svg>
