<svg width="19" height="20" viewBox="0 0 19 20" fill="none" xmlns="http://www.w3.org/2000/svg">
<path d="M17.8125 0H1.1875C0.777557 0 0.445312 0.334884 0.445312 0.748084C0.445312 8.70758 2.01217 15.6431 9.18138 19.0785C9.38288 19.1751 9.61713 19.1752 9.81877 19.0785C16.9881 15.643 18.5547 8.707 18.5547 0.748084C18.5547 0.334884 18.2224 0 17.8125 0ZM9.5 17.5699C3.39739 14.4653 2.01057 8.35955 1.93375 1.49617H17.0663C16.9896 8.35765 15.6036 14.4649 9.5 17.5699ZM10.3042 12.7009C10.3042 13.2984 9.82253 13.8458 9.16819 13.8458C8.51704 13.8458 8.01751 13.3022 8.01751 12.7009C8.01751 12.0551 8.54618 11.556 9.16819 11.556C9.82282 11.5559 10.3042 12.1039 10.3042 12.7009ZM6.46848 4.87935C6.46848 4.03834 7.40608 2.88684 9.37476 2.88684C10.9796 2.88684 12.517 3.73706 12.517 5.34033C12.517 7.15165 10.7613 7.88673 10.2821 8.67865C10.0374 9.08264 10.0239 9.29261 10.0239 9.92029C10.0239 10.3268 9.73368 10.5299 9.15355 10.5299C8.49935 10.5299 8.34207 10.2495 8.34207 9.54844C8.34207 8.63073 8.67142 7.88863 9.33055 7.32216C9.57335 7.08108 10.6434 6.48393 10.6434 5.66732C10.6434 4.96088 10.0184 4.67129 9.3204 4.67129C8.16711 4.67129 8.09564 5.27881 7.79138 5.56241C7.50856 5.82629 7.04194 5.75133 6.74057 5.50397C6.55908 5.35523 6.46848 5.14702 6.46848 4.87935Z" fill="black"/>
</svg>
