<svg width="43" height="43" viewBox="0 0 43 43" fill="none" xmlns="http://www.w3.org/2000/svg">
<path d="M39.4163 39.4167H3.58301V35.8334H39.4163V39.4167ZM11.108 30.9959L9.85384 32.2501L7.34551 29.7417L4.83717 32.2501L3.58301 30.9959L6.09134 28.4876L3.58301 25.9792L4.83717 24.7251L7.34551 27.2334L9.85384 24.7251L11.108 25.9792L8.59967 28.4876L11.108 30.9959ZM29.0605 25.8538C29.0605 24.8147 27.7705 23.6501 25.1905 22.3242C21.9118 20.6759 19.708 19.3322 18.5613 18.3467C17.3968 17.3434 16.8234 16.2326 16.8234 14.9963C16.8234 11.8072 18.4538 9.17341 21.7147 7.07716C24.9755 4.98091 27.6451 3.92383 29.6876 3.92383C31.0134 3.92383 31.9809 4.15674 32.5722 4.62258C33.1455 5.07049 33.468 5.85883 33.468 6.98758C33.468 7.48924 33.253 7.91924 32.8051 8.29549C32.3751 8.65383 32.0168 8.83299 31.7838 8.83299C31.5868 8.83299 31.2284 8.65383 30.6909 8.31341L29.6518 7.84758C28.8097 7.84758 27.1255 8.43883 24.5634 9.63924C22.0193 10.8217 20.7472 12.1655 20.7472 13.6705C20.7472 14.5842 21.1772 15.4084 22.073 16.1251C22.9688 16.8776 24.5634 17.7913 26.8747 18.8663C28.7201 19.7084 30.2072 20.6042 31.3538 21.6255C32.4288 22.593 32.9843 23.7397 32.9843 25.0834C32.9843 27.4842 31.3001 29.4013 27.9138 30.763C24.5455 32.1426 21.3205 32.8234 18.2568 32.8234C15.6768 32.8234 14.333 31.9455 14.333 30.2076C14.333 29.5626 14.6734 29.1505 15.2288 28.8638C15.8201 28.5772 16.4113 28.4338 17.0205 28.4338L18.3643 28.6667L19.6543 28.8997C21.4101 28.8997 23.2913 28.613 25.3159 28.0217C27.3405 27.4484 28.5947 26.7138 29.0605 25.8538Z" fill="black"/>
</svg>
