<svg width="72" height="72" viewBox="0 0 72 72" fill="none" xmlns="http://www.w3.org/2000/svg">
<path d="M35.7479 0.09375C28.6961 0.09375 21.8026 2.18487 15.9391 6.10269C10.0757 10.0205 5.50574 15.589 2.8071 22.1041C0.108466 28.6192 -0.59762 35.7882 0.778133 42.7046C2.15389 49.621 5.54969 55.9741 10.5361 60.9605C15.5225 65.9469 21.8756 69.3427 28.792 70.7185C35.7084 72.0942 42.8774 71.3881 49.3925 68.6895C55.9076 65.9909 61.4761 61.4209 65.3939 55.5575C69.3117 49.694 71.4028 42.8005 71.4028 35.7487C71.3921 26.2957 67.6321 17.233 60.9479 10.5487C54.2636 3.86449 45.2009 0.104535 35.7479 0.09375ZM56.1018 58.4812C56.051 55.1407 54.69 51.9538 52.312 49.6072C49.9339 47.2606 46.7292 45.9421 43.3883 45.9358H28.1076C24.7667 45.9421 21.562 47.2606 19.1839 49.6072C16.8059 51.9538 15.4448 55.1407 15.3941 58.4812C10.7757 54.3573 7.51875 48.9279 6.05462 42.9119C4.59049 36.8959 4.9882 30.577 7.19508 24.7921C9.40196 19.0071 13.3139 14.0289 18.413 10.5166C23.512 7.00435 29.5576 5.1237 35.7492 5.1237C41.9408 5.1237 47.9864 7.00435 53.0855 10.5166C58.1845 14.0289 62.0965 19.0071 64.3034 24.7921C66.5102 30.577 66.9079 36.8959 65.4438 42.9119C63.9797 48.9279 60.7228 54.3573 56.1043 58.4812H56.1018Z" fill="white"/>
</svg>
