<svg width="106" height="106" viewBox="0 0 106 106" fill="none" xmlns="http://www.w3.org/2000/svg">
<g clip-path="url(#clip0_347_307)">
<path d="M53 5.88892C43.6824 5.88892 34.5739 8.65193 26.8265 13.8286C19.0791 19.0052 13.0408 26.363 9.47506 34.9714C5.90933 43.5798 4.97637 53.0523 6.79416 62.1909C8.61196 71.3296 13.0989 79.724 19.6875 86.3126C26.2761 92.9012 34.6705 97.3881 43.8091 99.2059C52.9478 101.024 62.4203 100.091 71.0287 96.525C79.6371 92.9593 86.9949 86.9209 92.1715 79.1736C97.3481 71.4262 100.111 62.3177 100.111 53C100.111 40.5054 95.1477 28.5225 86.3126 19.6874C77.4776 10.8524 65.4947 5.88892 53 5.88892ZM53 94.2223C44.8471 94.2223 36.8772 91.8046 30.0982 87.2751C23.3193 82.7455 18.0357 76.3075 14.9157 68.7751C11.7957 61.2427 10.9793 52.9543 12.5699 44.958C14.1605 36.9616 18.0865 29.6165 23.8515 23.8515C29.6166 18.0865 36.9617 14.1604 44.958 12.5699C52.9543 10.9793 61.2427 11.7956 68.7751 14.9157C76.3075 18.0357 82.7455 23.3192 87.2751 30.0982C91.8046 36.8771 94.2223 44.847 94.2223 53C94.2223 63.9328 89.8792 74.4179 82.1486 82.1485C74.4179 89.8792 63.9329 94.2223 53 94.2223Z" fill="#219653"/>
<path d="M82.4445 35.6278C81.8928 35.0794 81.1465 34.7716 80.3686 34.7716C79.5908 34.7716 78.8445 35.0794 78.2928 35.6278L45.6095 68.1639L27.9428 50.4973C27.404 49.9155 26.6561 49.5716 25.8637 49.5412C25.0713 49.5108 24.2993 49.7965 23.7175 50.3353C23.1357 50.8742 22.7918 51.622 22.7615 52.4144C22.7311 53.2068 23.0168 53.9788 23.5556 54.5606L45.6095 76.5556L82.4445 39.8089C82.7205 39.5352 82.9395 39.2096 83.089 38.8507C83.2385 38.4919 83.3154 38.1071 83.3154 37.7184C83.3154 37.3297 83.2385 36.9448 83.089 36.586C82.9395 36.2272 82.7205 35.9016 82.4445 35.6278Z" fill="#219653"/>
</g>
<defs>
<clipPath id="clip0_347_307">
<rect width="106" height="106" fill="white"/>
</clipPath>
</defs>
</svg>
