<svg width="17" height="15" viewBox="0 0 17 15" fill="none" xmlns="http://www.w3.org/2000/svg">
<path fill-rule="evenodd" clip-rule="evenodd" d="M16.0003 7.27344H5.81836H16.0003Z" fill="black"/>
<path d="M16.0003 7.27344H5.81836" stroke="#2A2E3B" stroke-linecap="round" stroke-linejoin="round"/>
<path fill-rule="evenodd" clip-rule="evenodd" d="M16.0003 13.0918H5.81836H16.0003Z" fill="black"/>
<path d="M16.0003 13.0918H5.81836" stroke="#2A2E3B" stroke-linecap="round" stroke-linejoin="round"/>
<path fill-rule="evenodd" clip-rule="evenodd" d="M16.0003 1.45508H5.81836H16.0003Z" fill="black"/>
<path d="M16.0003 1.45508H5.81836" stroke="#2A2E3B" stroke-linecap="round" stroke-linejoin="round"/>
<path fill-rule="evenodd" clip-rule="evenodd" d="M1.45288 2.90913C2.18016 2.90913 2.90744 2.18185 2.90744 1.45457C2.90744 0.727283 2.18016 0 1.45288 0C0.725596 0 0 0.727283 0 1.45457C0 2.18185 0.725596 2.90913 1.45288 2.90913ZM1.45288 8.72739C2.18016 8.72739 2.90744 8.00011 2.90744 7.27283C2.90744 6.54554 2.18016 5.81826 1.45288 5.81826C0.725596 5.81826 0 6.54554 0 7.27283C0 8.00011 0.725596 8.72739 1.45288 8.72739ZM1.45288 14.5457C2.18016 14.5457 2.90744 13.8184 2.90744 13.0911C2.90744 12.3638 2.18016 11.6365 1.45288 11.6365C0.725596 11.6365 0 12.3638 0 13.0911C0 13.8184 0.725596 14.5457 1.45288 14.5457Z" fill="black"/>
</svg>
