<svg width="15" height="12" viewBox="0 0 15 12" fill="none" xmlns="http://www.w3.org/2000/svg">
<path d="M11.2504 6.75C11.6645 6.75 12.0003 7.08579 12.0003 7.5C12.0003 7.88463 11.7108 8.20163 11.3378 8.24495L11.2504 8.25H2.5625L5.03133 10.7197C5.30166 10.99 5.32246 11.4155 5.09371 11.7097L5.03133 11.7803C4.76099 12.0507 4.33561 12.0715 4.04142 11.8427L3.97078 11.7803L0.221151 8.03033C-0.230735 7.5784 0.0557472 6.81961 0.666214 6.75449L0.751428 6.75H11.2504ZM10.9586 0.157278L11.0292 0.21967L14.7788 3.96967C15.2307 4.4216 14.9443 5.18039 14.3338 5.24551L14.2486 5.25H3.74962C3.33545 5.25 2.9997 4.91421 2.9997 4.5C2.9997 4.11537 3.2892 3.79837 3.66217 3.75505L3.74962 3.75H12.4375L9.96867 1.28033C9.69833 1.00997 9.67754 0.584544 9.90629 0.290326L9.96867 0.21967C10.239 -0.0506929 10.6644 -0.0714903 10.9586 0.157278Z" fill="white"/>
</svg>
