<svg width="27" height="18" viewBox="0 0 27 18" fill="none" xmlns="http://www.w3.org/2000/svg">
<path d="M25.745 10.9962V10.218H11.6766V10.9962H25.745ZM25.745 11.7744H11.6766V16.0545C11.6766 16.6992 12.2015 17.2218 12.849 17.2218H24.5726C25.2201 17.2218 25.745 16.6992 25.745 16.0545V11.7744ZM25.745 9.43984V9.05074C25.745 8.40607 25.2201 7.88345 24.5726 7.88345H12.849C12.2015 7.88345 11.6766 8.40607 11.6766 9.05074V9.43984H25.745ZM22.6188 16.2354C22.0166 16.5824 21.2393 16.493 20.7318 15.9877C20.1214 15.3799 20.1214 14.3945 20.7318 13.7867C21.2385 13.2822 22.0155 13.1915 22.6188 13.539C22.8487 13.4066 23.1156 13.3308 23.4003 13.3308C24.2636 13.3308 24.9634 14.0276 24.9634 14.8872C24.9634 15.7468 24.2636 16.4436 23.4003 16.4436C23.1156 16.4436 22.8487 16.3678 22.6188 16.2354ZM22.0324 15.641C21.908 15.4177 21.8371 15.1607 21.8371 14.8872C21.8371 14.6137 21.908 14.3567 22.0324 14.1334C21.7721 14.0669 21.4856 14.1367 21.2845 14.3369C20.9792 14.6408 20.9792 15.1336 21.2845 15.4375C21.4858 15.638 21.7724 15.7075 22.0324 15.641ZM10.895 9.05074C10.895 7.97628 11.7698 7.10526 12.849 7.10526H24.5726C25.6518 7.10526 26.5266 7.97628 26.5266 9.05074V16.0545C26.5266 17.129 25.6518 18 24.5726 18H12.849C11.7698 18 10.895 17.129 10.895 16.0545V9.05074ZM23.4003 15.6654C23.8319 15.6654 24.1819 15.317 24.1819 14.8872C24.1819 14.4574 23.8319 14.109 23.4003 14.109C22.9686 14.109 22.6187 14.4574 22.6187 14.8872C22.6187 15.317 22.9686 15.6654 23.4003 15.6654Z" fill="black"/>
<path d="M9.47368 0C10.7223 0 11.7452 0.917862 11.8356 2.08208L11.8421 2.25V15.75C11.8421 16.9362 10.876 17.9079 9.65045 17.9938L9.47368 18H2.36842C1.11983 18 0.0969094 17.0822 0.00649603 15.9179L0 15.75V2.25C0 1.06384 0.96617 0.0920642 2.19166 0.00617149L2.36842 0H9.47368ZM9.47368 1.125H2.36842C1.76112 1.125 1.26058 1.5593 1.19218 2.1188L1.18421 2.25V15.75C1.18421 16.327 1.64137 16.8024 2.23032 16.8674L2.36842 16.875H9.47368C10.081 16.875 10.5815 16.4407 10.6499 15.8812L10.6579 15.75V2.25C10.6579 1.67306 10.2008 1.19756 9.61179 1.13257L9.47368 1.125ZM7.10526 13.5C7.43222 13.5 7.69737 13.7519 7.69737 14.0625C7.69737 14.3386 7.48787 14.5683 7.21168 14.6159L7.10526 14.625H4.73684C4.40983 14.625 4.14474 14.3731 4.14474 14.0625C4.14474 13.7864 4.3542 13.5567 4.63041 13.5091L4.73684 13.5H7.10526Z" fill="#212121"/>
</svg>
