<svg fill="none" height="29" viewBox="0 0 29 29" width="29" xmlns="http://www.w3.org/2000/svg"><circle cx="14.5" cy="14.5" fill="#ff5f5f" opacity=".8" r="14.5"/><g fill="#fff"><path d="m20.6517 8h-13.30343c-.35746.00042-.70015.14261-.9529.39537-.25276.25275-.39495.59544-.39537.9529v9.03683c.00042.3574.14261.7001.39537.9529.25275.2527.59544.3949.9529.3953h13.30343c.3575-.0004.7002-.1426.9529-.3953.2528-.2528.395-.5955.3954-.9529v-9.03683c-.0004-.35746-.1426-.70015-.3954-.9529-.2527-.25276-.5954-.39495-.9529-.39537zm-13.30343 1.06667h13.30343c.0747.00014.1462.02985.199.08263s.0825.12433.0826.19897v1.31843h-13.86663v-1.31843c.00014-.07464.02985-.14619.08263-.19897s.12433-.08249.19897-.08263zm13.30343 9.60003h-13.30343c-.07464-.0002-.14619-.0299-.19897-.0827-.05278-.0527-.08249-.1243-.08263-.1989v-6.6518h13.86663v6.6518c-.0001.0746-.0298.1462-.0826.1989-.0528.0528-.1243.0825-.199.0827z"/><path d="m14.0001 16.5332h-5.33331c-.14145 0-.27711.0562-.37713.1562s-.15621.2357-.15621.3771c0 .1415.05619.2771.15621.3772.10002.1.23568.1562.37713.1562h5.33331c.1415 0 .2771-.0562.3771-.1562.1001-.1001.1563-.2357.1563-.3772 0-.1414-.0562-.2771-.1563-.3771-.1-.1-.2356-.1562-.3771-.1562z"/></g></svg>