<svg width="336" height="311" viewBox="0 0 336 311" fill="none" xmlns="http://www.w3.org/2000/svg">
<defs>
<linearGradient id="paint0_linear_512_24625" x1="178.213" y1="77.9764" x2="148.51" y2="68.5175" gradientUnits="userSpaceOnUse">
<stop offset="0.01"/>
<stop offset="0.13" stop-opacity="0.69"/>
<stop offset="1" stop-opacity="0"/>
</linearGradient>
<linearGradient id="paint1_linear_512_24625" x1="146.179" y1="87.1512" x2="158.68" y2="92.1973" gradientUnits="userSpaceOnUse">
<stop stop-color="#E5C5D5"/>
<stop offset="0.42" stop-color="#EAD4D1"/>
<stop offset="1" stop-color="#F0E9CB"/>
</linearGradient>
<linearGradient id="paint2_linear_512_24625" x1="154.385" y1="194.292" x2="260.942" y2="194.292" gradientUnits="userSpaceOnUse">
<stop offset="0.02" stop-color="white" stop-opacity="0"/>
<stop offset="0.32" stop-color="white" stop-opacity="0.39"/>
<stop offset="0.68" stop-color="white" stop-opacity="0.68"/>
<stop offset="1" stop-color="white"/>
</linearGradient>
<linearGradient id="paint3_linear_512_24625" x1="27936.8" y1="1254" x2="27937.4" y2="1091.02" gradientUnits="userSpaceOnUse">
<stop offset="0.01"/>
<stop offset="0.13" stop-opacity="0.69"/>
<stop offset="1" stop-opacity="0"/>
</linearGradient>
<linearGradient id="paint4_linear_512_24625" x1="27994.8" y1="2974.25" x2="27994.8" y2="3363.58" gradientUnits="userSpaceOnUse">
<stop offset="0.01" stop-color="#273862"/>
<stop offset="0.13" stop-opacity="0.69"/>
<stop offset="1" stop-opacity="0"/>
</linearGradient>
<linearGradient id="paint5_linear_512_24625" x1="20239.1" y1="6902.03" x2="20181.8" y2="7764.05" gradientUnits="userSpaceOnUse">
<stop offset="0.02" stop-color="white" stop-opacity="0"/>
<stop offset="0.32" stop-color="white" stop-opacity="0.39"/>
<stop offset="0.68" stop-color="white" stop-opacity="0.68"/>
<stop offset="1" stop-color="white"/>
</linearGradient>
<linearGradient id="paint6_linear_512_24625" x1="22546.9" y1="5006.98" x2="22490.2" y2="6351.4" gradientUnits="userSpaceOnUse">
<stop offset="0.01" stop-color="#FFECA9"/>
<stop offset="0.13" stop-opacity="0.69"/>
<stop offset="1" stop-opacity="0"/>
</linearGradient>
<linearGradient id="paint7_linear_512_24625" x1="20387.6" y1="3330.39" x2="20384.2" y2="2796.28" gradientUnits="userSpaceOnUse">
<stop offset="0.01"/>
<stop offset="0.13" stop-opacity="0.69"/>
<stop offset="1" stop-opacity="0"/>
</linearGradient>
<linearGradient id="paint8_linear_512_24625" x1="5496.83" y1="5271.64" x2="4549.5" y2="5286.27" gradientUnits="userSpaceOnUse">
<stop offset="0.01"/>
<stop offset="0.13" stop-opacity="0.69"/>
<stop offset="1" stop-opacity="0"/>
</linearGradient>
<linearGradient id="paint9_linear_512_24625" x1="3757.37" y1="1410.78" x2="4112.98" y2="1410.78" gradientUnits="userSpaceOnUse">
<stop stop-color="#E5C5D5"/>
<stop offset="0.42" stop-color="#EAD4D1"/>
<stop offset="1" stop-color="#F0E9CB"/>
</linearGradient>
<linearGradient id="paint10_linear_512_24625" x1="7435.01" y1="4620.33" x2="5805.87" y2="4568.71" gradientUnits="userSpaceOnUse">
<stop offset="0.01"/>
<stop offset="0.13" stop-opacity="0.69"/>
<stop offset="1" stop-opacity="0"/>
</linearGradient>
<linearGradient id="paint11_linear_512_24625" x1="-200.531" y1="13991.2" x2="-27.1742" y2="14006.4" gradientUnits="userSpaceOnUse">
<stop stop-color="#E5C5D5"/>
<stop offset="0.42" stop-color="#EAD4D1"/>
<stop offset="1" stop-color="#F0E9CB"/>
</linearGradient>
<linearGradient id="paint12_linear_512_24625" x1="2227.43" y1="8106.98" x2="2369.51" y2="8106.98" gradientUnits="userSpaceOnUse">
<stop stop-color="#E5C5D5"/>
<stop offset="0.42" stop-color="#EAD4D1"/>
<stop offset="1" stop-color="#F0E9CB"/>
</linearGradient>
<linearGradient id="paint13_linear_512_24625" x1="2802.75" y1="1200.36" x2="3025.26" y2="1200.36" gradientUnits="userSpaceOnUse">
<stop stop-color="#E5C5D5"/>
<stop offset="0.42" stop-color="#EAD4D1"/>
<stop offset="1" stop-color="#F0E9CB"/>
</linearGradient>
<clipPath id="clip0_512_24625">
<rect width="336" height="311" fill="white"/>
</clipPath>
</defs>
<g clip-path="url(#clip0_512_24625)">
<path opacity="0.18" d="M315.665 284.369C310.768 287.322 305.268 290.015 299.532 292.919C277.638 304.073 252.112 305.28 228.015 306.194L112.62 310.6C93.1824 311.335 73.0183 311.946 55.1228 304.35C44.8029 299.845 35.6668 293.012 28.4305 284.385C16.851 270.89 9.1477 253.487 5.2634 236.002C-1.08531 207.396 0.930286 177.713 0.448829 148.422C0.171379 131.361 -0.962902 114.154 1.96664 97.3379C4.89619 80.522 12.4608 63.7633 26.2435 53.695C44.7755 40.1672 69.0442 41.4971 90.7098 38.6496C113.559 35.647 133.143 24.4936 153.503 14.4171C174.834 3.87556 199.127 -1.77053 222.955 0.48954C247.045 2.7904 264.508 13.7562 278.005 33.8847C287.315 47.7747 292.976 63.786 294.464 80.4405C296.202 100.022 292.106 119.914 295.011 139.374C300.723 177.501 332.254 208.473 335.755 246.87C337.591 266.916 328.697 276.528 315.665 284.369Z" fill="#273862"/>
<path opacity="0.41" d="M315.665 284.369C310.768 287.322 305.268 290.015 299.532 292.919C277.638 304.073 252.112 305.28 228.015 306.194L112.62 310.6C93.1824 311.335 73.0183 311.946 55.1228 304.35C44.8029 299.845 35.6668 293.012 28.4305 284.385L315.665 284.369Z" fill="#273862"/>
<path d="M163.638 63.5756C163.491 67.2635 163.997 70.9188 164.161 74.6312C164.287 76.0041 164.151 77.3884 163.761 78.7107C162.847 81.2564 160.366 82.8474 158.049 84.2507C156.58 85.1401 154.907 86.4129 155.111 88.1263C155.252 88.7722 155.599 89.355 156.099 89.7874C156.599 90.2198 157.226 90.4786 157.885 90.5251C159.208 90.5841 160.526 90.3267 161.729 89.7744C164.191 88.9737 166.447 87.6424 168.339 85.8744C172.035 82.0315 172.158 76.0835 171.88 70.7556C171.644 66.2844 171.26 61.3727 168.991 57.391C165.336 51.0269 163.769 60.3854 163.638 63.5756Z" fill="#273862"/>
<path d="M163.638 63.5756C163.491 67.2635 163.997 70.9188 164.161 74.6312C164.287 76.0041 164.151 77.3884 163.761 78.7107C162.847 81.2564 160.366 82.8474 158.049 84.2507C156.58 85.1401 154.907 86.4129 155.111 88.1263C155.252 88.7722 155.599 89.355 156.099 89.7874C156.599 90.2198 157.226 90.4786 157.885 90.5251C159.208 90.5841 160.526 90.3267 161.729 89.7744C164.191 88.9737 166.447 87.6424 168.339 85.8744C172.035 82.0315 172.158 76.0835 171.88 70.7556C171.644 66.2844 171.26 61.3727 168.991 57.391C165.336 51.0269 163.769 60.3854 163.638 63.5756Z" fill="url(#paint0_linear_512_24625)"/>
<path d="M152.736 85.6868C151.047 85.0993 149.252 84.2997 147.563 84.8708C147.401 84.9069 147.251 84.9814 147.125 85.0879C146.998 85.1945 146.899 85.3299 146.836 85.4828C146.801 85.7071 146.832 85.9369 146.926 86.1437L148.885 91.9448C148.973 92.2335 149.102 92.5082 149.268 92.7607C149.657 93.2039 150.182 93.5052 150.761 93.6174C152.888 94.2048 155.146 94.099 157.208 93.3155C159.346 92.4996 159.534 89.8724 158.399 88.0284C157.265 86.1845 154.695 86.364 152.736 85.6868Z" fill="url(#paint1_linear_512_24625)"/>
<path d="M148.754 75.2023C149.309 75.341 149.097 75.6674 149.154 76.2304C149.537 79.804 149.211 83.8265 149.97 87.3267C150.729 90.827 153.063 93.9274 153.495 97.5011C151.773 93.9764 150.231 90.6312 149.358 86.7638C149.203 85.8091 147.913 75.2023 148.754 75.2023Z" fill="#3E3E54"/>
<path d="M163.5 108.695C163.5 108.695 147.293 128.049 158.097 144.636C168.902 161.224 188.07 173.56 195.366 186.109C202.661 198.657 189.425 212.267 184.831 214.812C180.236 217.358 138.382 248.208 164.307 279.889H251.81C251.81 279.889 280.167 251.186 232.903 216.518C232.903 216.518 199.144 199.294 230.74 174.833C262.337 150.372 268.008 127.086 253.026 108.908L163.5 108.695Z" fill="#273862"/>
<path d="M163.5 108.695C163.5 108.695 147.293 128.049 158.097 144.636C168.902 161.224 188.07 173.56 195.366 186.109C202.661 198.657 189.425 212.267 184.831 214.812C180.236 217.358 138.382 248.208 164.307 279.889H251.81C251.81 279.889 280.167 251.186 232.903 216.518C232.903 216.518 199.144 199.294 230.74 174.833C262.337 150.372 268.008 127.086 253.026 108.908L163.5 108.695Z" fill="url(#paint2_linear_512_24625)"/>
<path d="M257.988 100.773H156.702C154.413 100.773 152.557 102.629 152.557 104.918V104.926C152.557 107.215 154.413 109.071 156.702 109.071H257.988C260.277 109.071 262.133 107.215 262.133 104.926V104.918C262.133 102.629 260.277 100.773 257.988 100.773Z" fill="#273862"/>
<path d="M257.988 280.216H156.702C154.413 280.216 152.557 282.071 152.557 284.361V284.369C152.557 286.658 154.413 288.514 156.702 288.514H257.988C260.277 288.514 262.133 286.658 262.133 284.369V284.361C262.133 282.071 260.277 280.216 257.988 280.216Z" fill="#273862"/>
<path d="M257.988 100.773H156.702C154.413 100.773 152.557 102.629 152.557 104.918V104.926C152.557 107.215 154.413 109.071 156.702 109.071H257.988C260.277 109.071 262.133 107.215 262.133 104.926V104.918C262.133 102.629 260.277 100.773 257.988 100.773Z" fill="url(#paint3_linear_512_24625)"/>
<path d="M257.988 280.216H156.702C154.413 280.216 152.557 282.071 152.557 284.361V284.369C152.557 286.658 154.413 288.514 156.702 288.514H257.988C260.277 288.514 262.133 286.658 262.133 284.369V284.361C262.133 282.071 260.277 280.216 257.988 280.216Z" fill="url(#paint4_linear_512_24625)"/>
<path d="M244.425 235.822C229.598 227.908 180.538 226.594 171.227 233.374C179.918 221.87 191.857 215.098 191.857 215.098C203.607 207.755 216.974 214.135 216.974 214.135C216.974 214.135 233.972 222.833 244.425 235.822Z" fill="url(#paint5_linear_512_24625)"/>
<path d="M244.115 279.253H170.787L167.955 276.707C159.583 262.38 161.639 249.725 167.139 239.657C168.345 237.48 169.709 235.393 171.219 233.415C180.53 226.594 229.59 227.908 244.417 235.863C245.935 237.736 247.299 239.727 248.497 241.819C249.289 243.201 249.982 244.638 250.57 246.119C257.881 264.583 244.115 279.253 244.115 279.253Z" fill="#273862"/>
<path d="M248.522 241.778C245.021 254.523 210.111 235.08 193.848 233.619C183.109 232.665 171.766 239.2 171.766 239.2C171.766 239.2 168.102 240.53 167.123 239.641C168.329 237.463 169.692 235.377 171.203 233.399C180.514 226.578 229.573 227.892 244.401 235.847C245.931 237.71 247.309 239.694 248.522 241.778Z" fill="url(#paint6_linear_512_24625)"/>
<path d="M171.056 155.055C171.056 155.055 196.173 174.833 197.797 178.66C199.421 182.486 212.486 184.722 216.566 181.319C220.646 177.917 231.01 171.431 241.275 156.752C251.541 142.074 217.782 151.653 206.439 153.783C195.096 155.912 175.65 142.082 171.056 155.055Z" fill="#273862"/>
<path d="M171.056 155.055C171.056 155.055 180.783 161.436 189.425 159.518C198.067 157.601 203.738 152.077 215.619 153.138C227.501 154.199 239.382 159.306 243.169 153.783C246.955 148.259 242.899 143.779 231.01 145.273C219.12 146.766 199.413 146.97 189.963 146.333C180.514 145.697 163.23 147.19 171.056 155.055Z" fill="#273862"/>
<path d="M171.056 155.055C171.056 155.055 180.783 161.436 189.425 159.518C198.067 157.601 203.738 152.077 215.619 153.138C227.501 154.199 239.382 159.306 243.169 153.783C246.955 148.259 242.899 143.779 231.01 145.273C219.12 146.766 199.413 146.97 189.963 146.333C180.514 145.697 163.23 147.19 171.056 155.055Z" fill="url(#paint7_linear_512_24625)"/>
<path d="M206.178 187.953C205.487 188.406 204.925 189.03 204.546 189.764C204.409 189.989 204.321 190.241 204.288 190.502C204.254 190.764 204.275 191.029 204.35 191.282C204.465 191.559 204.662 191.794 204.914 191.958C205.166 192.121 205.462 192.204 205.762 192.196C206.274 192.147 206.761 191.951 207.165 191.633C207.981 191.102 208.879 190.425 208.757 189.601C208.634 188.777 207.361 188.189 206.268 187.863" fill="#FFECA9"/>
<path d="M210.731 195.5C210.456 195.57 210.198 195.695 209.972 195.867C209.858 195.965 209.793 196.071 209.883 196.177C210.068 196.316 210.297 196.382 210.527 196.365C210.746 196.352 210.962 196.313 211.172 196.251C211.547 196.136 211.988 195.998 211.898 195.834C211.809 195.671 211.262 195.549 210.764 195.484" fill="#273862"/>
<path d="M206.341 197.891C206.066 197.961 205.808 198.086 205.582 198.258C205.468 198.356 205.411 198.47 205.492 198.568C205.678 198.706 205.907 198.773 206.137 198.755C206.356 198.746 206.573 198.708 206.782 198.641C207.157 198.535 207.598 198.396 207.516 198.225C207.435 198.054 206.872 197.939 206.374 197.874" fill="#273862"/>
<path d="M213.318 209.028C212.964 208.877 212.585 208.797 212.2 208.791C211.988 208.791 211.8 208.84 211.751 208.995C211.756 209.123 211.791 209.248 211.854 209.36C211.916 209.472 212.004 209.568 212.11 209.64C212.323 209.801 212.56 209.927 212.812 210.015C213.277 210.194 213.8 210.374 213.955 210.186C214.11 209.999 213.726 209.46 213.359 209.028" fill="#FFECA9"/>
<path d="M200.36 223.535C200.008 223.385 199.632 223.304 199.25 223.298C199.029 223.298 198.842 223.355 198.801 223.502C198.76 223.649 198.883 223.926 199.152 224.146C199.366 224.31 199.606 224.437 199.862 224.522C200.319 224.701 200.849 224.881 200.996 224.693C201.143 224.505 200.768 223.967 200.409 223.535" fill="#273862"/>
<path d="M165.434 58.4843C165.31 56.3149 165.881 54.1626 167.066 52.3405C168.249 50.5339 169.832 49.0236 171.693 47.9265C172.708 47.1938 173.942 46.8258 175.193 46.8821C176.23 47.0127 179.82 43.1126 180.661 43.7327C183.027 45.4869 182.554 51.9734 184.561 54.1355C185.088 57.0361 185.415 59.9694 185.541 62.9147L186.74 85.1564C186.936 88.8362 187.034 92.8423 184.831 95.7632C179.282 93.7477 173.883 91.3429 168.673 88.5669C168.073 88.3524 167.565 87.9352 167.239 87.3872C166.913 86.8391 166.788 86.1945 166.886 85.5644C166.666 80.0325 166.666 74.4843 166.886 68.9525C166.984 65.9825 165.678 61.4542 165.434 58.4843Z" fill="#273862"/>
<path d="M165.434 58.4843C165.31 56.3149 165.881 54.1626 167.066 52.3405C168.249 50.5339 169.832 49.0236 171.693 47.9265C172.708 47.1938 173.942 46.8258 175.193 46.8821C176.23 47.0127 179.82 43.1126 180.661 43.7327C183.027 45.4869 182.554 51.9734 184.561 54.1355C185.088 57.0361 185.415 59.9694 185.541 62.9147L186.74 85.1564C186.936 88.8362 187.034 92.8423 184.831 95.7632C179.282 93.7477 173.883 91.3429 168.673 88.5669C168.073 88.3524 167.565 87.9352 167.239 87.3872C166.913 86.8391 166.788 86.1945 166.886 85.5644C166.666 80.0325 166.666 74.4843 166.886 68.9525C166.984 65.9825 165.678 61.4542 165.434 58.4843Z" fill="url(#paint8_linear_512_24625)"/>
<path d="M160.978 41.7827V42.4191C160.956 43.2184 161.175 44.0058 161.606 44.6792C162.422 45.6909 163.908 45.7317 165.172 45.544C166.158 45.2938 167.181 45.2247 168.192 45.3401C169.195 45.5604 170.305 49.6725 171.268 49.8357C173.023 50.1376 176.744 47.9836 177.951 46.8985C178.074 46.7924 176.67 43.6348 176.719 43.4635C176.76 43.2973 176.76 43.1238 176.719 42.9576L174.761 33.8521C174.579 32.5563 174.108 31.318 173.382 30.2294C172.804 29.5254 172.069 28.9666 171.236 28.5976C168.469 27.333 164.414 27.7817 162.39 30.2947C161.321 31.6246 161.337 33.9337 161.166 35.5655C160.947 37.6302 160.885 39.7085 160.978 41.7827Z" fill="url(#paint9_linear_512_24625)"/>
<path d="M175.405 105.464C170.003 108.948 163.834 111.004 157.738 113.02C156.237 113.517 154.474 113.991 153.144 113.191C152.392 112.663 151.797 111.941 151.422 111.102C149.023 106.55 143.025 105.195 145.971 100.977C147.22 99.1819 154.295 93.2992 156.041 92.0019C159.501 89.4318 163.124 86.7882 167.376 86.0784C169.373 85.7888 171.401 85.7888 173.398 86.0784C177.258 86.5435 186.993 88.0284 186.177 92.981C185.361 97.9335 179.314 102.919 175.405 105.464Z" fill="#3E3E54"/>
<path d="M177.038 62.1723C177.038 65.4359 177.38 68.6995 176.303 71.7674C174.859 75.8469 171.089 78.6455 167.327 80.8484C165.001 82.2192 162.48 83.598 161.231 85.9805C159.983 88.3629 160.864 92.0509 163.516 92.5078C164.546 92.6132 165.586 92.4619 166.543 92.0672C171.678 90.3702 176.638 88.1844 181.354 85.5399C183.288 84.4466 185.247 83.2146 186.438 81.3461C187.471 79.4544 188.031 77.3409 188.07 75.186C188.457 70.5619 188.32 65.909 187.662 61.3156C186.902 57.6976 185.486 54.2493 183.484 51.1412C177.038 42.411 177.038 57.3584 177.038 62.1723Z" fill="#273862"/>
<path d="M177.038 62.1723C177.038 65.4359 177.38 68.6995 176.303 71.7674C174.859 75.8469 171.089 78.6455 167.327 80.8484C165.001 82.2192 162.48 83.598 161.231 85.9805C159.983 88.3629 160.864 92.0509 163.516 92.5078C164.546 92.6132 165.586 92.4619 166.543 92.0672C171.678 90.3702 176.638 88.1844 181.354 85.5399C183.288 84.4466 185.247 83.2146 186.438 81.3461C187.471 79.4544 188.031 77.3409 188.07 75.186C188.457 70.5619 188.32 65.909 187.662 61.3156C186.902 57.6976 185.486 54.2493 183.484 51.1412C177.038 42.411 177.038 57.3584 177.038 62.1723Z" fill="url(#paint10_linear_512_24625)"/>
<path d="M141.565 119.833L140.169 146.537C143.433 146.333 144.919 142.547 145.702 139.422C147.922 130.556 150.144 121.69 152.369 112.824C153.022 110.197 153.691 107.463 153.185 104.803C152.826 102.919 151.129 99.6469 148.868 99.443C146.461 99.2308 145.196 102.323 144.364 104.183C142.185 109.071 141.834 114.578 141.565 119.833Z" fill="url(#paint11_linear_512_24625)"/>
<path d="M146.42 121.636L147.367 148.357C150.557 147.867 151.741 143.967 152.263 140.785C153.699 131.761 155.138 122.734 156.58 113.705C157.004 111.029 157.396 108.255 156.694 105.644C156.172 103.8 154.197 100.691 151.928 100.683C149.48 100.683 148.525 103.865 147.848 105.799C146.102 110.833 146.232 116.414 146.42 121.636Z" fill="url(#paint12_linear_512_24625)"/>
<path d="M145.065 141.111L142.03 141.332C141.715 141.313 141.4 141.36 141.104 141.468C140.808 141.576 140.537 141.743 140.308 141.96C140.06 142.343 139.937 142.793 139.957 143.249C139.876 144.881 139.859 146.513 139.957 148.079C139.941 148.144 139.941 148.211 139.957 148.275C140.003 148.33 140.063 148.372 140.13 148.398C140.197 148.424 140.27 148.432 140.341 148.422C141.502 148.412 142.641 148.109 143.654 147.541C144.084 147.339 144.455 147.03 144.731 146.643C144.981 146.177 145.108 145.655 145.098 145.126C145.18 143.763 145.212 142.392 145.163 141.046L145.065 141.111Z" fill="#273862"/>
<path d="M145 146.602C144.994 146.487 144.96 146.376 144.902 146.276C144.825 146.196 144.723 146.145 144.613 146.132C144.503 146.119 144.392 146.144 144.298 146.203C144.117 146.332 143.958 146.489 143.825 146.668C143.301 147.287 142.565 147.688 141.761 147.794C140.942 147.775 140.123 147.824 139.312 147.941C138.728 148.169 138.197 148.516 137.754 148.96L135.11 151.245C134.49 151.775 133.812 152.469 133.959 153.277C134.075 153.63 134.29 153.943 134.58 154.176C134.87 154.409 135.221 154.553 135.591 154.59C136.928 154.736 138.28 154.569 139.541 154.101C140.717 153.786 141.872 153.399 143.001 152.942C143.593 152.731 144.121 152.371 144.535 151.898C145.441 150.682 145.139 148.03 145 146.602Z" fill="#3E3E54"/>
<path d="M152.353 141.47L149.292 141.707C148.977 141.69 148.661 141.736 148.363 141.844C148.066 141.952 147.793 142.119 147.563 142.335C147.322 142.721 147.202 143.17 147.22 143.624C147.13 145.256 147.122 146.888 147.179 148.455C147.18 148.525 147.194 148.594 147.22 148.659C147.266 148.711 147.324 148.752 147.39 148.776C147.455 148.8 147.526 148.808 147.595 148.797C148.759 148.792 149.903 148.489 150.916 147.916C151.347 147.718 151.718 147.412 151.994 147.027C152.234 146.557 152.357 146.037 152.353 145.509C152.445 144.138 152.47 142.779 152.426 141.43L152.353 141.47Z" fill="#273862"/>
<path d="M152.287 146.937C152.287 146.82 152.256 146.704 152.198 146.603C152.119 146.522 152.015 146.471 151.903 146.459C151.792 146.447 151.679 146.475 151.586 146.537C151.405 146.665 151.248 146.822 151.12 147.002C150.595 147.618 149.859 148.016 149.056 148.12C148.237 148.107 147.418 148.159 146.608 148.275C146.021 148.5 145.488 148.845 145.041 149.287L142.397 151.571C141.785 152.11 141.108 152.803 141.246 153.603C141.363 153.956 141.579 154.268 141.868 154.501C142.158 154.734 142.509 154.879 142.879 154.917C144.218 155.067 145.574 154.9 146.836 154.427C148.013 154.115 149.169 153.728 150.296 153.268C150.887 153.058 151.412 152.698 151.822 152.224C152.728 151.008 152.426 148.381 152.287 146.937Z" fill="#3E3E54"/>
<path d="M154.948 88.2161C153.169 88.3058 151.202 88.2161 149.847 89.391C149.713 89.4811 149.602 89.6023 149.524 89.7442C149.445 89.8862 149.403 90.0449 149.399 90.2069C149.448 90.4279 149.562 90.6294 149.725 90.7862L153.715 95.4287C153.906 95.6778 154.134 95.8953 154.393 96.0733C154.918 96.3332 155.515 96.4135 156.09 96.3017C158.284 96.0562 160.341 95.1123 161.957 93.6092C163.589 92.0508 162.83 89.5297 161.084 88.265C159.338 87.0004 157.02 88.11 154.948 88.2161Z" fill="url(#paint13_linear_512_24625)"/>
<path d="M175.446 21.6787C181.044 22.1601 186.055 25.7011 189.449 30.1723C192.983 34.823 195.806 40.9994 201.518 42.2233C204.089 42.7781 206.774 42.1499 209.385 42.4191C211.82 42.7205 214.1 43.7738 215.908 45.4322C217.716 47.0907 218.962 49.2718 219.471 51.6715C220.083 54.8454 219.332 58.1254 219.659 61.34C220.303 67.6796 225.085 73.7092 223.298 79.8204C221.878 84.6506 215.954 87.5797 211.229 85.7357C206.202 83.7694 204.024 78.0335 200.621 73.8234C199.144 71.9876 196.981 70.2661 194.664 70.6985C193.513 70.9188 192.509 71.645 191.4 71.9387C188.788 72.6159 186.071 70.7801 184.741 68.4303C183.411 66.0805 183.109 63.3064 182.693 60.6465C182.089 56.8933 181.061 53.0422 178.612 50.1621C175.577 46.6374 170.64 44.8832 168.347 40.8362C166.992 38.4375 166.756 35.6063 165.523 33.1667C164.43 31.0209 162.333 29.9031 163.255 27.3656C164.797 23.1718 171.57 21.3523 175.446 21.6787Z" fill="#3E3E54"/>
<path d="M160.089 27.2758C159.956 27.9617 159.99 28.6692 160.188 29.3392C160.385 30.0092 160.74 30.6222 161.223 31.1269C162.204 32.1258 163.299 33.005 164.487 33.746C165.671 34.4947 166.65 35.5266 167.335 36.7486C167.405 36.9548 167.523 37.1419 167.678 37.2952C167.758 37.3652 167.861 37.4038 167.967 37.4038C168.074 37.4038 168.177 37.3652 168.257 37.2952C168.336 37.1863 168.376 37.0542 168.371 36.9199C168.534 34.6353 168.118 32.359 168.118 30.0744C168.118 28.5242 168.583 26.5497 167.653 25.179C165.866 22.5273 160.807 24.6568 160.089 27.2758Z" fill="#3E3E54"/>
<path d="M144.641 77.4869C144.536 78.1174 144.673 78.7643 145.025 79.2982C145.759 80.2365 147.375 79.9917 148.142 79.0861C148.837 78.0971 149.129 76.8803 148.958 75.6837C148.875 76.7714 149.102 77.8602 149.611 78.825C150.206 79.7225 151.577 80.2038 152.402 79.5022C152.626 79.2803 152.798 79.0117 152.907 78.7156C153.016 78.4194 153.058 78.103 153.03 77.7888C153.009 76.6923 152.561 75.6472 151.781 74.876C152.207 75.494 152.837 75.9419 153.56 76.1406C153.921 76.2425 154.302 76.2425 154.662 76.1406C155.021 75.9962 155.322 75.7348 155.514 75.3988C155.707 75.0627 155.78 74.6715 155.723 74.2885C155.654 73.9084 155.504 73.5475 155.283 73.2307C155.062 72.9139 154.775 72.6485 154.442 72.4527C153.771 72.0567 153.037 71.7806 152.271 71.6368C152.818 71.2452 153.446 70.9759 153.985 70.5761C154.267 70.396 154.506 70.1568 154.686 69.875C154.867 69.5933 154.984 69.2757 155.029 68.9443C155.086 67.8184 153.83 66.9943 152.704 67.084C151.592 67.2852 150.574 67.837 149.798 68.6587C149.074 67.9705 148.204 67.4546 147.252 67.1493C146.775 67.0031 146.267 66.9881 145.782 67.1058C145.296 67.2235 144.852 67.4696 144.494 67.8184C144.302 68.0689 144.165 68.358 144.094 68.6659C144.023 68.9739 144.019 69.2935 144.083 69.6031C144.146 69.9126 144.276 70.2049 144.462 70.4601C144.649 70.7153 144.888 70.9274 145.163 71.082C144.453 71.1542 143.739 71.1896 143.025 71.1881C142.667 71.1952 142.315 71.2896 142.001 71.463C141.687 71.6364 141.419 71.8837 141.222 72.1835C141.069 72.555 141.051 72.9686 141.172 73.3519C141.293 73.7352 141.544 74.0638 141.883 74.2804C142.228 74.4866 142.614 74.6159 143.014 74.6595C143.414 74.7032 143.819 74.6601 144.201 74.5333C144.69 74.3864 145.604 73.6276 146.045 73.9703C145.58 75.2513 144.78 76.0998 144.641 77.4869Z" fill="#273862"/>
<path d="M149.048 74.1008C150.576 74.1008 151.814 73.1767 151.814 72.0366C151.814 70.8965 150.576 69.9724 149.048 69.9724C147.52 69.9724 146.281 70.8965 146.281 72.0366C146.281 73.1767 147.52 74.1008 149.048 74.1008Z" fill="white"/>
</g>
</svg>
