<svg fill="none" height="320" viewBox="0 0 254 320" width="254" xmlns="http://www.w3.org/2000/svg" xmlns:xlink="http://www.w3.org/1999/xlink"><clipPath id="a"><path d="m0 0h86.9989v86.9989h-86.9989z" transform="matrix(.91774839 .39716231 -.39716231 .91774839 34.9319 77.3792)"/></clipPath><circle cx="129" cy="126" fill="#e2f3ff" r="125"/><g clip-path="url(#a)"><path d="m100.186 140.474-24.8233-13.59.0503-28.3c.0037-1.9815-2.3646-3.0064-3.8067-1.6474l-20.596 19.4094-26.8994-8.794c-1.8835-.615-3.5901 1.32-2.7432 3.112l12.0944 25.585-16.6752 22.866c-1.1675 1.601.146 3.822 2.1115 3.57l28.0707-3.596 16.5936 22.925c1.1618 1.605 3.6803 1.043 4.0482-.904l5.2543-27.809 26.9307-8.697c1.8851-.609 2.1281-3.178.3901-4.13z" fill="#ffdc64"/><path d="m75.413 98.584c.0037-1.9815-2.3646-3.0064-3.8067-1.6474l-20.596 19.4094-26.8994-8.794c-1.8835-.615-3.5901 1.32-2.7432 3.112l12.0944 25.585-16.6752 22.866c-1.1675 1.601.146 3.822 2.1115 3.57l6.2652-.802c12.9791-28.099 34.8276-42.387 50.2246-49.306z" fill="#ffc850"/></g><path d="m44.3359 153.405-2.5843 2.358-1.0543-1.156 2.5843-2.358-2.4168-2.649 1.1688-1.066 2.4167 2.649 2.5908-2.363 1.0544 1.155-2.5908 2.364 2.4049 2.636-1.1688 1.066zm6.5359-9.293c.9566-.873 1.9452-1.311 2.9656-1.314s1.9295.433 2.7272 1.307c.924 1.013 1.3285 2.096 1.2134 3.248-.1147 1.143-.7564 2.248-1.9252 3.314-1.0605.968-2.0498 1.557-2.9678 1.768l-1.2617-1.383c.5323-.121 1.0751-.334 1.6283-.641.5533-.306 1.0247-.637 1.4143-.993.6883-.627 1.0719-1.259 1.1508-1.894s-.1522-1.249-.6932-1.842c-1.0346-1.134-2.2748-1.042-3.7206.277-.2034.186-.4348.436-.694.752-.2631.311-.4835.596-.6613.853l-1.049.219-3.8656-4.967 4.9348-4.502 1.238 1.357-3.5908 3.276 1.93 2.546c.1278-.165.2841-.363.469-.595.1892-.236.4418-.498.7578-.786zm11.8892-8.681c1.5045 1.649 2.3558 3.117 2.5539 4.404.2025 1.282-.2417 2.421-1.3326 3.416-1.0562.964-2.2342 1.281-3.5338.952-1.2997-.329-2.6781-1.293-4.1353-2.89-1.5282-1.675-2.3896-3.15-2.5841-4.424-.1942-1.282.252-2.419 1.3385-3.41 1.0606-.967 2.2427-1.284 3.5463-.951 1.3036.334 2.686 1.301 4.1471 2.903zm-4.9024 4.472c1.1807 1.295 2.1559 2.098 2.9254 2.411.7738.31 1.4529.198 2.0373-.335s.7541-1.204.5091-2.011c-.2406-.812-.9434-1.856-2.1083-3.133-1.161-1.273-2.1365-2.068-2.9265-2.386-.7897-.327-1.4767-.224-2.0611.309-.5843.533-.756 1.202-.515 2.005.2454.799.9584 1.846 2.1391 3.14zm12.4994-11.402c1.5045 1.649 2.3558 3.117 2.554 4.403.2024 1.283-.2418 2.422-1.3327 3.417-1.0562.964-2.2341 1.281-3.5338.952-1.2997-.33-2.6781-1.293-4.1352-2.89-1.5283-1.676-2.3896-3.15-2.5842-4.424-.1941-1.282.252-2.419 1.3386-3.41 1.0605-.968 2.2426-1.285 3.5462-.951s2.686 1.301 4.1471 2.903zm-4.9024 4.472c1.1808 1.294 2.1559 2.098 2.9254 2.411.7738.309 1.453.197 2.0373-.336.5844-.533.7541-1.203.5092-2.011-.2407-.811-.9435-1.855-2.1084-3.132-1.161-1.273-2.1365-2.069-2.9265-2.387-.7896-.326-1.4766-.223-2.061.31s-.7561 1.201-.5151 2.004c.2454.8.9584 1.847 2.1391 3.141z" fill="#25314d"/><path d="m131.961 67.2644c-.953-.5771-4.125-2.856-4.934-3.4822-.702-.5437-1.936-2.0108-2.209-4.3561-.272-2.3453-3.241-30.9077-2.913-35.0526.327-4.1448 3.132-7.3429 3.227-12.0269.055-2.69962-6.089-4.21171-7.062-4.33576-1.5-.19098-2.159 2.19616-2.727 2.80866-.732.7877-1.078 1.6741-1.296 2.574-.346 1.4286.382 3.4932.996 5.1702.663 1.8139 2.105 4.9621 2.154 6.2992.123 3.3689-.754 31.8047-.548 34.6415.439 6.0161 2.484 7.9791 4.447 9.9838 1.964 2.0046 5.624 5.081 6.119 5.4399 3.243 2.3559 7.265-6.1387 4.746-7.6637z" fill="#50392b"/><path d="m187.155 175.325s10.799-4.349 12.598-5.849 3.812-5.554 5.94-5.237c3.599.536 3.456 4.991 4.884 6.99 1.428 2 9.221 5.95 11.11 9.761 1.657 3.342.828 4.899-.143 4.327-.971-.571-3.235-5.84-11.088-6.767-4.458-.527-8.517-1.378-9.945-.864s-9.675 4.317-9.675 4.317z" fill="#50392b"/><path d="m149.532 255.797s3.501 11.104 4.856 13.014 5.242 4.23 4.761 6.327c-.813 3.547-5.243 3.059-7.347 4.328s-6.646 8.734-10.592 10.322c-3.46 1.392-4.948.446-4.303-.478s6.074-2.773 7.606-10.531c.87-4.404 2.033-8.385 1.631-9.848-.401-1.464-3.554-9.98-3.554-9.98z" fill="#50392b"/><path d="m147.458 138.574s-26.905 49.816-28.407 54.319c-1.922 5.768-1.556 10.579.328 15.871 3.741 10.513 20.63 45.982 23.328 51.183 2.141-.586 6.272-2.345 7.349-3.327-2.209-8.426-10.717-34.495-16.289-54.549-.452-1.629-.093-2.823.501-3.751.872-1.364 34.849-38.368 38.885-47.421 4.035-9.053 3.409-18.665 3.409-18.665z" fill="#1d376f"/><path d="m147.397 137.837s-17.329 49.901-18.747 54.838c-2.945 10.253 4.347 19.873 18.133 12.98 9.326-4.663 44.858-23.887 44.858-23.887l-3.655-6.927s-35.026 14.944-38.38 15.966c-.99.302-3.477 1.087-2.373-.849.726-1.272 19.375-27.06 24.719-35.241 5.345-8.181 6.898-15.899 4.609-22.483-7.935.409-29.164 5.603-29.164 5.603z" fill="#244388"/><path d="m152.53 78.5485c6.683 3.8199 1.659 13.7036-5.133 10.3076-2.29-1.1454-19.225-12.7927-20.218-13.8657-2.018-2.1814 2.69-8.819 5.064-7.6757 1.4.6748 13.286 7.232 20.287 11.2338z" fill="#022359"/><path d="m163.895 78.9416c6.626 4.1811 5.165 12.1889 3.504 14.9849-3.457 5.8165-6.002 14.9295-5.645 17.0515.873 5.181 12.489 10.907 15.271 20.942.851 3.07-7.109 6.458-16.198 8.29-7.035 1.418-13.356 1.902-14.671.026-.783-1.119-7.118-27.091-7.799-31.385-.413-2.611-4.395-6.894-4.145-11.153.191-3.2448 5.018-6.299 13.246-17.5338 3.495-4.7719 11.255-4.2954 16.437-1.2226z" fill="#f1c72f"/><path d="m167.153 97.3429s-7.608-9.1619-7.853-6.7078c-.246 2.4543.226 17.6549 2.697 21.2179 2.472 3.562 5.156-14.5101 5.156-14.5101z" fill="#eda900"/><path d="m165.64 80.2459c6.53 4.4721 17.371 17.0035 17.909 17.702 2.863 3.7221-.853 9.9081-4.943 8.8851-3.496-.874-18.262-13.2758-20.597-15.9366-4.872-5.5514 1.319-14.972 7.631-10.6505z" fill="#083a75"/><path d="m183.422 97.9978c-3.942-3.1229-8.876 5.7902-4.912 8.5352 2.297 1.59 6.313 4.036 8.767 5.154 2.176.991 23.258.438 33.241 1.636 2.986.358 1.718 5.399 3.245 6.926.788.788 2.838.1 4.827.941.96.406 2.655 1.558 3.395 2.086 1.527 1.091 2.672-3.545 1.895-6.163-.343-1.155-1.772-3.984-4.254-5.672-1.023-.695-7.589-3.553-10.012-4.012-2.927-.555-9.429-1.791-15.007-2.491-5.018-.63-9.449-1.227-12.653-1.595-1.138-.131-2.433-.638-2.877-.859-1.677-.839-2.818-2.239-5.655-4.4862z" fill="#50392b"/><path d="m147.928 32.6141c-2.377 1.0632-5.884 5.2792-7.873 9.6736-5.863 12.9526-3.078 20.2926.32 22.1422 3.356 1.8268 10.788.6846 16.47-4.3083 2.318.1362 5.582.0046 6.504-3.477.491-1.8542-1.098-2.6027-1.098-2.6027s5.55-9.1924 5.194-12.0243c-.783-6.2333-8.663-14.2576-19.517-9.4035z" fill="#50392b"/><path d="m154.991 61.4987s.669 5.5961 1.718 9.4214c1.227 4.4722 5.4 6.6195 7.233 8.0579-.9-.2589-3.947-1.7793-7.478.259-2.435 1.4053-16.525 12.1618-16.525 12.1618s6.642-9.3044 7.253-10.8531c.783-1.9825 1.015-5.5814.614-7.9081-.614-3.5586-1.732-7.5805-1.732-7.5805z" fill="#50392b"/><path d="m146.828 49.6003c.679.2055.17 4.0067-.221 4.4114-1.346 1.3958-4.289-.7843-3.488-2.0307.308-.4807 2.583-2.7216 3.709-2.3807z" fill="#33241e"/><path d="m150.335 47.6935s.537 1.3082 1.764 1.8633c1.167.5283 2.752.2479 2.752.2479" stroke="#0f0802" stroke-linecap="round" stroke-miterlimit="10"/><path d="m141.602 43.1958s.373 1.364 1.523 2.0646c1.094.6668 2.701.5818 2.701.5818" stroke="#0f0802" stroke-linecap="round" stroke-miterlimit="10"/><path d="m139.84 54.978c1.47.7719 6.133 3.2725 7.959 4.1889-.072.6585-3.137 3.1123-6.236 1.134-2.203-1.4064-2.023-4.4903-1.723-5.3229z" fill="#fff"/><path d="m142.983 37.3152c3.228-3.3444 6.502-4.5244 10.858-2.6768 4.407 1.8687 10.101 5.1952 6.195 15.2407-.695 1.7891-1.506 5.516-1.506 5.516s2.656-2.6386 3.885-1.1909c4.288-2.6313 6.001-8.7329 5.475-14.3706-.586-6.2582-8.221-11.0182-13.907-10.3763-6.164.6957-9.981 5.8566-11 7.8579z" fill="#0f0802"/><g stroke="#0f0802" stroke-linecap="round" stroke-miterlimit="10" stroke-width="8"><path d="m164.356 49.4809s8.577 4.7435-5.189 17.4519c-8.147 7.5204-8.003 21.6615-8.003 21.6615"/><path d="m164.056 48.2696s10.428 3.2523-1.391 17.7904c-6.994 8.603-6.101 22.8023-6.101 22.8023"/><path d="m166.278 46.7539s4.669 4.7993.153 17.187c-3.797 10.4166-1.984 23.0072-1.984 23.0072"/><path d="m165.535 45.1144s5.663 3.5713 4.177 16.6725c-1.25 11.0164 3.464 22.8312 3.464 22.8312"/></g><path d="m158.236 62.1256c.926 0 1.677-.7507 1.677-1.6769s-.751-1.677-1.677-1.677-1.677.7508-1.677 1.677.751 1.6769 1.677 1.6769z" fill="#e7a134"/><path d="m158.735 319.509c35.199 0 63.734-2.49 63.734-5.562s-28.535-5.562-63.734-5.562c-35.2 0-63.735 2.49-63.735 5.562s28.535 5.562 63.735 5.562z" fill="#a3a3a3" opacity=".3"/><path d="m229.496 15.5372s-.732-12.89083-4.385-14.636538c-1.676-.800622-5.081-1.053882-6.442-.8137985-2.883.5078185 4.978 12.3920365 4.978 12.3920365z" fill="#25323a"/><path d="m229.32 15.8098s-.693-12.97765-4.386-14.63627c-5.339-2.39747 4.043 14.45717 4.043 14.45717z" fill="#11191b"/><path d="m227.059 13.96s12.06-4.61122 15.149-1.993c1.416 1.2006 3.042 4.2033 3.38 5.5428.718 2.8386-13.344.5337-13.344.5337z" fill="#25323a"/><path d="m226.883 14.2326s12.123-4.68326 15.148-1.993c4.374 3.8889-14.845 2.2318-14.845 2.2318z" fill="#11191b"/><path d="m249.36 28.4059-43.876-28.40010166-20.484 31.64590166 43.875 28.4001z" fill="#3562c9"/><path d="m234.975 19.0935-29.489-19.08809839-20.484 31.64589839 29.489 19.0881z" fill="#417bff"/><path d="m244.159 25.0277-2.691-1.7421-20.481 31.6462 2.692 1.742z" fill="#1f282f"/><path d="m223.598 11.733-5.747-3.72027-20.484 31.64587 5.747 3.7204z" fill="#25323a"/><path d="m61.3408 20.9455s-11.9248-8.8118-16.1468-6.8652c-1.9372.8928-4.6582 3.7144-5.4452 5.0924-1.6671 2.9202 14.5983 4.6954 14.5983 4.6954z" fill="#25323a"/><path d="m61.4515 21.3011s-11.9714-8.9104-16.1466-6.8647c-6.0346 2.9567 15.737 7.0358 15.737 7.0358z" fill="#11191b"/><path d="m58.1589 21.9402s4.7753-14.03619 9.3542-14.84379c2.0995-.37008 5.9453.39721 7.377 1.08102 3.0332 1.44928-9.3196 12.17887-9.3196 12.17887z" fill="#555859"/><path d="m58.2708 22.2966s4.7577-14.14476 9.3539-14.84381c6.6443-1.01021-8.9213 14.75131-8.9213 14.75131z" fill="#263133"/><path d="m87.2789 12.8319-57.2789 17.9207 12.9256 41.3134 57.2784-17.9206z" fill="#fde17e"/><path d="m68.4982 18.7073-38.4977 12.0446 12.9256 41.3135 38.4977-12.0447z" fill="#e7a134"/><path d="m80.4952 14.955-3.5138 1.0993 12.9258 41.3139 3.5137-1.0993z" fill="#555859"/><path d="m53.6505 23.3521-7.5038 2.3477 12.9255 41.3132 7.5038-2.3477z" fill="#25323a"/></svg>