<svg fill="none" height="250" viewBox="0 0 250 250" width="250" xmlns="http://www.w3.org/2000/svg" xmlns:xlink="http://www.w3.org/1999/xlink"><mask id="a" height="250" maskUnits="userSpaceOnUse" width="250" x="0" y="0"><circle cx="125" cy="125" fill="#e2f3ff" r="125"/></mask><circle cx="125" cy="125" fill="#e2f3ff" r="125"/><g mask="url(#a)"><path d="m119.767 89.4999-.446-.3498c2.004-2.544 4.109-4.9354 6.259-7.1741l.4.3943c-2.137 2.2196-4.229 4.6237-6.213 7.1296z" fill="#3661c0"/><path d="m117.391 91.5889-2.052 2.5861.439.3478 2.051-2.5861z" fill="#3661c0"/><path d="m161.52 119.004c13.82-22.2155 15.703-44.1067 5.641-51.1917s-30.038 2.0606-46.301 22.5589l-46.4723 58.6198 47.6493 33.556z" fill="#25314d"/><path d="m156.082 115.175-40.45 62.882-4.948-9.458 40.176-57.367c11.359-16.2244 17.726-31.0495 17.751-39.3048-.001-.1596.054-.3145.156-.4371.103-.1226.245-.2049.402-.2324s.319.0017.457.0824.242.2076.295.3581c2.862 8.2362-2.099 25.2302-13.839 43.4768z" fill="#fff" opacity=".1"/><path d="m122.009 182.532c6.432-9.136.979-24.054-12.181-33.319-13.1591-9.266-29.0418-9.372-35.4745-.236s-.9795 24.054 12.1801 33.319c13.1595 9.266 29.0424 9.372 35.4754.236z" fill="#3661c0"/><path d="m122.009 182.532c6.432-9.136.979-24.054-12.181-33.319-13.1591-9.266-29.0418-9.372-35.4745-.236s-.9795 24.054 12.1801 33.319c13.1595 9.266 29.0424 9.372 35.4754.236z" fill="#fff" opacity=".5"/><path d="m117.063 138.86c-10.456-7.365-22.3169-9.47-29.8917-6.029l-11.7978 14.869c6.996-7.81 21.9484-7.276 34.4525 1.527 12.503 8.802 18.056 22.724 13.044 31.927l9.903-15.9c.852-8.351-5.139-18.953-15.71-26.394z" fill="#000" opacity=".1"/><path d="m133.809 90.9182c-2.9 4.5919-5.088 13.1838 3.53 19.2458 8.618 6.061 15.97 1.119 19.309-3.18z" fill="#000" opacity=".2"/><path d="m158.683 101.692c-.986 8.204-10.468 14.189-20.422 7.18-9.953-7.008-7.517-17.9538-.127-21.6236 4.554-2.2768 10.354-1.272 14.323 1.4883 3.968 2.7602 6.837 7.8673 6.226 12.9553z" fill="#fff"/><path d="m139.616 106.933c-3.873-2.722-5.857-6.284-5.578-10.011.127-1.6085.669-3.1568 1.571-4.4942.903-1.3374 2.137-2.4184 3.581-3.1378 3.46-1.7299 8.357-1.1893 11.912 1.3102 3.555 2.4994 5.724 6.9387 5.247 10.7798-.189 1.598-.788 3.12-1.738 4.418-.951 1.298-2.221 2.329-3.687 2.992-3.396 1.539-7.435.871-11.308-1.857z" fill="#3661c0"/><path d="m139.616 106.933c-3.873-2.722-5.857-6.284-5.578-10.011.127-1.6085.669-3.1568 1.571-4.4942.903-1.3374 2.137-2.4184 3.581-3.1378 3.46-1.7299 8.357-1.1893 11.912 1.3102 3.555 2.4994 5.724 6.9387 5.247 10.7798-.189 1.598-.788 3.12-1.738 4.418-.951 1.298-2.221 2.329-3.687 2.992-3.396 1.539-7.435.871-11.308-1.857z" fill="#000" opacity=".3"/><path d="m139.616 106.933c-3.873-2.722-5.928-6.182-5.775-9.7312.066-1.5088.548-2.97 1.392-4.2225.843-1.2525 2.017-2.2475 3.391-2.8752 3.326-1.5391 8.128-.865 11.683 1.6409 3.555 2.5058 5.807 6.7988 5.476 10.449-.128 1.507-.672 2.95-1.57 4.167-.898 1.216-2.116 2.161-3.518 2.728-3.263 1.342-7.206.572-11.079-2.156z" fill="#3661c0"/><path d="m139.616 106.933c-3.873-2.722-5.928-6.182-5.775-9.7312.066-1.5088.548-2.97 1.392-4.2225.843-1.2525 2.017-2.2475 3.391-2.8752 3.326-1.5391 8.128-.865 11.683 1.6409 3.555 2.5058 5.807 6.7988 5.476 10.449-.128 1.507-.672 2.95-1.57 4.167-.898 1.216-2.116 2.161-3.518 2.728-3.263 1.342-7.206.572-11.079-2.156z" fill="#fff" opacity=".2"/><path d="m173.483 85.1878c-.547-4.3884-3.918-9.4637-9.248-13.2161-5.329-3.7524-11.238-5.2152-15.556-4.2548 7.346-2.9956 13.928-3.1101 18.482.0954 4.554 3.2054 6.665 9.451 6.322 17.3755z" fill="#000" opacity=".1"/><g fill="#3661c0"><path d="m109.818 164.642c2.004-2.846.381-7.44-3.625-10.261-4.007-2.821-8.8792-2.801-10.8832.046-2.0041 2.846-.3808 7.44 3.6257 10.261s8.8785 2.801 10.8825-.046z" opacity=".5"/><path d="m90.924 161.972c-2.0034 2.843-6.8751 2.868-10.8819.045-4.0068-2.824-5.635-7.416-3.6316-10.259s6.8815-2.868 10.8883-.045c4.0068 2.824 5.6032 7.416 3.6252 10.259z" opacity=".5"/><path d="m118.723 181.567c-2.003 2.85-6.875 2.869-10.882.045-4.006-2.824-5.628-7.416-3.625-10.259 2.004-2.843 6.875-2.868 10.882-.044 4.007 2.823 5.629 7.415 3.625 10.258z" opacity=".5"/><path d="m99.8276 178.89c-2.0034 2.843-6.8751 2.862-10.8819.044-4.0068-2.817-5.6286-7.416-3.6252-10.265s6.8751-2.862 10.8819-.044c4.0066 2.817 5.6036 7.415 3.6252 10.265z" opacity=".5"/><path d="m109.826 164.656c-.212.3-.46.574-.738.814 1.113-2.836-.566-6.773-4.147-9.292-3.58-2.518-7.8479-2.773-10.1439-.776.1349-.338.3078-.66.5152-.96 2.0034-2.843 6.8817-2.868 10.8887-.045 4.006 2.824 5.622 7.41 3.625 10.259z" opacity=".5"/><path d="m90.9238 161.972c-.2111.299-.4566.572-.7314.814 1.113-2.843-.5597-6.773-4.1467-9.298-3.5871-2.525-7.8483-2.773-10.1442-.77.1335-.339.3064-.661.5151-.96 2.0034-2.849 6.8752-2.868 10.882-.045 4.0068 2.824 5.6032 7.41 3.6252 10.259z" opacity=".5"/><path d="m118.723 181.574c-.211.297-.456.568-.731.807 1.113-2.843-.566-6.773-4.147-9.292-3.581-2.518-7.848-2.779-10.144-.769.132-.342.305-.667.515-.967 2.003-2.849 6.875-2.868 10.882-.044 4.007 2.823 5.635 7.415 3.625 10.265z" opacity=".5"/><path d="m99.8277 178.89c-.2077.3-.4536.571-.7314.807 1.1127-2.836-.566-6.773-4.1467-9.292-3.5807-2.518-7.8482-2.773-10.1442-.769.1309-.342.304-.667.5152-.967 2.0034-2.849 6.8751-2.862 10.8819-.044 4.0065 2.817 5.6035 7.415 3.6252 10.265z" opacity=".5"/><path d="m105.921 112.014s-8.5863 11.143-16.0657 20.734c-1.0621 1.337-2.4537 2.375-4.0382 3.012-1.5845.636-3.3073.85-4.9993.619-6.5318-.807-17.172 3.816-17.172 3.816s20.1294-33.065 42.2752-28.181z"/></g><path d="m105.921 112.014s-8.5863 11.143-16.0657 20.734c-1.0621 1.337-2.4537 2.375-4.0382 3.012-1.5845.636-3.3073.85-4.9993.619-6.5318-.807-17.172 3.816-17.172 3.816s20.1294-33.065 42.2752-28.181z" fill="#244388" opacity=".3"/><path d="m146.186 140.374s-7.562 11.835-14.107 22.107c-.9 1.45-1.408 3.11-1.472 4.816-.065 1.707.315 3.4 1.103 4.915 2.964 5.883 2.188 17.483 2.188 17.483s24.353-30.127 12.288-49.321z" fill="#3661c0"/><path d="m146.186 140.374s-7.562 11.835-14.107 22.107c-.9 1.45-1.408 3.11-1.472 4.816-.065 1.707.315 3.4 1.103 4.915 2.964 5.883 2.188 17.483 2.188 17.483s24.353-30.127 12.288-49.321z" fill="#244388" opacity=".3"/><path d="m173.928 225.464c7.944-19.436-26.4-24.944-39.992-20.066-13.591 4.878-27.449 8.504-27.984-4.503-.534-13.006 9.935-21.07 4.942-24.072-2.767-1.667-3.555 1.272-4.923 5.558-4.185 13.134-27.8882 16.263-16.9808 35.273s5.088 14.882-13.2606 22.508-8.904 29.587 8.8467 29.587h106.8987c48.998 0 2.608-93.785-17.547-44.285z" fill="#3661c0"/><path d="m173.928 225.464c7.944-19.436-26.4-24.944-39.992-20.066-13.591 4.878-27.449 8.504-27.984-4.503-.534-13.006 9.935-21.07 4.942-24.072-2.767-1.667-3.555 1.272-4.923 5.558-4.185 13.134-27.8882 16.263-16.9808 35.273s5.088 14.882-13.2606 22.508-8.904 29.587 8.8467 29.587h106.8987c48.998 0 2.608-93.785-17.547-44.285z" fill="#ffd66f"/><path d="m83.6417 157.717c-1.4247-4.948-9.133 1.272-16.7268 8.809-7.5939 7.536-11.3399 24.74-18.6857 33.708-7.3458 8.967-28.3783 17.07-20.1548 30.566 12.1285 19.888-15.7474 38.968 17.2674 38.968h67.7152c12.383 0 25.809-15.143 6.525-25.44-19.283-10.297-48.1706 13.712-55.968-9.19-3.8668-11.366 10.176-6.151 3.6698-24.76-6.5063-18.609-6.0738-23.678-2.7603-31.972 8.0645-20.212 21.3124-13.171 19.1182-20.689z" fill="#3661c0"/><path d="m83.6417 157.717c-1.4247-4.948-9.133 1.272-16.7268 8.809-7.5939 7.536-11.3399 24.74-18.6857 33.708-7.3458 8.967-28.3783 17.07-20.1548 30.566 12.1285 19.888-15.7474 38.968 17.2674 38.968h67.7152c12.383 0 25.809-15.143 6.525-25.44-19.283-10.297-48.1706 13.712-55.968-9.19-3.8668-11.366 10.176-6.151 3.6698-24.76-6.5063-18.609-6.0738-23.678-2.7603-31.972 8.0645-20.212 21.3124-13.171 19.1182-20.689z" fill="#ffd66f"/><path d="m97.6781 160c1.679-3.065 7.4409-1.227 7.3139 2.786s-15.0477 9.273-12.2747 23.131c2.7729 13.859 29.4087 14.851 35.6607 28.735s-17.967 15.83-10.742 24.511c7.225 8.682 29.523-11.257 45.41-6.131 15.887 5.127 31.762 36.717 2.62 36.717h-89.7964c-19.5252 0-33.7843-40.316-15.0223-56.903s3.6252-11.2 10.6275-21.828c7.0024-10.627 19.7606-19.264 26.2033-31.018z" fill="#3661c0"/><path d="m97.6781 160c1.679-3.065 7.4409-1.227 7.3139 2.786s-15.0477 9.273-12.2747 23.131c2.7729 13.859 29.4087 14.851 35.6607 28.735s-17.967 15.83-10.742 24.511c7.225 8.682 29.523-11.257 45.41-6.131 15.887 5.127 31.762 36.717 2.62 36.717h-89.7964c-19.5252 0-33.7843-40.316-15.0223-56.903s3.6252-11.2 10.6275-21.828c7.0024-10.627 19.7606-19.264 26.2033-31.018z" fill="#ffbb0d"/></g></svg>