<svg fill="none" height="358" viewBox="0 0 250 358" width="250" xmlns="http://www.w3.org/2000/svg"><circle cx="125" cy="179" fill="#e2f3ff" r="125"/><path d="m119.93 145.341c-.962.048-4.605.218-6.122.343-.713.059-3.056.584-4.668 1.708-1.868 1.303-3.356 2.244-5.847 3.543.869.217 18.39-2.541 18.39-2.541z" fill="#022359"/><path d="m157.306 232.207c-1.559 7.386-18.355 14.528-40.708 15.551-29.4483 1.348-39.5532-12.102-38.7833-19.918.7399-7.512 9.9124-19.44 40.4193-17.322 22.323 1.549 41.189 11.659 39.072 21.689z" fill="#aaa"/><path d="m154.154 224.941c.271 10.484-2.291 13.046-6.784 13.605-4.928.614-9.071-1.395-9.239-3.609.265-1.034 15.013-11.079 16.023-9.996z" fill="#022359"/><path d="m122.915 236.776c.307-.506-24.3371-14.782-30.1516-16.723 1.556 2.362 7.6066 8.927 8.1486 11.131.541 2.204.577 9.167 5.341 11.404 3.944 1.853 9.816 1.612 12.12-1.606.549-.768 2.097-4.66 4.542-4.206z" fill="#022359"/><path d="m164.476 185.063c5.437 25.936-8.049 47.233-29.593 51.246-11.209 2.088-23.814-.44-34.068-8.301-7.7053-5.907-14.2534-14.893-16.9374-26.826-6.2993-28.008 7.9384-49.509 29.2804-53.724 22.784-4.499 46.467 14.465 51.318 37.605z" fill="#244d8f"/><path d="m164.476 185.063c3.285 15.67-.338 29.647-8.472 39.142-.189.22-.373.446-.575.655-8.492 8.778-38.649 7.937-50.187-26.757-12.6483-38.036 3.657-50.248 10.779-51.088.654-.077 1.309-.128 1.963-.165 21.204-1.196 41.983 16.705 46.492 38.213z" fill="#4876d3"/><path d="m133.031 166.778c.058.119.392.963.553 1.468.337 1.058-3.289 1.753-5.654.288-2.43-1.504-10.567-5.358-13.726-6.279-9.238-2.695-14.7841-2.451-14.7841-2.451l8.9021-9.916s2.743-.228 6.135-.264 7.867.457 7.867.457z" fill="#244d8f"/><path d="m138.492 206.5c0 .649 2.284 2.574 3.428 2.49 1.949-.145-4.691 2.273-5.052 8.841-.361 6.569 5.774 8.95 5.774 8.95s-4.041-1.667-4.8-1.443c-17.864 5.269-16.54-4.187-15.003-7.233 1.841-3.645 6.49-8.234 13.957-10.703.732-.242 1.696-.902 1.696-.902z" fill="#244d8f"/><path d="m79.4241 104.36c3.5048-2.729 8.2903-6.0654 8.2903-6.0654l17.8276 29.8584s-4.397-2.858-9.7394-7.482c-5.8593-5.07-12.8528-12.115-16.3785-16.311z" fill="#b4fcdd"/><path d="m84.8381 104.815c3.5048-2.729 8.2903-6.0656 8.2903-6.0656l17.8276 29.8586s-4.397-2.858-9.739-7.482c-5.8597-5.07-12.8533-12.115-16.3789-16.311z" fill="#5dc194"/><path d="m90.3478 108.235c2.1929-.409 3.7088-2.145 3.3858-3.877s-2.3625-2.805-4.5554-2.396c-2.193.409-3.7089 2.144-3.3859 3.877.323 1.732 2.3625 2.805 4.5555 2.396z" fill="#5dc194"/><path d="m84.85 91.8578c11.4244-2.0894 22.512-5.5606 27.432-7.8186 1.719 3.5722 3.943 7.9365 3.943 7.9365l9.194 66.8233-2.597-3.686s-3.564-7.987-11.197-19.007c-3.822-5.518-11.387-13.517-14.053-17.288-1.8486-2.615-3.0778-7.031-5.3078-10.717-4.8026-7.936-7.6332-15.7555-7.4142-16.2432z" fill="#f9d0b4"/><path d="m93.4509 100.61c2.4694.602 4.8566-.492 5.3321-2.4426.4754-1.9507-1.141-4.0199-3.6104-4.6217-2.4694-.6019-4.8566.4916-5.332 2.4423s1.141 4.02 3.6103 4.622z" fill="#e0a277"/><path d="m89.2289 94.5683c8.8481-1.7081 17.5701-4.3288 21.8521-5.8093 1.458 3.0292 4.166 7.8503 4.166 7.8503s-5.534-3.3015-6.63-3.5625c-1.653.4719-9.9997 2.7856-15.1305 4.0998.7625 1.6631 2.3284 5.0534 4.0597 8.8064 1.2808 2.776 2.9828 7.197 4.9538 9.807 5.384 7.127 9.454 12.965 9.454 12.965l11.675 22.607-2.202-3.126s-3.477-6.27-9.727-15.765c-3.661-5.562-9.66-11.883-11.9212-15.081-1.5674-2.217-3.0884-6.706-4.8052-9.93-3.4857-6.546-5.9303-12.448-5.7447-12.8617z" fill="#e0a277"/><path d="m96.7124 93.3404c12.1656.775 32.3576-4.1789 39.3286-4.954.337 3.7071 1.314 10.4134 1.314 10.4134s-10.817 62.3802-10.817 62.0772c0-.072-.497-.975-1.276-2.355-1.893-5.111-7.919-13.775-9.138-16.249-.74-1.501-3.52-7.337-4.853-11.02-.943-2.603-6.789-13.083-7.92-15.94-1.921-4.853-6.0658-13.986-6.6386-21.9726z" fill="#b4fcdd"/><path d="m100.857 96.98c12.806-.9436 25.597-2.9978 32.555-3.9332.816 5.6682 1.719 10.4712 1.719 10.4712l-5.583-.658s1.689-5.3431 1.014-5.5454c-5.526.9437-16.048 2.3221-24.777 3.1564.246 3.226 2.246 9.41 5.316 16.804 1.998 4.81 4.403 9.608 6.64 14.927 6.591 15.666 12.639 31.466 12.639 31.354 0-.072-.497-.975-1.276-2.354-1.893-5.112-7.919-13.776-9.139-16.25-.739-1.501-3.519-7.336-4.853-11.02-.942-2.603-6.451-13.302-7.582-16.159-1.921-4.853-5.128-12.764-6.673-20.793z" fill="#5dc194"/><path d="m131.526 139.579c-2.078 1.024-4.33 1.593-6.455 1.38-6.391-.641-10.454-4.985-9.99-9.605.463-4.619 5.877-6.747 12.299-6.832 4.391-.059 8.392.555 10.519 2.267-2.646 5.019-4.462 9.469-6.373 12.79z" fill="#5dc194"/><path d="m131.188 166.613c-.43.695-2.376.582-2.781.063-.709-.908-1.365-4.284-1.365-4.284s-4.6-13.786-6.302-19.243c-1.586-5.088-3.302-29.791.641-50.8195 2.426 5.1057 21.164 6.538 38.283 2.5951-2.19 11.4584-10.379 31.7284-13.21 38.0984-2.831 6.369-11.464 21.638-15.266 33.59z" fill="#f9e19d"/><path d="m147.53 170.921c2.274-.866 8.426 2.027 6.889 2.714-5.704 2.547-8.291 12.847-9.792 12.775s-1.144-13.947 2.903-15.489z" fill="#244d8f"/><path d="m108.707 174.07c1.753-2.11 4.61 5.172 3.896 6.425-5.918 10.394-6.482 21.228-7.108 22.431-.625 1.203-3.428-20.861 3.212-28.856z" fill="#244d8f"/><g fill="#0c0e11"><path d="m132.412 198.496c.881-.199 1.427-1.107 1.219-2.027-.209-.92-1.092-1.504-1.973-1.305-.882.2-1.427 1.107-1.219 2.027s1.092 1.505 1.973 1.305z"/><path d="m147.841 196.538c.896-.11 1.531-.957 1.417-1.894-.115-.936-.934-1.607-1.831-1.497-.897.109-1.531.957-1.417 1.893.114.937.934 1.607 1.831 1.498z"/><path d="m145.076 222.172c.663-.016 1.185-.705 1.165-1.541-.019-.835-.573-1.5-1.236-1.484-.663.015-1.185.705-1.166 1.54.02.836.574 1.5 1.237 1.485z"/><path d="m148.765 221.053c.663.027 1.228-.628 1.262-1.463s-.475-1.534-1.138-1.561-1.228.628-1.262 1.463.475 1.534 1.138 1.561z"/></g><path d="m140.212 211.333c3.632-4.521 8.942-3.925 11.447-1.981 3.657 2.839 2.907 10.903.727 13.243-1.37 1.471-2.249 1.977-.565.192 1.653-1.752 2.098-9.848-1.528-12.534-1.949-1.444-6.449-2.13-9.924 1.443-.587.603-1.305 1.066-.157-.363z" fill="#8cacea"/><path d="m160.29 188.726c.598-4.006.741-15.361-3.97-15.361-2.743 0-6.568 5.562-6.244 5.635.325.073 2.527-3.176 6.28-3.501 3.76-.325 3.844 13.825 3.934 13.227z" fill="#8cacea"/><path d="m129.541 187.95c-1.336-3.99-11.479-10.971-15.196-8.733-2.085 1.254-5.544 13.977-5.702 15.638-.047.493 3.281-11.289 6.46-13.148 3.597-2.104 14.617 6.78 14.438 6.243z" fill="#8cacea"/><path d="m153.991 103.715c-5.998 1.781-15.592 3.308-26.93.766-.929 6.249-3.456 29.367-2.715 40.69.705 10.768 2.747 17.879 2.747 17.879s-4.049-12.816-5.004-18.451c-.669-3.943-1.011-25.916 2.224-45.3945 7.549 3.5725 20.036 3.3865 32.017.4044-1.002 11.9221-8.36 29.6731-11.19 36.0421 4.058-9.79 8.177-21.691 8.851-31.936z" fill="#e7a134"/><path d="m139.411 147.263c-2.078 1.024-4.33 1.593-6.454 1.38-6.391-.641-10.454-4.986-9.991-9.605.463-4.62 5.877-6.747 12.3-6.832 4.39-.059 8.392.555 10.519 2.267-2.646 5.018-4.462 9.468-6.374 12.79z" fill="#e7a134"/><path d="m127.082 107.969c2.653.647 5.218-.528 5.729-2.624.511-2.095-1.226-4.319-3.879-4.965-2.653-.6469-5.218.528-5.729 2.624s1.226 4.319 3.879 4.965z" fill="#e7a134"/><path d="m152.045 100.282c1.917-.6737 3.871-.372 4.151 1.509.234 1.567-.75 3.871-2.72 5.115s-4.412.05-4.899-1.631c-.53-1.827 1.27-4.221 3.468-4.993z" fill="#e7a134"/><path d="m104.827 103.997c2.653.647 5.218-.528 5.729-2.624.511-2.0957-1.226-4.3189-3.879-4.9656-2.653-.6466-5.218.5282-5.729 2.6241-.511 2.0955 1.226 4.3195 3.879 4.9655z" fill="#5dc194"/><path d="m141.485 135.972c-.204.053-.396.138-.58.238-1.23.322-2.479.542-3.738.683.229-.647.479-1.285.771-1.909.119-.254-.648-.06-.704-.044-.279.08-.875.241-1.016.54-.238.508-.448 1.026-.642 1.55-.45.028-.901.048-1.353.059.152-.624.28-1.254.36-1.896.024-.191-.901.084-.948.101-.221.08-.757.247-.792.533-.053.428-.13.851-.22 1.272-1.722-.021-3.444-.137-5.146-.292-.282-.026-.55.493-.662.687-.027.047-.461.899-.264.917 1.872.171 3.77.295 5.666.301-.215.771-.446 1.538-.643 2.312-.011.04-.021.081-.031.121-.135.051-.27.101-.405.15-.646.236-1.3.44-1.958.64-.452.138-.894.287-1.356.351.017-.116 0-.194-.092-.155-.141.059-.277.126-.417.185-.024.01-.051.029-.08.054-.22-.026-.437-.066-.654-.129-.425-.124-1.132 1.544-.926 1.604.583.17 1.182.179 1.784.175.721-.004 1.439.034 2.159.049.377.007.753.004 1.129-.008-.203.574-.442 1.134-.745 1.669-.138.243.661.057.704.044.302-.087.845-.239 1.016-.54.233-.411.428-.838.598-1.274.394-.036.788-.081 1.181-.131-.24.735-.529 1.447-.937 2.086-.149.234.669.055.705.044.317-.091.824-.239 1.015-.54.362-.568.629-1.191.852-1.837 1.084-.196 2.161-.462 3.191-.841.361-.133.771-.228 1.108-.419.222-.126.382-.323.518-.537.16-.252.531-.763.423-1.09-.046-.142-.193-.03-.326.114-.184.093-.428.141-.613.195-.613.178-1.199.428-1.822.587-.666.169-1.335.31-2.009.428.141-.513.279-1.024.435-1.516.015-.048.03-.096.045-.143.547-.291 1.088-.592 1.622-.907.541-.319 1.077-.649 1.579-1.027.283-.212.564-.44.872-.613.172-.045.343-.092.513-.141.287-.082.523-.53.663-.813.035-.07.066-.134.092-.186.026-.053.349-.772.078-.701zm-8.15 4.394c.144-.563.303-1.121.461-1.679.413-.014.826-.036 1.238-.065-.13.41-.255.821-.38 1.232-.442.206-.889.403-1.339.591.007-.026.013-.053.02-.079zm.602 1.897c-.007.001-.014.002-.021.003-.366.044-.731.08-1.097.109.046-.166.091-.334.135-.501.394-.172.784-.349 1.17-.534.028-.013.057-.027.085-.041-.094.317-.183.639-.272.964zm2.568-3.327c.048-.155.096-.311.144-.466.325-.039.649-.083.972-.134-.368.207-.741.405-1.116.6z" fill="#ba6111"/></svg>