<svg fill="none" height="250" viewBox="0 0 250 250" width="250" xmlns="http://www.w3.org/2000/svg"><circle cx="125" cy="125" fill="#e2f3ff" r="125"/><g fill="#407bff"><path d="m84.5571 104.801c-.2471-.016-.4788-.125-.6481-.306s-.2635-.419-.2635-.667c0-.247.0942-.486.2635-.667.1693-.18.401-.29.6481-.306 2.384 0 4.3929-3.4136 4.3929-7.4564.0162-.2471.1258-.4788.3065-.6481s.4191-.2635.6667-.2635c.2477 0 .486.0942.6668.2635.1807.1693.2903.401.3064.6481 0 5.2724-2.7758 9.4024-6.3393 9.4024z"/><path d="m99.2656 104.801c-.2471-.016-.4788-.125-.6481-.306s-.2635-.419-.2635-.667c0-.247.0942-.486.2635-.667.1693-.18.401-.29.6481-.306 2.3844 0 4.3934-3.4136 4.3934-7.4564.016-.2471.125-.4788.306-.6481s.419-.2635.667-.2635c.247 0 .486.0942.666.2635.181.1693.291.401.307.6481.021 5.2724-2.784 9.4024-6.3394 9.4024z"/><path d="m113.962 104.801c-.247-.016-.479-.125-.648-.306-.17-.181-.264-.419-.264-.667 0-.247.094-.486.264-.667.169-.18.401-.29.648-.306 2.379 0 4.393-3.4135 4.393-7.4564 0-.2575.102-.5046.284-.6867s.429-.2844.687-.2844c.257 0 .504.1023.686.2844s.285.4292.285.6867c.012 5.2724-2.768 9.4024-6.335 9.4024z"/><path d="m128.683 104.801c-.134.009-.267-.01-.393-.055-.125-.045-.24-.115-.338-.206-.097-.091-.175-.201-.228-.324-.053-.122-.08-.254-.08-.388 0-.133.027-.265.08-.388.053-.122.131-.232.228-.324.098-.091.213-.161.338-.206.126-.045.259-.064.393-.055 2.379 0 4.393-3.4135 4.393-7.4564 0-.2575.102-.5046.284-.6867s.429-.2844.687-.2844c.257 0 .504.1023.686.2844s.285.4292.285.6867c0 5.2724-2.784 9.4024-6.335 9.4024z"/><path d="m143.387 104.801c-.247-.016-.479-.125-.648-.306s-.264-.419-.264-.667c0-.247.095-.486.264-.667.169-.18.401-.29.648-.306 2.384 0 4.393-3.4136 4.393-7.4564.016-.2471.126-.4788.306-.6481.181-.1693.419-.2635.667-.2635s.486.0942.667.2635.29.401.306.6481c0 5.2724-2.784 9.4024-6.339 9.4024z"/><path d="m158.095 104.801c-.247-.016-.478-.125-.648-.306-.169-.181-.263-.419-.263-.667 0-.247.094-.486.263-.667.17-.18.401-.29.648-.306 2.38 0 4.393-3.4136 4.393-7.4564.017-.2471.126-.4788.307-.6481s.419-.2635.667-.2635c.247 0 .486.0942.666.2635.181.1693.291.401.307.6481 0 5.2724-2.784 9.4024-6.34 9.4024z"/></g><g fill="#000" opacity=".3"><path d="m84.5571 104.801c-.2471-.016-.4788-.125-.6481-.306s-.2635-.419-.2635-.667c0-.247.0942-.486.2635-.667.1693-.18.401-.29.6481-.306 2.384 0 4.3929-3.4135 4.3929-7.4564.0162-.2471.1258-.4788.3065-.6481.1807-.1692.4191-.2634.6667-.2634.2477 0 .486.0942.6668.2634.1807.1693.2903.401.3064.6481 0 5.2724-2.7758 9.4024-6.3393 9.4024z" opacity=".3"/><path d="m99.2656 104.801c-.2471-.016-.4788-.125-.6481-.306s-.2635-.419-.2635-.667c0-.247.0942-.486.2635-.667.1693-.18.401-.29.6481-.306 2.3844 0 4.3934-3.4135 4.3934-7.4564.016-.2471.125-.4788.306-.6481.181-.1692.419-.2634.667-.2634.247 0 .486.0942.666.2634.181.1693.291.401.307.6481.021 5.2724-2.784 9.4024-6.3394 9.4024z" opacity=".3"/><path d="m113.962 104.801c-.247-.016-.479-.125-.648-.306-.17-.181-.264-.419-.264-.667 0-.247.094-.486.264-.667.169-.18.401-.29.648-.306 2.379 0 4.393-3.4135 4.393-7.4564 0-.2575.102-.5046.284-.6867s.429-.2844.687-.2844c.257 0 .504.1023.686.2844s.285.4292.285.6867c.012 5.2724-2.768 9.4024-6.335 9.4024z" opacity=".3"/><path d="m128.683 104.801c-.134.009-.267-.01-.393-.055-.125-.045-.24-.115-.338-.206-.097-.091-.175-.201-.228-.324-.053-.122-.08-.254-.08-.388 0-.133.027-.265.08-.388.053-.122.131-.232.228-.324.098-.091.213-.161.338-.206.126-.045.259-.064.393-.055 2.379 0 4.393-3.4135 4.393-7.4564 0-.2575.102-.5046.284-.6867s.429-.2844.687-.2844c.257 0 .504.1023.686.2844s.285.4292.285.6867c0 5.2724-2.784 9.4024-6.335 9.4024z" opacity=".3"/><path d="m143.387 104.801c-.247-.016-.479-.125-.648-.306s-.264-.419-.264-.667c0-.247.095-.486.264-.667.169-.18.401-.29.648-.306 2.384 0 4.393-3.4135 4.393-7.4564.016-.2471.126-.4788.306-.6481.181-.1692.419-.2634.667-.2634s.486.0942.667.2634c.181.1693.29.401.306.6481 0 5.2724-2.784 9.4024-6.339 9.4024z" opacity=".3"/><path d="m158.095 104.801c-.247-.016-.478-.125-.648-.306-.169-.181-.263-.419-.263-.667 0-.247.094-.486.263-.667.17-.18.401-.29.648-.306 2.38 0 4.393-3.4135 4.393-7.4564.017-.2471.126-.4788.307-.6481.181-.1692.419-.2634.667-.2634.247 0 .486.0942.666.2634.181.1693.291.401.307.6481 0 5.2724-2.784 9.4024-6.34 9.4024z" opacity=".3"/></g><path d="m75.3421 96.3947h94.6859c1.27.0254 2.486.5133 3.422 1.3719.935.8587 1.525 2.0293 1.659 3.2924l5.243 59.113c.064.593.001 1.193-.184 1.76-.186.567-.49 1.088-.891 1.529-.402.441-.893.791-1.441 1.028-.547.237-1.139.355-1.735.347h-94.6905c-1.269-.028-2.4847-.516-3.4197-1.374-.9351-.859-1.5255-2.028-1.661-3.29l-5.239-59.113c-.0645-.594-.0021-1.1939.1831-1.7612.1851-.5673.4888-1.0888.8908-1.5298.402-.4411.8932-.7916 1.441-1.0284.5478-.2367 1.1397-.3543 1.7364-.3449z" fill="#407bff"/><path d="m75.3421 96.3947h94.6859c1.27.0254 2.486.5133 3.422 1.3719.935.8587 1.525 2.0293 1.659 3.2924l5.243 59.113c.064.593.001 1.193-.184 1.76-.186.567-.49 1.088-.891 1.529-.402.441-.893.791-1.441 1.028-.547.237-1.139.355-1.735.347h-94.6905c-1.269-.028-2.4847-.516-3.4197-1.374-.9351-.859-1.5255-2.028-1.661-3.29l-5.239-59.113c-.0645-.594-.0021-1.1939.1831-1.7612.1851-.5673.4888-1.0888.8908-1.5298.402-.4411.8932-.7916 1.441-1.0284.5478-.2367 1.1397-.3543 1.7364-.3449z" fill="#fafafa" opacity=".4"/><path d="m169.24 96.3947h-94.69c-1.2524.0149-2.4525.5047-3.3577 1.3705-.9052.8657-1.448 2.0428-1.5187 3.2938l-2.6674 59.113c-.0318.602.0597 1.204.2688 1.77.2092.566.5317 1.082.9476 1.519.416.437.9167.784 1.4715 1.02.5548.237 1.152.357 1.755.355h94.6989c1.252-.015 2.452-.505 3.358-1.371.905-.866 1.448-2.043 1.518-3.293l2.672-59.113c.031-.604-.061-1.2067-.271-1.7729-.211-.5662-.534-1.0835-.951-1.5201-.418-.4367-.919-.7836-1.475-1.0194s-1.155-.3555-1.759-.3519z" fill="#407bff"/><path d="m169.24 96.3947h-94.69c-1.2524.0149-2.4525.5047-3.3577 1.3705-.9052.8657-1.448 2.0428-1.5187 3.2938l-2.6674 59.113c-.0318.602.0597 1.204.2688 1.77.2092.566.5317 1.082.9476 1.519.416.437.9167.784 1.4715 1.02.5548.237 1.152.357 1.755.355h94.6989c1.252-.015 2.452-.505 3.358-1.371.905-.866 1.448-2.043 1.518-3.293l2.672-59.113c.031-.604-.061-1.2067-.271-1.7729-.211-.5662-.534-1.0835-.951-1.5201-.418-.4367-.919-.7836-1.475-1.0194s-1.155-.3555-1.759-.3519z" fill="#25314d" opacity=".2"/><path d="m76.2882 149.214 2.2048-48.818c.0264-.479.2341-.9299.5809-1.2612s.8067-.5182 1.2863-.5228h82.8698c.231-.0014.46.0444.673.1345.213.0902.405.2228.564.3899.16.167.284.3649.364.5815.081.2165.116.4471.104.6781l-2.209 48.818c-.026.479-.234.93-.581 1.261-.347.332-.807.519-1.286.523h-82.8662c-.231.002-.4599-.044-.6726-.134s-.4048-.223-.5644-.39-.2834-.365-.3638-.582c-.0804-.216-.1158-.447-.1038-.678z" fill="#407bff"/><path d="m71.7993 157.333 2.4132-53.474c.0324-.522.2606-1.014.639-1.376.3785-.362.8795-.569 1.4033-.578h90.7812c.253-.002.504.047.737.146s.444.244.619.427.31.4.398.638c.088.237.126.491.113.743l-2.426 53.474c-.032.523-.26 1.015-.639 1.377-.378.362-.879.569-1.403.578h-90.7685c-.2534.003-.5047-.047-.7382-.145-.2336-.098-.4444-.244-.6195-.427s-.3106-.401-.3983-.638c-.0876-.238-.1255-.492-.1112-.745z" fill="#fafafa"/><path d="m158.083 105.11c-.171 0-.34-.035-.497-.102-.157-.068-.298-.166-.415-.291-.117-.124-.208-.271-.266-.431-.058-.161-.083-.331-.073-.502.016-.334.159-.65.4-.882.241-.233.562-.364.897-.368.17 0 .339.034.496.102.157.067.298.166.415.29.117.125.208.271.266.432.058.16.083.331.073.501-.016.335-.159.65-.4.883-.241.232-.562.364-.896.368z" fill="#407bff"/><path d="m143.374 105.11c-.17 0-.339-.035-.496-.102-.157-.068-.298-.166-.415-.291-.117-.124-.208-.271-.266-.431-.058-.161-.083-.331-.073-.502.016-.334.159-.65.4-.882.241-.233.562-.364.896-.368.171 0 .34.034.497.102.157.067.298.166.415.29.117.125.208.271.266.432.058.16.083.331.073.501-.015.335-.158.651-.399.884s-.563.364-.898.367z" fill="#407bff"/><path d="m128.666 105.11c-.171 0-.34-.035-.497-.102-.156-.068-.298-.166-.415-.291-.117-.124-.207-.271-.266-.431-.058-.161-.083-.331-.072-.502.016-.334.16-.649.401-.881.24-.232.56-.364.895-.369.171 0 .339.034.496.102.157.067.298.166.416.29.117.125.207.271.265.432.059.16.083.331.073.501-.015.335-.158.651-.399.884s-.562.364-.897.367z" fill="#407bff"/><path d="m113.962 105.11c-.171 0-.34-.035-.497-.102-.157-.068-.298-.166-.415-.291-.117-.124-.208-.271-.266-.431-.058-.161-.083-.331-.073-.502.018-.334.162-.649.404-.881.241-.232.562-.364.897-.369.17 0 .339.034.496.102.157.067.298.166.415.29.118.125.208.271.266.432.058.16.083.331.073.501-.015.336-.158.653-.4.885-.242.233-.565.364-.9.366z" fill="#407bff"/><path d="m99.2531 105.11c-.1707 0-.3397-.035-.4965-.102-.1568-.068-.2981-.166-.4153-.291-.1171-.124-.2076-.271-.2658-.431-.0582-.161-.083-.331-.0728-.502.016-.334.159-.65.4-.882.2409-.233.5615-.364.8963-.368.1707 0 .3396.034.4964.102.1568.067.2986.166.4156.29.117.125.207.271.266.432.058.16.083.331.072.501-.016.335-.159.65-.4.883-.2405.232-.5611.364-.8959.368z" fill="#407bff"/><path d="m84.5446 105.11c-.1707 0-.3397-.035-.4965-.102-.1568-.068-.2981-.166-.4153-.291-.1171-.124-.2076-.271-.2658-.431-.0582-.161-.083-.331-.0728-.502.016-.334.159-.65.4-.882.2409-.233.5615-.364.8963-.368.1707 0 .3396.034.4964.102.1568.067.2982.166.4153.29.1172.125.2076.271.2659.432.0582.16.083.331.0727.501-.0149.335-.1576.651-.3988.884-.2411.233-.5623.364-.8974.367z" fill="#407bff"/><g fill="#fafafa" opacity=".1"><path d="m158.083 105.11c-.171 0-.34-.035-.497-.102-.157-.068-.298-.166-.415-.291-.117-.124-.208-.271-.266-.431-.058-.161-.083-.331-.073-.502.016-.334.159-.65.4-.882.241-.233.562-.364.897-.368.17 0 .339.034.496.102.157.067.298.166.415.29.117.125.208.271.266.432.058.16.083.331.073.501-.016.335-.159.65-.4.883-.241.232-.562.364-.896.368z" opacity=".1"/><path d="m143.374 105.11c-.171 0-.339-.035-.496-.102-.157-.068-.298-.166-.416-.291-.117-.124-.207-.271-.265-.431-.059-.161-.083-.331-.073-.502.016-.334.159-.65.4-.882.241-.233.561-.364.896-.368.171 0 .34.034.497.102.156.067.298.166.415.29.117.125.207.271.266.432.058.16.083.331.072.501-.015.335-.157.651-.398.884-.242.233-.563.364-.898.367z" opacity=".1"/><path d="m128.666 105.11c-.171 0-.34-.035-.497-.102-.157-.068-.298-.166-.415-.291-.117-.124-.208-.271-.266-.431-.058-.161-.083-.331-.073-.502.017-.334.161-.649.401-.881.241-.232.561-.364.896-.369.17 0 .339.034.496.102.157.067.298.166.415.29.117.125.208.271.266.432.058.16.083.331.073.501-.015.335-.158.651-.399.884s-.562.364-.897.367z" opacity=".1"/><path d="m113.961 105.11c-.17 0-.339-.035-.496-.102-.157-.068-.298-.166-.415-.291-.118-.124-.208-.271-.266-.431-.058-.161-.083-.331-.073-.502.018-.334.162-.649.404-.881.241-.232.562-.364.896-.369.171 0 .34.034.497.102.157.067.298.166.415.29.117.125.208.271.266.432.058.16.083.331.073.501-.015.336-.159.653-.401.885-.242.233-.564.364-.9.366z" opacity=".1"/><path d="m99.2531 105.11c-.1707 0-.3397-.035-.4965-.102-.1568-.068-.2981-.166-.4153-.291-.1171-.124-.2076-.271-.2658-.431-.0582-.161-.083-.331-.0728-.502.016-.334.159-.65.4-.882.2409-.233.5615-.364.8963-.368.1707 0 .3396.034.4964.102.1568.067.2986.166.4156.29.117.125.207.271.266.432.058.16.083.331.072.501-.016.335-.159.65-.4.883-.2405.232-.5611.364-.8959.368z" opacity=".1"/><path d="m84.5446 105.11c-.1707 0-.3397-.035-.4965-.102-.1568-.068-.2981-.166-.4153-.291-.1171-.124-.2076-.271-.2658-.431-.0582-.161-.083-.331-.0728-.502.016-.334.159-.65.4-.882.2409-.233.5615-.364.8963-.368.1707 0 .3396.034.4964.102.1568.067.2982.166.4153.29.1172.125.2076.271.2659.432.0582.16.083.331.0727.501-.0149.335-.1576.651-.3988.884-.2411.233-.5623.364-.8974.367z" opacity=".1"/></g><path d="m88.2206 109.769h-7.398c-.1072.001-.2135-.02-.3121-.062-.0985-.043-.1873-.105-.2605-.183-.0733-.079-.1295-.171-.1651-.272-.0356-.102-.0498-.209-.0417-.316.0083-.219.0987-.426.2533-.58.1546-.155.3619-.245.5803-.254h7.398c.1073-.001.2135.021.3121.063s.1873.105.2605.183c.0733.078.1295.171.1651.272s.0498.209.0417.316c-.0083.218-.0987.426-.2533.58-.1546.155-.3618.245-.5803.253z" fill="#407bff"/><path d="m102.929 109.769h-7.3979c-.1072.001-.2135-.02-.3121-.062-.0986-.043-.1873-.105-.2605-.183-.0733-.079-.1295-.171-.1651-.272-.0356-.102-.0498-.209-.0417-.316.0085-.222.1019-.432.2609-.587s.3714-.244.5935-.247h7.3939c.107-.001.214.021.313.063.098.042.187.105.261.183.073.078.13.171.166.272s.051.209.044.316c-.009.222-.102.432-.261.587s-.372.243-.594.246z" fill="#407bff"/><path d="m117.638 109.769h-7.398c-.108.001-.214-.02-.313-.062-.099-.043-.188-.105-.261-.183-.074-.078-.13-.171-.166-.272s-.051-.209-.044-.316c.009-.222.102-.432.261-.587s.372-.244.594-.247h7.402c.107-.001.213.021.312.063.098.042.187.105.26.183.074.078.13.171.165.272.036.101.05.209.042.316-.007.222-.1.433-.26.588-.159.156-.372.243-.594.245z" fill="#407bff"/><path d="m132.342 109.769h-7.398c-.107.001-.214-.02-.312-.062-.099-.043-.187-.105-.261-.183-.073-.079-.129-.171-.165-.272-.035-.102-.05-.209-.041-.316.008-.219.098-.426.253-.58.154-.155.362-.245.58-.254h7.398c.107-.001.214.021.312.063.099.042.188.105.261.183s.129.171.165.272c.035.101.05.209.042.316-.009.218-.099.426-.254.58-.154.155-.362.245-.58.253z" fill="#407bff"/><path d="m147.05 109.769h-7.398c-.107.001-.213-.02-.312-.062-.098-.043-.187-.105-.26-.183-.073-.079-.13-.171-.165-.272-.036-.102-.05-.209-.042-.316.009-.222.102-.432.261-.587s.371-.244.593-.247h7.398c.108-.001.214.021.313.063.098.042.187.105.26.183s.13.171.165.272c.036.101.05.209.042.316-.009.222-.102.432-.261.587s-.371.243-.594.246z" fill="#407bff"/><path d="m161.759 109.769h-7.398c-.107.001-.214-.02-.312-.062-.099-.043-.187-.105-.261-.183-.073-.079-.129-.171-.165-.272-.035-.102-.05-.209-.041-.316.008-.222.101-.432.26-.587s.372-.244.594-.247h7.394c.107-.001.214.021.312.063.099.042.188.105.262.183.073.078.13.171.166.272s.051.209.043.316c-.008.222-.102.432-.261.587s-.371.243-.593.246z" fill="#407bff"/><g fill="#000" opacity=".3"><path d="m88.2206 109.769h-7.398c-.1072.001-.2135-.02-.3121-.062-.0985-.043-.1873-.105-.2605-.183-.0733-.079-.1295-.171-.1651-.272-.0356-.102-.0498-.209-.0417-.316.0083-.219.0987-.426.2533-.58.1546-.155.3619-.245.5803-.254h7.398c.1073-.001.2135.021.3121.063s.1873.105.2605.183c.0733.078.1295.171.1651.272s.0498.209.0417.316c-.0083.218-.0987.426-.2533.58-.1546.155-.3618.245-.5803.253z" opacity=".3"/><path d="m102.929 109.769h-7.3979c-.1072.001-.2135-.02-.3121-.062-.0986-.043-.1873-.105-.2605-.183-.0733-.079-.1295-.171-.1651-.272-.0356-.102-.0498-.209-.0417-.316.0085-.222.1019-.432.2609-.587s.3714-.244.5935-.247h7.3939c.107-.001.214.021.313.063.098.042.187.105.261.183.073.078.13.171.166.272s.051.209.044.316c-.009.222-.102.432-.261.587s-.372.243-.594.246z" opacity=".3"/><path d="m117.638 109.769h-7.398c-.108.001-.214-.02-.313-.062-.099-.043-.188-.105-.261-.183-.074-.078-.131-.171-.167-.272s-.05-.209-.043-.316c.009-.222.102-.432.261-.587s.371-.244.593-.247h7.403c.107-.001.213.021.312.063.098.042.187.105.26.183s.13.171.165.272c.036.101.05.209.042.316-.008.222-.101.433-.26.588-.159.156-.372.243-.594.245z" opacity=".3"/><path d="m132.342 109.769h-7.398c-.107.001-.214-.02-.312-.062-.099-.043-.187-.105-.261-.183-.073-.079-.129-.171-.165-.272-.035-.102-.05-.209-.041-.316.008-.219.098-.426.253-.58.154-.155.362-.245.58-.254h7.398c.107-.001.214.021.312.063.099.042.188.105.261.183s.129.171.165.272c.035.101.05.209.042.316-.009.218-.099.426-.254.58-.154.155-.362.245-.58.253z" opacity=".3"/><path d="m147.05 109.769h-7.398c-.107.001-.213-.02-.312-.062-.098-.043-.187-.105-.26-.183-.073-.079-.13-.171-.165-.272-.036-.102-.05-.209-.042-.316.009-.222.102-.432.261-.587s.371-.244.593-.247h7.398c.108-.001.214.021.313.063.098.042.187.105.26.183s.13.171.165.272c.036.101.05.209.042.316-.009.222-.102.432-.261.587s-.371.243-.594.246z" opacity=".3"/><path d="m161.759 109.769h-7.398c-.108.001-.214-.02-.312-.062-.099-.043-.188-.105-.261-.183-.073-.079-.129-.171-.165-.272-.036-.102-.05-.209-.042-.316.009-.222.102-.432.261-.587s.372-.244.594-.247h7.394c.107-.001.213.021.312.063s.188.105.261.183c.074.078.131.171.167.272s.051.209.043.316c-.008.222-.102.432-.261.587s-.371.243-.593.246z" opacity=".3"/></g><path d="m88.6291 125.512h-9.6362c-.2113 0-.4206-.042-.6151-.125-.1944-.082-.37-.204-.5159-.357-.1458-.153-.259-.334-.3326-.532-.0735-.198-.1059-.409-.0952-.62l.4168-9.636c.0253-.438.2157-.851.5328-1.154s.7374-.475 1.1761-.48h9.6361c.2114-.001.4207.041.6151.124.1945.083.37.204.5159.357s.2591.334.3327.532c.0735.198.1059.41.0951.621l-.4168 9.636c-.0262.437-.2169.849-.5338 1.152s-.7366.475-1.175.482z" fill="#407bff"/><path d="m103.338 125.512h-9.6366c-.2115.001-.4211-.041-.6158-.123-.1948-.083-.3705-.205-.5166-.358-.146-.153-.2591-.334-.3325-.532-.0733-.199-.1053-.41-.0939-.621l.4168-9.636c.0253-.438.2157-.851.5328-1.154s.7374-.475 1.1761-.48h9.6487c.211-.001.421.041.616.124.194.083.37.204.516.357s.26.334.334.532.107.409.097.621l-.438 9.636c-.024.437-.214.85-.53 1.153s-.736.475-1.174.481z" fill="#407bff"/><path d="m118.042 125.512h-9.632c-.212 0-.421-.042-.616-.125-.194-.082-.37-.204-.516-.357-.147-.153-.26-.334-.334-.532s-.107-.409-.097-.62l.417-9.636c.025-.438.215-.851.533-1.154.317-.303.737-.475 1.176-.48h9.632c.211-.002.421.04.615.123.195.082.371.204.517.357s.259.334.333.533c.073.198.105.409.093.621l-.416 9.636c-.026.437-.215.849-.532 1.152-.316.303-.735.475-1.173.482z" fill="#407bff"/><path d="m132.75 125.512h-9.619c-.212.001-.422-.041-.616-.123-.195-.083-.371-.204-.518-.357-.146-.153-.26-.335-.334-.533-.073-.198-.106-.41-.095-.621l.417-9.636c.024-.438.213-.85.53-1.153.316-.304.736-.476 1.174-.481h9.637c.211-.001.42.041.615.124.194.083.37.204.516.357.145.153.259.334.332.532.074.198.106.41.095.621l-.416 9.636c-.026.439-.217.853-.536 1.156s-.741.474-1.182.478z" fill="#407bff"/><path d="m147.459 125.512h-9.636c-.212 0-.421-.042-.615-.125-.195-.082-.37-.204-.516-.357s-.259-.334-.333-.532c-.073-.198-.106-.409-.095-.62l.417-9.636c.025-.438.215-.851.533-1.154.317-.303.737-.475 1.176-.48h9.632c.211-.002.421.04.616.123.195.082.371.204.517.357.147.153.26.334.334.532.074.199.106.41.096.622l-.417 9.636c-.026.437-.217.849-.534 1.152s-.737.475-1.175.482z" fill="#407bff"/><path d="m162.163 125.512h-9.632c-.211.001-.421-.041-.616-.123-.194-.083-.37-.205-.516-.358s-.259-.334-.333-.532c-.073-.199-.105-.41-.094-.621l.417-9.636c.026-.438.216-.851.533-1.154s.737-.475 1.176-.48h9.632c.212-.001.421.041.616.124.194.083.37.204.516.357.147.153.26.334.334.532s.107.409.097.621l-.438 9.636c-.024.435-.211.846-.525 1.149s-.731.476-1.167.485z" fill="#407bff"/><g fill="#fafafa" opacity=".8"><path d="m88.6291 125.512h-9.6362c-.2113 0-.4206-.042-.6151-.125-.1944-.082-.37-.204-.5159-.357-.1458-.153-.259-.334-.3326-.532-.0735-.198-.1059-.409-.0952-.62l.4168-9.636c.0253-.438.2157-.85.5328-1.154.3171-.303.7374-.475 1.1761-.48h9.6361c.2114-.001.4207.041.6151.124.1945.083.37.204.5159.357s.2591.334.3327.532c.0735.199.1059.41.0951.621l-.4168 9.636c-.0262.437-.2169.849-.5338 1.152s-.7366.475-1.175.482z" opacity=".8"/><path d="m103.338 125.512h-9.6366c-.2115.001-.4211-.041-.6158-.123-.1948-.083-.3705-.205-.5166-.358-.146-.153-.2591-.334-.3325-.532-.0733-.199-.1053-.41-.0939-.621l.4168-9.636c.0253-.438.2157-.851.5328-1.154s.7374-.475 1.1761-.48h9.6487c.211-.001.421.041.616.124.194.083.37.204.516.357s.26.334.334.532.107.409.097.621l-.438 9.636c-.024.437-.214.85-.53 1.153s-.736.475-1.174.481z" opacity=".8"/><path d="m118.042 125.512h-9.632c-.212 0-.421-.042-.616-.125-.194-.082-.37-.204-.516-.357-.147-.153-.26-.334-.334-.532s-.107-.409-.097-.62l.417-9.636c.025-.438.215-.851.533-1.154.317-.303.737-.475 1.176-.48h9.632c.211-.002.421.04.615.123.195.082.371.204.517.357s.259.334.333.533c.073.198.105.409.093.621l-.416 9.636c-.026.437-.215.849-.532 1.152-.316.303-.735.475-1.173.482z" opacity=".8"/><path d="m132.75 125.512h-9.619c-.212.001-.422-.041-.616-.123-.195-.083-.371-.204-.518-.357-.146-.153-.26-.335-.334-.533-.073-.198-.106-.41-.095-.621l.417-9.636c.024-.438.213-.85.53-1.153.316-.304.736-.476 1.174-.481h9.637c.211-.001.42.041.615.124.194.083.37.204.516.357.145.153.259.334.332.532.074.198.106.41.095.621l-.416 9.636c-.026.439-.217.853-.536 1.156s-.741.474-1.182.478z" opacity=".8"/><path d="m147.459 125.512h-9.636c-.212 0-.421-.042-.615-.125-.195-.082-.37-.204-.516-.357s-.259-.334-.333-.532c-.073-.198-.106-.409-.095-.62l.417-9.636c.025-.438.215-.851.533-1.154.317-.303.737-.475 1.176-.48h9.632c.211-.002.421.04.616.123.195.082.371.204.517.357.147.153.26.334.334.532.074.199.106.41.096.622l-.417 9.636c-.026.437-.217.849-.534 1.152s-.737.475-1.175.482z" opacity=".8"/><path d="m162.163 125.512h-9.632c-.211.001-.421-.041-.616-.123-.194-.083-.37-.205-.516-.358s-.259-.334-.333-.532c-.073-.199-.105-.41-.094-.621l.417-9.636c.026-.438.216-.851.533-1.154s.737-.475 1.176-.48h9.632c.212-.001.421.041.616.124.194.083.37.204.516.357.147.153.26.334.334.532s.107.409.097.621l-.438 9.636c-.024.435-.211.846-.525 1.149s-.731.476-1.167.485z" opacity=".8"/></g><path d="m87.9541 140.462h-9.6362c-.2114.001-.4207-.042-.6151-.124-.1945-.083-.37-.205-.5159-.358s-.2591-.334-.3326-.532c-.0736-.198-.106-.409-.0952-.62l.4168-9.636c.0262-.438.2169-.849.5338-1.152s.7366-.475 1.175-.482h9.6529c.2113-.001.4206.041.6151.124.1944.083.37.205.5158.357.1459.153.2591.334.3327.533.0735.198.1059.409.0951.62l-.4167 9.636c-.0265.44-.2195.854-.54 1.158-.3204.303-.7443.473-1.1855.476z" fill="#407bff"/><path d="m102.663 140.462h-9.6366c-.2114.001-.4207-.042-.6151-.124-.1945-.083-.37-.205-.5159-.358s-.2591-.334-.3326-.532c-.0736-.198-.106-.409-.0952-.62l.4168-9.636c.0253-.438.2156-.85.5328-1.153.3171-.304.7373-.475 1.176-.481h9.6318c.214-.001.425.041.621.124.197.084.374.207.521.361.147.155.26.338.333.539.074.2.105.414.092.627l-.416 9.619c-.025.439-.215.852-.534 1.156-.318.303-.74.474-1.179.478z" fill="#407bff"/><path d="m117.367 140.462h-9.632c-.212.001-.421-.041-.616-.123-.195-.083-.371-.204-.517-.357s-.259-.335-.332-.533c-.074-.198-.106-.41-.094-.621l.417-9.636c.025-.438.215-.85.532-1.153.317-.304.738-.475 1.176-.481h9.632c.212-.001.422.04.616.123.195.083.371.204.517.357s.259.334.332.533c.074.198.106.41.094.621l-.417 9.636c-.025.438-.215.85-.532 1.153-.317.304-.738.475-1.176.481z" fill="#407bff"/><path d="m132.075 140.462h-9.632c-.211.001-.421-.042-.615-.124-.195-.083-.371-.205-.517-.357-.146-.153-.26-.334-.334-.532-.074-.199-.107-.41-.097-.621l.417-9.636c.024-.438.214-.85.53-1.153.317-.303.736-.475 1.175-.481h9.636c.214-.004.427.037.626.119.198.083.377.205.525.36.148.156.263.34.337.541.074.202.105.416.091.631l-.416 9.636c-.03.438-.224.848-.545 1.148-.32.3-.742.468-1.181.469z" fill="#407bff"/><path d="m146.784 140.462h-9.637c-.211.001-.42-.042-.615-.124-.194-.083-.37-.205-.516-.358-.145-.153-.259-.334-.332-.532-.074-.198-.106-.409-.095-.62l.416-9.636c.023-.441.212-.858.53-1.164.319-.307.742-.481 1.183-.487h9.637c.211 0 .42.042.615.125.194.082.37.204.516.357s.259.334.332.532c.074.198.106.409.095.62l-.416 9.636c-.023.442-.212.858-.53 1.165-.318.306-.742.48-1.183.486z" fill="#407bff"/><path d="m161.475 140.462h-9.619c-.212.001-.421-.041-.616-.123-.195-.083-.37-.204-.516-.357s-.26-.335-.333-.533-.105-.41-.094-.621l.417-9.636c.025-.438.216-.85.533-1.153.317-.304.737-.475 1.176-.481h9.632c.211-.001.421.041.615.124.195.083.371.204.517.357s.26.334.334.532.107.41.097.621l-.438 9.636c-.024.438-.214.85-.53 1.153-.317.303-.736.475-1.175.481z" fill="#407bff"/><g fill="#fafafa" opacity=".8"><path d="m87.9541 140.463h-9.6362c-.2114.001-.4207-.042-.6151-.124-.1945-.083-.37-.205-.5159-.358s-.2591-.334-.3326-.532c-.0736-.198-.106-.409-.0952-.62l.4168-9.636c.0262-.438.2169-.849.5338-1.152s.7366-.475 1.175-.482h9.6529c.2113-.001.4206.041.6151.124.1944.083.37.204.5158.357.1459.153.2591.334.3327.532.0735.199.1059.41.0951.621l-.4167 9.636c-.0265.44-.2195.854-.54 1.158-.3204.303-.7443.473-1.1855.476z" opacity=".8"/><path d="m102.663 140.462h-9.6366c-.2114.001-.4207-.042-.6151-.124-.1945-.083-.37-.205-.5159-.358s-.2591-.334-.3326-.532c-.0736-.198-.106-.409-.0952-.62l.4168-9.636c.0253-.438.2156-.85.5328-1.153.3171-.304.7373-.475 1.176-.481h9.6318c.214-.001.425.041.621.124.197.084.374.207.521.361.147.155.26.338.333.539.074.2.105.414.092.627l-.416 9.619c-.025.439-.215.852-.534 1.156-.318.303-.74.474-1.179.478z" opacity=".8"/><path d="m117.367 140.462h-9.632c-.212.001-.421-.041-.616-.123-.195-.083-.37-.204-.517-.357-.146-.153-.259-.335-.332-.533s-.105-.41-.094-.621l.417-9.636c.025-.438.216-.85.533-1.153.317-.304.737-.475 1.176-.481h9.632c.211-.001.421.04.616.123.194.083.37.204.516.357s.259.335.333.533c.073.198.105.41.093.621l-.416 9.636c-.026.438-.216.85-.533 1.153-.317.304-.737.475-1.176.481z" opacity=".8"/><path d="m132.075 140.462h-9.632c-.211.001-.421-.042-.615-.124-.195-.083-.371-.205-.517-.357-.146-.153-.26-.334-.334-.532-.074-.199-.107-.41-.097-.621l.417-9.636c.025-.438.214-.85.53-1.153.317-.303.737-.475 1.175-.481h9.636c.215-.004.428.037.626.119.198.083.377.205.525.361.149.155.263.339.337.54.074.202.105.416.092.631l-.417 9.636c-.03.438-.224.848-.544 1.148-.321.3-.743.468-1.182.469z" opacity=".8"/><path d="m146.784 140.462h-9.636c-.212.001-.421-.042-.615-.124-.195-.083-.37-.205-.516-.358s-.259-.334-.333-.532c-.073-.198-.106-.409-.095-.62l.417-9.636c.022-.441.211-.858.53-1.164.318-.307.741-.481 1.183-.487h9.636c.211 0 .421.042.615.125.194.082.37.204.516.357s.259.334.332.532c.074.198.106.409.096.62l-.417 9.636c-.022.442-.212.858-.53 1.165-.318.306-.741.48-1.183.486z" opacity=".8"/><path d="m161.476 140.462h-9.62c-.211.001-.421-.041-.616-.123-.194-.083-.37-.204-.516-.357s-.259-.335-.333-.533c-.073-.198-.105-.41-.094-.621l.417-9.636c.025-.438.216-.85.533-1.153.317-.304.737-.475 1.176-.481h9.632c.212-.001.421.041.616.124.194.083.37.204.516.357.147.153.26.334.334.532s.107.41.097.621l-.438 9.636c-.024.438-.213.85-.53 1.153-.316.303-.736.475-1.174.481z" opacity=".8"/></g><path d="m87.2871 155.408h-9.6445c-.2115.001-.4211-.041-.6159-.123-.1947-.083-.3705-.204-.5165-.357s-.2592-.335-.3325-.533-.1053-.41-.0939-.621l.4168-9.632c.0253-.438.2156-.85.5327-1.153.3172-.303.7374-.475 1.1761-.481h9.6362c.2115-.001.4211.041.6158.123.1947.083.3705.204.5165.357.1461.153.2592.335.3325.533.0734.199.1053.41.094.621l-.4168 9.632c-.0242.437-.2131.848-.5287 1.152-.3155.303-.7343.475-1.1718.482z" fill="#407bff"/><path d="m101.987 155.408h-9.6359c-.2115.001-.4211-.041-.6159-.123-.1947-.083-.3705-.204-.5165-.357s-.2592-.335-.3325-.533-.1053-.41-.0939-.621l.4168-9.632c.0243-.438.2144-.851.5317-1.154.3173-.304.7381-.475 1.1771-.48h9.6321c.212-.002.422.04.617.122s.372.204.518.357.26.334.334.533c.073.199.105.41.094.622l-.417 9.632c-.023.439-.213.852-.531 1.156-.317.303-.738.474-1.178.478z" fill="#407bff"/><path d="m116.692 155.408h-9.632c-.212.001-.422-.041-.616-.123-.195-.083-.371-.204-.517-.357s-.259-.335-.332-.533c-.074-.198-.106-.41-.094-.621l.417-9.632c.024-.438.214-.851.531-1.154.318-.304.738-.475 1.177-.48h9.67c.212-.001.421.041.616.123.195.083.371.204.518.357.146.153.26.334.333.533.074.198.107.41.096.621l-.438 9.632c-.024.442-.217.858-.539 1.162s-.748.473-1.19.472z" fill="#407bff"/><path d="m131.4 155.408h-9.632c-.212.001-.421-.041-.616-.123-.195-.083-.371-.204-.518-.357-.146-.153-.26-.334-.333-.533-.074-.198-.107-.41-.096-.621l.417-9.632c.023-.438.212-.851.529-1.154.317-.304.737-.475 1.176-.48h9.636c.211-.001.421.041.616.123.194.083.37.204.516.357s.259.335.333.533c.073.199.105.41.094.621l-.417 9.632c-.024.438-.214.85-.53 1.153-.317.303-.737.475-1.175.481z" fill="#407bff"/><path d="m146.109 155.408h-9.641c-.211.001-.421-.041-.616-.123-.194-.083-.37-.204-.516-.357s-.259-.335-.333-.533c-.073-.198-.105-.41-.094-.621l.417-9.632c.026-.438.216-.85.533-1.153s.737-.475 1.176-.481h9.636c.212-.001.421.041.616.123.195.083.371.204.517.357s.259.335.332.533c.073.199.105.41.094.621l-.417 9.632c-.025.437-.215.849-.531 1.152s-.735.475-1.173.482z" fill="#407bff"/><path d="m160.817 155.408h-9.636c-.212.001-.421-.041-.616-.123-.195-.083-.37-.204-.516-.357s-.26-.335-.333-.533-.105-.41-.094-.621l.417-9.632c.024-.438.214-.851.532-1.154.317-.304.738-.475 1.177-.48h9.632c.211-.001.421.041.616.123.195.083.371.204.517.357.147.153.26.334.334.533.074.198.106.41.096.621l-.438 9.632c-.023.435-.21.845-.523 1.149-.313.303-.729.476-1.165.485z" fill="#407bff"/><g fill="#fafafa" opacity=".8"><path d="m87.2871 155.408h-9.6445c-.2115.001-.4211-.04-.6159-.123-.1947-.083-.3705-.204-.5165-.357s-.2592-.335-.3325-.533-.1053-.41-.0939-.621l.4168-9.632c.0253-.438.2156-.85.5327-1.153.3172-.303.7374-.475 1.1761-.481h9.6362c.2115-.001.4211.041.6158.123.1947.083.3705.204.5165.357.1461.153.2592.335.3325.533.0734.199.1053.41.094.621l-.4168 9.632c-.0242.437-.2131.849-.5287 1.152-.3155.303-.7343.475-1.1718.482z" opacity=".8"/><path d="m101.987 155.408h-9.6359c-.2115.001-.4211-.041-.6159-.123-.1947-.083-.3705-.204-.5165-.357s-.2592-.335-.3325-.533-.1053-.41-.0939-.621l.4168-9.632c.0243-.438.2144-.851.5317-1.154.3173-.304.7381-.475 1.1771-.48h9.6321c.212-.002.422.04.617.122s.372.204.518.357.26.334.334.533c.073.199.105.41.094.622l-.417 9.632c-.023.439-.213.852-.531 1.156-.317.303-.738.474-1.178.478z" opacity=".8"/><path d="m116.692 155.408h-9.632c-.212.001-.422-.041-.616-.123-.195-.083-.371-.204-.517-.357s-.259-.335-.332-.533c-.074-.198-.106-.41-.094-.621l.417-9.632c.024-.438.214-.851.531-1.154.318-.304.738-.475 1.177-.48h9.67c.212-.001.421.041.616.123.195.083.371.204.518.357.146.153.26.334.333.533.074.198.107.41.096.621l-.438 9.632c-.024.442-.217.858-.539 1.162s-.748.473-1.19.472z" opacity=".8"/><path d="m131.4 155.408h-9.632c-.212.001-.421-.041-.616-.123-.195-.083-.371-.204-.518-.357-.146-.153-.26-.334-.333-.533-.074-.198-.107-.409-.096-.621l.417-9.632c.023-.438.212-.851.529-1.154.317-.304.737-.475 1.176-.48h9.636c.211-.001.421.041.616.123.194.083.37.204.516.357s.259.335.333.533c.073.199.105.41.094.621l-.417 9.632c-.024.438-.214.85-.53 1.153-.317.303-.737.475-1.175.481z" opacity=".8"/><path d="m146.108 155.408h-9.64c-.212.001-.421-.041-.616-.123-.195-.083-.37-.204-.516-.357s-.26-.335-.333-.533-.105-.41-.094-.621l.417-9.632c.025-.438.216-.85.533-1.153s.737-.475 1.176-.481h9.636c.212-.001.421.041.616.123.195.083.37.204.516.357s.26.335.333.533c.073.199.105.41.094.621l-.417 9.632c-.025.437-.215.849-.531 1.152s-.736.475-1.174.482z" opacity=".8"/><path d="m160.817 155.408h-9.636c-.212.001-.421-.041-.616-.123-.195-.083-.371-.204-.517-.357s-.259-.335-.332-.533c-.074-.198-.106-.41-.094-.621l.417-9.632c.024-.438.214-.851.531-1.154.318-.304.739-.475 1.177-.48h9.632c.212-.001.422.041.617.123.195.083.371.204.517.357.147.153.26.334.334.533.074.198.106.41.095.621l-.437 9.632c-.023.435-.21.846-.523 1.149s-.73.476-1.165.485z" opacity=".8"/></g><path d="m84.5571 104.801c-3.551 0-6.3352-4.13-6.3352-9.4024s2.7842-9.3986 6.3352-9.3986c3.5511 0 6.3394 4.1304 6.3394 9.3986-.0162.2471-.1258.4788-.3065.6481s-.4191.2635-.6667.2635c-.2477 0-.486-.0942-.6667-.2635-.1808-.1693-.2903-.401-.3065-.6481 0-4.0387-2.009-7.4564-4.393-7.4564s-4.3929 3.4177-4.3929 7.4564 2.013 7.4564 4.3929 7.4564c.1332-.009.2667.01.3924.055.1256.045.2407.115.3381.206.0974.092.175.202.2281.324.053.123.0804.255.0804.388 0 .134-.0274.266-.0804.388-.0531.122-.1307.233-.2281.324s-.2125.161-.3381.206c-.1257.045-.2592.064-.3924.055z" fill="#407bff"/><path d="m99.2656 104.801c-3.551 0-6.3352-4.13-6.3352-9.4024s2.7842-9.3986 6.3352-9.3986c3.5514 0 6.3604 4.1304 6.3604 9.3986-.016.2471-.126.4788-.307.6481-.18.1693-.419.2635-.666.2635-.248 0-.486-.0942-.667-.2635s-.29-.401-.307-.6481c0-4.0387-2.009-7.4564-4.3925-7.4564-2.3841 0-4.393 3.4177-4.393 7.4564s2.0131 7.4564 4.393 7.4564c.2471.016.4788.126.648.306.1695.181.2635.42.2635.667 0 .248-.094.486-.2635.667-.1692.181-.4009.29-.648.306z" fill="#407bff"/><path d="m113.962 104.801c-3.556 0-6.34-4.13-6.34-9.4024s2.784-9.3986 6.34-9.3986c3.555 0 6.335 4.1304 6.335 9.3986 0 .2575-.102.5046-.285.6867-.182.1821-.429.2844-.686.2844-.258 0-.505-.1023-.687-.2844s-.284-.4292-.284-.6867c0-4.0387-2.013-7.4564-4.393-7.4564s-4.393 3.4177-4.393 7.4564 2.013 7.4564 4.393 7.4564c.247.016.478.126.648.306.169.181.263.42.263.667 0 .248-.094.486-.263.667-.17.181-.401.29-.648.306z" fill="#407bff"/><path d="m128.683 104.801c-3.556 0-6.34-4.13-6.34-9.4024s2.784-9.3986 6.34-9.3986c3.555 0 6.335 4.1304 6.335 9.3986 0 .2575-.102.5046-.285.6867-.182.1821-.429.2844-.686.2844-.258 0-.505-.1023-.687-.2844s-.284-.4292-.284-.6867c0-4.0387-2.014-7.4564-4.393-7.4564-2.38 0-4.393 3.4177-4.393 7.4564s2.009 7.4564 4.393 7.4564c.247.016.478.126.648.306.169.181.263.42.263.667 0 .248-.094.486-.263.667-.17.181-.401.29-.648.306z" fill="#407bff"/><path d="m143.387 104.801c-3.551 0-6.335-4.13-6.335-9.4024s2.784-9.3986 6.335-9.3986 6.339 4.1304 6.339 9.3986c-.016.2471-.125.4788-.306.6481s-.419.2635-.667.2635-.486-.0942-.667-.2635c-.18-.1693-.29-.401-.306-.6481 0-4.0387-2.009-7.4564-4.393-7.4564s-4.393 3.4177-4.393 7.4564 2.013 7.4564 4.393 7.4564c.133-.009.267.01.392.055.126.045.241.115.338.206.098.092.175.202.229.324.053.123.08.255.08.388 0 .134-.027.266-.08.388-.054.122-.131.233-.229.324-.097.091-.212.161-.338.206-.125.045-.259.064-.392.055z" fill="#407bff"/><path d="m158.095 104.801c-3.551 0-6.335-4.13-6.335-9.4024s2.784-9.3986 6.335-9.3986 6.34 4.1304 6.34 9.3986c-.016.2471-.126.4788-.307.6481-.18.1693-.419.2635-.666.2635-.248 0-.486-.0942-.667-.2635s-.29-.401-.307-.6481c0-4.0387-2.013-7.4564-4.393-7.4564-2.379 0-4.393 3.4177-4.393 7.4564s2.014 7.4564 4.393 7.4564c.248.016.479.126.649.306.169.181.263.42.263.667 0 .248-.094.486-.263.667-.17.181-.401.29-.649.306z" fill="#407bff"/><g fill="#000" opacity=".3"><path d="m84.5571 104.801c-3.551 0-6.3352-4.13-6.3352-9.4024s2.7842-9.3986 6.3352-9.3986c3.5511 0 6.3394 4.1304 6.3394 9.3986-.0162.2471-.1258.4788-.3065.6481s-.4191.2635-.6667.2635c-.2477 0-.486-.0942-.6667-.2635-.1808-.1693-.2903-.401-.3065-.6481 0-4.0387-2.009-7.4564-4.393-7.4564s-4.3929 3.4177-4.3929 7.4564 2.013 7.4564 4.3929 7.4564c.1332-.009.2667.01.3924.055.1256.045.2407.115.3381.206.0974.092.175.202.2281.324.053.123.0804.255.0804.388 0 .134-.0274.266-.0804.388-.0531.122-.1307.233-.2281.324s-.2125.161-.3381.206c-.1257.045-.2592.064-.3924.055z" opacity=".3"/><path d="m99.2656 104.801c-3.551 0-6.3352-4.13-6.3352-9.4024s2.7842-9.3986 6.3352-9.3986c3.5514 0 6.3604 4.1304 6.3604 9.3986-.016.2471-.126.4788-.307.6481-.18.1693-.419.2635-.666.2635-.248 0-.486-.0942-.667-.2635s-.29-.401-.307-.6481c0-4.0387-2.009-7.4564-4.3925-7.4564-2.3841 0-4.393 3.4177-4.393 7.4564s2.0131 7.4564 4.393 7.4564c.2471.016.4788.126.648.306.1695.181.2635.42.2635.667 0 .248-.094.486-.2635.667-.1692.181-.4009.29-.648.306z" opacity=".3"/><path d="m113.961 104.801c-3.555 0-6.339-4.13-6.339-9.4024s2.784-9.3986 6.339-9.3986c3.556 0 6.336 4.1304 6.336 9.3986 0 .2575-.103.5046-.285.6867s-.429.2844-.686.2844c-.258 0-.505-.1023-.687-.2844s-.285-.4292-.285-.6867c0-4.0387-2.013-7.4564-4.393-7.4564-2.379 0-4.393 3.4177-4.393 7.4564s2.014 7.4564 4.393 7.4564c.248.016.479.126.649.306.169.181.263.42.263.667 0 .248-.094.486-.263.667-.17.181-.401.29-.649.306z" opacity=".3"/><path d="m128.683 104.801c-3.556 0-6.34-4.13-6.34-9.4024s2.784-9.3986 6.34-9.3986c3.555 0 6.335 4.1304 6.335 9.3986 0 .2575-.102.5046-.285.6867-.182.1821-.429.2844-.686.2844-.258 0-.505-.1023-.687-.2844s-.284-.4292-.284-.6867c0-4.0387-2.014-7.4564-4.393-7.4564-2.38 0-4.393 3.4177-4.393 7.4564s2.009 7.4564 4.393 7.4564c.247.016.478.126.648.306.169.181.263.42.263.667 0 .248-.094.486-.263.667-.17.181-.401.29-.648.306z" opacity=".3"/><path d="m143.387 104.801c-3.551 0-6.335-4.13-6.335-9.4024s2.784-9.3986 6.335-9.3986 6.339 4.1304 6.339 9.3986c-.016.2471-.126.4788-.306.6481-.181.1693-.42.2635-.667.2635-.248 0-.486-.0942-.667-.2635s-.29-.401-.306-.6481c0-4.0387-2.009-7.4564-4.393-7.4564s-4.393 3.4177-4.393 7.4564 2.013 7.4564 4.393 7.4564c.133-.009.266.01.392.055s.241.115.338.206c.098.092.175.202.228.324.053.123.081.255.081.388 0 .134-.028.266-.081.388s-.13.233-.228.324c-.097.091-.212.161-.338.206s-.259.064-.392.055z" opacity=".3"/><path d="m158.095 104.801c-3.551 0-6.335-4.13-6.335-9.4024s2.784-9.3986 6.335-9.3986 6.34 4.1304 6.34 9.3986c-.017.2471-.126.4788-.307.6481s-.419.2635-.667.2635c-.247 0-.486-.0942-.666-.2635-.181-.1693-.291-.401-.307-.6481 0-4.0387-2.013-7.4564-4.393-7.4564s-4.393 3.4177-4.393 7.4564 2.013 7.4564 4.393 7.4564c.247.016.479.126.648.306.17.181.264.42.264.667 0 .248-.094.486-.264.667-.169.181-.401.29-.648.306z" opacity=".3"/></g><path d="m129.666 126.049c-3.401-.675-7.219.113-8.581 3.697-1.097 2.884.308 6.01 3.334 6.773 2.667.671 7.269-.15 8.219-3.226 1.088-3.518-3.334-4.66-5.814-4.868-.746-.063-.742 1.104 0 1.167 1.129.096 2.421.158 3.422.779 2.084 1.305 1.225 3.397-.551 4.397-1.775 1.001-4.497 1.251-6.251.142-1.918-1.221-1.98-3.905-.834-5.656 1.505-2.313 4.251-2.571 6.727-2.084.734.146 1.046-.979.308-1.125z" fill="#407bff"/><path d="m129.666 126.049c-3.401-.675-7.219.113-8.581 3.697-1.097 2.884.308 6.01 3.334 6.773 2.667.671 7.269-.15 8.219-3.226 1.088-3.518-3.334-4.66-5.814-4.868-.746-.063-.742 1.104 0 1.167 1.129.096 2.421.158 3.422.779 2.084 1.305 1.225 3.397-.551 4.397-1.775 1.001-4.497 1.251-6.251.142-1.918-1.221-1.98-3.905-.834-5.656 1.505-2.313 4.251-2.571 6.727-2.084.734.146 1.046-.979.308-1.125z" fill="#fafafa" opacity=".1"/><path d="m92.1427 112.624c3.2525 4.312 6.8787 8.329 10.8363 12.004.55.513 1.38-.313.834-.834-3.8902-3.602-7.4564-7.539-10.6575-11.766-.446-.591-1.4588 0-1.0045.588z" fill="#407bff"/><path d="m93.3472 124.14c2.4591-4.372 6.7648-8.102 10.8368-10.957.608-.417.029-1.442-.588-1.009-4.2345 2.976-8.6858 6.819-11.2532 11.375-.0705.132-.087.287-.0462.432.0408.144.1359.268.2654.344.1294.076.2833.1.4296.065.1463-.034.2737-.124.3556-.25z" fill="#407bff"/><g fill="#000" opacity=".2"><path d="m92.1427 112.624c3.2525 4.312 6.8787 8.329 10.8363 12.004.55.513 1.38-.313.834-.834-3.8902-3.602-7.4564-7.539-10.6575-11.766-.446-.591-1.4588 0-1.0045.588z" opacity=".2"/><path d="m93.347 124.14c2.459-4.372 6.764-8.102 10.836-10.957.609-.417.03-1.442-.587-1.009-4.2348 2.976-8.6861 6.819-11.2535 11.375-.0704.132-.087.287-.0461.432.0408.144.1358.268.2653.344s.2834.1.4296.065c.1463-.034.2737-.124.3557-.25z" opacity=".2"/></g><path d="m138.498 116.355h7.606c.146-.013.282-.079.381-.187s.154-.248.154-.395c0-.146-.055-.287-.154-.394-.099-.108-.235-.175-.381-.187h-7.606c-.146.012-.281.079-.38.187-.099.107-.154.248-.154.394 0 .147.055.287.154.395s.234.174.38.187z" fill="#407bff"/><path d="m138.41 118.518h4.41c.155 0 .303-.062.413-.171.109-.109.171-.258.171-.413 0-.154-.062-.303-.171-.412-.11-.11-.258-.171-.413-.171h-4.41c-.154 0-.303.061-.412.171-.11.109-.171.258-.171.412 0 .155.061.304.171.413.109.109.258.171.412.171z" fill="#407bff"/><g fill="#fafafa" opacity=".1"><path d="m138.498 116.355h7.606c.146-.013.282-.079.381-.187s.153-.248.153-.395c0-.146-.054-.287-.153-.394-.099-.108-.235-.175-.381-.187h-7.606c-.146.012-.282.079-.381.187-.098.107-.153.248-.153.394 0 .147.055.287.153.395.099.108.235.174.381.187z" opacity=".1"/><path d="m138.41 118.518h4.41c.155 0 .303-.062.413-.171.109-.109.171-.258.171-.413 0-.154-.062-.303-.171-.412-.11-.11-.258-.171-.413-.171h-4.41c-.154 0-.303.061-.412.171-.11.109-.171.258-.171.412 0 .155.061.304.171.413.109.109.258.171.412.171z" opacity=".1"/></g><path d="m92.9387 146.213h6.5228c.1547 0 .3031-.061.4126-.17.1094-.11.1709-.258.1709-.413s-.0615-.303-.1709-.413c-.1095-.109-.2579-.171-.4126-.171h-6.5228c-.1547 0-.3031.062-.4126.171-.1094.11-.1709.258-.1709.413s.0615.303.1709.413c.1095.109.2579.17.4126.17z" fill="#407bff"/><path d="m92.7053 148.718h8.4607c.155 0 .303-.061.413-.171.109-.109.171-.257.171-.412s-.062-.303-.171-.413c-.11-.109-.258-.171-.413-.171h-8.4607c-.1547 0-.3031.062-.4126.171-.1094.11-.1709.258-.1709.413s.0615.303.1709.412c.1095.11.2579.171.4126.171z" fill="#407bff"/><path d="m92.7053 151.298h4.2304c.1548 0 .3032-.061.4126-.171.1095-.109.1709-.257.1709-.412s-.0614-.303-.1709-.413c-.1094-.109-.2578-.171-.4126-.171h-4.2304c-.1547 0-.3031.062-.4126.171-.1094.11-.1709.258-.1709.413s.0615.303.1709.412c.1095.11.2579.171.4126.171z" fill="#407bff"/><g fill="#fafafa" opacity=".1"><path d="m92.9387 146.213h6.5228c.1547 0 .3031-.061.4126-.17.1094-.11.1709-.258.1709-.413s-.0615-.303-.1709-.413c-.1095-.109-.2579-.171-.4126-.171h-6.5228c-.1547 0-.3031.062-.4126.171-.1094.11-.1709.258-.1709.413s.0615.303.1709.413c.1095.109.2579.17.4126.17z" opacity=".1"/><path d="m92.7053 148.718h8.4607c.155 0 .303-.061.413-.171.109-.109.171-.257.171-.412s-.062-.303-.171-.413c-.11-.109-.258-.171-.413-.171h-8.4607c-.1547 0-.3031.062-.4126.171-.1094.11-.1709.258-.1709.413s.0615.303.1709.412c.1095.11.2579.171.4126.171z" opacity=".1"/><path d="m92.7053 151.298h4.2304c.1548 0 .3032-.061.4126-.171.1095-.109.1709-.257.1709-.412s-.0614-.303-.1709-.413c-.1094-.109-.2578-.171-.4126-.171h-4.2304c-.1547 0-.3031.062-.4126.171-.1094.11-.1709.258-.1709.413s.0615.303.1709.412c.1095.11.2579.171.4126.171z" opacity=".1"/></g></svg>