<svg width="50" height="68" viewBox="0 0 50 68" fill="none" xmlns="http://www.w3.org/2000/svg">
<path d="M16.0885 27.2065L20.9358 5.46204H6.41531C6.09708 5.46204 5.83911 5.72001 5.83911 6.03824V25.0287L16.0885 27.2065Z" fill="#AAD880"/>
<path d="M12.1681 9.55867C12.0324 10.7276 11.1048 11.6551 9.93576 11.791C9.76456 11.8108 9.63879 11.9619 9.63879 12.1343V25.0288L14.0264 21.074L18.7418 9.26184H12.5113C12.339 9.26171 12.1879 9.38748 12.1681 9.55867Z" fill="#D8F1A0"/>
<path d="M41.1466 25.0287L47.5536 13.9315C47.7128 13.6558 47.6184 13.3034 47.3427 13.1443L24.7098 0.077303C24.4343 -0.0818123 24.0818 0.0125804 23.9227 0.288144L9.63879 25.0287L27.1437 26.6922L41.1466 25.0287Z" fill="#C8EA73"/>
<path d="M40.1636 13.387L28.0895 6.41604C27.9403 6.32991 27.7466 6.36326 27.6438 6.50163C26.9417 7.44608 25.6747 7.78558 24.5945 7.31874C24.443 7.25323 24.2482 7.32465 24.1657 7.46748L14.0267 25.0287L31.9701 26.6922L36.7593 25.0287L41.2152 17.311C41.3013 17.1617 41.268 16.9681 41.1296 16.8653C40.1852 16.1632 39.8457 14.8961 40.3125 13.8159C40.3808 13.6576 40.3129 13.4732 40.1636 13.387Z" fill="#E2F4B4"/>
<path d="M31.97 25.0287C31.149 23.2354 29.7826 21.6707 27.9445 20.6094C23.2364 17.8912 17.2161 19.5043 14.4979 24.2124C14.3431 24.4805 14.2024 24.7529 14.0754 25.0287H31.97Z" fill="#C8EA73"/>
<path d="M48.6316 31.2463C48.6316 27.8125 45.8479 25.0287 42.4141 25.0287H1.51396C0.677815 25.0287 0 25.7066 0 26.5427V65.703C0 66.5392 0.677815 67.217 1.51396 67.217H42.4139C45.8478 67.217 48.6315 64.4333 48.6315 60.9994V31.2463H48.6316Z" fill="#D09080"/>
<path d="M42.4144 64.1264H3.3755C2.81518 64.1264 2.36121 63.6723 2.36121 63.1121C2.36121 62.5519 2.81531 62.0978 3.3755 62.0978H42.4144C43.0194 62.0978 43.5114 61.605 43.5114 60.9994V54.9735C43.5114 54.4132 43.9655 53.9592 44.5257 53.9592C45.0859 53.9592 45.54 54.4133 45.54 54.9735V60.9991C45.5401 62.7236 44.1379 64.1264 42.4144 64.1264ZM45.5401 37.2712V31.2456C45.5401 29.522 44.1379 28.1198 42.4144 28.1198H3.3755C2.81518 28.1198 2.36121 28.5739 2.36121 29.134C2.36121 29.6944 2.81531 30.1483 3.3755 30.1483H42.4144C43.0194 30.1483 43.5114 30.6405 43.5114 31.2455V37.2712C43.5114 37.8316 43.9655 38.2855 44.5257 38.2855C45.0859 38.2855 45.5401 37.8316 45.5401 37.2712Z" fill="#C67D66"/>
<path d="M42.4141 25.0287H42.1351C42.8206 26.0282 43.2218 27.2378 43.2218 28.5414V53.9373C43.2218 59.7776 38.4874 64.5122 32.647 64.5122H0V65.7032C0 66.5393 0.677815 67.2171 1.51396 67.2171H42.4139C45.8478 67.2171 48.6315 64.4334 48.6315 60.9996V31.2463C48.6316 27.8123 45.8479 25.0287 42.4141 25.0287Z" fill="#C67D66"/>
<path d="M45.5402 60.9992V54.9735C45.5402 54.4131 45.0861 53.9592 44.5259 53.9592C43.9657 53.9592 43.5116 54.4133 43.5116 54.9735V60.9991C43.5116 61.6048 43.0194 62.0975 42.4146 62.0975H39.3733C38.2493 63.0251 36.9303 63.7248 35.4871 64.1263H42.4146C44.138 64.1264 45.5402 62.7236 45.5402 60.9992Z" fill="#BE694F"/>
<path d="M43.2139 28.2234C43.2191 28.3287 43.2219 28.4347 43.2219 28.5413V30.5037C43.4016 30.6992 43.5115 30.9598 43.5115 31.2456V37.2712C43.5115 37.8315 43.9656 38.2855 44.5258 38.2855C45.086 38.2855 45.5401 37.8314 45.5401 37.2712V31.2456C45.5402 29.7982 44.5514 28.5775 43.2139 28.2234Z" fill="#BE694F"/>
<path d="M49.274 51.5983H40.2828C37.2991 51.5983 34.8805 49.1796 34.8805 46.196V46.0496C34.8805 43.066 37.2993 40.6473 40.2828 40.6473H49.274C49.6749 40.6473 50 40.9724 50 41.3733V50.8722C50 51.2733 49.6749 51.5983 49.274 51.5983Z" fill="#E2BCAF"/>
<path d="M40.356 48.1773C41.4906 48.1773 42.4104 47.2575 42.4104 46.1228C42.4104 44.9882 41.4906 44.0684 40.356 44.0684C39.2213 44.0684 38.3015 44.9882 38.3015 46.1228C38.3015 47.2575 39.2213 48.1773 40.356 48.1773Z" fill="#756E78"/>
</svg>
