<svg width="20" height="15" viewBox="0 0 20 15" fill="none" xmlns="http://www.w3.org/2000/svg">
<path d="M19.5833 11.6666H18.3333V2.49993C18.3333 1.58075 17.5859 0.833252 16.6666 0.833252H3.33332C2.41414 0.833252 1.66664 1.58071 1.66664 2.49993V11.6666H0.416641C0.186367 11.6666 0 11.8529 0 12.0833V12.4999C0 13.4191 0.747461 14.1666 1.66668 14.1666H18.3334C19.2525 14.1666 20 13.4191 20 12.4999V12.0833C20 11.8529 19.8136 11.6666 19.5833 11.6666ZM2.5 2.49993C2.5 2.04056 2.87395 1.66661 3.33332 1.66661H16.6666C17.126 1.66661 17.5 2.04056 17.5 2.49993V11.6666H12.0833H7.91668H2.5V2.49993ZM18.3333 13.3333H1.66668C1.2073 13.3333 0.833359 12.9593 0.833359 12.4999H2.08336H7.74414L8.03875 12.7945C8.11688 12.8727 8.22266 12.9166 8.33336 12.9166H11.6667C11.7773 12.9166 11.8832 12.8727 11.9613 12.7945L12.2559 12.4999H17.9167H19.1667C19.1667 12.9593 18.7927 13.3333 18.3333 13.3333Z" fill="black"/>
</svg>
