<svg width="82" height="82" viewBox="0 0 82 82" fill="none" xmlns="http://www.w3.org/2000/svg">
<path d="M40.7481 20.374C38.2295 20.374 35.7676 21.1209 33.6735 22.5201C31.5794 23.9193 29.9473 25.9081 28.9835 28.2349C28.0197 30.5617 27.7675 33.122 28.2588 35.5922C28.7502 38.0623 29.963 40.3313 31.7438 42.1121C33.5247 43.893 35.7937 45.1058 38.2638 45.5971C40.7339 46.0885 43.2943 45.8363 45.6211 44.8725C47.9479 43.9087 49.9367 42.2766 51.3359 40.1825C52.7351 38.0884 53.482 35.6264 53.482 33.1079C53.482 29.7307 52.1404 26.4918 49.7523 24.1037C47.3642 21.7156 44.1253 20.374 40.7481 20.374Z" fill="white"/>
<path d="M40.7479 5.09375C33.6961 5.09375 26.8026 7.18487 20.9391 11.1027C15.0757 15.0205 10.5057 20.589 7.8071 27.1041C5.10847 33.6192 4.40238 40.7882 5.77813 47.7046C7.15389 54.621 10.5497 60.9741 15.5361 65.9605C20.5225 70.9469 26.8756 74.3427 33.792 75.7185C40.7084 77.0942 47.8774 76.3881 54.3925 73.6895C60.9076 70.9909 66.4761 66.4209 70.3939 60.5575C74.3117 54.694 76.4028 47.8005 76.4028 40.7487C76.3921 31.2957 72.6321 22.233 65.9479 15.5487C59.2636 8.86449 50.2009 5.10453 40.7479 5.09375V5.09375ZM61.1018 63.4812C61.051 60.1407 59.69 56.9538 57.312 54.6072C54.9339 52.2606 51.7292 50.9421 48.3883 50.9358H33.1076C29.7667 50.9421 26.562 52.2606 24.1839 54.6072C21.8059 56.9538 20.4448 60.1407 20.3941 63.4812C15.7757 59.3573 12.5188 53.9279 11.0546 47.9119C9.59049 41.8959 9.9882 35.577 12.1951 29.7921C14.402 24.0071 18.3139 19.0289 23.413 15.5166C28.512 12.0043 34.5576 10.1237 40.7492 10.1237C46.9408 10.1237 52.9864 12.0043 58.0855 15.5166C63.1845 19.0289 67.0965 24.0071 69.3034 29.7921C71.5102 35.577 71.9079 41.8959 70.4438 47.9119C68.9797 53.9279 65.7228 59.3573 61.1043 63.4812H61.1018Z" fill="white"/>
</svg>
 