<svg fill="none" height="29" viewBox="0 0 29 29" width="29" xmlns="http://www.w3.org/2000/svg" xmlns:xlink="http://www.w3.org/1999/xlink"><clipPath id="a"><path d="m7 7h15v15h-15z"/></clipPath><circle cx="14.5" cy="14.5" fill="#ff5f5f" opacity=".8" r="14.5"/><g clip-path="url(#a)" fill="#fff"><path d="m21.375 12.435c-.3456 0-.625-.28-.625-.625v-2.9625c0-.32937-.2681-.5975-.5969-.5975h-2.9625c-.3456 0-.625-.28-.625-.625s.2794-.625.625-.625h2.9625c1.0188 0 1.8469.82875 1.8469 1.8475v2.9625c0 .345-.2794.625-.625.625z"/><path d="m7.625 12.435c-.34562 0-.625-.28-.625-.625v-2.9625c0-1.01875.82812-1.8475 1.84687-1.8475h2.96253c.3456 0 .625.28.625.625s-.2794.625-.625.625h-2.96253c-.32875 0-.59687.26813-.59687.5975v2.9625c0 .345-.27938.625-.625.625z"/><path d="m20.1531 22h-2.9625c-.3456 0-.625-.28-.625-.625s.2794-.625.625-.625h2.9625c.3288 0 .5969-.2681.5969-.5975v-2.9625c0-.345.2794-.625.625-.625s.625.28.625.625v2.9625c0 1.0188-.8281 1.8475-1.8469 1.8475z"/><path d="m11.8094 22h-2.96253c-1.01875 0-1.84687-.8287-1.84687-1.8475v-2.9625c0-.345.27938-.625.625-.625s.625.28.625.625v2.9625c0 .3294.26812.5975.59687.5975h2.96253c.3456 0 .625.28.625.625s-.2794.625-.625.625z"/><path d="m12.9237 13.9744h-3.1112c-.34562 0-.625-.28-.625-.625v-3.5369c0-.345.27938-.625.625-.625h3.1112c.3457 0 .625.28.625.625v3.5369c0 .345-.28.625-.625.625zm-2.4862-1.25h1.8612v-2.2869h-1.8612z"/><path d="m19.1875 19.8125h-2.9687c-.3457 0-.625-.28-.625-.625v-1.9887c0-.345.2793-.625.625-.625.3456 0 .625.28.625.625v1.3637h1.7187v-1.875h-.7387c-.3457 0-.625-.28-.625-.625s.2793-.625.625-.625h1.3637c.3456 0 .625.28.625.625v3.125c0 .345-.2794.625-.625.625z"/><path d="m19.1875 12.9944h-2.5569c-.3456 0-.625-.28-.625-.625v-2.5569c0-.345.2794-.625.625-.625h2.5569c.3456 0 .625.28.625.625v2.5569c0 .345-.2794.625-.625.625zm-1.9319-1.25h1.3069v-1.3069h-1.3069z"/><path d="m14.7987 15.835h-4.9862c-.34563 0-.625-.28-.625-.625s.27937-.625.625-.625h4.3612v-4.2044c0-.345.2794-.62497.625-.62497.3457 0 .625.27997.625.62497v4.8294c0 .345-.28.625-.625.625z"/><path d="m16.5312 15.6787c-.3456 0-.625-.28-.625-.625v-.8518c0-.345.2794-.625.625-.625h2.8125c.3457 0 .625.28.625.625s-.2793.625-.625.625h-2.1875v.2268c0 .345-.2793.625-.625.625z"/><path d="m14.5137 19.0006c-.3456 0-.625-.28-.625-.625v-1.42c0-.345.2794-.625.625-.625.3457 0 .625.28.625.625v1.42c0 .345-.2793.625-.625.625z"/><path d="m12.7812 19.8125h-2.9687c-.34562 0-.625-.28-.625-.625v-2.2725c0-.345.27938-.625.625-.625h2.9687c.3457 0 .625.28.625.625v2.2725c0 .345-.2793.625-.625.625zm-2.3437-1.25h1.7187v-1.0225h-1.7187z"/></g></svg>