<svg width="14" height="14" viewBox="0 0 14 14" fill="none" xmlns="http://www.w3.org/2000/svg">
<rect width="14" height="14" fill="#EF5555"/>
<g clip-path="url(#clip0_1588_6334)">
<path d="M7.27875 1.48035C7.27875 1.48035 6.975 1.63536 6.67156 1.86364C6.51985 1.97778 6.36628 2.11021 6.24488 2.26271C6.12347 2.4152 6.02452 2.59628 6.03956 2.80801C6.0563 3.04332 6.21581 3.21857 6.38597 3.32364C6.5561 3.42868 6.7493 3.49225 6.93124 3.55494C7.11321 3.61764 7.28398 3.67946 7.39231 3.74638C7.50066 3.81327 7.53415 3.8566 7.53956 3.93301C7.5402 3.94168 7.52977 3.98799 7.47832 4.05261C7.42688 4.11723 7.34412 4.1916 7.25754 4.25675C7.08438 4.387 6.90375 4.48035 6.90375 4.48035L7.09617 4.85572C7.09617 4.85572 7.30303 4.75039 7.51116 4.59383C7.61522 4.51555 7.72153 4.42445 7.80837 4.31539C7.89521 4.20629 7.97227 4.07071 7.96036 3.90306C7.94363 3.66775 7.78411 3.4925 7.61395 3.38743C7.44382 3.28236 7.25063 3.21882 7.06868 3.15613C6.88671 3.09343 6.71595 3.0316 6.60762 2.96469C6.49927 2.89778 6.46578 2.85446 6.46036 2.77806C6.45661 2.72528 6.48888 2.63349 6.57488 2.52547C6.66089 2.41742 6.79092 2.30167 6.92517 2.20067C7.19363 1.99871 7.47117 1.85572 7.47117 1.85572L7.27875 1.48035ZM4.27875 2.60535C4.27875 2.60535 3.975 2.76036 3.67156 2.98864C3.51985 3.10278 3.36628 3.23521 3.24488 3.38771C3.12347 3.5402 3.02452 3.72128 3.03956 3.93301C3.0563 4.16832 3.21581 4.34357 3.38597 4.44864C3.5561 4.55368 3.7493 4.61725 3.93124 4.67994C4.11321 4.74264 4.28398 4.80446 4.39231 4.87138C4.50066 4.93827 4.53415 4.9816 4.53956 5.05801C4.5402 5.06668 4.52977 5.113 4.47832 5.17761C4.42688 5.24223 4.34412 5.3166 4.25754 5.38175C4.08438 5.512 3.90375 5.60535 3.90375 5.60535L4.09617 5.98072C4.09617 5.98072 4.30303 5.87539 4.51116 5.71883C4.61522 5.64055 4.72153 5.54945 4.80837 5.44037C4.89521 5.33129 4.97227 5.19568 4.96036 5.02806C4.94363 4.79275 4.78411 4.6175 4.61396 4.51243C4.44382 4.40736 4.25063 4.34382 4.06868 4.28113C3.88671 4.21843 3.71595 4.1566 3.60762 4.08969C3.49927 4.02278 3.46578 3.97946 3.46036 3.90306C3.45661 3.85028 3.48888 3.7585 3.57488 3.65047C3.66089 3.54242 3.79092 3.42667 3.92517 3.32567C4.19363 3.12371 4.47117 2.98072 4.47117 2.98072L4.27875 2.60535ZM10.2788 2.60535C10.2788 2.60535 9.975 2.76036 9.67156 2.98864C9.51985 3.10278 9.36628 3.23521 9.24488 3.38771C9.12347 3.5402 9.02452 3.72128 9.03956 3.93301C9.0563 4.16832 9.21581 4.34357 9.38597 4.44864C9.5561 4.55368 9.7493 4.61725 9.93124 4.67994C10.1132 4.74264 10.284 4.80446 10.3923 4.87138C10.5007 4.93827 10.5342 4.9816 10.5396 5.05801C10.5402 5.06668 10.5298 5.113 10.4783 5.17761C10.4269 5.24223 10.3441 5.3166 10.2575 5.38175C10.0844 5.512 9.90375 5.60535 9.90375 5.60535L10.0962 5.98072C10.0962 5.98072 10.303 5.87539 10.5112 5.71883C10.6152 5.64055 10.7215 5.54945 10.8084 5.44037C10.8952 5.33129 10.9723 5.19568 10.9604 5.02806C10.9436 4.79275 10.7841 4.6175 10.614 4.51243C10.4438 4.40736 10.2506 4.34382 10.0687 4.28113C9.88671 4.21843 9.71595 4.1566 9.60762 4.08969C9.49927 4.02278 9.46577 3.97946 9.46036 3.90306C9.45661 3.85028 9.48888 3.7585 9.57488 3.65047C9.66089 3.54242 9.79092 3.42667 9.92517 3.32567C10.1936 3.12371 10.4712 2.98072 10.4712 2.98072L10.2788 2.60535ZM6.99996 5.39455C6.69528 5.39455 6.48921 5.53316 6.33171 5.76941C6.26651 5.86721 6.21389 5.98269 6.17433 6.10843C6.43964 6.07077 6.71503 6.05089 6.99996 6.05089C7.28489 6.05089 7.56026 6.07077 7.82559 6.10843C7.78603 5.98269 7.73342 5.86721 7.66821 5.76941C7.51071 5.53316 7.30465 5.39455 6.99996 5.39455ZM6.99996 6.47268C4.20089 6.47268 2.4589 8.48921 2.34668 10.5509H11.6532C11.541 8.48921 9.79901 6.47265 6.99996 6.47265V6.47268ZM1.5241 10.6595L1.22583 10.9578C1.65052 11.3825 2.12496 11.3946 2.49996 11.3946H11.5C11.875 11.3946 12.3494 11.3825 12.7741 10.9578L12.4758 10.6595C12.1505 10.9848 11.875 10.9728 11.5 10.9728H2.49996C2.12496 10.9728 1.84938 10.9848 1.5241 10.6595ZM3.64404 11.8164L4.11284 12.5196H9.88709L10.3559 11.8164H3.64404Z" fill="white"/>
</g>
<defs>
<clipPath id="clip0_1588_6334">
<rect width="12" height="12" fill="white" transform="translate(1 1)"/>
</clipPath>
</defs>
</svg>
